  0
SECTION
  2
HEADER
  9
$ACADVER
  1
AC1015
  9
$ACADMAINTVER
 70
     6
  9
$DWGCODEPAGE
  3
ANSI_1252
  9
$INSBASE
 10
0.0
 20
0.0
 30
0.0
  9
$EXTMIN
 10
0.0
 20
0.0
 30
0.0
  9
$EXTMAX
 10
420.0
 20
297.0
 30
0.0
  9
$LIMMIN
 10
0.0
 20
0.0
  9
$LIMMAX
 10
420.0
 20
297.0
  9
$ORTHOMODE
 70
     0
  9
$REGENMODE
 70
     1
  9
$FILLMODE
 70
     1
  9
$QTEXTMODE
 70
     0
  9
$MIRRTEXT
 70
     1
  9
$LTSCALE
 40
1.0
  9
$ATTMODE
 70
     1
  9
$TEXTSIZE
 40
3.5
  9
$TRACEWID
 40
1.0
  9
$TEXTSTYLE
  7
Standard
  9
$CLAYER
  8
0
  9
$CELTYPE
  6
ByLayer
  9
$CECOLOR
 62
   256
  9
$CELTSCALE
 40
1.0
  9
$DISPSILH
 70
     0
  9
$DIMSCALE
 40
1.0
  9
$DIMASZ
 40
3.302
  9
$DIMEXO
 40
1.0
  9
$DIMDLI
 40
3.75
  9
$DIMRND
 40
0.0
  9
$DIMDLE
 40
0.0
  9
$DIMEXE
 40
1.0
  9
$DIMTP
 40
0.0
  9
$DIMTM
 40
0.0
  9
$DIMTXT
 40
3.5
  9
$DIMCEN
 40
2.5
  9
$DIMTSZ
 40
0.0
  9
$DIMTOL
 70
     0
  9
$DIMLIM
 70
     0
  9
$DIMTIH
 70
     1
  9
$DIMTOH
 70
     1
  9
$DIMSE1
 70
     0
  9
$DIMSE2
 70
     0
  9
$DIMTAD
 70
     1
  9
$DIMZIN
 70
     1
  9
$DIMBLK
  1

  9
$DIMASO
 70
     1
  9
$DIMSHO
 70
     1
  9
$DIMPOST
  1

  9
$DIMAPOST
  1

  9
$DIMALT
 70
     0
  9
$DIMALTD
 70
     3
  9
$DIMALTF
 40
0.0393700787
  9
$DIMLFAC
 40
2.0
  9
$DIMTOFL
 70
     1
  9
$DIMTVP
 40
0.0
  9
$DIMTIX
 70
     0
  9
$DIMSOXD
 70
     0
  9
$DIMSAH
 70
     0
  9
$DIMBLK1
  1

  9
$DIMBLK2
  1

  9
$DIMSTYLE
  2
ISO-25
  9
$DIMCLRD
 70
     0
  9
$DIMCLRE
 70
     0
  9
$DIMCLRT
 70
     0
  9
$DIMTFAC
 40
1.0
  9
$DIMGAP
 40
1.524
  9
$DIMJUST
 70
     0
  9
$DIMSD1
 70
     0
  9
$DIMSD2
 70
     0
  9
$DIMTOLJ
 70
     0
  9
$DIMTZIN
 70
     1
  9
$DIMALTZ
 70
     0
  9
$DIMALTTZ
 70
     0
  9
$DIMUPT
 70
     0
  9
$DIMDEC
 70
     2
  9
$DIMTDEC
 70
     2
  9
$DIMALTU
 70
     2
  9
$DIMALTTD
 70
     3
  9
$DIMTXSTY
  7
Standard
  9
$DIMAUNIT
 70
     0
  9
$DIMADEC
 70
     2
  9
$DIMALTRND
 40
0.0
  9
$DIMAZIN
 70
     0
  9
$DIMDSEP
 70
    44
  9
$DIMATFIT
 70
     3
  9
$DIMFRAC
 70
     0
  9
$DIMLDRBLK
  1

  9
$DIMLUNIT
 70
     2
  9
$DIMLWD
 70
    -2
  9
$DIMLWE
 70
    -2
  9
$DIMTMOVE
 70
     0
  9
$LUNITS
 70
     2
  9
$LUPREC
 70
     2
  9
$SKETCHINC
 40
1.0
  9
$FILLETRAD
 40
10.0
  9
$AUNITS
 70
     0
  9
$AUPREC
 70
     2
  9
$MENU
  1
.
  9
$ELEVATION
 40
0.0
  9
$PELEVATION
 40
0.0
  9
$THICKNESS
 40
0.0
  9
$LIMCHECK
 70
     0
  9
$CHAMFERA
 40
0.0
  9
$CHAMFERB
 40
0.0
  9
$CHAMFERC
 40
0.0
  9
$CHAMFERD
 40
0.0
  9
$SKPOLY
 70
     0
  9
$TDCREATE
 40
2460712.811738067
  9
$TDUCREATE
 40
2460712.936738067
  9
$TDUPDATE
 40
2460712.811741852
  9
$TDUUPDATE
 40
2460712.936741852
  9
$TDINDWG
 40
0.0000000116
  9
$TDUSRTIMER
 40
0.0000000116
  9
$USRTIMER
 70
     1
  9
$ANGBASE
 50
0.0
  9
$ANGDIR
 70
     0
  9
$PDMODE
 70
     0
  9
$PDSIZE
 40
-1.0
  9
$PLINEWID
 40
0.0
  9
$SPLFRAME
 70
     0
  9
$SPLINETYPE
 70
     6
  9
$SPLINESEGS
 70
     8
  9
$HANDSEED
  5
20A
  9
$SURFTAB1
 70
     6
  9
$SURFTAB2
 70
     6
  9
$SURFTYPE
 70
     6
  9
$SURFU
 70
     6
  9
$SURFV
 70
     6
  9
$UCSBASE
  2

  9
$UCSNAME
  2

  9
$UCSORG
 10
0.0
 20
0.0
 30
0.0
  9
$UCSXDIR
 10
1.0
 20
0.0
 30
0.0
  9
$UCSYDIR
 10
0.0
 20
1.0
 30
0.0
  9
$UCSORTHOREF
  2

  9
$UCSORTHOVIEW
 70
     0
  9
$UCSORGTOP
 10
0.0
 20
0.0
 30
0.0
  9
$UCSORGBOTTOM
 10
0.0
 20
0.0
 30
0.0
  9
$UCSORGLEFT
 10
0.0
 20
0.0
 30
0.0
  9
$UCSORGRIGHT
 10
0.0
 20
0.0
 30
0.0
  9
$UCSORGFRONT
 10
0.0
 20
0.0
 30
0.0
  9
$UCSORGBACK
 10
0.0
 20
0.0
 30
0.0
  9
$PUCSBASE
  2

  9
$PUCSNAME
  2

  9
$PUCSORG
 10
0.0
 20
0.0
 30
0.0
  9
$PUCSXDIR
 10
1.0
 20
0.0
 30
0.0
  9
$PUCSYDIR
 10
0.0
 20
1.0
 30
0.0
  9
$PUCSORTHOREF
  2

  9
$PUCSORTHOVIEW
 70
     0
  9
$PUCSORGTOP
 10
0.0
 20
0.0
 30
0.0
  9
$PUCSORGBOTTOM
 10
0.0
 20
0.0
 30
0.0
  9
$PUCSORGLEFT
 10
0.0
 20
0.0
 30
0.0
  9
$PUCSORGRIGHT
 10
0.0
 20
0.0
 30
0.0
  9
$PUCSORGFRONT
 10
0.0
 20
0.0
 30
0.0
  9
$PUCSORGBACK
 10
0.0
 20
0.0
 30
0.0
  9
$USERI1
 70
     0
  9
$USERI2
 70
     0
  9
$USERI3
 70
     0
  9
$USERI4
 70
     0
  9
$USERI5
 70
     0
  9
$USERR1
 40
0.0
  9
$USERR2
 40
0.0
  9
$USERR3
 40
0.0
  9
$USERR4
 40
0.0
  9
$USERR5
 40
0.0
  9
$WORLDVIEW
 70
     1
  9
$SHADEDGE
 70
     3
  9
$SHADEDIF
 70
    70
  9
$TILEMODE
 70
     1
  9
$MAXACTVP
 70
    64
  9
$PINSBASE
 10
0.0
 20
0.0
 30
0.0
  9
$PLIMCHECK
 70
     0
  9
$PEXTMIN
 10
1.0000000000E+20
 20
1.0000000000E+20
 30
1.0000000000E+20
  9
$PEXTMAX
 10
-1.0000000000E+20
 20
-1.0000000000E+20
 30
-1.0000000000E+20
  9
$PLIMMIN
 10
0.0
 20
0.0
  9
$PLIMMAX
 10
420.0
 20
297.0
  9
$UNITMODE
 70
     0
  9
$VISRETAIN
 70
     1
  9
$PLINEGEN
 70
     0
  9
$PSLTSCALE
 70
     1
  9
$TREEDEPTH
 70
  3020
  9
$CMLSTYLE
  2
Standard
  9
$CMLJUST
 70
     0
  9
$CMLSCALE
 40
20.0
  9
$PROXYGRAPHICS
 70
     1
  9
$MEASUREMENT
 70
     1
  9
$CELWEIGHT
370
    -1
  9
$ENDCAPS
280
     0
  9
$JOINSTYLE
280
     0
  9
$LWDISPLAY
290
     1
  9
$INSUNITS
 70
     4
  9
$HYPERLINKBASE
  1

  9
$STYLESHEET
  1

  9
$XEDIT
290
     1
  9
$CEPSNTYPE
380
     0
  9
$PSTYLEMODE
290
     1
  9
$FINGERPRINTGUID
  2
{155D9632-9887-4CEC-97C1-00576CE4B39C}
  9
$VERSIONGUID
  2
{FAEB1C32-E019-11D5-929B-00C0DF256EC4}
  9
$EXTNAMES
290
     1
  9
$PSVPSCALE
 40
0.0
  9
$OLESTARTUP
290
     0
  0
ENDSEC
  0
SECTION
  2
CLASSES
  0
CLASS
  1
ACDBDICTIONARYWDFLT
  2
AcDbDictionaryWithDefault
  3
ObjectDBX Classes
 90
        0
280
     0
281
     0
  0
CLASS
  1
VISUALSTYLE
  2
AcDbVisualStyle
  3
ObjectDBX Classes
 90
     4095
280
     0
281
     0
  0
CLASS
  1
MATERIAL
  2
AcDbMaterial
  3
ObjectDBX Classes
 90
     1153
280
     0
281
     0
  0
CLASS
  1
SCALE
  2
AcDbScale
  3
ObjectDBX Classes
 90
     1153
280
     0
281
     0
  0
CLASS
  1
TABLESTYLE
  2
AcDbTableStyle
  3
ObjectDBX Classes
 90
     4095
280
     0
281
     0
  0
CLASS
  1
MLEADERSTYLE
  2
AcDbMLeaderStyle
  3
ACDB_MLEADERSTYLE_CLASS
 90
     4095
280
     0
281
     0
  0
CLASS
  1
SUN
  2
AcDbSun
  3
SCENEOE
 90
     1153
280
     0
281
     0
  0
CLASS
  1
ACDBPLACEHOLDER
  2
AcDbPlaceHolder
  3
ObjectDBX Classes
 90
        0
280
     0
281
     0
  0
CLASS
  1
LAYOUT
  2
AcDbLayout
  3
ObjectDBX Classes
 90
        0
280
     0
281
     0
  0
ENDSEC
  0
SECTION
  2
TABLES
  0
TABLE
  2
VPORT
  5
8
330
0
100
AcDbSymbolTable
 70
     1
  0
VPORT
  5
29
330
8
100
AcDbSymbolTableRecord
100
AcDbViewportTableRecord
  2
*Active
 70
     0
 10
0.0
 20
0.0
 11
1.0
 21
1.0
 12
210.0
 22
148.5
 13
0.0
 23
0.0
 14
10.0
 24
10.0
 15
10.0
 25
10.0
 16
0.0
 26
0.0
 36
1.0
 17
0.0
 27
0.0
 37
0.0
 40
297.0
 41
1.4141414141
 42
50.0
 43
0.0
 44
0.0
 50
0.0
 51
0.0
 71
     0
 72
  2000
 73
     1
 74
     3
 75
     0
 76
     0
 77
     0
 78
     0
281
     0
 65
     1
110
0.0
120
0.0
130
0.0
111
1.0
121
0.0
131
0.0
112
0.0
122
1.0
132
0.0
 79
     0
146
0.0
  0
ENDTAB
  0
TABLE
  2
LTYPE
  5
5
330
0
100
AcDbSymbolTable
 70
     6
  0
LTYPE
  5
14
330
5
100
AcDbSymbolTableRecord
100
AcDbLinetypeTableRecord
  2
ByBlock
 70
     0
  3

 72
    65
 73
     0
 40
0.0
  0
LTYPE
  5
15
330
5
100
AcDbSymbolTableRecord
100
AcDbLinetypeTableRecord
  2
ByLayer
 70
     0
  3

 72
    65
 73
     0
 40
0.0
  0
LTYPE
  5
16
330
5
100
AcDbSymbolTableRecord
100
AcDbLinetypeTableRecord
  2
Continuous
 70
     0
  3
Solid line
 72
    65
 73
     0
 40
0.0
  0
LTYPE
  5
6E
330
5
100
AcDbSymbolTableRecord
100
AcDbLinetypeTableRecord
  2
HIDDEN
 70
     0
  3
Hidden __ __ __ __ __ __ __ __ __ __ __ __ __ __
 72
    65
 73
     2
 40
1.905
 49
1.27
 74
     0
 49
-0.635
 74
     0
  0
LTYPE
  5
6F
330
5
100
AcDbSymbolTableRecord
100
AcDbLinetypeTableRecord
  2
PHANTOM
 70
     0
  3
Phantom ______  __  __  ______  __  __  ______
 72
    65
 73
     6
 40
12.7
 49
6.35
 74
     0
 49
-1.27
 74
     0
 49
1.27
 74
     0
 49
-1.27
 74
     0
 49
1.27
 74
     0
 49
-1.27
 74
     0
  0
LTYPE
  5
70
330
5
100
AcDbSymbolTableRecord
100
AcDbLinetypeTableRecord
  2
CENTER
 70
     0
  3
Center ____ _ ____ _ ____ _ ____ _ ____ _ ____
 72
    65
 73
     4
 40
10.16
 49
6.35
 74
     0
 49
-1.27
 74
     0
 49
1.27
 74
     0
 49
-1.27
 74
     0
  0
LTYPE
  5
71
330
5
100
AcDbSymbolTableRecord
100
AcDbLinetypeTableRecord
  2
CENTERX2
 70
     0
  3
Center (2x) ________  __  ________  __  _____
 72
    65
 73
     4
 40
20.32
 49
12.7
 74
     0
 49
-2.54
 74
     0
 49
2.54
 74
     0
 49
-2.54
 74
     0
  0
LTYPE
  5
72
330
5
100
AcDbSymbolTableRecord
100
AcDbLinetypeTableRecord
  2
DOT2
 70
     0
  3
Dot (.5x) ........................................
 72
    65
 73
     2
 40
0.635
 49
0.0
 74
     0
 49
-0.635
 74
     0
  0
ENDTAB
  0
TABLE
  2
LAYER
  5
2
330
0
100
AcDbSymbolTable
 70
     4
  0
LAYER
  5
10
330
2
100
AcDbSymbolTableRecord
100
AcDbLayerTableRecord
  2
0
 70
     0
 62
     7
  6
Continuous
370
    -3
390
F
  0
LAYER
  5
73
330
2
100
AcDbSymbolTableRecord
100
AcDbLayerTableRecord
  2
FORMAT
 70
     0
 62
     7
  6
Continuous
370
    -3
390
F
  0
LAYER
  5
74
330
2
100
AcDbSymbolTableRecord
100
AcDbLayerTableRecord
  2
SLD-0
 70
     0
 62
   179
  6
Continuous
370
    -3
390
F
  0
LAYER
  5
75
330
2
100
AcDbSymbolTableRecord
100
AcDbLayerTableRecord
  2
CAMADA_1
 70
     0
 62
   179
  6
Continuous
370
    -3
390
F
  0
ENDTAB
  0
TABLE
  2
STYLE
  5
3
330
0
100
AcDbSymbolTable
 70
     5
  0
STYLE
  5
11
330
3
100
AcDbSymbolTableRecord
100
AcDbTextStyleTableRecord
  2
Standard
 70
     0
 40
0.0
 41
1.0
 50
0.0
 71
     0
 42
3.5
  3
txt
  4

  0
STYLE
  5
AA
330
3
100
AcDbSymbolTableRecord
100
AcDbTextStyleTableRecord
  2
SLDTEXTSTYLE0
 70
     0
 40
0.0
 41
0.75
 50
0.0
 71
     0
 42
3.5
  3
TXT
  4

  0
STYLE
  5
C9
330
3
100
AcDbSymbolTableRecord
100
AcDbTextStyleTableRecord
  2
SLDTEXTSTYLE1
 70
     0
 40
0.0
 41
0.6730769231
 50
0.0
 71
     0
 42
3.5
  3
TXT
  4

  0
STYLE
  5
1C7
330
3
100
AcDbSymbolTableRecord
100
AcDbTextStyleTableRecord
  2
SLDTEXTSTYLE2
 70
     0
 40
0.0
 41
0.675
 50
0.0
 71
     0
 42
3.5
  3
TXT
  4

  0
STYLE
  5
1C9
330
3
100
AcDbSymbolTableRecord
100
AcDbTextStyleTableRecord
  2
SLDTEXTSTYLE3
 70
     0
 40
0.0
 41
0.6710526316
 50
0.0
 71
     0
 42
3.5
  3
TXT
  4

  0
ENDTAB
  0
TABLE
  2
VIEW
  5
6
330
0
100
AcDbSymbolTable
 70
     0
  0
ENDTAB
  0
TABLE
  2
UCS
  5
7
330
0
100
AcDbSymbolTable
 70
     0
  0
ENDTAB
  0
TABLE
  2
APPID
  5
9
330
0
100
AcDbSymbolTable
 70
     1
  0
APPID
  5
12
330
9
100
AcDbSymbolTableRecord
100
AcDbRegAppTableRecord
  2
ACAD
 70
     0
  0
ENDTAB
  0
TABLE
  2
DIMSTYLE
  5
A
330
0
100
AcDbSymbolTable
 70
     5
100
AcDbDimStyleTable
  0
DIMSTYLE
105
27
330
A
100
AcDbSymbolTableRecord
100
AcDbDimStyleTableRecord
  2
ISO-25
 70
     0
 41
2.5
 42
0.625
 43
3.75
 44
1.25
 73
     0
 74
     0
 77
     1
 78
     8
140
2.5
141
2.5
143
0.0393700787
147
0.625
171
     3
172
     1
178
     0
271
     2
272
     2
274
     3
278
    44
283
     0
284
     8
340
11
  0
DIMSTYLE
105
F3
102
{ACAD_REACTORS
330
F2
102
}
330
A
100
AcDbSymbolTableRecord
100
AcDbDimStyleTableRecord
  2
SLDDIMSTYLE0
 70
     0
 41
3.302
 44
0.0
 73
     0
 74
     0
 77
     1
 78
    12
 79
     3
140
3.5
144
2.0
147
0.875
173
     1
178
     0
179
     2
272
     2
276
     2
284
    12
340
AA
  0
DIMSTYLE
105
100
102
{ACAD_REACTORS
330
FF
330
14D
330
159
330
18E
330
19A
102
}
330
A
100
AcDbSymbolTableRecord
100
AcDbDimStyleTableRecord
  2
SLDDIMSTYLE1
 70
     0
 41
3.302
 44
0.0
 45
0.000000001
 73
     0
 74
     0
 77
     1
 78
    12
 79
     3
140
3.5
144
2.0
147
0.875
172
     1
173
     1
178
     0
271
     2
272
     2
276
     2
284
    12
289
     0
340
AA
  0
DIMSTYLE
105
125
102
{ACAD_REACTORS
330
124
330
143
330
1B2
330
1BC
102
}
330
A
100
AcDbSymbolTableRecord
100
AcDbDimStyleTableRecord
  2
SLDDIMSTYLE2
 70
     0
 41
3.302
 44
0.0
 45
0.000000001
 73
     0
 74
     0
 77
     1
 78
    12
 79
     3
140
3.5
144
2.0
147
0.875
173
     1
178
     0
271
     2
272
     2
276
     2
284
    12
340
AA
  0
DIMSTYLE
105
130
102
{ACAD_REACTORS
330
12F
330
13B
102
}
330
A
100
AcDbSymbolTableRecord
100
AcDbDimStyleTableRecord
  2
SLDDIMSTYLE3
 70
     0
  3
<>
 41
3.302
 44
0.0
 45
0.000000001
 73
     0
 74
     0
 77
     1
 78
    12
 79
     3
140
3.5
141
0.0
144
2.0
147
0.875
172
     1
173
     1
178
     0
271
     2
272
     2
276
     2
284
    12
340
AA
341
131
343
131
  0
ENDTAB
  0
TABLE
  2
BLOCK_RECORD
  5
1
330
0
100
AcDbSymbolTable
 70
    19
  0
BLOCK_RECORD
  5
1F
330
1
100
AcDbSymbolTableRecord
100
AcDbBlockTableRecord
  2
*Model_Space
340
22
  0
BLOCK_RECORD
  5
1B
330
1
100
AcDbSymbolTableRecord
100
AcDbBlockTableRecord
  2
*Paper_Space
340
1E
  0
BLOCK_RECORD
  5
23
330
1
100
AcDbSymbolTableRecord
100
AcDbBlockTableRecord
  2
*Paper_Space0
340
26
  0
BLOCK_RECORD
  5
D9
330
1
100
AcDbSymbolTableRecord
100
AcDbBlockTableRecord
  2
SW_NOTE_0
340
0
102
{BLKREFS
331
DF
102
}
  0
BLOCK_RECORD
  5
F4
330
1
100
AcDbSymbolTableRecord
100
AcDbBlockTableRecord
  2
_D
340
0
  0
BLOCK_RECORD
  5
101
330
1
100
AcDbSymbolTableRecord
100
AcDbBlockTableRecord
  2
_D_1
340
0
  0
BLOCK_RECORD
  5
126
330
1
100
AcDbSymbolTableRecord
100
AcDbBlockTableRecord
  2
_D_2
340
0
  0
BLOCK_RECORD
  5
131
330
1
100
AcDbSymbolTableRecord
100
AcDbBlockTableRecord
  2
_NONE
340
0
  0
BLOCK_RECORD
  5
134
330
1
100
AcDbSymbolTableRecord
100
AcDbBlockTableRecord
  2
_D_3
340
0
  0
BLOCK_RECORD
  5
13C
330
1
100
AcDbSymbolTableRecord
100
AcDbBlockTableRecord
  2
_D_4
340
0
  0
BLOCK_RECORD
  5
144
330
1
100
AcDbSymbolTableRecord
100
AcDbBlockTableRecord
  2
_D_5
340
0
  0
BLOCK_RECORD
  5
14E
330
1
100
AcDbSymbolTableRecord
100
AcDbBlockTableRecord
  2
_D_6
340
0
  0
BLOCK_RECORD
  5
15A
330
1
100
AcDbSymbolTableRecord
100
AcDbBlockTableRecord
  2
_D_7
340
0
  0
BLOCK_RECORD
  5
165
330
1
100
AcDbSymbolTableRecord
100
AcDbBlockTableRecord
  2
SW_CENTERMARKSYMBOL_0
340
0
102
{BLKREFS
331
170
102
}
  0
BLOCK_RECORD
  5
171
330
1
100
AcDbSymbolTableRecord
100
AcDbBlockTableRecord
  2
SW_CENTERMARKSYMBOL_1
340
0
102
{BLKREFS
331
17C
102
}
  0
BLOCK_RECORD
  5
18F
330
1
100
AcDbSymbolTableRecord
100
AcDbBlockTableRecord
  2
_D_8
340
0
  0
BLOCK_RECORD
  5
19B
330
1
100
AcDbSymbolTableRecord
100
AcDbBlockTableRecord
  2
_D_9
340
0
  0
BLOCK_RECORD
  5
1B3
330
1
100
AcDbSymbolTableRecord
100
AcDbBlockTableRecord
  2
_D_10
340
0
  0
BLOCK_RECORD
  5
1BD
330
1
100
AcDbSymbolTableRecord
100
AcDbBlockTableRecord
  2
_D_11
340
0
  0
BLOCK_RECORD
  5
1CB
330
1
100
AcDbSymbolTableRecord
100
AcDbBlockTableRecord
  2
SW_CENTERMARKSYMBOL_2
340
0
102
{BLKREFS
331
1D6
102
}
  0
BLOCK_RECORD
  5
1D7
330
1
100
AcDbSymbolTableRecord
100
AcDbBlockTableRecord
  2
SW_CENTERMARKSYMBOL_3
340
0
102
{BLKREFS
331
1E2
102
}
  0
ENDTAB
  0
ENDSEC
  0
SECTION
  2
BLOCKS
  0
BLOCK
  5
20
330
1F
100
AcDbEntity
  8
0
100
AcDbBlockBegin
  2
*Model_Space
 70
     0
 10
0.0
 20
0.0
 30
0.0
  3
*Model_Space
  1

  0
ENDBLK
  5
21
330
1F
100
AcDbEntity
  8
0
100
AcDbBlockEnd
  0
BLOCK
  5
1C
330
1B
100
AcDbEntity
 67
     1
  8
0
100
AcDbBlockBegin
  2
*Paper_Space
 70
     0
 10
0.0
 20
0.0
 30
0.0
  3
*Paper_Space
  1

  0
ENDBLK
  5
1D
330
1B
100
AcDbEntity
 67
     1
  8
0
100
AcDbBlockEnd
  0
BLOCK
  5
24
330
23
100
AcDbEntity
  8
0
100
AcDbBlockBegin
  2
*Paper_Space0
 70
     0
 10
0.0
 20
0.0
 30
0.0
  3
*Paper_Space0
  1

  0
ENDBLK
  5
25
330
23
100
AcDbEntity
  8
0
100
AcDbBlockEnd
  0
BLOCK
  5
DA
330
D9
100
AcDbEntity
  8
0
100
AcDbBlockBegin
  2
SW_NOTE_0
 70
     0
 10
0.0
 20
0.0
 30
0.0
  3
SW_NOTE_0
  1

  0
MTEXT
  5
DC
330
D9
100
AcDbEntity
  8
0
  6
Continuous
 62
     0
370
     0
100
AcDbMText
 10
0.0
 20
1.9336016097
 30
0.0
 40
1.5
 41
0.0
 71
     1
 72
     1
  1
A MENOS QUE ESPECIFICADAS,
  7
SLDTEXTSTYLE0
 73
     1
 44
1.0
  0
MTEXT
  5
DD
330
D9
100
AcDbEntity
  8
0
  6
Continuous
 62
     0
370
     0
100
AcDbMText
 10
0.0
 20
-0.5663983345
 30
0.0
 40
1.5
 41
0.0
 71
     1
 72
     1
  1
AS DIMENSÕES ESTÃO EM
  7
SLDTEXTSTYLE0
 73
     1
 44
1.0
  0
MTEXT
  5
DE
330
D9
100
AcDbEntity
  8
0
  6
Continuous
 62
     0
370
     0
100
AcDbMText
 10
0.0
 20
-3.0663982786
 30
0.0
 40
1.5
 41
0.0
 71
     1
 72
     1
  1
MILÍMETROS.
  7
SLDTEXTSTYLE0
 73
     1
 44
1.0
  0
ENDBLK
  5
DB
330
D9
100
AcDbEntity
  8
0
100
AcDbBlockEnd
  0
BLOCK
  5
F5
330
F4
100
AcDbEntity
  8
0
100
AcDbBlockBegin
  2
_D
 70
     0
 10
0.0
 20
0.0
 30
0.0
  3
_D
  1

  0
ARC
  5
F7
330
F4
100
AcDbEntity
  8
CAMADA_1
100
AcDbCircle
 10
76.3734255675
 20
249.6917055068
 30
0.0
 40
23.2229443548902
100
AcDbArc
 50
0.0
 51
15.0
  0
ARC
  5
F8
330
F4
100
AcDbEntity
  8
CAMADA_1
100
AcDbCircle
 10
76.3734255675
 20
249.6917055068
 30
0.0
 40
23.2229443548902
100
AcDbArc
 50
344.4576340863
 51
0.0
  0
ARC
  5
F9
330
F4
100
AcDbEntity
  8
CAMADA_1
100
AcDbCircle
 10
76.3734255675
 20
249.6917055068
 30
0.0
 40
23.22294435489021
100
AcDbArc
 50
15.0
 51
30.6849644227
  0
SOLID
  5
FA
330
F4
100
AcDbEntity
  8
CAMADA_1
100
AcDbTrace
 10
99.5963699224
 20
249.6917055068
 30
0.0
 11
98.8566423191
 21
246.4337811564
 31
0.0
 12
99.8701098743
 22
246.3620907485
 32
0.0
 13
99.8701098743
 23
246.3620907485
 33
0.0
  0
SOLID
  5
FB
330
F4
100
AcDbEntity
  8
CAMADA_1
100
AcDbTrace
 10
98.8050672823
 20
255.7022457892
 30
0.0
 11
98.2077120593
 21
258.9892557888
 31
0.0
 12
97.2473324166
 22
258.6577034674
 32
0.0
 13
97.2473324166
 23
258.6577034674
 33
0.0
  0
LINE
  5
FC
330
F4
100
AcDbEntity
  8
CAMADA_1
100
AcDbLine
 10
77.1114370973
 20
249.6917055068
 30
0.0
 11
100.5963699224
 21
249.6917055068
 31
0.0
  0
LINE
  5
FD
330
F4
100
AcDbEntity
  8
CAMADA_1
100
AcDbLine
 10
92.4863177053
 20
254.0091419428
 30
0.0
 11
99.7709931086
 21
255.9610648343
 31
0.0
  0
MTEXT
  5
FE
330
F4
100
AcDbEntity
  8
CAMADA_1
100
AcDbMText
 10
100.7776475684
 20
263.3616659948
 30
0.0
 40
3.5
 41
0.0
 71
     1
 72
     1
  1
15°
  7
SLDTEXTSTYLE0
 11
0.3711438785094947
 21
-0.9285753719784569
 31
0.0
 73
     1
 44
1.0
  0
ENDBLK
  5
F6
330
F4
100
AcDbEntity
  8
0
100
AcDbBlockEnd
  0
BLOCK
  5
102
330
101
100
AcDbEntity
  8
0
100
AcDbBlockBegin
  2
_D_1
 70
     0
 10
0.0
 20
0.0
 30
0.0
  3
_D_1
  1

  0
SOLID
  5
104
330
101
100
AcDbEntity
  8
CAMADA_1
100
AcDbTrace
 10
56.3071321397
 20
240.7514924911
 30
0.0
 11
53.0051321397
 21
241.2594924911
 31
0.0
 12
53.0051321397
 22
240.2434924911
 32
0.0
 13
53.0051321397
 23
240.2434924911
 33
0.0
  0
SOLID
  5
105
330
101
100
AcDbEntity
  8
CAMADA_1
100
AcDbTrace
 10
76.1114370973
 20
240.7514924911
 30
0.0
 11
79.4134370973
 21
240.2434924911
 31
0.0
 12
79.4134370973
 22
241.2594924911
 32
0.0
 13
79.4134370973
 23
241.2594924911
 33
0.0
  0
LINE
  5
106
330
101
100
AcDbEntity
  8
CAMADA_1
100
AcDbLine
 10
56.3071321397
 20
248.6917055068
 30
0.0
 11
56.3071321397
 21
239.7514924911
 31
0.0
  0
LINE
  5
107
330
101
100
AcDbEntity
  8
CAMADA_1
100
AcDbLine
 10
76.1114370973
 20
248.6917055068
 30
0.0
 11
76.1114370973
 21
239.7514924911
 31
0.0
  0
LINE
  5
108
330
101
100
AcDbEntity
  8
CAMADA_1
100
AcDbLine
 10
56.3071321397
 20
240.7514924911
 30
0.0
 11
49.9571321397
 21
240.7514924911
 31
0.0
  0
LINE
  5
109
330
101
100
AcDbEntity
  8
CAMADA_1
100
AcDbLine
 10
56.3071321397
 20
240.7514924911
 30
0.0
 11
76.1114370973
 21
240.7514924911
 31
0.0
  0
LINE
  5
10A
330
101
100
AcDbEntity
  8
CAMADA_1
100
AcDbLine
 10
76.1114370973
 20
240.7514924911
 30
0.0
 11
82.4614370973
 21
240.7514924911
 31
0.0
  0
MTEXT
  5
10B
330
101
100
AcDbEntity
  8
CAMADA_1
100
AcDbMText
 10
60.8543863385
 20
245.2632298131
 30
0.0
 40
3.5
 41
0.0
 71
     1
 72
     1
  1
39,61
  7
SLDTEXTSTYLE0
 73
     1
 44
1.0
  0
ENDBLK
  5
103
330
101
100
AcDbEntity
  8
0
100
AcDbBlockEnd
  0
BLOCK
  5
127
330
126
100
AcDbEntity
  8
0
100
AcDbBlockBegin
  2
_D_2
 70
     0
 10
0.0
 20
0.0
 30
0.0
  3
_D_2
  1

  0
SOLID
  5
129
330
126
100
AcDbEntity
  8
CAMADA_1
100
AcDbTrace
 10
91.7792109241
 20
184.7271186441
 30
0.0
 11
95.0812109241
 21
184.2191186441
 31
0.0
 12
95.0812109241
 22
185.2351186441
 32
0.0
 13
95.0812109241
 23
185.2351186441
 33
0.0
  0
SOLID
  5
12A
330
126
100
AcDbEntity
  8
CAMADA_1
100
AcDbTrace
 10
168.2728208394
 20
184.7271186441
 30
0.0
 11
164.9708208394
 21
185.2351186441
 31
0.0
 12
164.9708208394
 22
184.2191186441
 32
0.0
 13
164.9708208394
 23
184.2191186441
 33
0.0
  0
LINE
  5
12B
330
126
100
AcDbEntity
  8
CAMADA_1
100
AcDbLine
 10
91.7792109241
 20
199.7271186441
 30
0.0
 11
91.7792109241
 21
183.7271186441
 31
0.0
  0
LINE
  5
12C
330
126
100
AcDbEntity
  8
CAMADA_1
100
AcDbLine
 10
168.2728208394
 20
199.7271186441
 30
0.0
 11
168.2728208394
 21
183.7271186441
 31
0.0
  0
LINE
  5
12D
330
126
100
AcDbEntity
  8
CAMADA_1
100
AcDbLine
 10
91.7792109241
 20
184.7271186441
 30
0.0
 11
168.2728208394
 21
184.7271186441
 31
0.0
  0
MTEXT
  5
12E
330
126
100
AcDbEntity
  8
CAMADA_1
100
AcDbMText
 10
122.6735855083
 20
189.2388559661
 30
0.0
 40
3.5
 41
0.0
 71
     1
 72
     1
  1
152,99
  7
SLDTEXTSTYLE0
 73
     1
 44
1.0
  0
ENDBLK
  5
128
330
126
100
AcDbEntity
  8
0
100
AcDbBlockEnd
  0
BLOCK
  5
132
330
131
100
AcDbEntity
  8
0
100
AcDbBlockBegin
  2
_NONE
 70
     0
 10
0.0
 20
0.0
 30
0.0
  3
_NONE
  1

  0
ENDBLK
  5
133
330
131
100
AcDbEntity
  8
0
100
AcDbBlockEnd
  0
BLOCK
  5
135
330
134
100
AcDbEntity
  8
0
100
AcDbBlockBegin
  2
_D_3
 70
     0
 10
0.0
 20
0.0
 30
0.0
  3
_D_3
  1

  0
SOLID
  5
137
330
134
100
AcDbEntity
  8
CAMADA_1
100
AcDbTrace
 10
164.2119469785
 20
207.2801911404
 30
0.0
 11
167.4696856768
 21
208.020735922
 31
0.0
 12
167.0964473056
 22
208.965695772
 32
0.0
 13
167.0964473056
 23
208.965695772
 33
0.0
  0
LINE
  5
138
330
134
100
AcDbEntity
  8
CAMADA_1
100
AcDbLine
 10
164.2119469785
 20
207.2801911404
 30
0.0
 11
191.3357640537
 21
217.9935027236
 31
0.0
  0
LINE
  5
139
330
134
100
AcDbEntity
  8
CAMADA_1
100
AcDbLine
 10
164.2119469785
 20
207.2801911404
 30
0.0
 11
162.6773173008
 21
206.6740461477
 31
0.0
  0
MTEXT
  5
13A
330
134
100
AcDbEntity
  8
CAMADA_1
100
AcDbMText
 10
183.471103683
 20
219.7236438217
 30
0.0
 40
3.5
 41
0.0
 71
     1
 72
     1
  1
M4
  7
SLDTEXTSTYLE0
 11
0.9300785925781547
 21
0.367360601627119
 31
0.0
 73
     1
 44
1.0
  0
ENDBLK
  5
136
330
134
100
AcDbEntity
  8
0
100
AcDbBlockEnd
  0
BLOCK
  5
13D
330
13C
100
AcDbEntity
  8
0
100
AcDbBlockBegin
  2
_D_4
 70
     0
 10
0.0
 20
0.0
 30
0.0
  3
_D_4
  1

  0
SOLID
  5
13F
330
13C
100
AcDbEntity
  8
CAMADA_1
100
AcDbTrace
 10
59.094501664
 20
206.5577827795
 30
0.0
 11
55.8643793308
 21
205.7048011192
 31
0.0
 12
56.2701367007
 22
204.7733415352
 32
0.0
 13
56.2701367007
 23
204.7733415352
 33
0.0
  0
LINE
  5
140
330
13C
100
AcDbEntity
  8
CAMADA_1
100
AcDbLine
 10
59.094501664
 20
206.5577827795
 30
0.0
 11
29.7870630683
 21
193.7910354001
 31
0.0
  0
LINE
  5
141
330
13C
100
AcDbEntity
  8
CAMADA_1
100
AcDbLine
 10
59.094501664
 20
206.5577827795
 30
0.0
 11
61.0197626153
 21
207.3964545087
 31
0.0
  0
MTEXT
  5
142
330
13C
100
AcDbEntity
  8
CAMADA_1
100
AcDbMText
 10
27.9895522943
 20
197.9174142707
 30
0.0
 40
3.5
 41
0.0
 71
     1
 72
     1
  1
M5
  7
SLDTEXTSTYLE0
 11
0.916790929199387
 21
0.3993674900861667
 31
0.0
 73
     1
 44
1.0
  0
ENDBLK
  5
13E
330
13C
100
AcDbEntity
  8
0
100
AcDbBlockEnd
  0
BLOCK
  5
145
330
144
100
AcDbEntity
  8
0
100
AcDbBlockBegin
  2
_D_5
 70
     0
 10
0.0
 20
0.0
 30
0.0
  3
_D_5
  1

  0
SOLID
  5
147
330
144
100
AcDbEntity
  8
CAMADA_1
100
AcDbTrace
 10
56.3071321397
 20
223.2271186441
 30
0.0
 11
59.6091321397
 21
222.7191186441
 31
0.0
 12
59.6091321397
 22
223.7351186441
 32
0.0
 13
59.6091321397
 23
223.7351186441
 33
0.0
  0
SOLID
  5
148
330
144
100
AcDbEntity
  8
CAMADA_1
100
AcDbTrace
 10
168.2728208394
 20
223.2271186441
 30
0.0
 11
164.9708208394
 21
223.7351186441
 31
0.0
 12
164.9708208394
 22
222.7191186441
 32
0.0
 13
164.9708208394
 23
222.7191186441
 33
0.0
  0
LINE
  5
149
330
144
100
AcDbEntity
  8
CAMADA_1
100
AcDbLine
 10
56.3071321397
 20
214.2271186441
 30
0.0
 11
56.3071321397
 21
224.2271186441
 31
0.0
  0
LINE
  5
14A
330
144
100
AcDbEntity
  8
CAMADA_1
100
AcDbLine
 10
168.2728208394
 20
214.2271186441
 30
0.0
 11
168.2728208394
 21
224.2271186441
 31
0.0
  0
LINE
  5
14B
330
144
100
AcDbEntity
  8
CAMADA_1
100
AcDbLine
 10
56.3071321397
 20
223.2271186441
 30
0.0
 11
168.2728208394
 21
223.2271186441
 31
0.0
  0
MTEXT
  5
14C
330
144
100
AcDbEntity
  8
CAMADA_1
100
AcDbMText
 10
104.9375461161
 20
227.7388559661
 30
0.0
 40
3.5
 41
0.0
 71
     1
 72
     1
  1
223,93
  7
SLDTEXTSTYLE0
 73
     1
 44
1.0
  0
ENDBLK
  5
146
330
144
100
AcDbEntity
  8
0
100
AcDbBlockEnd
  0
BLOCK
  5
14F
330
14E
100
AcDbEntity
  8
0
100
AcDbBlockBegin
  2
_D_6
 70
     0
 10
0.0
 20
0.0
 30
0.0
  3
_D_6
  1

  0
SOLID
  5
151
330
14E
100
AcDbEntity
  8
CAMADA_1
100
AcDbTrace
 10
60.0571321397
 20
190.7271186441
 30
0.0
 11
63.3591321397
 21
190.2191186441
 31
0.0
 12
63.3591321397
 22
191.2351186441
 32
0.0
 13
63.3591321397
 23
191.2351186441
 33
0.0
  0
SOLID
  5
152
330
14E
100
AcDbEntity
  8
CAMADA_1
100
AcDbTrace
 10
56.3071321397
 20
190.7271186441
 30
0.0
 11
53.0051321397
 21
191.2351186441
 31
0.0
 12
53.0051321397
 22
190.2191186441
 32
0.0
 13
53.0051321397
 23
190.2191186441
 33
0.0
  0
LINE
  5
153
330
14E
100
AcDbEntity
  8
CAMADA_1
100
AcDbLine
 10
60.0571321397
 20
203.6771186441
 30
0.0
 11
60.0571321397
 21
189.7271186441
 31
0.0
  0
LINE
  5
154
330
14E
100
AcDbEntity
  8
CAMADA_1
100
AcDbLine
 10
56.3071321397
 20
199.7271186441
 30
0.0
 11
56.3071321397
 21
189.7271186441
 31
0.0
  0
LINE
  5
155
330
14E
100
AcDbEntity
  8
CAMADA_1
100
AcDbLine
 10
60.0571321397
 20
190.7271186441
 30
0.0
 11
66.4071321397
 21
190.7271186441
 31
0.0
  0
LINE
  5
156
330
14E
100
AcDbEntity
  8
CAMADA_1
100
AcDbLine
 10
60.0571321397
 20
190.7271186441
 30
0.0
 11
56.3071321397
 21
190.7271186441
 31
0.0
  0
LINE
  5
157
330
14E
100
AcDbEntity
  8
CAMADA_1
100
AcDbLine
 10
56.3071321397
 20
190.7271186441
 30
0.0
 11
39.2626879601
 21
190.7271186441
 31
0.0
  0
MTEXT
  5
158
330
14E
100
AcDbEntity
  8
CAMADA_1
100
AcDbMText
 10
39.2626879601
 20
195.2388559661
 30
0.0
 40
3.5
 41
0.0
 71
     1
 72
     1
  1
7,50
  7
SLDTEXTSTYLE0
 73
     1
 44
1.0
  0
ENDBLK
  5
150
330
14E
100
AcDbEntity
  8
0
100
AcDbBlockEnd
  0
BLOCK
  5
15B
330
15A
100
AcDbEntity
  8
0
100
AcDbBlockBegin
  2
_D_7
 70
     0
 10
0.0
 20
0.0
 30
0.0
  3
_D_7
  1

  0
SOLID
  5
15D
330
15A
100
AcDbEntity
  8
CAMADA_1
100
AcDbTrace
 10
163.4446321397
 20
190.7271186441
 30
0.0
 11
160.1426321397
 21
191.2351186441
 31
0.0
 12
160.1426321397
 22
190.2191186441
 32
0.0
 13
160.1426321397
 23
190.2191186441
 33
0.0
  0
SOLID
  5
15E
330
15A
100
AcDbEntity
  8
CAMADA_1
100
AcDbTrace
 10
168.2728208394
 20
190.7271186441
 30
0.0
 11
171.5748208394
 21
190.2191186441
 31
0.0
 12
171.5748208394
 22
191.2351186441
 32
0.0
 13
171.5748208394
 23
191.2351186441
 33
0.0
  0
LINE
  5
15F
330
15A
100
AcDbEntity
  8
CAMADA_1
100
AcDbLine
 10
163.4446321397
 20
203.9021186441
 30
0.0
 11
163.4446321397
 21
189.7271186441
 31
0.0
  0
LINE
  5
160
330
15A
100
AcDbEntity
  8
CAMADA_1
100
AcDbLine
 10
168.2728208394
 20
199.7271186441
 30
0.0
 11
168.2728208394
 21
189.7271186441
 31
0.0
  0
LINE
  5
161
330
15A
100
AcDbEntity
  8
CAMADA_1
100
AcDbLine
 10
163.4446321397
 20
190.7271186441
 30
0.0
 11
157.0946321397
 21
190.7271186441
 31
0.0
  0
LINE
  5
162
330
15A
100
AcDbEntity
  8
CAMADA_1
100
AcDbLine
 10
163.4446321397
 20
190.7271186441
 30
0.0
 11
168.2728208394
 21
190.7271186441
 31
0.0
  0
LINE
  5
163
330
15A
100
AcDbEntity
  8
CAMADA_1
100
AcDbLine
 10
168.2728208394
 20
190.7271186441
 30
0.0
 11
184.1216586622
 21
190.7271186441
 31
0.0
  0
MTEXT
  5
164
330
15A
100
AcDbEntity
  8
CAMADA_1
100
AcDbMText
 10
174.7640200051
 20
195.2388559661
 30
0.0
 40
3.5
 41
0.0
 71
     1
 72
     1
  1
9,66
  7
SLDTEXTSTYLE0
 73
     1
 44
1.0
  0
ENDBLK
  5
15C
330
15A
100
AcDbEntity
  8
0
100
AcDbBlockEnd
  0
BLOCK
  5
166
330
165
100
AcDbEntity
  8
0
100
AcDbBlockBegin
  2
SW_CENTERMARKSYMBOL_0
 70
     0
 10
0.0
 20
0.0
 30
0.0
  3
SW_CENTERMARKSYMBOL_0
  1

  0
LINE
  5
168
330
165
100
AcDbEntity
  8
CAMADA_1
 62
     0
100
AcDbLine
 10
0.0
 20
0.0
 30
0.0
 11
0.0
 21
1.25
 31
0.0
  0
LINE
  5
169
330
165
100
AcDbEntity
  8
CAMADA_1
 62
     0
100
AcDbLine
 10
0.0
 20
0.0
 30
0.0
 11
-1.25
 21
0.0
 31
0.0
  0
LINE
  5
16A
330
165
100
AcDbEntity
  8
CAMADA_1
 62
     0
100
AcDbLine
 10
0.0
 20
0.0
 30
0.0
 11
0.0
 21
-1.25
 31
0.0
  0
LINE
  5
16B
330
165
100
AcDbEntity
  8
CAMADA_1
 62
     0
100
AcDbLine
 10
0.0
 20
0.0
 30
0.0
 11
1.25
 21
0.0
 31
0.0
  0
LINE
  5
16C
330
165
100
AcDbEntity
  8
CAMADA_1
 62
     0
100
AcDbLine
 10
0.0
 20
1.25
 30
0.0
 11
0.0
 21
2.3
 31
0.0
  0
LINE
  5
16D
330
165
100
AcDbEntity
  8
CAMADA_1
 62
     0
100
AcDbLine
 10
-1.25
 20
0.0
 30
0.0
 11
-2.3
 21
0.0
 31
0.0
  0
LINE
  5
16E
330
165
100
AcDbEntity
  8
CAMADA_1
 62
     0
100
AcDbLine
 10
0.0
 20
-1.25
 30
0.0
 11
0.0
 21
-2.3
 31
0.0
  0
LINE
  5
16F
330
165
100
AcDbEntity
  8
CAMADA_1
 62
     0
100
AcDbLine
 10
1.25
 20
0.0
 30
0.0
 11
2.3
 21
0.0
 31
0.0
  0
ENDBLK
  5
167
330
165
100
AcDbEntity
  8
0
100
AcDbBlockEnd
  0
BLOCK
  5
172
330
171
100
AcDbEntity
  8
0
100
AcDbBlockBegin
  2
SW_CENTERMARKSYMBOL_1
 70
     0
 10
0.0
 20
0.0
 30
0.0
  3
SW_CENTERMARKSYMBOL_1
  1

  0
LINE
  5
174
330
171
100
AcDbEntity
  8
CAMADA_1
 62
     0
100
AcDbLine
 10
0.0
 20
0.0
 30
0.0
 11
0.0
 21
1.25
 31
0.0
  0
LINE
  5
175
330
171
100
AcDbEntity
  8
CAMADA_1
 62
     0
100
AcDbLine
 10
0.0
 20
0.0
 30
0.0
 11
-1.25
 21
0.0
 31
0.0
  0
LINE
  5
176
330
171
100
AcDbEntity
  8
CAMADA_1
 62
     0
100
AcDbLine
 10
0.0
 20
0.0
 30
0.0
 11
0.0
 21
-1.25
 31
0.0
  0
LINE
  5
177
330
171
100
AcDbEntity
  8
CAMADA_1
 62
     0
100
AcDbLine
 10
0.0
 20
0.0
 30
0.0
 11
1.25
 21
0.0
 31
0.0
  0
LINE
  5
178
330
171
100
AcDbEntity
  8
CAMADA_1
 62
     0
100
AcDbLine
 10
0.0
 20
1.25
 30
0.0
 11
0.0
 21
2.075
 31
0.0
  0
LINE
  5
179
330
171
100
AcDbEntity
  8
CAMADA_1
 62
     0
100
AcDbLine
 10
-1.25
 20
0.0
 30
0.0
 11
-2.075
 21
0.0
 31
0.0
  0
LINE
  5
17A
330
171
100
AcDbEntity
  8
CAMADA_1
 62
     0
100
AcDbLine
 10
0.0
 20
-1.25
 30
0.0
 11
0.0
 21
-2.075
 31
0.0
  0
LINE
  5
17B
330
171
100
AcDbEntity
  8
CAMADA_1
 62
     0
100
AcDbLine
 10
1.25
 20
0.0
 30
0.0
 11
2.075
 21
0.0
 31
0.0
  0
ENDBLK
  5
173
330
171
100
AcDbEntity
  8
0
100
AcDbBlockEnd
  0
BLOCK
  5
190
330
18F
100
AcDbEntity
  8
0
100
AcDbBlockBegin
  2
_D_8
 70
     0
 10
0.0
 20
0.0
 30
0.0
  3
_D_8
  1

  0
SOLID
  5
192
330
18F
100
AcDbEntity
  8
CAMADA_1
100
AcDbTrace
 10
227.1057627119
 20
249.6917055068
 30
0.0
 11
226.5977627119
 21
246.3897055068
 31
0.0
 12
227.6137627119
 22
246.3897055068
 32
0.0
 13
227.6137627119
 23
246.3897055068
 33
0.0
  0
SOLID
  5
193
330
18F
100
AcDbEntity
  8
CAMADA_1
100
AcDbTrace
 10
227.1057627119
 20
254.7743970714
 30
0.0
 11
227.6137627119
 21
258.0763970714
 31
0.0
 12
226.5977627119
 22
258.0763970714
 32
0.0
 13
226.5977627119
 23
258.0763970714
 33
0.0
  0
LINE
  5
194
330
18F
100
AcDbEntity
  8
CAMADA_1
100
AcDbLine
 10
218.1057627119
 20
249.6917055068
 30
0.0
 11
228.1057627119
 21
249.6917055068
 31
0.0
  0
LINE
  5
195
330
18F
100
AcDbEntity
  8
CAMADA_1
100
AcDbLine
 10
218.1057627119
 20
254.7743970714
 30
0.0
 11
228.1057627119
 21
254.7743970714
 31
0.0
  0
LINE
  5
196
330
18F
100
AcDbEntity
  8
CAMADA_1
100
AcDbLine
 10
227.1057627119
 20
249.6917055068
 30
0.0
 11
227.1057627119
 21
231.7753528907
 31
0.0
  0
LINE
  5
197
330
18F
100
AcDbEntity
  8
CAMADA_1
100
AcDbLine
 10
227.1057627119
 20
249.6917055068
 30
0.0
 11
227.1057627119
 21
254.7743970714
 31
0.0
  0
LINE
  5
198
330
18F
100
AcDbEntity
  8
CAMADA_1
100
AcDbLine
 10
227.1057627119
 20
254.7743970714
 30
0.0
 11
227.1057627119
 21
261.1243970714
 31
0.0
  0
MTEXT
  5
199
330
18F
100
AcDbEntity
  8
CAMADA_1
100
AcDbMText
 10
222.5940253898
 20
231.7753528907
 30
0.0
 40
3.5
 41
0.0
 71
     1
 72
     1
  1
10,17
  7
SLDTEXTSTYLE0
 11
6.123233995736766E-17
 21
1.0
 31
0.0
 73
     1
 44
1.0
  0
ENDBLK
  5
191
330
18F
100
AcDbEntity
  8
0
100
AcDbBlockEnd
  0
BLOCK
  5
19C
330
19B
100
AcDbEntity
  8
0
100
AcDbBlockBegin
  2
_D_9
 70
     0
 10
0.0
 20
0.0
 30
0.0
  3
_D_9
  1

  0
SOLID
  5
19E
330
19B
100
AcDbEntity
  8
CAMADA_1
100
AcDbTrace
 10
194.6057627119
 20
249.6917055068
 30
0.0
 11
194.0977627119
 21
246.3897055068
 31
0.0
 12
195.1137627119
 22
246.3897055068
 32
0.0
 13
195.1137627119
 23
246.3897055068
 33
0.0
  0
SOLID
  5
19F
330
19B
100
AcDbEntity
  8
CAMADA_1
100
AcDbTrace
 10
194.6057627119
 20
250.6817055068
 30
0.0
 11
195.1137627119
 21
253.9837055068
 31
0.0
 12
194.0977627119
 22
253.9837055068
 32
0.0
 13
194.0977627119
 23
253.9837055068
 33
0.0
  0
LINE
  5
1A0
330
19B
100
AcDbEntity
  8
CAMADA_1
100
AcDbLine
 10
203.6057627119
 20
249.6917055068
 30
0.0
 11
193.6057627119
 21
249.6917055068
 31
0.0
  0
LINE
  5
1A1
330
19B
100
AcDbEntity
  8
CAMADA_1
100
AcDbLine
 10
203.6057627119
 20
250.6817055068
 30
0.0
 11
193.6057627119
 21
250.6817055068
 31
0.0
  0
LINE
  5
1A2
330
19B
100
AcDbEntity
  8
CAMADA_1
100
AcDbLine
 10
194.6057627119
 20
249.6917055068
 30
0.0
 11
194.6057627119
 21
232.6472613272
 31
0.0
  0
LINE
  5
1A3
330
19B
100
AcDbEntity
  8
CAMADA_1
100
AcDbLine
 10
194.6057627119
 20
249.6917055068
 30
0.0
 11
194.6057627119
 21
250.6817055068
 31
0.0
  0
LINE
  5
1A4
330
19B
100
AcDbEntity
  8
CAMADA_1
100
AcDbLine
 10
194.6057627119
 20
250.6817055068
 30
0.0
 11
194.6057627119
 21
257.0317055068
 31
0.0
  0
MTEXT
  5
1A5
330
19B
100
AcDbEntity
  8
CAMADA_1
100
AcDbMText
 10
190.0940253898
 20
232.6472613272
 30
0.0
 40
3.5
 41
0.0
 71
     1
 72
     1
  1
1,98
  7
SLDTEXTSTYLE0
 11
6.123233995736766E-17
 21
1.0
 31
0.0
 73
     1
 44
1.0
  0
ENDBLK
  5
19D
330
19B
100
AcDbEntity
  8
0
100
AcDbBlockEnd
  0
BLOCK
  5
1B4
330
1B3
100
AcDbEntity
  8
0
100
AcDbBlockBegin
  2
_D_10
 70
     0
 10
0.0
 20
0.0
 30
0.0
  3
_D_10
  1

  0
SOLID
  5
1B6
330
1B3
100
AcDbEntity
  8
CAMADA_1
100
AcDbTrace
 10
361.1752542373
 20
139.1457762074
 30
0.0
 11
361.6832542373
 21
142.4477762074
 31
0.0
 12
360.6672542373
 22
142.4477762074
 32
0.0
 13
360.6672542373
 23
142.4477762074
 33
0.0
  0
SOLID
  5
1B7
330
1B3
100
AcDbEntity
  8
CAMADA_1
100
AcDbTrace
 10
361.1752542373
 20
251.6457762074
 30
0.0
 11
360.6672542373
 21
248.3437762074
 31
0.0
 12
361.6832542373
 22
248.3437762074
 32
0.0
 13
361.6832542373
 23
248.3437762074
 33
0.0
  0
LINE
  5
1B8
330
1B3
100
AcDbEntity
  8
CAMADA_1
100
AcDbLine
 10
352.1752542373
 20
139.1457762074
 30
0.0
 11
362.1752542373
 21
139.1457762074
 31
0.0
  0
LINE
  5
1B9
330
1B3
100
AcDbEntity
  8
CAMADA_1
100
AcDbLine
 10
352.1752542373
 20
251.6457762074
 30
0.0
 11
362.1752542373
 21
251.6457762074
 31
0.0
  0
LINE
  5
1BA
330
1B3
100
AcDbEntity
  8
CAMADA_1
100
AcDbLine
 10
361.1752542373
 20
139.1457762074
 30
0.0
 11
361.1752542373
 21
251.6457762074
 31
0.0
  0
MTEXT
  5
1BB
330
1B3
100
AcDbEntity
  8
CAMADA_1
100
AcDbMText
 10
356.6635169153
 20
188.043345834
 30
0.0
 40
3.5
 41
0.0
 71
     1
 72
     1
  1
225,00
  7
SLDTEXTSTYLE0
 11
-1.608122649676637E-16
 21
1.0
 31
0.0
 73
     1
 44
1.0
  0
ENDBLK
  5
1B5
330
1B3
100
AcDbEntity
  8
0
100
AcDbBlockEnd
  0
BLOCK
  5
1BE
330
1BD
100
AcDbEntity
  8
0
100
AcDbBlockBegin
  2
_D_11
 70
     0
 10
0.0
 20
0.0
 30
0.0
  3
_D_11
  1

  0
SOLID
  5
1C0
330
1BD
100
AcDbEntity
  8
CAMADA_1
100
AcDbTrace
 10
351.1752542373
 20
261.6457762074
 30
0.0
 11
347.8732542373
 21
262.1537762074
 31
0.0
 12
347.8732542373
 22
261.1377762074
 32
0.0
 13
347.8732542373
 23
261.1377762074
 33
0.0
  0
SOLID
  5
1C1
330
1BD
100
AcDbEntity
  8
CAMADA_1
100
AcDbTrace
 10
338.6752542373
 20
261.6457762074
 30
0.0
 11
341.9772542373
 21
261.1377762074
 31
0.0
 12
341.9772542373
 22
262.1537762074
 32
0.0
 13
341.9772542373
 23
262.1537762074
 33
0.0
  0
LINE
  5
1C2
330
1BD
100
AcDbEntity
  8
CAMADA_1
100
AcDbLine
 10
351.1752542373
 20
252.6457762074
 30
0.0
 11
351.1752542373
 21
262.6457762074
 31
0.0
  0
LINE
  5
1C3
330
1BD
100
AcDbEntity
  8
CAMADA_1
100
AcDbLine
 10
338.6752542373
 20
252.6457762074
 30
0.0
 11
338.6752542373
 21
262.6457762074
 31
0.0
  0
LINE
  5
1C4
330
1BD
100
AcDbEntity
  8
CAMADA_1
100
AcDbLine
 10
351.1752542373
 20
261.6457762074
 30
0.0
 11
338.6752542373
 21
261.6457762074
 31
0.0
  0
LINE
  5
1C5
330
1BD
100
AcDbEntity
  8
CAMADA_1
100
AcDbLine
 10
338.6752542373
 20
261.6457762074
 30
0.0
 11
318.9571990129
 21
261.6457762074
 31
0.0
  0
MTEXT
  5
1C6
330
1BD
100
AcDbEntity
  8
CAMADA_1
100
AcDbMText
 10
318.9571990129
 20
266.1575135295
 30
0.0
 40
3.5
 41
0.0
 71
     1
 72
     1
  1
25,00
  7
SLDTEXTSTYLE0
 73
     1
 44
1.0
  0
ENDBLK
  5
1BF
330
1BD
100
AcDbEntity
  8
0
100
AcDbBlockEnd
  0
BLOCK
  5
1CC
330
1CB
100
AcDbEntity
  8
0
100
AcDbBlockBegin
  2
SW_CENTERMARKSYMBOL_2
 70
     0
 10
0.0
 20
0.0
 30
0.0
  3
SW_CENTERMARKSYMBOL_2
  1

  0
LINE
  5
1CE
330
1CB
100
AcDbEntity
  8
CAMADA_1
 62
     0
100
AcDbLine
 10
0.0
 20
0.0
 30
0.0
 11
0.0
 21
1.25
 31
0.0
  0
LINE
  5
1CF
330
1CB
100
AcDbEntity
  8
CAMADA_1
 62
     0
100
AcDbLine
 10
0.0
 20
0.0
 30
0.0
 11
-1.25
 21
0.0
 31
0.0
  0
LINE
  5
1D0
330
1CB
100
AcDbEntity
  8
CAMADA_1
 62
     0
100
AcDbLine
 10
0.0
 20
0.0
 30
0.0
 11
0.0
 21
-1.25
 31
0.0
  0
LINE
  5
1D1
330
1CB
100
AcDbEntity
  8
CAMADA_1
 62
     0
100
AcDbLine
 10
0.0
 20
0.0
 30
0.0
 11
1.25
 21
0.0
 31
0.0
  0
LINE
  5
1D2
330
1CB
100
AcDbEntity
  8
CAMADA_1
 62
     0
100
AcDbLine
 10
0.0
 20
1.25
 30
0.0
 11
0.0
 21
2.075
 31
0.0
  0
LINE
  5
1D3
330
1CB
100
AcDbEntity
  8
CAMADA_1
 62
     0
100
AcDbLine
 10
-1.25
 20
0.0
 30
0.0
 11
-2.075
 21
0.0
 31
0.0
  0
LINE
  5
1D4
330
1CB
100
AcDbEntity
  8
CAMADA_1
 62
     0
100
AcDbLine
 10
0.0
 20
-1.25
 30
0.0
 11
0.0
 21
-2.075
 31
0.0
  0
LINE
  5
1D5
330
1CB
100
AcDbEntity
  8
CAMADA_1
 62
     0
100
AcDbLine
 10
1.25
 20
0.0
 30
0.0
 11
2.075
 21
0.0
 31
0.0
  0
ENDBLK
  5
1CD
330
1CB
100
AcDbEntity
  8
0
100
AcDbBlockEnd
  0
BLOCK
  5
1D8
330
1D7
100
AcDbEntity
  8
0
100
AcDbBlockBegin
  2
SW_CENTERMARKSYMBOL_3
 70
     0
 10
0.0
 20
0.0
 30
0.0
  3
SW_CENTERMARKSYMBOL_3
  1

  0
LINE
  5
1DA
330
1D7
100
AcDbEntity
  8
CAMADA_1
 62
     0
100
AcDbLine
 10
0.0
 20
0.0
 30
0.0
 11
0.0
 21
1.25
 31
0.0
  0
LINE
  5
1DB
330
1D7
100
AcDbEntity
  8
CAMADA_1
 62
     0
100
AcDbLine
 10
0.0
 20
0.0
 30
0.0
 11
-1.25
 21
0.0
 31
0.0
  0
LINE
  5
1DC
330
1D7
100
AcDbEntity
  8
CAMADA_1
 62
     0
100
AcDbLine
 10
0.0
 20
0.0
 30
0.0
 11
0.0
 21
-1.25
 31
0.0
  0
LINE
  5
1DD
330
1D7
100
AcDbEntity
  8
CAMADA_1
 62
     0
100
AcDbLine
 10
0.0
 20
0.0
 30
0.0
 11
1.25
 21
0.0
 31
0.0
  0
LINE
  5
1DE
330
1D7
100
AcDbEntity
  8
CAMADA_1
 62
     0
100
AcDbLine
 10
0.0
 20
1.25
 30
0.0
 11
0.0
 21
2.3
 31
0.0
  0
LINE
  5
1DF
330
1D7
100
AcDbEntity
  8
CAMADA_1
 62
     0
100
AcDbLine
 10
-1.25
 20
0.0
 30
0.0
 11
-2.3
 21
0.0
 31
0.0
  0
LINE
  5
1E0
330
1D7
100
AcDbEntity
  8
CAMADA_1
 62
     0
100
AcDbLine
 10
0.0
 20
-1.25
 30
0.0
 11
0.0
 21
-2.3
 31
0.0
  0
LINE
  5
1E1
330
1D7
100
AcDbEntity
  8
CAMADA_1
 62
     0
100
AcDbLine
 10
1.25
 20
0.0
 30
0.0
 11
2.3
 21
0.0
 31
0.0
  0
ENDBLK
  5
1D9
330
1D7
100
AcDbEntity
  8
0
100
AcDbBlockEnd
  0
ENDSEC
  0
SECTION
  2
ENTITIES
  0
LINE
  5
76
330
1F
100
AcDbEntity
  8
0
  6
Continuous
 62
     7
370
    18
100
AcDbLine
 10
227.8
 20
9.25
 30
0.0
 11
415.0
 21
9.25
 31
0.0
  0
LINE
  5
77
330
1F
100
AcDbEntity
  8
0
  6
Continuous
 62
     7
370
    18
100
AcDbLine
 10
415.0000003319
 20
43.2542330964
 30
0.0
 11
227.8000003319
 21
43.2542330964
 31
0.0
  0
LINE
  5
78
330
1F
100
AcDbEntity
  8
0
  6
Continuous
 62
     7
370
    18
100
AcDbLine
 10
227.8
 20
60.25
 30
0.0
 11
415.0
 21
60.25
 31
0.0
  0
LINE
  5
79
330
1F
100
AcDbEntity
  8
0
  6
Continuous
 62
     7
370
    18
100
AcDbLine
 10
410.0
 20
287.0
 30
0.0
 11
410.0
 21
60.25
 31
0.0
  0
LINE
  5
7A
330
1F
100
AcDbEntity
  8
0
  6
Continuous
 62
     7
370
    18
100
AcDbLine
 10
254.7909527657
 20
43.2542330964
 30
0.0
 11
254.7909527657
 21
22.0085631312
 31
0.0
  0
LINE
  5
7B
330
1F
100
AcDbEntity
  8
0
  6
Continuous
 62
     7
370
    18
100
AcDbLine
 10
326.6
 20
26.25
 30
0.0
 11
227.8
 21
26.25
 31
0.0
  0
LINE
  5
7C
330
1F
100
AcDbEntity
  8
0
  6
Continuous
 62
     7
370
    18
100
AcDbLine
 10
326.6
 20
30.5
 30
0.0
 11
227.8
 21
30.5
 31
0.0
  0
LINE
  5
7D
330
1F
100
AcDbEntity
  8
0
  6
Continuous
 62
     7
370
    18
100
AcDbLine
 10
326.6
 20
34.75
 30
0.0
 11
227.8
 21
34.75
 31
0.0
  0
LINE
  5
7E
330
1F
100
AcDbEntity
  8
0
  6
Continuous
 62
     7
370
    18
100
AcDbLine
 10
326.6
 20
39.0
 30
0.0
 11
227.8
 21
39.0
 31
0.0
  0
LINE
  5
7F
330
1F
100
AcDbEntity
  8
0
  6
Continuous
 62
     7
370
    18
100
AcDbLine
 10
282.4000003319
 20
5.0042330964
 30
0.0
 11
282.4000003319
 21
43.2542330964
 31
0.0
  0
LINE
  5
80
330
1F
100
AcDbEntity
  8
0
  6
Continuous
 62
     7
370
    18
100
AcDbLine
 10
227.8
 20
60.25
 30
0.0
 11
227.8
 21
5.0
 31
0.0
  0
LINE
  5
81
330
1F
100
AcDbEntity
  8
0
  6
Continuous
 62
     7
370
    18
100
AcDbLine
 10
235.6000000959
 20
43.2512233045
 30
0.0
 11
235.6000000959
 21
22.0085631312
 31
0.0
  0
LINE
  5
82
330
1F
100
AcDbEntity
  8
0
  6
Continuous
 62
     7
370
    18
100
AcDbLine
 10
261.5966683743
 20
43.2542330964
 30
0.0
 11
261.5940028618
 21
60.25
 31
0.0
  0
LINE
  5
83
330
1F
100
AcDbEntity
  8
0
  6
Continuous
 62
     7
370
    18
100
AcDbLine
 10
272.1989267096
 20
43.2569632569
 30
0.0
 11
272.1989267096
 21
22.0085631312
 31
0.0
  0
LINE
  5
84
330
1F
100
AcDbEntity
  8
0
  6
Continuous
 62
     7
370
    18
100
AcDbLine
 10
292.8
 20
26.25
 30
0.0
 11
292.8
 21
43.25
 31
0.0
  0
LINE
  5
85
330
1F
100
AcDbEntity
  8
0
  6
Continuous
 62
     7
370
    18
100
AcDbLine
 10
324.7768844999
 20
9.25
 30
0.0
 11
324.7768844999
 21
5.0
 31
0.0
  0
LINE
  5
86
330
1F
100
AcDbEntity
  8
0
  6
Continuous
 62
     7
370
    18
100
AcDbLine
 10
308.4
 20
60.25
 30
0.0
 11
308.4
 21
22.0
 31
0.0
  0
LINE
  5
87
330
1F
100
AcDbEntity
  8
0
  6
Continuous
 62
     7
370
    18
100
AcDbLine
 10
282.4000006715
 20
22.0085631312
 30
0.0
 11
227.8
 21
22.0085631312
 31
0.0
  0
LINE
  5
88
330
1F
100
AcDbEntity
  8
0
  6
Continuous
 62
     7
370
    18
100
AcDbLine
 10
282.4000006715
 20
22.0085631312
 30
0.0
 11
414.9999990407
 21
22.0293593066
 31
0.0
  0
LINE
  5
89
330
1F
100
AcDbEntity
  8
0
  6
Continuous
 62
     7
370
    18
100
AcDbLine
 10
326.6
 20
60.25
 30
0.0
 11
326.6
 21
22.0154951896
 31
0.0
  0
LINE
  5
8A
330
1F
100
AcDbEntity
  8
0
  6
Continuous
 62
     7
370
    18
100
AcDbLine
 10
370.8
 20
5.0
 30
0.0
 11
370.8
 21
9.25
 31
0.0
  0
LINE
  5
8B
330
1F
100
AcDbEntity
  8
0
  6
Continuous
 62
     7
370
    18
100
AcDbLine
 10
378.6
 20
53.875
 30
0.0
 11
378.6
 21
60.25
 31
0.0
  0
LINE
  5
8C
330
1F
100
AcDbEntity
  8
0
  6
Continuous
 62
     7
370
    18
100
AcDbLine
 10
415.0
 20
53.875
 30
0.0
 11
326.6
 21
53.875
 31
0.0
  0
LINE
  5
8D
330
1F
100
AcDbEntity
  8
0
  6
Continuous
 62
     7
370
    18
100
AcDbLine
 10
402.0
 20
5.0
 30
0.0
 11
402.0
 21
9.25
 31
0.0
  0
LINE
  5
8E
330
1F
100
AcDbEntity
  8
0
  6
Continuous
 62
     7
370
    18
100
AcDbLine
 10
326.6
 20
30.5
 30
0.0
 11
415.0
 21
30.5
 31
0.0
  0
LINE
  5
8F
330
1F
100
AcDbEntity
  8
0
  6
Continuous
 62
     7
370
    18
100
AcDbLine
 10
415.0
 20
292.0
 30
0.0
 11
5.0
 21
292.0
 31
0.0
  0
LINE
  5
90
330
1F
100
AcDbEntity
  8
0
  6
Continuous
 62
     7
370
    18
100
AcDbLine
 10
410.0
 20
287.0
 30
0.0
 11
10.0
 21
287.0
 31
0.0
  0
LINE
  5
91
330
1F
100
AcDbEntity
  8
0
  6
Continuous
 62
     7
370
    18
100
AcDbLine
 10
5.0
 20
292.0
 30
0.0
 11
5.0
 21
5.0
 31
0.0
  0
LINE
  5
92
330
1F
100
AcDbEntity
  8
0
  6
Continuous
 62
     7
370
    18
100
AcDbLine
 10
10.0
 20
287.0
 30
0.0
 11
10.0
 21
10.0
 31
0.0
  0
LINE
  5
93
330
1F
100
AcDbEntity
  8
0
  6
Continuous
 62
     7
370
    18
100
AcDbLine
 10
10.0
 20
48.5
 30
0.0
 11
5.0
 21
48.5
 31
0.0
  0
LINE
  5
94
330
1F
100
AcDbEntity
  8
0
  6
Continuous
 62
     7
370
    18
100
AcDbLine
 10
5.0
 20
98.5
 30
0.0
 11
10.0
 21
98.5
 31
0.0
  0
LINE
  5
95
330
1F
100
AcDbEntity
  8
0
  6
Continuous
 62
     7
370
    18
100
AcDbLine
 10
5.0
 20
198.5
 30
0.0
 11
10.0
 21
198.5
 31
0.0
  0
LINE
  5
96
330
1F
100
AcDbEntity
  8
0
  6
Continuous
 62
     7
370
    18
100
AcDbLine
 10
5.0
 20
148.5
 30
0.0
 11
15.0
 21
148.5
 31
0.0
  0
LINE
  5
97
330
1F
100
AcDbEntity
  8
0
  6
Continuous
 62
     7
370
    18
100
AcDbLine
 10
5.0
 20
5.0
 30
0.0
 11
415.0
 21
5.0
 31
0.0
  0
LINE
  5
98
330
1F
100
AcDbEntity
  8
0
  6
Continuous
 62
     7
370
    18
100
AcDbLine
 10
10.0
 20
10.0
 30
0.0
 11
227.8
 21
10.0
 31
0.0
  0
LINE
  5
99
330
1F
100
AcDbEntity
  8
0
  6
Continuous
 62
     7
370
    18
100
AcDbLine
 10
60.0
 20
5.0
 30
0.0
 11
60.0
 21
10.0
 31
0.0
  0
LINE
  5
9A
330
1F
100
AcDbEntity
  8
0
  6
Continuous
 62
     7
370
    18
100
AcDbLine
 10
110.0
 20
10.0
 30
0.0
 11
110.0
 21
5.0
 31
0.0
  0
LINE
  5
9B
330
1F
100
AcDbEntity
  8
0
  6
Continuous
 62
     7
370
    18
100
AcDbLine
 10
160.0
 20
5.0
 30
0.0
 11
160.0
 21
10.0
 31
0.0
  0
LINE
  5
9C
330
1F
100
AcDbEntity
  8
0
  6
Continuous
 62
     7
370
    18
100
AcDbLine
 10
10.0
 20
248.5
 30
0.0
 11
5.0
 21
248.5
 31
0.0
  0
LINE
  5
9D
330
1F
100
AcDbEntity
  8
0
  6
Continuous
 62
     7
370
    18
100
AcDbLine
 10
60.0
 20
287.0
 30
0.0
 11
60.0
 21
292.0
 31
0.0
  0
LINE
  5
9E
330
1F
100
AcDbEntity
  8
0
  6
Continuous
 62
     7
370
    18
100
AcDbLine
 10
110.0
 20
292.0
 30
0.0
 11
110.0
 21
287.0
 31
0.0
  0
LINE
  5
9F
330
1F
100
AcDbEntity
  8
0
  6
Continuous
 62
     7
370
    18
100
AcDbLine
 10
160.0
 20
287.0
 30
0.0
 11
160.0
 21
292.0
 31
0.0
  0
LINE
  5
A0
330
1F
100
AcDbEntity
  8
0
  6
Continuous
 62
     7
370
    18
100
AcDbLine
 10
260.0
 20
287.0
 30
0.0
 11
260.0
 21
292.0
 31
0.0
  0
LINE
  5
A1
330
1F
100
AcDbEntity
  8
0
  6
Continuous
 62
     7
370
    18
100
AcDbLine
 10
415.0
 20
5.0
 30
0.0
 11
415.0
 21
292.0
 31
0.0
  0
LINE
  5
A2
330
1F
100
AcDbEntity
  8
0
  6
Continuous
 62
     7
370
    18
100
AcDbLine
 10
210.0
 20
5.0
 30
0.0
 11
210.0
 21
15.0
 31
0.0
  0
LINE
  5
A3
330
1F
100
AcDbEntity
  8
0
  6
Continuous
 62
     7
370
    18
100
AcDbLine
 10
410.0
 20
198.5
 30
0.0
 11
415.0
 21
198.5
 31
0.0
  0
LINE
  5
A4
330
1F
100
AcDbEntity
  8
0
  6
Continuous
 62
     7
370
    18
100
AcDbLine
 10
410.0
 20
98.5
 30
0.0
 11
415.0
 21
98.5
 31
0.0
  0
LINE
  5
A5
330
1F
100
AcDbEntity
  8
0
  6
Continuous
 62
     7
370
    18
100
AcDbLine
 10
415.0
 20
148.5
 30
0.0
 11
405.0
 21
148.5
 31
0.0
  0
LINE
  5
A6
330
1F
100
AcDbEntity
  8
0
  6
Continuous
 62
     7
370
    18
100
AcDbLine
 10
310.0
 20
292.0
 30
0.0
 11
310.0
 21
287.0
 31
0.0
  0
LINE
  5
A7
330
1F
100
AcDbEntity
  8
0
  6
Continuous
 62
     7
370
    18
100
AcDbLine
 10
360.0
 20
287.0
 30
0.0
 11
360.0
 21
292.0
 31
0.0
  0
LINE
  5
A8
330
1F
100
AcDbEntity
  8
0
  6
Continuous
 62
     7
370
    18
100
AcDbLine
 10
210.0
 20
292.0
 30
0.0
 11
210.0
 21
282.0
 31
0.0
  0
LINE
  5
A9
330
1F
100
AcDbEntity
  8
0
  6
Continuous
 62
     7
370
    18
100
AcDbLine
 10
415.0
 20
248.5
 30
0.0
 11
410.0
 21
248.5
 31
0.0
  0
MTEXT
  5
AB
330
1F
100
AcDbEntity
  8
CAMADA_1
100
AcDbMText
 10
227.2617313597
 20
89.1174519241
 30
0.0
 40
3.5
 41
0.0
 71
     1
 72
     1
  1
Tolerância: +/-0.1mm
  7
SLDTEXTSTYLE0
 73
     1
 44
1.0
  0
MTEXT
  5
AC
330
1F
100
AcDbEntity
  8
FORMAT
100
AcDbMText
 10
227.2617313597
 20
82.3343841003
 30
0.0
 40
3.5
 41
0.0
 71
     1
 72
     1
  1
Cor: Cobre
  7
SLDTEXTSTYLE0
 73
     1
 44
1.0
  0
MTEXT
  5
AD
330
1F
100
AcDbEntity
  8
FORMAT
100
AcDbMText
 10
227.0092188078
 20
75.5681387828
 30
0.0
 40
3.5
 41
0.0
 71
     1
 72
     1
  1
Descrição: Conexão barramento Negativo
  7
SLDTEXTSTYLE0
 73
     1
 44
1.0
  0
MTEXT
  5
AE
330
1F
100
AcDbEntity
  8
FORMAT
100
AcDbMText
 10
227.2617313597
 20
69.2469225047
 30
0.0
 40
3.5
 41
0.0
 71
     1
 72
     1
  1
Material: Chapa de Cobre Espessura: 2,00mm.
  7
SLDTEXTSTYLE0
 73
     1
 44
1.0
  0
MTEXT
  5
AF
330
1F
100
AcDbEntity
  8
0
  6
Continuous
 62
     7
370
     0
100
AcDbMText
 10
6.6666666667
 20
124.6680204618
 30
0.0
 40
1.8520833333
 41
0.0
 71
     1
 72
     1
  1
D
  7
SLDTEXTSTYLE0
 73
     1
 44
1.0
  0
MTEXT
  5
B0
330
1F
100
AcDbEntity
  8
0
  6
Continuous
 62
     7
370
     0
100
AcDbMText
 10
6.6666666667
 20
74.6680204618
 30
0.0
 40
1.8520833333
 41
0.0
 71
     1
 72
     1
  1
E
  7
SLDTEXTSTYLE0
 73
     1
 44
1.0
  0
MTEXT
  5
B1
330
1F
100
AcDbEntity
  8
0
  6
Continuous
 62
     7
370
     0
100
AcDbMText
 10
6.6666666667
 20
24.6680204618
 30
0.0
 40
1.8520833333
 41
0.0
 71
     1
 72
     1
  1
F
  7
SLDTEXTSTYLE0
 73
     1
 44
1.0
  0
MTEXT
  5
B2
330
1F
100
AcDbEntity
  8
0
  6
Continuous
 62
     7
370
     0
100
AcDbMText
 10
6.6666666667
 20
174.6680204618
 30
0.0
 40
1.8520833333
 41
0.0
 71
     1
 72
     1
  1
C
  7
SLDTEXTSTYLE0
 73
     1
 44
1.0
  0
MTEXT
  5
B3
330
1F
100
AcDbEntity
  8
0
  6
Continuous
 62
     7
370
     0
100
AcDbMText
 10
34.5833333333
 20
8.6680244618
 30
0.0
 40
1.8520833333
 41
0.0
 71
     1
 72
     1
  1
1
  7
SLDTEXTSTYLE0
 73
     1
 44
1.0
  0
MTEXT
  5
B4
330
1F
100
AcDbEntity
  8
0
  6
Continuous
 62
     7
370
     0
100
AcDbMText
 10
84.1666666667
 20
8.6680244618
 30
0.0
 40
1.8520833333
 41
0.0
 71
     1
 72
     1
  1
2
  7
SLDTEXTSTYLE0
 73
     1
 44
1.0
  0
MTEXT
  5
B5
330
1F
100
AcDbEntity
  8
0
  6
Continuous
 62
     7
370
     0
100
AcDbMText
 10
134.1666666667
 20
8.6680244618
 30
0.0
 40
1.8520833333
 41
0.0
 71
     1
 72
     1
  1
3
  7
SLDTEXTSTYLE0
 73
     1
 44
1.0
  0
MTEXT
  5
B6
330
1F
100
AcDbEntity
  8
0
  6
Continuous
 62
     7
370
     0
100
AcDbMText
 10
184.1666666667
 20
8.6680244618
 30
0.0
 40
1.8520833333
 41
0.0
 71
     1
 72
     1
  1
4
  7
SLDTEXTSTYLE0
 73
     1
 44
1.0
  0
MTEXT
  5
B7
330
1F
100
AcDbEntity
  8
0
  6
Continuous
 62
     7
370
     0
100
AcDbMText
 10
6.6666666667
 20
224.6680204618
 30
0.0
 40
1.8520833333
 41
0.0
 71
     1
 72
     1
  1
B
  7
SLDTEXTSTYLE0
 73
     1
 44
1.0
  0
MTEXT
  5
B8
330
1F
100
AcDbEntity
  8
0
  6
Continuous
 62
     7
370
     0
100
AcDbMText
 10
6.6666666667
 20
274.6680204618
 30
0.0
 40
1.8520833333
 41
0.0
 71
     1
 72
     1
  1
A
  7
SLDTEXTSTYLE0
 73
     1
 44
1.0
  0
MTEXT
  5
B9
330
1F
100
AcDbEntity
  8
0
  6
Continuous
 62
     7
370
     0
100
AcDbMText
 10
134.1666666667
 20
290.6680244618
 30
0.0
 40
1.8520833333
 41
0.0
 71
     1
 72
     1
  1
3
  7
SLDTEXTSTYLE0
 73
     1
 44
1.0
  0
MTEXT
  5
BA
330
1F
100
AcDbEntity
  8
0
  6
Continuous
 62
     7
370
     0
100
AcDbMText
 10
84.1666666667
 20
290.6680244618
 30
0.0
 40
1.8520833333
 41
0.0
 71
     1
 72
     1
  1
2
  7
SLDTEXTSTYLE0
 73
     1
 44
1.0
  0
MTEXT
  5
BB
330
1F
100
AcDbEntity
  8
0
  6
Continuous
 62
     7
370
     0
100
AcDbMText
 10
34.5833333333
 20
290.6680244618
 30
0.0
 40
1.8520833333
 41
0.0
 71
     1
 72
     1
  1
1
  7
SLDTEXTSTYLE0
 73
     1
 44
1.0
  0
MTEXT
  5
BC
330
1F
100
AcDbEntity
  8
0
  6
Continuous
 62
     7
370
     0
100
AcDbMText
 10
234.1666666667
 20
290.6680244618
 30
0.0
 40
1.8520833333
 41
0.0
 71
     1
 72
     1
  1
5
  7
SLDTEXTSTYLE0
 73
     1
 44
1.0
  0
MTEXT
  5
BD
330
1F
100
AcDbEntity
  8
0
  6
Continuous
 62
     7
370
     0
100
AcDbMText
 10
411.6666666667
 20
174.6680204618
 30
0.0
 40
1.8520833333
 41
0.0
 71
     1
 72
     1
  1
C
  7
SLDTEXTSTYLE0
 73
     1
 44
1.0
  0
MTEXT
  5
BE
330
1F
100
AcDbEntity
  8
0
  6
Continuous
 62
     7
370
     0
100
AcDbMText
 10
411.6666666667
 20
124.6680204618
 30
0.0
 40
1.8520833333
 41
0.0
 71
     1
 72
     1
  1
D
  7
SLDTEXTSTYLE0
 73
     1
 44
1.0
  0
MTEXT
  5
BF
330
1F
100
AcDbEntity
  8
0
  6
Continuous
 62
     7
370
     0
100
AcDbMText
 10
184.1666666667
 20
290.6680244618
 30
0.0
 40
1.8520833333
 41
0.0
 71
     1
 72
     1
  1
4
  7
SLDTEXTSTYLE0
 73
     1
 44
1.0
  0
MTEXT
  5
C0
330
1F
100
AcDbEntity
  8
0
  6
Continuous
 62
     7
370
     0
100
AcDbMText
 10
284.1666666667
 20
290.6680244618
 30
0.0
 40
1.8520833333
 41
0.0
 71
     1
 72
     1
  1
6
  7
SLDTEXTSTYLE0
 73
     1
 44
1.0
  0
MTEXT
  5
C1
330
1F
100
AcDbEntity
  8
0
  6
Continuous
 62
     7
370
     0
100
AcDbMText
 10
334.1666666667
 20
290.6680244618
 30
0.0
 40
1.8520833333
 41
0.0
 71
     1
 72
     1
  1
7
  7
SLDTEXTSTYLE0
 73
     1
 44
1.0
  0
MTEXT
  5
C2
330
1F
100
AcDbEntity
  8
0
  6
Continuous
 62
     7
370
     0
100
AcDbMText
 10
384.1666666667
 20
290.6680244618
 30
0.0
 40
1.8520833333
 41
0.0
 71
     1
 72
     1
  1
8
  7
SLDTEXTSTYLE0
 73
     1
 44
1.0
  0
MTEXT
  5
C3
330
1F
100
AcDbEntity
  8
0
  6
Continuous
 62
     7
370
     0
100
AcDbMText
 10
411.6666666667
 20
274.6680204618
 30
0.0
 40
1.8520833333
 41
0.0
 71
     1
 72
     1
  1
A
  7
SLDTEXTSTYLE0
 73
     1
 44
1.0
  0
MTEXT
  5
C4
330
1F
100
AcDbEntity
  8
0
  6
Continuous
 62
     7
370
     0
100
AcDbMText
 10
411.6666666667
 20
224.6680204618
 30
0.0
 40
1.8520833333
 41
0.0
 71
     1
 72
     1
  1
B
  7
SLDTEXTSTYLE0
 73
     1
 44
1.0
  0
MTEXT
  5
C5
330
1F
100
AcDbEntity
  8
0
  6
Continuous
 62
     7
370
     0
100
AcDbMText
 10
351.2772816485
 20
15.3628143309
 30
0.0
 40
3.2
 41
0.0
 71
     2
 72
     1
  1
P009
  7
SLDTEXTSTYLE0
 73
     1
 44
1.0
  0
MTEXT
  5
C6
330
1F
100
AcDbEntity
  8
0
  6
Continuous
 62
     7
370
     0
100
AcDbMText
 10
228.2551864991
 20
8.0436101118
 30
0.0
 40
2.0
 41
0.0
 71
     1
 72
     1
  1
ESPESSURA: 2,00mm
  7
SLDTEXTSTYLE0
 73
     1
 44
1.0
  0
MTEXT
  5
C7
330
1F
100
AcDbEntity
  8
0
  6
Continuous
 62
     7
370
     0
100
AcDbMText
 10
254.9619619946
 20
16.4845695419
 30
0.0
 40
2.0
 41
0.0
 71
     2
 72
     1
  1
Chapa de Cobre
  7
SLDTEXTSTYLE0
 73
     1
 44
1.0
  0
MTEXT
  5
C8
330
1F
100
AcDbEntity
  8
0
  6
Continuous
 62
     7
370
     0
100
AcDbMText
 10
406.7007320234
 20
8.1775893942
 30
0.0
 40
2.0
 41
0.0
 71
     1
 72
     1
  1
A3
  7
SLDTEXTSTYLE0
 73
     1
 44
1.0
  0
MTEXT
  5
CA
330
1F
100
AcDbEntity
  8
0
  6
Continuous
 62
     7
370
     0
100
AcDbMText
 10
372.2782944278
 20
8.0446212953
 30
0.0
 40
2.0
 41
0.0
 71
     1
 72
     1
  1
FOLHA 1 DE  1
  7
SLDTEXTSTYLE1
 73
     1
 44
1.0
  0
MTEXT
  5
CB
330
1F
100
AcDbEntity
  8
0
  6
Continuous
 62
     7
370
     0
100
AcDbMText
 10
327.8739661175
 20
8.0446212953
 30
0.0
 40
2.0
 41
0.0
 71
     1
 72
     1
  1
ESCALA: 1:2
  7
SLDTEXTSTYLE0
 73
     1
 44
1.0
  0
MTEXT
  5
CC
330
1F
100
AcDbEntity
  8
0
  6
Continuous
 62
     7
370
     0
100
AcDbMText
 10
283.4682507293
 20
20.6041821634
 30
0.0
 40
1.5
 41
0.0
 71
     1
 72
     1
  1
ARQUIVO:
  7
SLDTEXTSTYLE0
 73
     1
 44
1.0
  0
MTEXT
  5
CD
330
1F
100
AcDbEntity
  8
0
  6
Continuous
 62
     7
370
     0
100
AcDbMText
 10
327.7561869366
 20
41.2783343442
 30
0.0
 40
1.5
 41
0.0
 71
     1
 72
     1
  1
CONJUNTO:
  7
SLDTEXTSTYLE0
 73
     1
 44
1.0
  0
MTEXT
  5
CE
330
1F
100
AcDbEntity
  8
0
  6
Continuous
 62
     7
370
     0
100
AcDbMText
 10
283.5708847492
 20
8.0446212953
 30
0.0
 40
2.0
 41
0.0
 71
     1
 72
     1
  1
REVISÃO:
  7
SLDTEXTSTYLE0
 73
     1
 44
1.0
  0
MTEXT
  5
CF
330
1F
100
AcDbEntity
  8
0
  6
Continuous
 62
     7
370
     0
100
AcDbMText
 10
228.2551864991
 20
20.5046621902
 30
0.0
 40
1.5
 41
0.0
 71
     1
 72
     1
  1
MATERIAL:
  7
SLDTEXTSTYLE0
 73
     1
 44
1.0
  0
MTEXT
  5
D0
330
1F
100
AcDbEntity
  8
0
  6
Continuous
 62
     7
370
     0
100
AcDbMText
 10
261.0927285536
 20
41.5014826917
 30
0.0
 40
1.5
 41
0.0
 71
     1
 72
     1
  1
VISTO
  7
SLDTEXTSTYLE0
 73
     1
 44
1.0
  0
MTEXT
  5
D1
330
1F
100
AcDbEntity
  8
0
  6
Continuous
 62
     7
370
     0
100
AcDbMText
 10
274.2878177404
 20
41.5014826917
 30
0.0
 40
1.5
 41
0.0
 71
     1
 72
     1
  1
DATA
  7
SLDTEXTSTYLE0
 73
     1
 44
1.0
  0
MTEXT
  5
D2
330
1F
100
AcDbEntity
  8
0
  6
Continuous
 62
     7
370
     0
100
AcDbMText
 10
242.1222392177
 20
41.5014826917
 30
0.0
 40
1.5
 41
0.0
 71
     1
 72
     1
  1
NOME
  7
SLDTEXTSTYLE0
 73
     1
 44
1.0
  0
MTEXT
  5
D3
330
1F
100
AcDbEntity
  8
0
  6
Continuous
 62
     7
370
     0
100
AcDbMText
 10
228.2551864991
 20
24.7337047088
 30
0.0
 40
1.5
 41
0.0
 71
     1
 72
     1
  1
APROV.
  7
SLDTEXTSTYLE0
 73
     1
 44
1.0
  0
MTEXT
  5
D4
330
1F
100
AcDbEntity
  8
0
  6
Continuous
 62
     7
370
     0
100
AcDbMText
 10
228.2017224083
 20
29.0642960613
 30
0.0
 40
1.5
 41
0.0
 71
     1
 72
     1
  1
CONF.
  7
SLDTEXTSTYLE0
 73
     1
 44
1.0
  0
MTEXT
  5
D5
330
1F
100
AcDbEntity
  8
0
  6
Continuous
 62
     7
370
     0
100
AcDbMText
 10
228.2104688676
 20
33.1544072182
 30
0.0
 40
1.5
 41
0.0
 71
     1
 72
     1
  1
DES.
  7
SLDTEXTSTYLE0
 73
     1
 44
1.0
  0
MTEXT
  5
D6
330
1F
100
AcDbEntity
  8
0
  6
Continuous
 62
     7
370
     0
100
AcDbMText
 10
228.0121492441
 20
37.4297149441
 30
0.0
 40
1.5
 41
0.0
 71
     1
 72
     1
  1
PROJ.
  7
SLDTEXTSTYLE0
 73
     1
 44
1.0
  0
MTEXT
  5
D7
330
1F
100
AcDbEntity
  8
0
  6
Continuous
 62
     7
370
     0
100
AcDbMText
 10
327.5038427567
 20
28.9300024209
 30
0.0
 40
1.5
 41
0.0
 71
     1
 72
     1
  1
DESCRIÇÃO:
  7
SLDTEXTSTYLE0
 73
     1
 44
1.0
  0
MTEXT
  5
D8
330
1F
100
AcDbEntity
  8
0
  6
Continuous
 62
     7
370
     0
100
AcDbMText
 10
370.538485814
 20
26.6837179248
 30
0.0
 40
3.2
 41
0.0
 71
     2
 72
     1
  1
Conexão barramento Negativo
  7
SLDTEXTSTYLE0
 73
     1
 44
1.0
  0
INSERT
  5
DF
330
1F
100
AcDbEntity
  8
0
  6
Continuous
 62
     7
370
     0
100
AcDbBlockReference
  2
SW_NOTE_0
 10
228.3936687456
 20
56.9873699325
 30
0.0
  0
MTEXT
  5
E0
330
1F
100
AcDbEntity
  8
0
  6
Continuous
 62
     7
370
     0
100
AcDbMText
 10
263.2169977781
 20
58.9209713093
 30
0.0
 40
1.5
 41
0.0
 71
     1
 72
     1
  1
QUANTIDADE:
  7
SLDTEXTSTYLE0
 73
     1
 44
1.0
  0
MTEXT
  5
E1
330
1F
100
AcDbEntity
  8
0
  6
Continuous
 62
     7
370
     0
100
AcDbMText
 10
285.6718805488
 20
52.8815988004
 30
0.0
 40
2.7
 41
0.0
 71
     2
 72
     1
  1
1 peça(s) por conjunto
  7
SLDTEXTSTYLE0
 73
     1
 44
1.0
  0
LINE
  5
E2
330
1F
100
AcDbEntity
  8
0
  6
Continuous
 62
     7
370
    25
100
AcDbLine
 10
56.3071321397
 20
250.6817055068
 30
0.0
 11
76.1114370973
 21
250.6817055068
 31
0.0
  0
LINE
  5
E3
330
1F
100
AcDbEntity
  8
0
  6
Continuous
 62
     7
370
    25
100
AcDbLine
 10
76.1114370973
 20
249.6917055068
 30
0.0
 11
76.1114370973
 21
250.6817055068
 31
0.0
  0
LINE
  5
E4
330
1F
100
AcDbEntity
  8
0
  6
Continuous
 62
     7
370
    25
100
AcDbLine
 10
56.3071321397
 20
249.6917055068
 30
0.0
 11
76.1114370973
 21
249.6917055068
 31
0.0
  0
LINE
  5
E5
330
1F
100
AcDbEntity
  8
0
  6
Continuous
 62
     7
370
    25
100
AcDbLine
 10
56.3071321397
 20
249.6917055068
 30
0.0
 11
56.3071321397
 21
250.6817055068
 31
0.0
  0
LINE
  5
E6
330
1F
100
AcDbEntity
  8
0
  6
Continuous
 62
     7
370
    25
100
AcDbLine
 10
76.626486997
 20
249.7595131125
 30
0.0
 11
76.3702561424
 21
250.7157796805
 31
0.0
  0
LINE
  5
E7
330
1F
100
AcDbEntity
  8
0
  6
Continuous
 62
     7
370
    25
100
AcDbLine
 10
91.520391879
 20
253.7503228977
 30
0.0
 11
91.2641610244
 21
254.7065894658
 31
0.0
  0
LINE
  5
E8
330
1F
100
AcDbEntity
  8
0
  6
Continuous
 62
     7
370
    25
100
AcDbLine
 10
76.3702561424
 20
250.7157796805
 30
0.0
 11
91.2641610244
 21
254.7065894658
 31
0.0
  0
LINE
  5
E9
330
1F
100
AcDbEntity
  8
0
  6
Continuous
 62
     7
370
    25
100
AcDbLine
 10
76.626486997
 20
249.7595131125
 30
0.0
 11
91.520391879
 21
253.7503228977
 31
0.0
  0
LINE
  5
EA
330
1F
100
AcDbEntity
  8
0
  6
Continuous
 62
     7
370
    25
100
AcDbLine
 10
91.7792109241
 20
254.7743970714
 30
0.0
 11
168.2728208394
 21
254.7743970714
 31
0.0
  0
LINE
  5
EB
330
1F
100
AcDbEntity
  8
0
  6
Continuous
 62
     7
370
    25
100
AcDbLine
 10
168.2728208394
 20
253.7843970714
 30
0.0
 11
168.2728208394
 21
254.7743970714
 31
0.0
  0
LINE
  5
EC
330
1F
100
AcDbEntity
  8
0
  6
Continuous
 62
     7
370
    25
100
AcDbLine
 10
91.7792109241
 20
253.7843970714
 30
0.0
 11
168.2728208394
 21
253.7843970714
 31
0.0
  0
LINE
  5
ED
330
1F
100
AcDbEntity
  8
0
  6
Continuous
 62
     7
370
    25
100
AcDbLine
 10
91.7792109241
 20
253.7843970714
 30
0.0
 11
91.7792109241
 21
254.7743970714
 31
0.0
  0
ARC
  5
EE
330
1F
100
AcDbEntity
  8
0
  6
Continuous
 62
     7
370
    25
100
AcDbCircle
 10
76.1114370973
 20
251.6817055068
 30
0.0
 40
1.990000000000009
100
AcDbArc
 50
270.0
 51
285.0
  0
ARC
  5
EF
330
1F
100
AcDbEntity
  8
0
  6
Continuous
 62
     7
370
    25
100
AcDbCircle
 10
76.1114370973
 20
251.6817055068
 30
0.0
 40
1.0
100
AcDbArc
 50
270.0
 51
285.0
  0
ARC
  5
F0
330
1F
100
AcDbEntity
  8
0
  6
Continuous
 62
     7
370
    25
100
AcDbCircle
 10
91.7792109241
 20
252.7843970714
 30
0.0
 40
1.989999999999991
100
AcDbArc
 50
90.0
 51
105.0
  0
ARC
  5
F1
330
1F
100
AcDbEntity
  8
0
  6
Continuous
 62
     7
370
    25
100
AcDbCircle
 10
91.7792109241
 20
252.7843970714
 30
0.0
 40
1.0
100
AcDbArc
 50
90.0
 51
105.0
  0
DIMENSION
  5
F2
330
1F
100
AcDbEntity
  8
CAMADA_1
100
AcDbDimension
  2
_D
 10
56.3071321397
 20
249.6917055068
 30
0.0
 11
97.9376797602
 21
258.3107591451
 31
0.0
 70
   162
  1
<>
 71
     1
 42
-1.0
  3
SLDDIMSTYLE0
100
AcDb2LineAngularDimension
 13
91.520391879
 23
253.7503228977
 33
0.0
 14
76.626486997
 24
249.7595131125
 34
0.0
 15
76.1114370973
 25
249.6917055068
 35
0.0
 16
99.3976944141
 26
252.7229080056
 36
0.0
  0
DIMENSION
  5
FF
330
1F
100
AcDbEntity
  8
CAMADA_1
100
AcDbDimension
  2
_D_1
 10
76.1114370973
 20
240.7514924911
 30
0.0
 11
66.8700111894
 21
240.7514924911
 31
0.0
 70
   160
  1
<>
 71
     2
 42
-1.0
  3
SLDDIMSTYLE1
100
AcDbAlignedDimension
 13
56.3071321397
 23
249.6917055068
 33
0.0
 14
76.1114370973
 24
249.6917055068
 34
0.0
100
AcDbRotatedDimension
  0
LINE
  5
10C
330
1F
100
AcDbEntity
  8
0
  6
Continuous
 62
     7
370
    25
100
AcDbLine
 10
103.9810324923
 20
212.2271186441
 30
0.0
 11
103.9810324923
 21
213.2271186441
 31
0.0
  0
LINE
  5
10D
330
1F
100
AcDbEntity
  8
0
  6
Continuous
 62
     7
370
    25
100
AcDbLine
 10
168.2728208394
 20
213.2271186441
 30
0.0
 11
103.9810324923
 21
213.2271186441
 31
0.0
  0
LINE
  5
10E
330
1F
100
AcDbEntity
  8
0
  6
Continuous
 62
     7
370
    25
100
AcDbLine
 10
168.2728208394
 20
200.7271186441
 30
0.0
 11
168.2728208394
 21
213.2271186441
 31
0.0
  0
LINE
  5
10F
330
1F
100
AcDbEntity
  8
0
  6
Continuous
 62
     7
370
    25
100
AcDbLine
 10
91.7792109241
 20
212.2271186441
 30
0.0
 11
91.7792109241
 21
200.7271186441
 31
0.0
  0
LINE
  5
110
330
1F
100
AcDbEntity
  8
0
  6
Continuous
 62
     7
370
    25
100
AcDbLine
 10
103.9810324923
 20
212.2271186441
 30
0.0
 11
91.7792109241
 21
212.2271186441
 31
0.0
  0
CIRCLE
  5
111
330
1F
100
AcDbEntity
  8
0
  6
Continuous
 62
     7
370
    25
100
AcDbCircle
 10
163.4446321397
 20
206.9771186441
 30
0.0
 40
0.8249999999999886
  0
LINE
  5
112
330
1F
100
AcDbEntity
  8
0
  6
Continuous
 62
     7
370
    25
100
AcDbLine
 10
91.7792109241
 20
200.7271186441
 30
0.0
 11
168.2728208394
 21
200.7271186441
 31
0.0
  0
LINE
  5
113
330
1F
100
AcDbEntity
  8
0
  6
Continuous
 62
     7
370
    25
100
AcDbLine
 10
91.7792109241
 20
200.7271186441
 30
0.0
 11
91.2641610244
 21
200.7271186441
 31
0.0
  0
LINE
  5
114
330
1F
100
AcDbEntity
  8
0
  6
Continuous
 62
     7
370
    25
100
AcDbLine
 10
91.2641610244
 20
213.2271186441
 30
0.0
 11
91.2641610244
 21
200.7271186441
 31
0.0
  0
LINE
  5
115
330
1F
100
AcDbEntity
  8
0
  6
Continuous
 62
     7
370
    25
100
AcDbLine
 10
91.2641610244
 20
213.2271186441
 30
0.0
 11
91.4810324923
 21
213.2271186441
 31
0.0
  0
LINE
  5
116
330
1F
100
AcDbEntity
  8
0
  6
Continuous
 62
     7
370
    25
100
AcDbLine
 10
91.4810324923
 20
213.2271186441
 30
0.0
 11
91.4810324923
 21
212.2271186441
 31
0.0
  0
LINE
  5
117
330
1F
100
AcDbEntity
  8
0
  6
Continuous
 62
     7
370
    25
100
AcDbLine
 10
91.4810324923
 20
212.2271186441
 30
0.0
 11
91.7792109241
 21
212.2271186441
 31
0.0
  0
LINE
  5
118
330
1F
100
AcDbEntity
  8
0
  6
Continuous
 62
     7
370
    25
100
AcDbLine
 10
91.6293725162
 20
213.2271186441
 30
0.0
 11
91.6293725162
 21
212.2271186441
 31
0.0
  0
LINE
  5
119
330
1F
100
AcDbEntity
  8
0
  6
Continuous
 62
     7
370
    25
100
AcDbLine
 10
91.4810324923
 20
213.2271186441
 30
0.0
 11
91.6293725162
 21
213.2271186441
 31
0.0
  0
LINE
  5
11A
330
1F
100
AcDbEntity
  8
0
  6
Continuous
 62
     7
370
    25
100
AcDbLine
 10
76.3702561424
 20
213.2271186441
 30
0.0
 11
76.3702561424
 21
200.7271186441
 31
0.0
  0
LINE
  5
11B
330
1F
100
AcDbEntity
  8
0
  6
Continuous
 62
     7
370
    25
100
AcDbLine
 10
91.2641610244
 20
213.2271186441
 30
0.0
 11
76.3702561424
 21
213.2271186441
 31
0.0
  0
LINE
  5
11C
330
1F
100
AcDbEntity
  8
0
  6
Continuous
 62
     7
370
    25
100
AcDbLine
 10
76.3702561424
 20
200.7271186441
 30
0.0
 11
91.2641610244
 21
200.7271186441
 31
0.0
  0
LINE
  5
11D
330
1F
100
AcDbEntity
  8
0
  6
Continuous
 62
     7
370
    25
100
AcDbLine
 10
76.3702561424
 20
200.7271186441
 30
0.0
 11
76.1114370973
 21
200.7271186441
 31
0.0
  0
LINE
  5
11E
330
1F
100
AcDbEntity
  8
0
  6
Continuous
 62
     7
370
    25
100
AcDbLine
 10
76.1114370973
 20
213.2271186441
 30
0.0
 11
76.1114370973
 21
200.7271186441
 31
0.0
  0
LINE
  5
11F
330
1F
100
AcDbEntity
  8
0
  6
Continuous
 62
     7
370
    25
100
AcDbLine
 10
76.1114370973
 20
213.2271186441
 30
0.0
 11
76.3702561424
 21
213.2271186441
 31
0.0
  0
LINE
  5
120
330
1F
100
AcDbEntity
  8
0
  6
Continuous
 62
     7
370
    25
100
AcDbLine
 10
56.3071321397
 20
200.7271186441
 30
0.0
 11
76.1114370973
 21
200.7271186441
 31
0.0
  0
LINE
  5
121
330
1F
100
AcDbEntity
  8
0
  6
Continuous
 62
     7
370
    25
100
AcDbLine
 10
56.3071321397
 20
213.2271186441
 30
0.0
 11
56.3071321397
 21
200.7271186441
 31
0.0
  0
CIRCLE
  5
122
330
1F
100
AcDbEntity
  8
0
  6
Continuous
 62
     7
370
    25
100
AcDbCircle
 10
60.0571321397
 20
206.9771186441
 30
0.0
 40
1.049999999999983
  0
LINE
  5
123
330
1F
100
AcDbEntity
  8
0
  6
Continuous
 62
     7
370
    25
100
AcDbLine
 10
76.1114370973
 20
213.2271186441
 30
0.0
 11
56.3071321397
 21
213.2271186441
 31
0.0
  0
DIMENSION
  5
124
330
1F
100
AcDbEntity
  8
CAMADA_1
100
AcDbDimension
  2
_D_2
 10
168.2728208394
 20
184.7271186441
 30
0.0
 11
130.0260158817
 21
184.7271186441
 31
0.0
 70
   160
  1
<>
 71
     2
 42
-1.0
  3
SLDDIMSTYLE2
100
AcDbAlignedDimension
 13
91.7792109241
 23
200.7271186441
 33
0.0
 14
168.2728208394
 24
200.7271186441
 34
0.0
100
AcDbRotatedDimension
  0
DIMENSION
  5
12F
330
1F
100
AcDbEntity
  8
CAMADA_1
100
AcDbDimension
  2
_D_3
 10
162.6773173008
 20
206.6740461477
 30
0.0
 11
188.354013565
 21
216.8157828675
 31
0.0
 70
   163
  1
M4
 71
     1
 42
-1.0
  3
SLDDIMSTYLE3
100
AcDbDiametricDimension
 15
164.2119469785
 25
207.2801911404
 35
0.0
 40
0.0
  0
DIMENSION
  5
13B
330
1F
100
AcDbEntity
  8
CAMADA_1
100
AcDbDimension
  2
_D_4
 10
61.0197626153
 20
207.3964545087
 30
0.0
 11
32.7384790715
 21
195.0767208689
 31
0.0
 70
   163
  1
M5
 71
     1
 42
-1.0
  3
SLDDIMSTYLE3
100
AcDbDiametricDimension
 15
59.094501664
 25
206.5577827795
 35
0.0
 40
0.0
  0
DIMENSION
  5
143
330
1F
100
AcDbEntity
  8
CAMADA_1
100
AcDbDimension
  2
_D_5
 10
168.2728208394
 20
223.2271186441
 30
0.0
 11
112.2899764895
 21
223.2271186441
 31
0.0
 70
   160
  1
<>
 71
     2
 42
-1.0
  3
SLDDIMSTYLE2
100
AcDbAlignedDimension
 13
56.3071321397
 23
213.2271186441
 33
0.0
 14
168.2728208394
 24
213.2271186441
 34
0.0
100
AcDbRotatedDimension
  0
DIMENSION
  5
14D
330
1F
100
AcDbEntity
  8
CAMADA_1
100
AcDbDimension
  2
_D_6
 10
56.3071321397
 20
190.7271186441
 30
0.0
 11
43.9415072887
 21
190.7271186441
 31
0.0
 70
   160
  1
<>
 71
     2
 42
-1.0
  3
SLDDIMSTYLE1
100
AcDbAlignedDimension
 13
60.0571321397
 23
204.6771186441
 33
0.0
 14
56.3071321397
 24
200.7271186441
 34
0.0
100
AcDbRotatedDimension
  0
DIMENSION
  5
159
330
1F
100
AcDbEntity
  8
CAMADA_1
100
AcDbDimension
  2
_D_7
 10
168.2728208394
 20
190.7271186441
 30
0.0
 11
179.4428393336
 21
190.7271186441
 31
0.0
 70
   160
  1
<>
 71
     2
 42
-1.0
  3
SLDDIMSTYLE1
100
AcDbAlignedDimension
 13
163.4446321397
 23
204.9021186441
 33
0.0
 14
168.2728208394
 24
200.7271186441
 34
0.0
100
AcDbRotatedDimension
  0
INSERT
  5
170
330
1F
100
AcDbEntity
  8
CAMADA_1
100
AcDbBlockReference
  2
SW_CENTERMARKSYMBOL_0
 10
60.0571321397
 20
206.9771186441
 30
0.0
  0
INSERT
  5
17C
330
1F
100
AcDbEntity
  8
CAMADA_1
100
AcDbBlockReference
  2
SW_CENTERMARKSYMBOL_1
 10
163.4446321397
 20
206.9771186441
 30
0.0
  0
LINE
  5
17D
330
1F
100
AcDbEntity
  8
0
  6
Continuous
 62
     7
370
    25
100
AcDbLine
 10
204.6057627119
 20
250.6817055068
 30
0.0
 11
217.1057627119
 21
250.6817055068
 31
0.0
  0
LINE
  5
17E
330
1F
100
AcDbEntity
  8
0
  6
Continuous
 62
     7
370
    25
100
AcDbLine
 10
217.1057627119
 20
249.6917055068
 30
0.0
 11
217.1057627119
 21
250.6817055068
 31
0.0
  0
LINE
  5
17F
330
1F
100
AcDbEntity
  8
0
  6
Continuous
 62
     7
370
    25
100
AcDbLine
 10
204.6057627119
 20
249.6917055068
 30
0.0
 11
217.1057627119
 21
249.6917055068
 31
0.0
  0
LINE
  5
180
330
1F
100
AcDbEntity
  8
0
  6
Continuous
 62
     7
370
    25
100
AcDbLine
 10
204.6057627119
 20
249.6917055068
 30
0.0
 11
204.6057627119
 21
250.6817055068
 31
0.0
  0
LINE
  5
181
330
1F
100
AcDbEntity
  8
0
  6
Continuous
 62
     7
370
    25
100
AcDbLine
 10
204.6057627119
 20
250.6817055068
 30
0.0
 11
204.6057627119
 21
250.7157796805
 31
0.0
  0
LINE
  5
182
330
1F
100
AcDbEntity
  8
0
  6
Continuous
 62
     7
370
    25
100
AcDbLine
 10
204.6057627119
 20
250.7157796805
 30
0.0
 11
217.1057627119
 21
250.7157796805
 31
0.0
  0
LINE
  5
183
330
1F
100
AcDbEntity
  8
0
  6
Continuous
 62
     7
370
    25
100
AcDbLine
 10
217.1057627119
 20
250.7157796805
 30
0.0
 11
217.1057627119
 21
250.6817055068
 31
0.0
  0
LINE
  5
184
330
1F
100
AcDbEntity
  8
0
  6
Continuous
 62
     7
370
    25
100
AcDbLine
 10
217.1057627119
 20
250.7157796805
 30
0.0
 11
217.1057627119
 21
254.7065894658
 31
0.0
  0
LINE
  5
185
330
1F
100
AcDbEntity
  8
0
  6
Continuous
 62
     7
370
    25
100
AcDbLine
 10
204.6057627119
 20
254.7065894658
 30
0.0
 11
204.6057627119
 21
250.7157796805
 31
0.0
  0
LINE
  5
186
330
1F
100
AcDbEntity
  8
0
  6
Continuous
 62
     7
370
    25
100
AcDbLine
 10
204.6057627119
 20
254.7065894658
 30
0.0
 11
217.1057627119
 21
254.7065894658
 31
0.0
  0
LINE
  5
187
330
1F
100
AcDbEntity
  8
0
  6
Continuous
 62
     7
370
    25
100
AcDbLine
 10
205.6057627119
 20
254.7743970714
 30
0.0
 11
217.1057627119
 21
254.7743970714
 31
0.0
  0
LINE
  5
188
330
1F
100
AcDbEntity
  8
0
  6
Continuous
 62
     7
370
    25
100
AcDbLine
 10
204.6057627119
 20
254.7519309651
 30
0.0
 11
205.6057627119
 21
254.7519309651
 31
0.0
  0
LINE
  5
189
330
1F
100
AcDbEntity
  8
0
  6
Continuous
 62
     7
370
    25
100
AcDbLine
 10
205.6057627119
 20
254.7519309651
 30
0.0
 11
205.6057627119
 21
254.7743970714
 31
0.0
  0
LINE
  5
18A
330
1F
100
AcDbEntity
  8
0
  6
Continuous
 62
     7
370
    25
100
AcDbLine
 10
217.1057627119
 20
254.7743970714
 30
0.0
 11
217.1057627119
 21
254.7065894658
 31
0.0
  0
LINE
  5
18B
330
1F
100
AcDbEntity
  8
0
  6
Continuous
 62
     7
370
    25
100
AcDbLine
 10
204.6057627119
 20
254.7065894658
 30
0.0
 11
204.6057627119
 21
254.7519309651
 31
0.0
  0
LINE
  5
18C
330
1F
100
AcDbEntity
  8
0
  6
Continuous
 62
     7
370
    25
100
AcDbLine
 10
204.6057627119
 20
254.7743970714
 30
0.0
 11
204.6057627119
 21
254.7519309651
 31
0.0
  0
LINE
  5
18D
330
1F
100
AcDbEntity
  8
0
  6
Continuous
 62
     7
370
    25
100
AcDbLine
 10
205.6057627119
 20
254.7743970714
 30
0.0
 11
204.6057627119
 21
254.7743970714
 31
0.0
  0
DIMENSION
  5
18E
330
1F
100
AcDbEntity
  8
CAMADA_1
100
AcDbDimension
  2
_D_8
 10
227.1057627119
 20
254.7743970714
 30
0.0
 11
227.1057627119
 21
237.7909777417
 31
0.0
 70
   160
  1
<>
 71
     2
 42
-1.0
  3
SLDDIMSTYLE1
100
AcDbAlignedDimension
 13
217.1057627119
 23
249.6917055068
 33
0.0
 14
217.1057627119
 24
254.7743970714
 34
0.0
 50
90.0
100
AcDbRotatedDimension
  0
DIMENSION
  5
19A
330
1F
100
AcDbEntity
  8
CAMADA_1
100
AcDbDimension
  2
_D_9
 10
194.6057627119
 20
250.6817055068
 30
0.0
 11
194.6057627119
 21
237.3260806558
 31
0.0
 70
   160
  1
<>
 71
     2
 42
-1.0
  3
SLDDIMSTYLE1
100
AcDbAlignedDimension
 13
204.6057627119
 23
249.6917055068
 33
0.0
 14
204.6057627119
 24
250.6817055068
 34
0.0
 50
90.0
100
AcDbRotatedDimension
  0
LINE
  5
1A6
330
1F
100
AcDbEntity
  8
0
  6
CENTERX2
 62
     7
100
AcDbLine
 10
351.1752542373
 20
159.1457762074
 30
0.0
 11
338.6752542373
 21
159.1457762074
 31
0.0
  0
LINE
  5
1A7
330
1F
100
AcDbEntity
  8
0
  6
CENTERX2
 62
     7
100
AcDbLine
 10
351.1752542373
 20
174.9564712498
 30
0.0
 11
339.6752542373
 21
174.9564712498
 31
0.0
  0
CIRCLE
  5
1A8
330
1F
100
AcDbEntity
  8
0
  6
Continuous
 62
     7
370
    25
100
AcDbCircle
 10
344.9252542373
 20
142.8957762074
 30
0.0
 40
1.049999999999955
  0
CIRCLE
  5
1A9
330
1F
100
AcDbEntity
  8
0
  6
Continuous
 62
     7
370
    25
100
AcDbCircle
 10
344.9252542373
 20
246.8175875077
 30
0.0
 40
0.8249999999999886
  0
LINE
  5
1AA
330
1F
100
AcDbEntity
  8
0
  6
Continuous
 62
     7
370
    25
100
AcDbLine
 10
338.6752542373
 20
139.1457762074
 30
0.0
 11
351.1752542373
 21
139.1457762074
 31
0.0
  0
LINE
  5
1AB
330
1F
100
AcDbEntity
  8
0
  6
Continuous
 62
     7
370
    25
100
AcDbLine
 10
338.6752542373
 20
174.927311066
 30
0.0
 11
338.6752542373
 21
139.1457762074
 31
0.0
  0
LINE
  5
1AC
330
1F
100
AcDbEntity
  8
0
  6
Continuous
 62
     7
370
    25
100
AcDbLine
 10
338.6752542373
 20
174.927311066
 30
0.0
 11
339.6752542373
 21
174.927311066
 31
0.0
  0
LINE
  5
1AD
330
1F
100
AcDbEntity
  8
0
  6
Continuous
 62
     7
370
    25
100
AcDbLine
 10
339.6752542373
 20
174.927311066
 30
0.0
 11
339.6752542373
 21
187.3539878604
 31
0.0
  0
LINE
  5
1AE
330
1F
100
AcDbEntity
  8
0
  6
Continuous
 62
     7
370
    25
100
AcDbLine
 10
339.6752542373
 20
187.3539878604
 30
0.0
 11
338.6752542373
 21
187.3539878604
 31
0.0
  0
LINE
  5
1AF
330
1F
100
AcDbEntity
  8
0
  6
Continuous
 62
     7
370
    25
100
AcDbLine
 10
338.6752542373
 20
251.6457762074
 30
0.0
 11
338.6752542373
 21
187.3539878604
 31
0.0
  0
LINE
  5
1B0
330
1F
100
AcDbEntity
  8
0
  6
Continuous
 62
     7
370
    25
100
AcDbLine
 10
351.1752542373
 20
251.6457762074
 30
0.0
 11
338.6752542373
 21
251.6457762074
 31
0.0
  0
LINE
  5
1B1
330
1F
100
AcDbEntity
  8
0
  6
Continuous
 62
     7
370
    25
100
AcDbLine
 10
351.1752542373
 20
139.1457762074
 30
0.0
 11
351.1752542373
 21
251.6457762074
 31
0.0
  0
DIMENSION
  5
1B2
330
1F
100
AcDbEntity
  8
CAMADA_1
100
AcDbDimension
  2
_D_10
 10
361.1752542373
 20
251.6457762074
 30
0.0
 11
361.1752542373
 21
195.3957762074
 31
0.0
 70
   160
  1
<>
 71
     2
 42
-1.0
  3
SLDDIMSTYLE2
100
AcDbAlignedDimension
 13
351.1752542373
 23
139.1457762074
 33
0.0
 14
351.1752542373
 24
251.6457762074
 34
0.0
 50
90.0
100
AcDbRotatedDimension
  0
DIMENSION
  5
1BC
330
1F
100
AcDbEntity
  8
CAMADA_1
100
AcDbDimension
  2
_D_11
 10
338.6752542373
 20
261.6457762074
 30
0.0
 11
324.9728238639
 21
261.6457762074
 31
0.0
 70
   160
  1
<>
 71
     2
 42
-1.0
  3
SLDDIMSTYLE2
100
AcDbAlignedDimension
 13
351.1752542373
 23
251.6457762074
 33
0.0
 14
338.6752542373
 24
251.6457762074
 34
0.0
100
AcDbRotatedDimension
  0
MTEXT
  5
1C8
330
1F
100
AcDbEntity
  8
0
  6
Continuous
 62
     7
370
     0
100
AcDbMText
 10
344.5308084752
 20
179.5159027655
 30
0.0
 40
3.5
 41
0.0
 71
     2
 72
     1
  1
PARA BAIXO  15°  R 2
  7
SLDTEXTSTYLE2
 73
     1
 44
1.0
  0
MTEXT
  5
1CA
330
1F
100
AcDbEntity
  8
0
  6
Continuous
 62
     7
370
     0
100
AcDbMText
 10
344.1122341123
 20
163.6036848805
 30
0.0
 40
3.5
 41
0.0
 71
     2
 72
     1
  1
PARA CIMA  15°  R 2
  7
SLDTEXTSTYLE3
 73
     1
 44
1.0
  0
INSERT
  5
1D6
330
1F
100
AcDbEntity
  8
CAMADA_1
100
AcDbBlockReference
  2
SW_CENTERMARKSYMBOL_2
 10
344.9252542373
 20
246.8175875077
 30
0.0
  0
INSERT
  5
1E2
330
1F
100
AcDbEntity
  8
CAMADA_1
100
AcDbBlockReference
  2
SW_CENTERMARKSYMBOL_3
 10
344.9252542373
 20
142.8957762074
 30
0.0
  0
LINE
  5
1E3
330
1F
100
AcDbEntity
  8
0
  6
Continuous
 62
     7
370
    25
100
AcDbLine
 10
64.0655128313
 20
82.4850754166
 30
0.0
 11
118.1546631198
 21
51.2600735979
 31
0.0
  0
LINE
  5
1E4
330
1F
100
AcDbEntity
  8
0
  6
Continuous
 62
     7
370
    25
100
AcDbLine
 10
118.1546631198
 20
50.4516981941
 30
0.0
 11
118.1546631198
 21
51.2600735979
 31
0.0
  0
LINE
  5
1E5
330
1F
100
AcDbEntity
  8
0
  6
Continuous
 62
     7
370
    25
100
AcDbLine
 10
64.0655128313
 20
81.6767000128
 30
0.0
 11
118.1546631198
 21
50.4516981941
 31
0.0
  0
LINE
  5
1E6
330
1F
100
AcDbEntity
  8
0
  6
Continuous
 62
     7
370
    25
100
AcDbLine
 10
64.0655128313
 20
81.6767000128
 30
0.0
 11
64.0655128313
 21
82.4850754166
 31
0.0
  0
LINE
  5
1E7
330
1F
100
AcDbEntity
  8
0
  6
Continuous
 62
     7
370
    25
100
AcDbLine
 10
80.8252315887
 20
82.1985890059
 30
0.0
 11
81.5323383698
 21
82.6067930618
 31
0.0
  0
LINE
  5
1E8
330
1F
100
AcDbEntity
  8
0
  6
Continuous
 62
     7
370
    25
100
AcDbLine
 10
126.9934978846
 20
56.3626242968
 30
0.0
 11
81.5323383698
 21
82.6067930618
 31
0.0
  0
LINE
  5
1E9
330
1F
100
AcDbEntity
  8
0
  6
Continuous
 62
     7
370
    25
100
AcDbLine
 10
118.1546631198
 20
51.2600735979
 30
0.0
 11
126.9934978846
 21
56.3626242968
 31
0.0
  0
LINE
  5
1EA
330
1F
100
AcDbEntity
  8
0
  6
Continuous
 62
     7
370
    25
100
AcDbLine
 10
72.1972408149
 20
87.1794220596
 30
0.0
 11
64.0655128313
 21
82.4850754166
 31
0.0
  0
LINE
  5
1EB
330
1F
100
AcDbEntity
  8
0
  6
Continuous
 62
     7
370
    25
100
AcDbLine
 10
80.8252315887
 20
82.1985890059
 30
0.0
 11
72.1972408149
 21
87.1794220596
 31
0.0
  0
LWPOLYLINE
  5
1EC
330
1F
100
AcDbEntity
  8
0
  6
Continuous
 62
     7
370
    25
100
AcDbPolyline
 90
       21
 70
   128
 43
0.0
 10
119.7433986263
 20
56.1190035034
 10
119.8951159143
 20
55.9984537452
 10
119.9748784128
 20
55.8567390052
 10
119.9748784128
 20
55.7077313094
 10
119.8951159143
 20
55.5660165693
 10
119.7433986263
 20
55.4454668111
 10
119.5345776941
 20
55.3578822851
 10
119.2890939655
 20
55.3118363748
 10
119.0309770981
 20
55.3118363748
 10
118.7854933695
 20
55.3578822851
 10
118.5766724373
 20
55.4454668111
 10
118.4249551493
 20
55.5660165693
 10
118.3451926508
 20
55.7077313094
 10
118.3451926508
 20
55.8567390052
 10
118.4249551493
 20
55.9984537452
 10
118.5766724373
 20
56.1190035034
 10
118.7854933695
 20
56.2065880295
 10
119.0309770981
 20
56.2526339397
 10
119.2890939655
 20
56.2526339397
 10
119.5345776941
 20
56.2065880295
 10
119.7433986263
 20
56.1190035034
  0
LINE
  5
1ED
330
1F
100
AcDbEntity
  8
0
  6
Continuous
 62
     7
370
    25
100
AcDbLine
 10
126.9934978846
 20
55.554248893
 30
0.0
 11
126.9934978846
 21
56.3626242968
 31
0.0
  0
LINE
  5
1EE
330
1F
100
AcDbEntity
  8
0
  6
Continuous
 62
     7
370
    25
100
AcDbLine
 10
118.1546631198
 20
50.4516981941
 30
0.0
 11
126.9934978846
 21
55.554248893
 31
0.0
  0
ARC
  5
1EF
330
1F
100
AcDbEntity
  8
0
  6
Continuous
 62
     7
370
    25
100
AcDbCircle
 10
119.1600355318
 20
54.1296961866
 30
0.0
 40
1.322420723764707
100
AcDbArc
 50
70.7327109927
 51
109.2672890076
  0
ARC
  5
1F0
330
1F
100
AcDbEntity
  8
0
  6
Continuous
 62
     7
370
    25
100
AcDbCircle
 10
63.6772160365
 20
81.017710963
 30
0.0
 40
0.7648797085938795
100
AcDbArc
 50
59.4920883608
 51
74.4316684418
  0
LINE
  5
1F1
330
1F
100
AcDbEntity
  8
0
  6
Continuous
 62
     7
370
    25
100
AcDbLine
 10
63.8825001294
 20
81.7545280433
 30
0.0
 11
63.7013175545
 21
82.6399531973
 31
0.0
  0
ARC
  5
1F2
330
1F
100
AcDbEntity
  8
0
  6
Continuous
 62
     7
370
    25
100
AcDbCircle
 10
63.2928022096
 20
81.1736872075
 30
0.0
 40
1.52211062009785
100
AcDbArc
 50
59.4920883608
 51
74.4316684419
  0
LINE
  5
1F3
330
1F
100
AcDbEntity
  8
0
  6
Continuous
 62
     7
370
    25
100
AcDbLine
 10
72.5401523194
 20
87.7425038962
 30
0.0
 11
63.7013175545
 21
82.6399531973
 31
0.0
  0
ARC
  5
1F4
330
1F
100
AcDbEntity
  8
0
  6
Continuous
 62
     7
370
    25
100
AcDbCircle
 10
72.1905066859
 20
86.4474109773
 30
0.0
 40
1.341461045823525
100
AcDbArc
 50
67.9780356628
 51
74.8916394372
  0
LINE
  5
1F5
330
1F
100
AcDbEntity
  8
0
  6
Continuous
 62
     7
370
    25
100
AcDbLine
 10
72.693503605
 20
87.690999268
 30
0.0
 11
71.9863968238
 21
87.2827952121
 31
0.0
  0
ARC
  5
1F6
330
1F
100
AcDbEntity
  8
0
  6
Continuous
 62
     7
370
    25
100
AcDbCircle
 10
71.3592550656
 20
85.7369424837
 30
0.0
 40
1.66822283966198
100
AcDbArc
 50
59.8462300032
 51
67.917945784
  0
LINE
  5
1F7
330
1F
100
AcDbEntity
  8
0
  6
Continuous
 62
     7
370
    25
100
AcDbLine
 10
53.350918989
 20
84.5756213624
 30
0.0
 11
53.1697364141
 21
85.4610465163
 31
0.0
  0
LINE
  5
1F8
330
1F
100
AcDbEntity
  8
0
  6
Continuous
 62
     7
370
    25
100
AcDbLine
 10
53.1697364141
 20
85.4610465163
 30
0.0
 11
63.7013175545
 21
82.6399531973
 31
0.0
  0
LINE
  5
1F9
330
1F
100
AcDbEntity
  8
0
  6
Continuous
 62
     7
370
    25
100
AcDbLine
 10
53.350918989
 20
84.5756213624
 30
0.0
 11
63.8825001294
 21
81.7545280433
 31
0.0
  0
LINE
  5
1FA
330
1F
100
AcDbEntity
  8
0
  6
Continuous
 62
     7
370
    25
100
AcDbLine
 10
62.0085711789
 20
90.5635972152
 30
0.0
 11
53.1697364141
 21
85.4610465163
 31
0.0
  0
LINE
  5
1FB
330
1F
100
AcDbEntity
  8
0
  6
Continuous
 62
     7
370
    25
100
AcDbLine
 10
72.5401523194
 20
87.7425038962
 30
0.0
 11
62.0085711789
 21
90.5635972152
 31
0.0
  0
LINE
  5
1FC
330
1F
100
AcDbEntity
  8
0
  6
Continuous
 62
     7
370
    25
100
AcDbLine
 10
72.693503605
 20
87.690999268
 30
0.0
 11
72.7982402415
 21
86.8324724756
 31
0.0
  0
ARC
  5
1FD
330
1F
100
AcDbEntity
  8
0
  6
Continuous
 62
     7
370
    25
100
AcDbCircle
 10
53.7594343339
 20
86.0418873521
 30
0.0
 40
1.522110620098091
100
AcDbArc
 50
239.4920883608
 51
254.4316684418
  0
LINE
  5
1FE
330
1F
100
AcDbEntity
  8
0
  6
Continuous
 62
     7
370
    25
100
AcDbLine
 10
52.9867237122
 20
84.730499143
 30
0.0
 11
52.9867237122
 21
85.5388745468
 31
0.0
  0
ARC
  5
1FF
330
1F
100
AcDbEntity
  8
0
  6
Continuous
 62
     7
370
    25
100
AcDbCircle
 10
53.375020507
 20
86.1978635966
 30
0.0
 40
0.7648797085912901
100
AcDbArc
 50
239.4920883608
 51
254.4316684419
  0
LINE
  5
200
330
1F
100
AcDbEntity
  8
0
  6
Continuous
 62
     7
370
    25
100
AcDbLine
 10
61.8255584771
 20
90.6414252457
 30
0.0
 11
52.9867237122
 21
85.5388745468
 31
0.0
  0
ARC
  5
201
330
1F
100
AcDbEntity
  8
0
  6
Continuous
 62
     7
370
    25
100
AcDbCircle
 10
62.2138552719
 20
91.3004142955
 30
0.0
 40
0.7648797085921217
100
AcDbArc
 50
239.4920883608
 51
254.4316684418
  0
LINE
  5
202
330
1F
100
AcDbEntity
  8
0
  6
Continuous
 62
     7
370
    25
100
AcDbLine
 10
38.98296538
 20
93.623072155
 30
0.0
 11
52.9867237122
 21
85.5388745468
 31
0.0
  0
LINE
  5
203
330
1F
100
AcDbEntity
  8
0
  6
Continuous
 62
     7
370
    25
100
AcDbLine
 10
47.8218001448
 20
98.7256228539
 30
0.0
 11
38.98296538
 21
93.623072155
 31
0.0
  0
LINE
  5
204
330
1F
100
AcDbEntity
  8
0
  6
Continuous
 62
     7
370
    25
100
AcDbLine
 10
61.8255584771
 20
90.6414252457
 30
0.0
 11
47.8218001448
 21
98.7256228539
 31
0.0
  0
LWPOLYLINE
  5
205
330
1F
100
AcDbEntity
  8
0
  6
Continuous
 62
     7
370
    25
100
AcDbPolyline
 90
       24
 70
   128
 43
0.0
 10
46.7964953121
 20
95.0721965535
 10
46.9692766854
 20
94.940663631
 10
47.0741786357
 20
94.7870975449
 10
47.1034210654
 20
94.6228875892
 10
47.054835197
 20
94.4602124652
 10
46.9320244223
 20
94.3111370425
 10
46.7440970546
 20
94.1867175634
 10
46.5049908071
 20
94.0961816514
 10
46.2324390962
 20
94.0462439409
 10
45.9466558355
 20
94.0406080835
 10
45.6688362621
 20
94.0796920649
 10
45.4195849829
 20
94.1605972051
 10
45.2173878249
 20
94.2773231398
 10
45.0772408264
 20
94.4212128405
 10
45.0095380491
 20
94.5815946664
 10
45.0193006983
 20
94.7465738311
 10
45.1058047229
 20
94.9039145847
 10
45.2626345153
 20
95.0419476833
 10
45.4781587271
 20
95.1504358435
 10
45.7363929134
 20
95.2213329946
 10
46.0181850262
 20
95.2493810194
 10
46.3026358334
 20
95.2324997241
 10
46.5686489199
 20
95.1719411172
 10
46.7964953121
 20
95.0721965535
  0
LINE
  5
206
330
1F
100
AcDbEntity
  8
0
  6
Continuous
 62
     7
370
    25
100
AcDbLine
 10
38.98296538
 20
92.8146967512
 30
0.0
 11
38.98296538
 21
93.623072155
 31
0.0
  0
LINE
  5
207
330
1F
100
AcDbEntity
  8
0
  6
Continuous
 62
     7
370
    25
100
AcDbLine
 10
38.98296538
 20
92.8146967512
 30
0.0
 11
52.9867237122
 21
84.730499143
 31
0.0
  0
LINE
  5
208
330
1F
100
AcDbEntity
  8
0
  6
Continuous
 62
     7
370
    25
100
AcDbLine
 10
46.7964953121
 20
94.2638211497
 30
0.0
 11
46.8365232431
 21
94.2393945929
 31
0.0
  0
ARC
  5
209
330
1F
100
AcDbEntity
  8
0
  6
Continuous
 62
     7
370
    25
100
AcDbCircle
 10
46.0561108115
 20
92.8724281979
 30
0.0
 40
1.576116605868818
100
AcDbArc
 50
61.9817768883
 51
119.8535841986
  0
ENDSEC
  0
SECTION
  2
OBJECTS
  0
DICTIONARY
  5
C
330
0
100
AcDbDictionary
281
     1
  3
ACAD_GROUP
350
D
  3
ACAD_LAYOUT
350
1A
  3
ACAD_MLINESTYLE
350
17
  3
ACAD_PLOTSETTINGS
350
19
  3
ACAD_PLOTSTYLENAME
350
E
  3
ACAD_SCALELIST
350
47
  0
DICTIONARY
  5
D
102
{ACAD_REACTORS
330
C
102
}
330
C
100
AcDbDictionary
281
     1
  0
DICTIONARY
  5
1A
102
{ACAD_REACTORS
330
C
102
}
330
C
100
AcDbDictionary
281
     1
  3
Layout1
350
1E
  3
Layout2
350
26
  3
Model
350
22
  0
DICTIONARY
  5
17
102
{ACAD_REACTORS
330
C
102
}
330
C
100
AcDbDictionary
281
     1
  3
Standard
350
18
  0
DICTIONARY
  5
19
102
{ACAD_REACTORS
330
C
102
}
330
C
100
AcDbDictionary
281
     1
  0
ACDBDICTIONARYWDFLT
  5
E
102
{ACAD_REACTORS
330
C
102
}
330
C
100
AcDbDictionary
281
     1
  3
Normal
350
F
100
AcDbDictionaryWithDefault
340
F
  0
DICTIONARY
  5
47
102
{ACAD_REACTORS
330
C
102
}
330
C
100
AcDbDictionary
281
     1
  3
A0
350
48
  3
A1
350
49
  3
A2
350
4A
  3
A3
350
4B
  3
A4
350
4C
  3
A5
350
4D
  3
A6
350
4E
  3
A7
350
4F
  3
A8
350
50
  3
A9
350
51
  3
B0
350
52
  3
B1
350
53
  3
B2
350
54
  3
B3
350
55
  3
B4
350
56
  3
B5
350
57
  3
B6
350
58
  3
B7
350
59
  3
B8
350
5A
  3
B9
350
5B
  3
C0
350
5C
  3
C1
350
5D
  3
C2
350
5E
  3
C3
350
5F
  3
C4
350
60
  3
C5
350
61
  3
C6
350
62
  3
C7
350
63
  3
C8
350
64
  3
C9
350
65
  3
D0
350
66
  3
D1
350
67
  3
D2
350
68
  0
LAYOUT
  5
1E
102
{ACAD_REACTORS
330
1A
102
}
330
1A
100
AcDbPlotSettings
  1

  2
none_device
  4

  6

 40
0.0
 41
0.0
 42
0.0
 43
0.0
 44
0.0
 45
0.0
 46
0.0
 47
0.0
 48
0.0
 49
0.0
140
0.0
141
0.0
142
1.0
143
1.0
 70
   688
 72
     1
 73
     0
 74
     5
  7

 75
    16
147
1.0
148
0.0
149
0.0
100
AcDbLayout
  1
Layout1
 70
     1
 71
     1
 10
0.0
 20
0.0
 11
420.0
 21
297.0
 12
0.0
 22
0.0
 32
0.0
 14
1.0000000000E+20
 24
1.0000000000E+20
 34
1.0000000000E+20
 15
-1.0000000000E+20
 25
-1.0000000000E+20
 35
-1.0000000000E+20
146
0.0
 13
0.0
 23
0.0
 33
0.0
 16
1.0
 26
0.0
 36
0.0
 17
0.0
 27
1.0
 37
0.0
 76
     0
330
1B
  0
LAYOUT
  5
26
102
{ACAD_REACTORS
330
1A
102
}
330
1A
100
AcDbPlotSettings
  1

  2
none_device
  4

  6

 40
0.0
 41
0.0
 42
0.0
 43
0.0
 44
0.0
 45
0.0
 46
0.0
 47
0.0
 48
0.0
 49
0.0
140
0.0
141
0.0
142
1.0
143
1.0
 70
   688
 72
     1
 73
     0
 74
     5
  7

 75
    16
147
1.0
148
0.0
149
0.0
100
AcDbLayout
  1
Layout2
 70
     1
 71
     2
 10
0.0
 20
0.0
 11
0.0
 21
0.0
 12
0.0
 22
0.0
 32
0.0
 14
0.0
 24
0.0
 34
0.0
 15
0.0
 25
0.0
 35
0.0
146
0.0
 13
0.0
 23
0.0
 33
0.0
 16
1.0
 26
0.0
 36
0.0
 17
0.0
 27
1.0
 37
0.0
 76
     0
330
23
  0
LAYOUT
  5
22
102
{ACAD_REACTORS
330
1A
102
}
330
1A
100
AcDbPlotSettings
  1

  2
none_device
  4
Letter_(8.50_x_11.00_Inches)
  6

 40
6.35
 41
6.35
 42
6.35000508
 43
6.35000508
 44
215.9
 45
279.4
 46
0.0
 47
0.0
 48
0.0
 49
0.0
140
0.0
141
0.0
142
1.0
143
1.0
 70
  1712
 72
     1
 73
     0
 74
     0
  7

 75
     0
147
1.0
148
0.0
149
0.0
100
AcDbLayout
  1
Model
 70
     1
 71
     0
 10
0.0
 20
0.0
 11
420.0
 21
297.0
 12
0.0
 22
0.0
 32
0.0
 14
0.0
 24
0.0
 34
0.0
 15
420.0
 25
297.0
 35
0.0
146
0.0
 13
0.0
 23
0.0
 33
0.0
 16
1.0
 26
0.0
 36
0.0
 17
0.0
 27
1.0
 37
0.0
 76
     0
330
1F
331
29
  0
MLINESTYLE
  5
18
102
{ACAD_REACTORS
330
17
102
}
330
17
100
AcDbMlineStyle
  2
Standard
 70
     0
  3

 62
   256
 51
90.0
 52
90.0
 71
     2
 49
0.5
 62
   256
  6
BYLAYER
 49
-0.5
 62
   256
  6
BYLAYER
  0
ACDBPLACEHOLDER
  5
F
102
{ACAD_REACTORS
330
E
102
}
330
E
  0
SCALE
  5
48
102
{ACAD_REACTORS
330
47
102
}
330
47
100
AcDbScale
 70
     0
300
1:1
140
1.0
141
1.0
290
     1
  0
SCALE
  5
49
102
{ACAD_REACTORS
330
47
102
}
330
47
100
AcDbScale
 70
     0
300
1:2
140
1.0
141
2.0
290
     0
  0
SCALE
  5
4A
102
{ACAD_REACTORS
330
47
102
}
330
47
100
AcDbScale
 70
     0
300
1:4
140
1.0
141
4.0
290
     0
  0
SCALE
  5
4B
102
{ACAD_REACTORS
330
47
102
}
330
47
100
AcDbScale
 70
     0
300
1:5
140
1.0
141
5.0
290
     0
  0
SCALE
  5
4C
102
{ACAD_REACTORS
330
47
102
}
330
47
100
AcDbScale
 70
     0
300
1:8
140
1.0
141
8.0
290
     0
  0
SCALE
  5
4D
102
{ACAD_REACTORS
330
47
102
}
330
47
100
AcDbScale
 70
     0
300
1:10
140
1.0
141
10.0
290
     0
  0
SCALE
  5
4E
102
{ACAD_REACTORS
330
47
102
}
330
47
100
AcDbScale
 70
     0
300
1:16
140
1.0
141
16.0
290
     0
  0
SCALE
  5
4F
102
{ACAD_REACTORS
330
47
102
}
330
47
100
AcDbScale
 70
     0
300
1:20
140
1.0
141
20.0
290
     0
  0
SCALE
  5
50
102
{ACAD_REACTORS
330
47
102
}
330
47
100
AcDbScale
 70
     0
300
1:30
140
1.0
141
30.0
290
     0
  0
SCALE
  5
51
102
{ACAD_REACTORS
330
47
102
}
330
47
100
AcDbScale
 70
     0
300
1:40
140
1.0
141
40.0
290
     0
  0
SCALE
  5
52
102
{ACAD_REACTORS
330
47
102
}
330
47
100
AcDbScale
 70
     0
300
1:50
140
1.0
141
50.0
290
     0
  0
SCALE
  5
53
102
{ACAD_REACTORS
330
47
102
}
330
47
100
AcDbScale
 70
     0
300
1:100
140
1.0
141
100.0
290
     0
  0
SCALE
  5
54
102
{ACAD_REACTORS
330
47
102
}
330
47
100
AcDbScale
 70
     0
300
2:1
140
2.0
141
1.0
290
     0
  0
SCALE
  5
55
102
{ACAD_REACTORS
330
47
102
}
330
47
100
AcDbScale
 70
     0
300
4:1
140
4.0
141
1.0
290
     0
  0
SCALE
  5
56
102
{ACAD_REACTORS
330
47
102
}
330
47
100
AcDbScale
 70
     0
300
8:1
140
8.0
141
1.0
290
     0
  0
SCALE
  5
57
102
{ACAD_REACTORS
330
47
102
}
330
47
100
AcDbScale
 70
     0
300
10:1
140
10.0
141
1.0
290
     0
  0
SCALE
  5
58
102
{ACAD_REACTORS
330
47
102
}
330
47
100
AcDbScale
 70
     0
300
100:1
140
100.0
141
1.0
290
     0
  0
SCALE
  5
59
102
{ACAD_REACTORS
330
47
102
}
330
47
100
AcDbScale
 70
     0
300
1/128" = 1'-0"
140
0.0078125
141
12.0
290
     0
  0
SCALE
  5
5A
102
{ACAD_REACTORS
330
47
102
}
330
47
100
AcDbScale
 70
     0
300
1/64" = 1'-0"
140
0.015625
141
12.0
290
     0
  0
SCALE
  5
5B
102
{ACAD_REACTORS
330
47
102
}
330
47
100
AcDbScale
 70
     0
300
1/32" = 1'-0"
140
0.03125
141
12.0
290
     0
  0
SCALE
  5
5C
102
{ACAD_REACTORS
330
47
102
}
330
47
100
AcDbScale
 70
     0
300
1/16" = 1'-0"
140
0.0625
141
12.0
290
     0
  0
SCALE
  5
5D
102
{ACAD_REACTORS
330
47
102
}
330
47
100
AcDbScale
 70
     0
300
3/32" = 1'-0"
140
0.09375
141
12.0
290
     0
  0
SCALE
  5
5E
102
{ACAD_REACTORS
330
47
102
}
330
47
100
AcDbScale
 70
     0
300
1/8" = 1'-0"
140
0.125
141
12.0
290
     0
  0
SCALE
  5
5F
102
{ACAD_REACTORS
330
47
102
}
330
47
100
AcDbScale
 70
     0
300
3/16" = 1'-0"
140
0.1875
141
12.0
290
     0
  0
SCALE
  5
60
102
{ACAD_REACTORS
330
47
102
}
330
47
100
AcDbScale
 70
     0
300
1/4" = 1'-0"
140
0.25
141
12.0
290
     0
  0
SCALE
  5
61
102
{ACAD_REACTORS
330
47
102
}
330
47
100
AcDbScale
 70
     0
300
3/8" = 1'-0"
140
0.375
141
12.0
290
     0
  0
SCALE
  5
62
102
{ACAD_REACTORS
330
47
102
}
330
47
100
AcDbScale
 70
     0
300
1/2" = 1'-0"
140
0.5
141
12.0
290
     0
  0
SCALE
  5
63
102
{ACAD_REACTORS
330
47
102
}
330
47
100
AcDbScale
 70
     0
300
3/4" = 1'-0"
140
0.75
141
12.0
290
     0
  0
SCALE
  5
64
102
{ACAD_REACTORS
330
47
102
}
330
47
100
AcDbScale
 70
     0
300
1" = 1'-0"
140
1.0
141
12.0
290
     0
  0
SCALE
  5
65
102
{ACAD_REACTORS
330
47
102
}
330
47
100
AcDbScale
 70
     0
300
1-1/2" = 1'-0"
140
1.5
141
12.0
290
     0
  0
SCALE
  5
66
102
{ACAD_REACTORS
330
47
102
}
330
47
100
AcDbScale
 70
     0
300
3" = 1'-0"
140
3.0
141
12.0
290
     0
  0
SCALE
  5
67
102
{ACAD_REACTORS
330
47
102
}
330
47
100
AcDbScale
 70
     0
300
6" = 1'-0"
140
6.0
141
12.0
290
     0
  0
SCALE
  5
68
102
{ACAD_REACTORS
330
47
102
}
330
47
100
AcDbScale
 70
     0
300
1'-0" = 1'-0"
140
12.0
141
12.0
290
     0
  0
ENDSEC
  0
EOF
