  0
SECTION
  2
HEADER
  9
$ACADVER
  1
AC1015
  9
$ACADMAINTVER
 70
     6
  9
$DWGCODEPAGE
  3
ANSI_1252
  9
$INSBASE
 10
0.0
 20
0.0
 30
0.0
  9
$EXTMIN
 10
0.0
 20
0.0
 30
0.0
  9
$EXTMAX
 10
420.0
 20
297.0
 30
0.0
  9
$LIMMIN
 10
0.0
 20
0.0
  9
$LIMMAX
 10
420.0
 20
297.0
  9
$ORTHOMODE
 70
     0
  9
$REGENMODE
 70
     1
  9
$FILLMODE
 70
     1
  9
$QTEXTMODE
 70
     0
  9
$MIRRTEXT
 70
     1
  9
$LTSCALE
 40
1.0
  9
$ATTMODE
 70
     1
  9
$TEXTSIZE
 40
3.5
  9
$TRACEWID
 40
1.0
  9
$TEXTSTYLE
  7
Standard
  9
$CLAYER
  8
0
  9
$CELTYPE
  6
ByLayer
  9
$CECOLOR
 62
   256
  9
$CELTSCALE
 40
1.0
  9
$DISPSILH
 70
     0
  9
$DIMSCALE
 40
1.0
  9
$DIMASZ
 40
3.302
  9
$DIMEXO
 40
1.0
  9
$DIMDLI
 40
3.75
  9
$DIMRND
 40
0.0
  9
$DIMDLE
 40
0.0
  9
$DIMEXE
 40
1.0
  9
$DIMTP
 40
0.0
  9
$DIMTM
 40
0.0
  9
$DIMTXT
 40
3.5
  9
$DIMCEN
 40
2.5
  9
$DIMTSZ
 40
0.0
  9
$DIMTOL
 70
     0
  9
$DIMLIM
 70
     0
  9
$DIMTIH
 70
     1
  9
$DIMTOH
 70
     1
  9
$DIMSE1
 70
     0
  9
$DIMSE2
 70
     0
  9
$DIMTAD
 70
     1
  9
$DIMZIN
 70
     1
  9
$DIMBLK
  1

  9
$DIMASO
 70
     1
  9
$DIMSHO
 70
     1
  9
$DIMPOST
  1

  9
$DIMAPOST
  1

  9
$DIMALT
 70
     0
  9
$DIMALTD
 70
     3
  9
$DIMALTF
 40
0.0393700787
  9
$DIMLFAC
 40
0.5
  9
$DIMTOFL
 70
     1
  9
$DIMTVP
 40
0.0
  9
$DIMTIX
 70
     0
  9
$DIMSOXD
 70
     0
  9
$DIMSAH
 70
     0
  9
$DIMBLK1
  1

  9
$DIMBLK2
  1

  9
$DIMSTYLE
  2
ISO-25
  9
$DIMCLRD
 70
     0
  9
$DIMCLRE
 70
     0
  9
$DIMCLRT
 70
     0
  9
$DIMTFAC
 40
1.0
  9
$DIMGAP
 40
1.524
  9
$DIMJUST
 70
     0
  9
$DIMSD1
 70
     0
  9
$DIMSD2
 70
     0
  9
$DIMTOLJ
 70
     0
  9
$DIMTZIN
 70
     1
  9
$DIMALTZ
 70
     0
  9
$DIMALTTZ
 70
     0
  9
$DIMUPT
 70
     0
  9
$DIMDEC
 70
     2
  9
$DIMTDEC
 70
     2
  9
$DIMALTU
 70
     2
  9
$DIMALTTD
 70
     3
  9
$DIMTXSTY
  7
Standard
  9
$DIMAUNIT
 70
     0
  9
$DIMADEC
 70
     2
  9
$DIMALTRND
 40
0.0
  9
$DIMAZIN
 70
     0
  9
$DIMDSEP
 70
    44
  9
$DIMATFIT
 70
     3
  9
$DIMFRAC
 70
     0
  9
$DIMLDRBLK
  1

  9
$DIMLUNIT
 70
     2
  9
$DIMLWD
 70
    -2
  9
$DIMLWE
 70
    -2
  9
$DIMTMOVE
 70
     0
  9
$LUNITS
 70
     2
  9
$LUPREC
 70
     2
  9
$SKETCHINC
 40
1.0
  9
$FILLETRAD
 40
10.0
  9
$AUNITS
 70
     0
  9
$AUPREC
 70
     2
  9
$MENU
  1
.
  9
$ELEVATION
 40
0.0
  9
$PELEVATION
 40
0.0
  9
$THICKNESS
 40
0.0
  9
$LIMCHECK
 70
     0
  9
$CHAMFERA
 40
0.0
  9
$CHAMFERB
 40
0.0
  9
$CHAMFERC
 40
0.0
  9
$CHAMFERD
 40
0.0
  9
$SKPOLY
 70
     0
  9
$TDCREATE
 40
2460704.864240891
  9
$TDUCREATE
 40
2460704.989240891
  9
$TDUPDATE
 40
2460704.864245081
  9
$TDUUPDATE
 40
2460704.989245081
  9
$TDINDWG
 40
0.0000000116
  9
$TDUSRTIMER
 40
0.0000000116
  9
$USRTIMER
 70
     1
  9
$ANGBASE
 50
0.0
  9
$ANGDIR
 70
     0
  9
$PDMODE
 70
     0
  9
$PDSIZE
 40
-1.0
  9
$PLINEWID
 40
0.0
  9
$SPLFRAME
 70
     0
  9
$SPLINETYPE
 70
     6
  9
$SPLINESEGS
 70
     8
  9
$HANDSEED
  5
1C4
  9
$SURFTAB1
 70
     6
  9
$SURFTAB2
 70
     6
  9
$SURFTYPE
 70
     6
  9
$SURFU
 70
     6
  9
$SURFV
 70
     6
  9
$UCSBASE
  2

  9
$UCSNAME
  2

  9
$UCSORG
 10
0.0
 20
0.0
 30
0.0
  9
$UCSXDIR
 10
1.0
 20
0.0
 30
0.0
  9
$UCSYDIR
 10
0.0
 20
1.0
 30
0.0
  9
$UCSORTHOREF
  2

  9
$UCSORTHOVIEW
 70
     0
  9
$UCSORGTOP
 10
0.0
 20
0.0
 30
0.0
  9
$UCSORGBOTTOM
 10
0.0
 20
0.0
 30
0.0
  9
$UCSORGLEFT
 10
0.0
 20
0.0
 30
0.0
  9
$UCSORGRIGHT
 10
0.0
 20
0.0
 30
0.0
  9
$UCSORGFRONT
 10
0.0
 20
0.0
 30
0.0
  9
$UCSORGBACK
 10
0.0
 20
0.0
 30
0.0
  9
$PUCSBASE
  2

  9
$PUCSNAME
  2

  9
$PUCSORG
 10
0.0
 20
0.0
 30
0.0
  9
$PUCSXDIR
 10
1.0
 20
0.0
 30
0.0
  9
$PUCSYDIR
 10
0.0
 20
1.0
 30
0.0
  9
$PUCSORTHOREF
  2

  9
$PUCSORTHOVIEW
 70
     0
  9
$PUCSORGTOP
 10
0.0
 20
0.0
 30
0.0
  9
$PUCSORGBOTTOM
 10
0.0
 20
0.0
 30
0.0
  9
$PUCSORGLEFT
 10
0.0
 20
0.0
 30
0.0
  9
$PUCSORGRIGHT
 10
0.0
 20
0.0
 30
0.0
  9
$PUCSORGFRONT
 10
0.0
 20
0.0
 30
0.0
  9
$PUCSORGBACK
 10
0.0
 20
0.0
 30
0.0
  9
$USERI1
 70
     0
  9
$USERI2
 70
     0
  9
$USERI3
 70
     0
  9
$USERI4
 70
     0
  9
$USERI5
 70
     0
  9
$USERR1
 40
0.0
  9
$USERR2
 40
0.0
  9
$USERR3
 40
0.0
  9
$USERR4
 40
0.0
  9
$USERR5
 40
0.0
  9
$WORLDVIEW
 70
     1
  9
$SHADEDGE
 70
     3
  9
$SHADEDIF
 70
    70
  9
$TILEMODE
 70
     1
  9
$MAXACTVP
 70
    64
  9
$PINSBASE
 10
0.0
 20
0.0
 30
0.0
  9
$PLIMCHECK
 70
     0
  9
$PEXTMIN
 10
1.0000000000E+20
 20
1.0000000000E+20
 30
1.0000000000E+20
  9
$PEXTMAX
 10
-1.0000000000E+20
 20
-1.0000000000E+20
 30
-1.0000000000E+20
  9
$PLIMMIN
 10
0.0
 20
0.0
  9
$PLIMMAX
 10
420.0
 20
297.0
  9
$UNITMODE
 70
     0
  9
$VISRETAIN
 70
     1
  9
$PLINEGEN
 70
     0
  9
$PSLTSCALE
 70
     1
  9
$TREEDEPTH
 70
  3020
  9
$CMLSTYLE
  2
Standard
  9
$CMLJUST
 70
     0
  9
$CMLSCALE
 40
20.0
  9
$PROXYGRAPHICS
 70
     1
  9
$MEASUREMENT
 70
     1
  9
$CELWEIGHT
370
    -1
  9
$ENDCAPS
280
     0
  9
$JOINSTYLE
280
     0
  9
$LWDISPLAY
290
     1
  9
$INSUNITS
 70
     4
  9
$HYPERLINKBASE
  1

  9
$STYLESHEET
  1

  9
$XEDIT
290
     1
  9
$CEPSNTYPE
380
     0
  9
$PSTYLEMODE
290
     1
  9
$FINGERPRINTGUID
  2
{AC754EBE-4A0A-445F-9948-1802AC5D67AE}
  9
$VERSIONGUID
  2
{FAEB1C32-E019-11D5-929B-00C0DF256EC4}
  9
$EXTNAMES
290
     1
  9
$PSVPSCALE
 40
0.0
  9
$OLESTARTUP
290
     0
  0
ENDSEC
  0
SECTION
  2
CLASSES
  0
CLASS
  1
ACDBDICTIONARYWDFLT
  2
AcDbDictionaryWithDefault
  3
ObjectDBX Classes
 90
        0
280
     0
281
     0
  0
CLASS
  1
VISUALSTYLE
  2
AcDbVisualStyle
  3
ObjectDBX Classes
 90
     4095
280
     0
281
     0
  0
CLASS
  1
MATERIAL
  2
AcDbMaterial
  3
ObjectDBX Classes
 90
     1153
280
     0
281
     0
  0
CLASS
  1
SCALE
  2
AcDbScale
  3
ObjectDBX Classes
 90
     1153
280
     0
281
     0
  0
CLASS
  1
TABLESTYLE
  2
AcDbTableStyle
  3
ObjectDBX Classes
 90
     4095
280
     0
281
     0
  0
CLASS
  1
MLEADERSTYLE
  2
AcDbMLeaderStyle
  3
ACDB_MLEADERSTYLE_CLASS
 90
     4095
280
     0
281
     0
  0
CLASS
  1
SUN
  2
AcDbSun
  3
SCENEOE
 90
     1153
280
     0
281
     0
  0
CLASS
  1
ACDBPLACEHOLDER
  2
AcDbPlaceHolder
  3
ObjectDBX Classes
 90
        0
280
     0
281
     0
  0
CLASS
  1
LAYOUT
  2
AcDbLayout
  3
ObjectDBX Classes
 90
        0
280
     0
281
     0
  0
ENDSEC
  0
SECTION
  2
TABLES
  0
TABLE
  2
VPORT
  5
8
330
0
100
AcDbSymbolTable
 70
     1
  0
VPORT
  5
29
330
8
100
AcDbSymbolTableRecord
100
AcDbViewportTableRecord
  2
*Active
 70
     0
 10
0.0
 20
0.0
 11
1.0
 21
1.0
 12
210.0
 22
148.5
 13
0.0
 23
0.0
 14
10.0
 24
10.0
 15
10.0
 25
10.0
 16
0.0
 26
0.0
 36
1.0
 17
0.0
 27
0.0
 37
0.0
 40
297.0
 41
1.4141414141
 42
50.0
 43
0.0
 44
0.0
 50
0.0
 51
0.0
 71
     0
 72
  2000
 73
     1
 74
     3
 75
     0
 76
     0
 77
     0
 78
     0
281
     0
 65
     1
110
0.0
120
0.0
130
0.0
111
1.0
121
0.0
131
0.0
112
0.0
122
1.0
132
0.0
 79
     0
146
0.0
  0
ENDTAB
  0
TABLE
  2
LTYPE
  5
5
330
0
100
AcDbSymbolTable
 70
     6
  0
LTYPE
  5
14
330
5
100
AcDbSymbolTableRecord
100
AcDbLinetypeTableRecord
  2
ByBlock
 70
     0
  3

 72
    65
 73
     0
 40
0.0
  0
LTYPE
  5
15
330
5
100
AcDbSymbolTableRecord
100
AcDbLinetypeTableRecord
  2
ByLayer
 70
     0
  3

 72
    65
 73
     0
 40
0.0
  0
LTYPE
  5
16
330
5
100
AcDbSymbolTableRecord
100
AcDbLinetypeTableRecord
  2
Continuous
 70
     0
  3
Solid line
 72
    65
 73
     0
 40
0.0
  0
LTYPE
  5
6E
330
5
100
AcDbSymbolTableRecord
100
AcDbLinetypeTableRecord
  2
HIDDEN
 70
     0
  3
Hidden __ __ __ __ __ __ __ __ __ __ __ __ __ __
 72
    65
 73
     2
 40
1.905
 49
1.27
 74
     0
 49
-0.635
 74
     0
  0
LTYPE
  5
6F
330
5
100
AcDbSymbolTableRecord
100
AcDbLinetypeTableRecord
  2
PHANTOM
 70
     0
  3
Phantom ______  __  __  ______  __  __  ______
 72
    65
 73
     6
 40
12.7
 49
6.35
 74
     0
 49
-1.27
 74
     0
 49
1.27
 74
     0
 49
-1.27
 74
     0
 49
1.27
 74
     0
 49
-1.27
 74
     0
  0
LTYPE
  5
70
330
5
100
AcDbSymbolTableRecord
100
AcDbLinetypeTableRecord
  2
CENTER
 70
     0
  3
Center ____ _ ____ _ ____ _ ____ _ ____ _ ____
 72
    65
 73
     4
 40
10.16
 49
6.35
 74
     0
 49
-1.27
 74
     0
 49
1.27
 74
     0
 49
-1.27
 74
     0
  0
LTYPE
  5
71
330
5
100
AcDbSymbolTableRecord
100
AcDbLinetypeTableRecord
  2
CENTERX2
 70
     0
  3
Center (2x) ________  __  ________  __  _____
 72
    65
 73
     4
 40
20.32
 49
12.7
 74
     0
 49
-2.54
 74
     0
 49
2.54
 74
     0
 49
-2.54
 74
     0
  0
LTYPE
  5
72
330
5
100
AcDbSymbolTableRecord
100
AcDbLinetypeTableRecord
  2
DOT2
 70
     0
  3
Dot (.5x) ........................................
 72
    65
 73
     2
 40
0.635
 49
0.0
 74
     0
 49
-0.635
 74
     0
  0
ENDTAB
  0
TABLE
  2
LAYER
  5
2
330
0
100
AcDbSymbolTable
 70
     4
  0
LAYER
  5
10
330
2
100
AcDbSymbolTableRecord
100
AcDbLayerTableRecord
  2
0
 70
     0
 62
     7
  6
Continuous
370
    -3
390
F
  0
LAYER
  5
73
330
2
100
AcDbSymbolTableRecord
100
AcDbLayerTableRecord
  2
FORMAT
 70
     0
 62
     7
  6
Continuous
370
    -3
390
F
  0
LAYER
  5
74
330
2
100
AcDbSymbolTableRecord
100
AcDbLayerTableRecord
  2
SLD-0
 70
     0
 62
   179
  6
Continuous
370
    -3
390
F
  0
LAYER
  5
75
330
2
100
AcDbSymbolTableRecord
100
AcDbLayerTableRecord
  2
CAMADA_1
 70
     0
 62
   179
  6
Continuous
370
    -3
390
F
  0
ENDTAB
  0
TABLE
  2
STYLE
  5
3
330
0
100
AcDbSymbolTable
 70
     4
  0
STYLE
  5
11
330
3
100
AcDbSymbolTableRecord
100
AcDbTextStyleTableRecord
  2
Standard
 70
     0
 40
0.0
 41
1.0
 50
0.0
 71
     0
 42
3.5
  3
txt
  4

  0
STYLE
  5
AA
330
3
100
AcDbSymbolTableRecord
100
AcDbTextStyleTableRecord
  2
SLDTEXTSTYLE0
 70
     0
 40
0.0
 41
0.75
 50
0.0
 71
     0
 42
3.5
  3
TXT
  4

  0
STYLE
  5
C8
330
3
100
AcDbSymbolTableRecord
100
AcDbTextStyleTableRecord
  2
SLDTEXTSTYLE1
 70
     0
 40
0.0
 41
0.6730769231
 50
0.0
 71
     0
 42
3.5
  3
TXT
  4

  0
STYLE
  5
1A9
330
3
100
AcDbSymbolTableRecord
100
AcDbTextStyleTableRecord
  2
SLDTEXTSTYLE2
 70
     0
 40
0.0
 41
0.6818181818
 50
0.0
 71
     0
 42
3.5
  3
TXT
  4

  0
ENDTAB
  0
TABLE
  2
VIEW
  5
6
330
0
100
AcDbSymbolTable
 70
     0
  0
ENDTAB
  0
TABLE
  2
UCS
  5
7
330
0
100
AcDbSymbolTable
 70
     0
  0
ENDTAB
  0
TABLE
  2
APPID
  5
9
330
0
100
AcDbSymbolTable
 70
     1
  0
APPID
  5
12
330
9
100
AcDbSymbolTableRecord
100
AcDbRegAppTableRecord
  2
ACAD
 70
     0
  0
ENDTAB
  0
TABLE
  2
DIMSTYLE
  5
A
330
0
100
AcDbSymbolTable
 70
     7
100
AcDbDimStyleTable
  0
DIMSTYLE
105
27
330
A
100
AcDbSymbolTableRecord
100
AcDbDimStyleTableRecord
  2
ISO-25
 70
     0
 41
2.5
 42
0.625
 43
3.75
 44
1.25
 73
     0
 74
     0
 77
     1
 78
     8
140
2.5
141
2.5
143
0.0393700787
147
0.625
171
     3
172
     1
178
     0
271
     2
272
     2
274
     3
278
    44
283
     0
284
     8
340
11
  0
DIMSTYLE
105
FA
102
{ACAD_REACTORS
330
F9
330
102
102
}
330
A
100
AcDbSymbolTableRecord
100
AcDbDimStyleTableRecord
  2
SLDDIMSTYLE0
 70
     0
 41
3.302
 44
0.0
 73
     0
 74
     0
 77
     1
 78
    12
 79
     3
140
3.5
144
0.5
147
0.875
173
     1
178
     0
179
     2
272
     2
276
     2
284
    12
340
AA
  0
DIMSTYLE
105
12B
102
{ACAD_REACTORS
330
12A
102
}
330
A
100
AcDbSymbolTableRecord
100
AcDbDimStyleTableRecord
  2
SLDDIMSTYLE1
 70
     0
  3
<>
 41
3.302
 44
0.0
 45
0.000000001
 78
    12
 79
     3
140
3.5
141
0.0
144
0.5
147
-0.875
173
     1
178
     0
271
     2
272
     2
276
     2
284
    12
340
AA
  0
DIMSTYLE
105
134
102
{ACAD_REACTORS
330
133
102
}
330
A
100
AcDbSymbolTableRecord
100
AcDbDimStyleTableRecord
  2
SLDDIMSTYLE2
 70
     0
 41
3.302
 44
0.0
 45
0.000000001
 78
    12
 79
     3
140
3.5
141
0.0
144
0.5
147
0.875
173
     1
178
     0
271
     2
272
     2
276
     2
284
    12
340
AA
  0
DIMSTYLE
105
15C
102
{ACAD_REACTORS
330
15B
330
166
330
189
102
}
330
A
100
AcDbSymbolTableRecord
100
AcDbDimStyleTableRecord
  2
SLDDIMSTYLE3
 70
     0
 41
3.302
 44
0.0
 45
0.000000001
 73
     0
 74
     0
 77
     1
 78
    12
 79
     3
140
3.5
144
0.5
147
0.875
173
     1
178
     0
271
     2
272
     2
276
     2
284
    12
340
AA
  0
DIMSTYLE
105
171
102
{ACAD_REACTORS
330
170
330
17D
330
193
102
}
330
A
100
AcDbSymbolTableRecord
100
AcDbDimStyleTableRecord
  2
SLDDIMSTYLE4
 70
     0
 41
3.302
 44
0.0
 45
0.000000001
 73
     0
 74
     0
 77
     1
 78
    12
 79
     3
140
3.5
144
0.5
147
0.875
172
     1
173
     1
178
     0
271
     2
272
     2
276
     2
284
    12
289
     0
340
AA
  0
DIMSTYLE
105
19E
102
{ACAD_REACTORS
330
19D
102
}
330
A
100
AcDbSymbolTableRecord
100
AcDbDimStyleTableRecord
  2
SLDDIMSTYLE5
 70
     0
  3
<>
 41
3.302
 44
0.0
 45
0.000000001
 73
     0
 74
     0
 77
     1
 78
    12
 79
     3
140
3.5
141
0.0
144
0.5
147
0.875
172
     1
173
     1
178
     0
271
     2
272
     2
276
     2
284
    12
340
AA
341
19F
343
19F
  0
ENDTAB
  0
TABLE
  2
BLOCK_RECORD
  5
1
330
0
100
AcDbSymbolTable
 70
    16
  0
BLOCK_RECORD
  5
1F
330
1
100
AcDbSymbolTableRecord
100
AcDbBlockTableRecord
  2
*Model_Space
340
22
  0
BLOCK_RECORD
  5
1B
330
1
100
AcDbSymbolTableRecord
100
AcDbBlockTableRecord
  2
*Paper_Space
340
1E
  0
BLOCK_RECORD
  5
23
330
1
100
AcDbSymbolTableRecord
100
AcDbBlockTableRecord
  2
*Paper_Space0
340
26
  0
BLOCK_RECORD
  5
D8
330
1
100
AcDbSymbolTableRecord
100
AcDbBlockTableRecord
  2
SW_NOTE_0
340
0
102
{BLKREFS
331
DE
102
}
  0
BLOCK_RECORD
  5
FB
330
1
100
AcDbSymbolTableRecord
100
AcDbBlockTableRecord
  2
_D
340
0
  0
BLOCK_RECORD
  5
103
330
1
100
AcDbSymbolTableRecord
100
AcDbBlockTableRecord
  2
_D_1
340
0
  0
BLOCK_RECORD
  5
12C
330
1
100
AcDbSymbolTableRecord
100
AcDbBlockTableRecord
  2
_D_2
340
0
  0
BLOCK_RECORD
  5
135
330
1
100
AcDbSymbolTableRecord
100
AcDbBlockTableRecord
  2
_D_3
340
0
  0
BLOCK_RECORD
  5
15D
330
1
100
AcDbSymbolTableRecord
100
AcDbBlockTableRecord
  2
_D_4
340
0
  0
BLOCK_RECORD
  5
167
330
1
100
AcDbSymbolTableRecord
100
AcDbBlockTableRecord
  2
_D_5
340
0
  0
BLOCK_RECORD
  5
172
330
1
100
AcDbSymbolTableRecord
100
AcDbBlockTableRecord
  2
_D_6
340
0
  0
BLOCK_RECORD
  5
17E
330
1
100
AcDbSymbolTableRecord
100
AcDbBlockTableRecord
  2
_D_7
340
0
  0
BLOCK_RECORD
  5
18A
330
1
100
AcDbSymbolTableRecord
100
AcDbBlockTableRecord
  2
_D_8
340
0
  0
BLOCK_RECORD
  5
194
330
1
100
AcDbSymbolTableRecord
100
AcDbBlockTableRecord
  2
_D_9
340
0
  0
BLOCK_RECORD
  5
19F
330
1
100
AcDbSymbolTableRecord
100
AcDbBlockTableRecord
  2
_NONE
340
0
  0
BLOCK_RECORD
  5
1A2
330
1
100
AcDbSymbolTableRecord
100
AcDbBlockTableRecord
  2
_D_10
340
0
  0
BLOCK_RECORD
  5
1AC
330
1
100
AcDbSymbolTableRecord
100
AcDbBlockTableRecord
  2
SW_CENTERMARKSYMBOL_0
340
0
102
{BLKREFS
331
1B7
102
}
  0
BLOCK_RECORD
  5
1B8
330
1
100
AcDbSymbolTableRecord
100
AcDbBlockTableRecord
  2
SW_CENTERMARKSYMBOL_1
340
0
102
{BLKREFS
331
1C3
102
}
  0
ENDTAB
  0
ENDSEC
  0
SECTION
  2
BLOCKS
  0
BLOCK
  5
20
330
1F
100
AcDbEntity
  8
0
100
AcDbBlockBegin
  2
*Model_Space
 70
     0
 10
0.0
 20
0.0
 30
0.0
  3
*Model_Space
  1

  0
ENDBLK
  5
21
330
1F
100
AcDbEntity
  8
0
100
AcDbBlockEnd
  0
BLOCK
  5
1C
330
1B
100
AcDbEntity
 67
     1
  8
0
100
AcDbBlockBegin
  2
*Paper_Space
 70
     0
 10
0.0
 20
0.0
 30
0.0
  3
*Paper_Space
  1

  0
ENDBLK
  5
1D
330
1B
100
AcDbEntity
 67
     1
  8
0
100
AcDbBlockEnd
  0
BLOCK
  5
24
330
23
100
AcDbEntity
  8
0
100
AcDbBlockBegin
  2
*Paper_Space0
 70
     0
 10
0.0
 20
0.0
 30
0.0
  3
*Paper_Space0
  1

  0
ENDBLK
  5
25
330
23
100
AcDbEntity
  8
0
100
AcDbBlockEnd
  0
BLOCK
  5
D9
330
D8
100
AcDbEntity
  8
0
100
AcDbBlockBegin
  2
SW_NOTE_0
 70
     0
 10
0.0
 20
0.0
 30
0.0
  3
SW_NOTE_0
  1

  0
MTEXT
  5
DB
330
D8
100
AcDbEntity
  8
0
  6
Continuous
 62
     0
370
     0
100
AcDbMText
 10
0.0
 20
1.9336016097
 30
0.0
 40
1.5
 41
0.0
 71
     1
 72
     1
  1
A MENOS QUE ESPECIFICADAS,
  7
SLDTEXTSTYLE0
 73
     1
 44
1.0
  0
MTEXT
  5
DC
330
D8
100
AcDbEntity
  8
0
  6
Continuous
 62
     0
370
     0
100
AcDbMText
 10
0.0
 20
-0.5663983345
 30
0.0
 40
1.5
 41
0.0
 71
     1
 72
     1
  1
AS DIMENSÕES ESTÃO EM
  7
SLDTEXTSTYLE0
 73
     1
 44
1.0
  0
MTEXT
  5
DD
330
D8
100
AcDbEntity
  8
0
  6
Continuous
 62
     0
370
     0
100
AcDbMText
 10
0.0
 20
-3.0663982786
 30
0.0
 40
1.5
 41
0.0
 71
     1
 72
     1
  1
MILÍMETROS.
  7
SLDTEXTSTYLE0
 73
     1
 44
1.0
  0
ENDBLK
  5
DA
330
D8
100
AcDbEntity
  8
0
100
AcDbBlockEnd
  0
BLOCK
  5
FC
330
FB
100
AcDbEntity
  8
0
100
AcDbBlockBegin
  2
_D
 70
     0
 10
0.0
 20
0.0
 30
0.0
  3
_D
  1

  0
ARC
  5
FE
330
FB
100
AcDbEntity
  8
CAMADA_1
100
AcDbCircle
 10
34.2528856798
 20
249.7888616637
 30
0.0
 40
25.96024151363872
100
AcDbArc
 50
315.0
 51
0.0
  0
SOLID
  5
FF
330
FB
100
AcDbEntity
  8
CAMADA_1
100
AcDbTrace
 10
52.6095484953
 20
231.4321988482
 30
0.0
 11
55.1733450305
 21
233.5742108291
 31
0.0
 12
54.4109462138
 22
234.2457791758
 32
0.0
 13
54.4109462138
 23
234.2457791758
 33
0.0
  0
SOLID
  5
100
330
FB
100
AcDbEntity
  8
CAMADA_1
100
AcDbTrace
 10
60.2131271934
 20
249.7888616637
 30
0.0
 11
59.4974060067
 21
246.5255793923
 31
0.0
 12
60.5113739119
 22
246.4613525511
 32
0.0
 13
60.5113739119
 23
246.4613525511
 33
0.0
  0
MTEXT
  5
101
330
FB
100
AcDbEntity
  8
CAMADA_1
100
AcDbMText
 10
53.2880843336
 20
239.2569649798
 30
0.0
 40
3.5
 41
0.0
 71
     1
 72
     1
  1
45°
  7
SLDTEXTSTYLE0
 11
0.3310642244414285
 21
0.9436082234142491
 31
0.0
 73
     1
 44
1.0
  0
ENDBLK
  5
FD
330
FB
100
AcDbEntity
  8
0
100
AcDbBlockEnd
  0
BLOCK
  5
104
330
103
100
AcDbEntity
  8
0
100
AcDbBlockBegin
  2
_D_1
 70
     0
 10
0.0
 20
0.0
 30
0.0
  3
_D_1
  1

  0
ARC
  5
106
330
103
100
AcDbEntity
  8
CAMADA_1
100
AcDbCircle
 10
128.2537197754
 20
249.7888616637
 30
0.0
 40
27.65521348893267
100
AcDbArc
 50
180.0
 51
225.0
  0
SOLID
  5
107
330
103
100
AcDbEntity
  8
CAMADA_1
100
AcDbTrace
 10
100.5985062865
 20
249.7888616637
 30
0.0
 11
100.2874859838
 21
246.4625221785
 31
0.0
 12
101.3016930107
 22
246.5228554741
 32
0.0
 13
101.3016930107
 23
246.5228554741
 33
0.0
  0
SOLID
  5
108
330
103
100
AcDbEntity
  8
CAMADA_1
100
AcDbTrace
 10
108.6985307822
 20
230.2336726705
 30
0.0
 11
106.8863437593
 21
233.0403158958
 31
0.0
 12
106.1265290105
 22
232.365825312
 32
0.0
 13
106.1265290105
 23
232.365825312
 33
0.0
  0
MTEXT
  5
109
330
103
100
AcDbEntity
  8
CAMADA_1
100
AcDbMText
 10
105.5076806787
 20
244.1799849496
 30
0.0
 40
3.5
 41
0.0
 71
     1
 72
     1
  1
45°
  7
SLDTEXTSTYLE0
 11
0.3872081741916549
 21
-0.921992315498977
 31
0.0
 73
     1
 44
1.0
  0
ENDBLK
  5
105
330
103
100
AcDbEntity
  8
0
100
AcDbBlockEnd
  0
BLOCK
  5
12D
330
12C
100
AcDbEntity
  8
0
100
AcDbBlockBegin
  2
_D_2
 70
     0
 10
0.0
 20
0.0
 30
0.0
  3
_D_2
  1

  0
SOLID
  5
12F
330
12C
100
AcDbEntity
  8
CAMADA_1
100
AcDbTrace
 10
129.5045869611
 20
171.712996263
 30
0.0
 11
131.4800483101
 21
169.0187764393
 31
0.0
 12
132.1985207959
 22
169.7371449291
 32
0.0
 13
132.1985207959
 23
169.7371449291
 33
0.0
  0
LINE
  5
130
330
12C
100
AcDbEntity
  8
CAMADA_1
100
AcDbLine
 10
129.5045869611
 20
171.712996263
 30
0.0
 11
145.4568175245
 21
155.7584563446
 31
0.0
  0
LINE
  5
131
330
12C
100
AcDbEntity
  8
CAMADA_1
100
AcDbLine
 10
145.4568175245
 20
155.7584563446
 30
0.0
 11
153.7234840985
 21
155.7584563446
 31
0.0
  0
MTEXT
  5
132
330
12C
100
AcDbEntity
  8
CAMADA_1
100
AcDbMText
 10
147.0443175245
 20
161.3443993589
 30
0.0
 40
3.5
 41
0.0
 71
     1
 72
     1
  1
M3
  7
SLDTEXTSTYLE0
 73
     1
 44
1.0
  0
ENDBLK
  5
12E
330
12C
100
AcDbEntity
  8
0
100
AcDbBlockEnd
  0
BLOCK
  5
136
330
135
100
AcDbEntity
  8
0
100
AcDbBlockBegin
  2
_D_3
 70
     0
 10
0.0
 20
0.0
 30
0.0
  3
_D_3
  1

  0
SOLID
  5
138
330
135
100
AcDbEntity
  8
CAMADA_1
100
AcDbTrace
 10
32.8662733785
 20
166.573318232
 30
0.0
 11
33.3793655624
 21
163.2721056652
 31
0.0
 12
34.3479107416
 22
163.578987134
 32
0.0
 13
34.3479107416
 23
163.578987134
 33
0.0
  0
LINE
  5
139
330
135
100
AcDbEntity
  8
CAMADA_1
100
AcDbLine
 10
32.8662733785
 20
166.573318232
 30
0.0
 11
44.1572405733
 21
130.9380226611
 31
0.0
  0
LINE
  5
13A
330
135
100
AcDbEntity
  8
CAMADA_1
100
AcDbLine
 10
44.1572405733
 20
130.9380226611
 30
0.0
 11
72.996129451
 21
130.9380226611
 31
0.0
  0
MTEXT
  5
13B
330
135
100
AcDbEntity
  8
CAMADA_1
100
AcDbMText
 10
45.7447405733
 20
135.4497599832
 30
0.0
 40
3.5
 41
0.0
 71
     1
 72
     1
  1
TRUE
  7
SLDTEXTSTYLE0
 73
     1
 44
1.0
  0
MTEXT
  5
13C
330
135
100
AcDbEntity
  8
CAMADA_1
100
AcDbMText
 10
60.1676573806
 20
135.4497599832
 30
0.0
 40
3.5
 41
0.0
 71
     1
 72
     1
  1
R1,75
  7
SLDTEXTSTYLE0
 73
     1
 44
1.0
  0
ENDBLK
  5
137
330
135
100
AcDbEntity
  8
0
100
AcDbBlockEnd
  0
BLOCK
  5
15E
330
15D
100
AcDbEntity
  8
0
100
AcDbBlockBegin
  2
_D_4
 70
     0
 10
0.0
 20
0.0
 30
0.0
  3
_D_4
  1

  0
SOLID
  5
160
330
15D
100
AcDbEntity
  8
CAMADA_1
100
AcDbTrace
 10
232.8425946001
 20
128.307499574
 30
0.0
 11
236.1445946001
 21
127.799499574
 31
0.0
 12
236.1445946001
 22
128.815499574
 32
0.0
 13
236.1445946001
 23
128.815499574
 33
0.0
  0
SOLID
  5
161
330
15D
100
AcDbEntity
  8
CAMADA_1
100
AcDbTrace
 10
282.8425946001
 20
128.307499574
 30
0.0
 11
279.5405946001
 21
128.815499574
 31
0.0
 12
279.5405946001
 22
127.799499574
 32
0.0
 13
279.5405946001
 23
127.799499574
 33
0.0
  0
LINE
  5
162
330
15D
100
AcDbEntity
  8
CAMADA_1
100
AcDbLine
 10
232.8425946001
 20
140.8226661929
 30
0.0
 11
232.8425946001
 21
127.307499574
 31
0.0
  0
LINE
  5
163
330
15D
100
AcDbEntity
  8
CAMADA_1
100
AcDbLine
 10
282.8425946001
 20
140.8226661929
 30
0.0
 11
282.8425946001
 21
127.307499574
 31
0.0
  0
LINE
  5
164
330
15D
100
AcDbEntity
  8
CAMADA_1
100
AcDbLine
 10
232.8425946001
 20
128.307499574
 30
0.0
 11
282.8425946001
 21
128.307499574
 31
0.0
  0
MTEXT
  5
165
330
15D
100
AcDbEntity
  8
CAMADA_1
100
AcDbMText
 10
252.7138018565
 20
132.819236896
 30
0.0
 40
3.5
 41
0.0
 71
     1
 72
     1
  1
25,00
  7
SLDTEXTSTYLE0
 73
     1
 44
1.0
  0
ENDBLK
  5
15F
330
15D
100
AcDbEntity
  8
0
100
AcDbBlockEnd
  0
BLOCK
  5
168
330
167
100
AcDbEntity
  8
0
100
AcDbBlockBegin
  2
_D_5
 70
     0
 10
0.0
 20
0.0
 30
0.0
  3
_D_5
  1

  0
SOLID
  5
16A
330
167
100
AcDbEntity
  8
CAMADA_1
100
AcDbTrace
 10
332.8425946001
 20
125.8226661929
 30
0.0
 11
336.1445946001
 21
125.3146661929
 31
0.0
 12
336.1445946001
 22
126.3306661929
 32
0.0
 13
336.1445946001
 23
126.3306661929
 33
0.0
  0
SOLID
  5
16B
330
167
100
AcDbEntity
  8
CAMADA_1
100
AcDbTrace
 10
377.8425946001
 20
125.8226661929
 30
0.0
 11
374.5405946001
 21
126.3306661929
 31
0.0
 12
374.5405946001
 22
125.3146661929
 32
0.0
 13
374.5405946001
 23
125.3146661929
 33
0.0
  0
LINE
  5
16C
330
167
100
AcDbEntity
  8
CAMADA_1
100
AcDbLine
 10
332.8425946001
 20
140.8226661929
 30
0.0
 11
332.8425946001
 21
124.8226661929
 31
0.0
  0
LINE
  5
16D
330
167
100
AcDbEntity
  8
CAMADA_1
100
AcDbLine
 10
377.8425946001
 20
140.8226661929
 30
0.0
 11
377.8425946001
 21
124.8226661929
 31
0.0
  0
LINE
  5
16E
330
167
100
AcDbEntity
  8
CAMADA_1
100
AcDbLine
 10
332.8425946001
 20
125.8226661929
 30
0.0
 11
377.8425946001
 21
125.8226661929
 31
0.0
  0
MTEXT
  5
16F
330
167
100
AcDbEntity
  8
CAMADA_1
100
AcDbMText
 10
351.7319621456
 20
130.3344035149
 30
0.0
 40
3.5
 41
0.0
 71
     1
 72
     1
  1
22,50
  7
SLDTEXTSTYLE0
 73
     1
 44
1.0
  0
ENDBLK
  5
169
330
167
100
AcDbEntity
  8
0
100
AcDbBlockEnd
  0
BLOCK
  5
173
330
172
100
AcDbEntity
  8
0
100
AcDbBlockBegin
  2
_D_6
 70
     0
 10
0.0
 20
0.0
 30
0.0
  3
_D_6
  1

  0
SOLID
  5
175
330
172
100
AcDbEntity
  8
CAMADA_1
100
AcDbTrace
 10
257.4425946001
 20
177.2226661929
 30
0.0
 11
260.7445946001
 21
176.7146661929
 31
0.0
 12
260.7445946001
 22
177.7306661929
 32
0.0
 13
260.7445946001
 23
177.7306661929
 33
0.0
  0
SOLID
  5
176
330
172
100
AcDbEntity
  8
CAMADA_1
100
AcDbTrace
 10
232.8425946001
 20
177.2226661929
 30
0.0
 11
229.5405946001
 21
177.7306661929
 31
0.0
 12
229.5405946001
 22
176.7146661929
 32
0.0
 13
229.5405946001
 23
176.7146661929
 33
0.0
  0
LINE
  5
177
330
172
100
AcDbEntity
  8
CAMADA_1
100
AcDbLine
 10
257.4425946001
 20
168.2226661929
 30
0.0
 11
257.4425946001
 21
178.2226661929
 31
0.0
  0
LINE
  5
178
330
172
100
AcDbEntity
  8
CAMADA_1
100
AcDbLine
 10
232.8425946001
 20
168.2226661929
 30
0.0
 11
232.8425946001
 21
178.2226661929
 31
0.0
  0
LINE
  5
179
330
172
100
AcDbEntity
  8
CAMADA_1
100
AcDbLine
 10
257.4425946001
 20
177.2226661929
 30
0.0
 11
263.7925946001
 21
177.2226661929
 31
0.0
  0
LINE
  5
17A
330
172
100
AcDbEntity
  8
CAMADA_1
100
AcDbLine
 10
257.4425946001
 20
177.2226661929
 30
0.0
 11
232.8425946001
 21
177.2226661929
 31
0.0
  0
LINE
  5
17B
330
172
100
AcDbEntity
  8
CAMADA_1
100
AcDbLine
 10
232.8425946001
 20
177.2226661929
 30
0.0
 11
226.4925946001
 21
177.2226661929
 31
0.0
  0
MTEXT
  5
17C
330
172
100
AcDbEntity
  8
CAMADA_1
100
AcDbMText
 10
239.1269697491
 20
181.7344035149
 30
0.0
 40
3.5
 41
0.0
 71
     1
 72
     1
  1
12,30
  7
SLDTEXTSTYLE0
 73
     1
 44
1.0
  0
ENDBLK
  5
174
330
172
100
AcDbEntity
  8
0
100
AcDbBlockEnd
  0
BLOCK
  5
17F
330
17E
100
AcDbEntity
  8
0
100
AcDbBlockBegin
  2
_D_7
 70
     0
 10
0.0
 20
0.0
 30
0.0
  3
_D_7
  1

  0
SOLID
  5
181
330
17E
100
AcDbEntity
  8
CAMADA_1
100
AcDbTrace
 10
358.2425946001
 20
177.2226661929
 30
0.0
 11
354.9405946001
 21
177.7306661929
 31
0.0
 12
354.9405946001
 22
176.7146661929
 32
0.0
 13
354.9405946001
 23
176.7146661929
 33
0.0
  0
SOLID
  5
182
330
17E
100
AcDbEntity
  8
CAMADA_1
100
AcDbTrace
 10
377.8425946001
 20
177.2226661929
 30
0.0
 11
381.1445946001
 21
176.7146661929
 31
0.0
 12
381.1445946001
 22
177.7306661929
 32
0.0
 13
381.1445946001
 23
177.7306661929
 33
0.0
  0
LINE
  5
183
330
17E
100
AcDbEntity
  8
CAMADA_1
100
AcDbLine
 10
358.2425946001
 20
168.2226661929
 30
0.0
 11
358.2425946001
 21
178.2226661929
 31
0.0
  0
LINE
  5
184
330
17E
100
AcDbEntity
  8
CAMADA_1
100
AcDbLine
 10
377.8425946001
 20
168.2226661929
 30
0.0
 11
377.8425946001
 21
178.2226661929
 31
0.0
  0
LINE
  5
185
330
17E
100
AcDbEntity
  8
CAMADA_1
100
AcDbLine
 10
358.2425946001
 20
177.2226661929
 30
0.0
 11
351.8925946001
 21
177.2226661929
 31
0.0
  0
LINE
  5
186
330
17E
100
AcDbEntity
  8
CAMADA_1
100
AcDbLine
 10
358.2425946001
 20
177.2226661929
 30
0.0
 11
377.8425946001
 21
177.2226661929
 31
0.0
  0
LINE
  5
187
330
17E
100
AcDbEntity
  8
CAMADA_1
100
AcDbLine
 10
377.8425946001
 20
177.2226661929
 30
0.0
 11
384.1925946001
 21
177.2226661929
 31
0.0
  0
MTEXT
  5
188
330
17E
100
AcDbEntity
  8
CAMADA_1
100
AcDbMText
 10
363.3637752716
 20
181.7344035149
 30
0.0
 40
3.5
 41
0.0
 71
     1
 72
     1
  1
9,80
  7
SLDTEXTSTYLE0
 73
     1
 44
1.0
  0
ENDBLK
  5
180
330
17E
100
AcDbEntity
  8
0
100
AcDbBlockEnd
  0
BLOCK
  5
18B
330
18A
100
AcDbEntity
  8
0
100
AcDbBlockBegin
  2
_D_8
 70
     0
 10
0.0
 20
0.0
 30
0.0
  3
_D_8
  1

  0
SOLID
  5
18D
330
18A
100
AcDbEntity
  8
CAMADA_1
100
AcDbTrace
 10
377.8425946001
 20
183.2226661929
 30
0.0
 11
374.5405946001
 21
183.7306661929
 31
0.0
 12
374.5405946001
 22
182.7146661929
 32
0.0
 13
374.5405946001
 23
182.7146661929
 33
0.0
  0
SOLID
  5
18E
330
18A
100
AcDbEntity
  8
CAMADA_1
100
AcDbTrace
 10
232.8425946001
 20
183.2226661929
 30
0.0
 11
236.1445946001
 21
182.7146661929
 31
0.0
 12
236.1445946001
 22
183.7306661929
 32
0.0
 13
236.1445946001
 23
183.7306661929
 33
0.0
  0
LINE
  5
18F
330
18A
100
AcDbEntity
  8
CAMADA_1
100
AcDbLine
 10
377.8425946001
 20
168.2226661929
 30
0.0
 11
377.8425946001
 21
184.2226661929
 31
0.0
  0
LINE
  5
190
330
18A
100
AcDbEntity
  8
CAMADA_1
100
AcDbLine
 10
232.8425946001
 20
168.2226661929
 30
0.0
 11
232.8425946001
 21
184.2226661929
 31
0.0
  0
LINE
  5
191
330
18A
100
AcDbEntity
  8
CAMADA_1
100
AcDbLine
 10
377.8425946001
 20
183.2226661929
 30
0.0
 11
232.8425946001
 21
183.2226661929
 31
0.0
  0
MTEXT
  5
192
330
18A
100
AcDbEntity
  8
CAMADA_1
100
AcDbMText
 10
299.3269697491
 20
187.7344035149
 30
0.0
 40
3.5
 41
0.0
 71
     1
 72
     1
  1
72,50
  7
SLDTEXTSTYLE0
 73
     1
 44
1.0
  0
ENDBLK
  5
18C
330
18A
100
AcDbEntity
  8
0
100
AcDbBlockEnd
  0
BLOCK
  5
195
330
194
100
AcDbEntity
  8
0
100
AcDbBlockBegin
  2
_D_9
 70
     0
 10
0.0
 20
0.0
 30
0.0
  3
_D_9
  1

  0
SOLID
  5
197
330
194
100
AcDbEntity
  8
CAMADA_1
100
AcDbTrace
 10
222.8425946001
 20
167.2226661929
 30
0.0
 11
222.3345946001
 21
163.9206661929
 31
0.0
 12
223.3505946001
 22
163.9206661929
 32
0.0
 13
223.3505946001
 23
163.9206661929
 33
0.0
  0
SOLID
  5
198
330
194
100
AcDbEntity
  8
CAMADA_1
100
AcDbTrace
 10
222.8425946001
 20
141.8226661929
 30
0.0
 11
223.3505946001
 21
145.1246661929
 31
0.0
 12
222.3345946001
 22
145.1246661929
 32
0.0
 13
222.3345946001
 23
145.1246661929
 33
0.0
  0
LINE
  5
199
330
194
100
AcDbEntity
  8
CAMADA_1
100
AcDbLine
 10
231.8425946001
 20
167.2226661929
 30
0.0
 11
221.8425946001
 21
167.2226661929
 31
0.0
  0
LINE
  5
19A
330
194
100
AcDbEntity
  8
CAMADA_1
100
AcDbLine
 10
231.8425946001
 20
141.8226661929
 30
0.0
 11
221.8425946001
 21
141.8226661929
 31
0.0
  0
LINE
  5
19B
330
194
100
AcDbEntity
  8
CAMADA_1
100
AcDbLine
 10
222.8425946001
 20
167.2226661929
 30
0.0
 11
222.8425946001
 21
141.8226661929
 31
0.0
  0
MTEXT
  5
19C
330
194
100
AcDbEntity
  8
CAMADA_1
100
AcDbMText
 10
218.3308572781
 20
148.5070413419
 30
0.0
 40
3.5
 41
0.0
 71
     1
 72
     1
  1
12,70
  7
SLDTEXTSTYLE0
 11
-7.044195017643634E-15
 21
1.0
 31
0.0
 73
     1
 44
1.0
  0
ENDBLK
  5
196
330
194
100
AcDbEntity
  8
0
100
AcDbBlockEnd
  0
BLOCK
  5
1A0
330
19F
100
AcDbEntity
  8
0
100
AcDbBlockBegin
  2
_NONE
 70
     0
 10
0.0
 20
0.0
 30
0.0
  3
_NONE
  1

  0
ENDBLK
  5
1A1
330
19F
100
AcDbEntity
  8
0
100
AcDbBlockEnd
  0
BLOCK
  5
1A3
330
1A2
100
AcDbEntity
  8
0
100
AcDbBlockBegin
  2
_D_10
 70
     0
 10
0.0
 20
0.0
 30
0.0
  3
_D_10
  1

  0
SOLID
  5
1A5
330
1A2
100
AcDbEntity
  8
CAMADA_1
100
AcDbTrace
 10
367.3573719783
 20
155.6823045698
 30
0.0
 11
370.5182884575
 21
156.7639121747
 31
0.0
 12
370.0470114212
 22
157.6639977012
 32
0.0
 13
370.0470114212
 23
157.6639977012
 33
0.0
  0
LINE
  5
1A6
330
1A2
100
AcDbEntity
  8
CAMADA_1
100
AcDbLine
 10
367.3573719783
 20
155.6823045698
 30
0.0
 11
402.3774523077
 21
174.0185172801
 31
0.0
  0
LINE
  5
1A7
330
1A2
100
AcDbEntity
  8
CAMADA_1
100
AcDbLine
 10
367.3573719783
 20
155.6823045698
 30
0.0
 11
362.9278172219
 21
153.363027816
 31
0.0
  0
MTEXT
  5
1A8
330
1A2
100
AcDbEntity
  8
CAMADA_1
100
AcDbMText
 10
394.3704885406
 20
174.9116627682
 30
0.0
 40
3.5
 41
0.0
 71
     1
 72
     1
  1
M3
  7
SLDTEXTSTYLE0
 11
0.885910951265132
 21
0.4638553507598129
 31
0.0
 73
     1
 44
1.0
  0
ENDBLK
  5
1A4
330
1A2
100
AcDbEntity
  8
0
100
AcDbBlockEnd
  0
BLOCK
  5
1AD
330
1AC
100
AcDbEntity
  8
0
100
AcDbBlockBegin
  2
SW_CENTERMARKSYMBOL_0
 70
     0
 10
0.0
 20
0.0
 30
0.0
  3
SW_CENTERMARKSYMBOL_0
  1

  0
LINE
  5
1AF
330
1AC
100
AcDbEntity
  8
CAMADA_1
 62
     0
100
AcDbLine
 10
0.0
 20
0.0
 30
0.0
 11
0.0
 21
5.0
 31
0.0
  0
LINE
  5
1B0
330
1AC
100
AcDbEntity
  8
CAMADA_1
 62
     0
100
AcDbLine
 10
0.0
 20
0.0
 30
0.0
 11
-5.0
 21
0.0
 31
0.0
  0
LINE
  5
1B1
330
1AC
100
AcDbEntity
  8
CAMADA_1
 62
     0
100
AcDbLine
 10
0.0
 20
0.0
 30
0.0
 11
0.0
 21
-5.0
 31
0.0
  0
LINE
  5
1B2
330
1AC
100
AcDbEntity
  8
CAMADA_1
 62
     0
100
AcDbLine
 10
0.0
 20
0.0
 30
0.0
 11
5.0
 21
0.0
 31
0.0
  0
LINE
  5
1B3
330
1AC
100
AcDbEntity
  8
CAMADA_1
 62
     0
100
AcDbLine
 10
0.0
 20
5.0
 30
0.0
 11
0.0
 21
8.5
 31
0.0
  0
LINE
  5
1B4
330
1AC
100
AcDbEntity
  8
CAMADA_1
 62
     0
100
AcDbLine
 10
-5.0
 20
0.0
 30
0.0
 11
-8.5
 21
0.0
 31
0.0
  0
LINE
  5
1B5
330
1AC
100
AcDbEntity
  8
CAMADA_1
 62
     0
100
AcDbLine
 10
0.0
 20
-5.0
 30
0.0
 11
0.0
 21
-8.5
 31
0.0
  0
LINE
  5
1B6
330
1AC
100
AcDbEntity
  8
CAMADA_1
 62
     0
100
AcDbLine
 10
5.0
 20
0.0
 30
0.0
 11
8.5
 21
0.0
 31
0.0
  0
ENDBLK
  5
1AE
330
1AC
100
AcDbEntity
  8
0
100
AcDbBlockEnd
  0
BLOCK
  5
1B9
330
1B8
100
AcDbEntity
  8
0
100
AcDbBlockBegin
  2
SW_CENTERMARKSYMBOL_1
 70
     0
 10
0.0
 20
0.0
 30
0.0
  3
SW_CENTERMARKSYMBOL_1
  1

  0
LINE
  5
1BB
330
1B8
100
AcDbEntity
  8
CAMADA_1
 62
     0
100
AcDbLine
 10
0.0
 20
0.0
 30
0.0
 11
0.0
 21
5.0
 31
0.0
  0
LINE
  5
1BC
330
1B8
100
AcDbEntity
  8
CAMADA_1
 62
     0
100
AcDbLine
 10
0.0
 20
0.0
 30
0.0
 11
-5.0
 21
0.0
 31
0.0
  0
LINE
  5
1BD
330
1B8
100
AcDbEntity
  8
CAMADA_1
 62
     0
100
AcDbLine
 10
0.0
 20
0.0
 30
0.0
 11
0.0
 21
-5.0
 31
0.0
  0
LINE
  5
1BE
330
1B8
100
AcDbEntity
  8
CAMADA_1
 62
     0
100
AcDbLine
 10
0.0
 20
0.0
 30
0.0
 11
5.0
 21
0.0
 31
0.0
  0
LINE
  5
1BF
330
1B8
100
AcDbEntity
  8
CAMADA_1
 62
     0
100
AcDbLine
 10
0.0
 20
5.0
 30
0.0
 11
0.0
 21
7.5
 31
0.0
  0
LINE
  5
1C0
330
1B8
100
AcDbEntity
  8
CAMADA_1
 62
     0
100
AcDbLine
 10
-5.0
 20
0.0
 30
0.0
 11
-7.5
 21
0.0
 31
0.0
  0
LINE
  5
1C1
330
1B8
100
AcDbEntity
  8
CAMADA_1
 62
     0
100
AcDbLine
 10
0.0
 20
-5.0
 30
0.0
 11
0.0
 21
-7.5
 31
0.0
  0
LINE
  5
1C2
330
1B8
100
AcDbEntity
  8
CAMADA_1
 62
     0
100
AcDbLine
 10
5.0
 20
0.0
 30
0.0
 11
7.5
 21
0.0
 31
0.0
  0
ENDBLK
  5
1BA
330
1B8
100
AcDbEntity
  8
0
100
AcDbBlockEnd
  0
ENDSEC
  0
SECTION
  2
ENTITIES
  0
LINE
  5
76
330
1F
100
AcDbEntity
  8
0
  6
Continuous
 62
     7
370
    18
100
AcDbLine
 10
227.8
 20
9.25
 30
0.0
 11
415.0
 21
9.25
 31
0.0
  0
LINE
  5
77
330
1F
100
AcDbEntity
  8
0
  6
Continuous
 62
     7
370
    18
100
AcDbLine
 10
415.0000003319
 20
43.2542330964
 30
0.0
 11
227.8000003319
 21
43.2542330964
 31
0.0
  0
LINE
  5
78
330
1F
100
AcDbEntity
  8
0
  6
Continuous
 62
     7
370
    18
100
AcDbLine
 10
227.8
 20
60.25
 30
0.0
 11
415.0
 21
60.25
 31
0.0
  0
LINE
  5
79
330
1F
100
AcDbEntity
  8
0
  6
Continuous
 62
     7
370
    18
100
AcDbLine
 10
410.0
 20
287.0
 30
0.0
 11
410.0
 21
60.25
 31
0.0
  0
LINE
  5
7A
330
1F
100
AcDbEntity
  8
0
  6
Continuous
 62
     7
370
    18
100
AcDbLine
 10
254.7909527657
 20
43.2542330964
 30
0.0
 11
254.7909527657
 21
22.0085631312
 31
0.0
  0
LINE
  5
7B
330
1F
100
AcDbEntity
  8
0
  6
Continuous
 62
     7
370
    18
100
AcDbLine
 10
326.6
 20
26.25
 30
0.0
 11
227.8
 21
26.25
 31
0.0
  0
LINE
  5
7C
330
1F
100
AcDbEntity
  8
0
  6
Continuous
 62
     7
370
    18
100
AcDbLine
 10
326.6
 20
30.5
 30
0.0
 11
227.8
 21
30.5
 31
0.0
  0
LINE
  5
7D
330
1F
100
AcDbEntity
  8
0
  6
Continuous
 62
     7
370
    18
100
AcDbLine
 10
326.6
 20
34.75
 30
0.0
 11
227.8
 21
34.75
 31
0.0
  0
LINE
  5
7E
330
1F
100
AcDbEntity
  8
0
  6
Continuous
 62
     7
370
    18
100
AcDbLine
 10
326.6
 20
39.0
 30
0.0
 11
227.8
 21
39.0
 31
0.0
  0
LINE
  5
7F
330
1F
100
AcDbEntity
  8
0
  6
Continuous
 62
     7
370
    18
100
AcDbLine
 10
282.4000003319
 20
5.0042330964
 30
0.0
 11
282.4000003319
 21
43.2542330964
 31
0.0
  0
LINE
  5
80
330
1F
100
AcDbEntity
  8
0
  6
Continuous
 62
     7
370
    18
100
AcDbLine
 10
227.8
 20
60.25
 30
0.0
 11
227.8
 21
5.0
 31
0.0
  0
LINE
  5
81
330
1F
100
AcDbEntity
  8
0
  6
Continuous
 62
     7
370
    18
100
AcDbLine
 10
235.6000000959
 20
43.2512233045
 30
0.0
 11
235.6000000959
 21
22.0085631312
 31
0.0
  0
LINE
  5
82
330
1F
100
AcDbEntity
  8
0
  6
Continuous
 62
     7
370
    18
100
AcDbLine
 10
261.5966683743
 20
43.2542330964
 30
0.0
 11
261.5940028618
 21
60.25
 31
0.0
  0
LINE
  5
83
330
1F
100
AcDbEntity
  8
0
  6
Continuous
 62
     7
370
    18
100
AcDbLine
 10
272.1989267096
 20
43.2569632569
 30
0.0
 11
272.1989267096
 21
22.0085631312
 31
0.0
  0
LINE
  5
84
330
1F
100
AcDbEntity
  8
0
  6
Continuous
 62
     7
370
    18
100
AcDbLine
 10
292.8
 20
26.25
 30
0.0
 11
292.8
 21
43.25
 31
0.0
  0
LINE
  5
85
330
1F
100
AcDbEntity
  8
0
  6
Continuous
 62
     7
370
    18
100
AcDbLine
 10
324.7768844999
 20
9.25
 30
0.0
 11
324.7768844999
 21
5.0
 31
0.0
  0
LINE
  5
86
330
1F
100
AcDbEntity
  8
0
  6
Continuous
 62
     7
370
    18
100
AcDbLine
 10
308.4
 20
60.25
 30
0.0
 11
308.4
 21
22.0
 31
0.0
  0
LINE
  5
87
330
1F
100
AcDbEntity
  8
0
  6
Continuous
 62
     7
370
    18
100
AcDbLine
 10
282.4000006715
 20
22.0085631312
 30
0.0
 11
227.8
 21
22.0085631312
 31
0.0
  0
LINE
  5
88
330
1F
100
AcDbEntity
  8
0
  6
Continuous
 62
     7
370
    18
100
AcDbLine
 10
282.4000006715
 20
22.0085631312
 30
0.0
 11
414.9999990407
 21
22.0293593066
 31
0.0
  0
LINE
  5
89
330
1F
100
AcDbEntity
  8
0
  6
Continuous
 62
     7
370
    18
100
AcDbLine
 10
326.6
 20
60.25
 30
0.0
 11
326.6
 21
22.0154951896
 31
0.0
  0
LINE
  5
8A
330
1F
100
AcDbEntity
  8
0
  6
Continuous
 62
     7
370
    18
100
AcDbLine
 10
370.8
 20
5.0
 30
0.0
 11
370.8
 21
9.25
 31
0.0
  0
LINE
  5
8B
330
1F
100
AcDbEntity
  8
0
  6
Continuous
 62
     7
370
    18
100
AcDbLine
 10
378.6
 20
53.875
 30
0.0
 11
378.6
 21
60.25
 31
0.0
  0
LINE
  5
8C
330
1F
100
AcDbEntity
  8
0
  6
Continuous
 62
     7
370
    18
100
AcDbLine
 10
415.0
 20
53.875
 30
0.0
 11
326.6
 21
53.875
 31
0.0
  0
LINE
  5
8D
330
1F
100
AcDbEntity
  8
0
  6
Continuous
 62
     7
370
    18
100
AcDbLine
 10
402.0
 20
5.0
 30
0.0
 11
402.0
 21
9.25
 31
0.0
  0
LINE
  5
8E
330
1F
100
AcDbEntity
  8
0
  6
Continuous
 62
     7
370
    18
100
AcDbLine
 10
326.6
 20
30.5
 30
0.0
 11
415.0
 21
30.5
 31
0.0
  0
LINE
  5
8F
330
1F
100
AcDbEntity
  8
0
  6
Continuous
 62
     7
370
    18
100
AcDbLine
 10
415.0
 20
292.0
 30
0.0
 11
5.0
 21
292.0
 31
0.0
  0
LINE
  5
90
330
1F
100
AcDbEntity
  8
0
  6
Continuous
 62
     7
370
    18
100
AcDbLine
 10
410.0
 20
287.0
 30
0.0
 11
10.0
 21
287.0
 31
0.0
  0
LINE
  5
91
330
1F
100
AcDbEntity
  8
0
  6
Continuous
 62
     7
370
    18
100
AcDbLine
 10
5.0
 20
292.0
 30
0.0
 11
5.0
 21
5.0
 31
0.0
  0
LINE
  5
92
330
1F
100
AcDbEntity
  8
0
  6
Continuous
 62
     7
370
    18
100
AcDbLine
 10
10.0
 20
287.0
 30
0.0
 11
10.0
 21
10.0
 31
0.0
  0
LINE
  5
93
330
1F
100
AcDbEntity
  8
0
  6
Continuous
 62
     7
370
    18
100
AcDbLine
 10
10.0
 20
48.5
 30
0.0
 11
5.0
 21
48.5
 31
0.0
  0
LINE
  5
94
330
1F
100
AcDbEntity
  8
0
  6
Continuous
 62
     7
370
    18
100
AcDbLine
 10
5.0
 20
98.5
 30
0.0
 11
10.0
 21
98.5
 31
0.0
  0
LINE
  5
95
330
1F
100
AcDbEntity
  8
0
  6
Continuous
 62
     7
370
    18
100
AcDbLine
 10
5.0
 20
198.5
 30
0.0
 11
10.0
 21
198.5
 31
0.0
  0
LINE
  5
96
330
1F
100
AcDbEntity
  8
0
  6
Continuous
 62
     7
370
    18
100
AcDbLine
 10
5.0
 20
148.5
 30
0.0
 11
15.0
 21
148.5
 31
0.0
  0
LINE
  5
97
330
1F
100
AcDbEntity
  8
0
  6
Continuous
 62
     7
370
    18
100
AcDbLine
 10
5.0
 20
5.0
 30
0.0
 11
415.0
 21
5.0
 31
0.0
  0
LINE
  5
98
330
1F
100
AcDbEntity
  8
0
  6
Continuous
 62
     7
370
    18
100
AcDbLine
 10
10.0
 20
10.0
 30
0.0
 11
227.8
 21
10.0
 31
0.0
  0
LINE
  5
99
330
1F
100
AcDbEntity
  8
0
  6
Continuous
 62
     7
370
    18
100
AcDbLine
 10
60.0
 20
5.0
 30
0.0
 11
60.0
 21
10.0
 31
0.0
  0
LINE
  5
9A
330
1F
100
AcDbEntity
  8
0
  6
Continuous
 62
     7
370
    18
100
AcDbLine
 10
110.0
 20
10.0
 30
0.0
 11
110.0
 21
5.0
 31
0.0
  0
LINE
  5
9B
330
1F
100
AcDbEntity
  8
0
  6
Continuous
 62
     7
370
    18
100
AcDbLine
 10
160.0
 20
5.0
 30
0.0
 11
160.0
 21
10.0
 31
0.0
  0
LINE
  5
9C
330
1F
100
AcDbEntity
  8
0
  6
Continuous
 62
     7
370
    18
100
AcDbLine
 10
10.0
 20
248.5
 30
0.0
 11
5.0
 21
248.5
 31
0.0
  0
LINE
  5
9D
330
1F
100
AcDbEntity
  8
0
  6
Continuous
 62
     7
370
    18
100
AcDbLine
 10
60.0
 20
287.0
 30
0.0
 11
60.0
 21
292.0
 31
0.0
  0
LINE
  5
9E
330
1F
100
AcDbEntity
  8
0
  6
Continuous
 62
     7
370
    18
100
AcDbLine
 10
110.0
 20
292.0
 30
0.0
 11
110.0
 21
287.0
 31
0.0
  0
LINE
  5
9F
330
1F
100
AcDbEntity
  8
0
  6
Continuous
 62
     7
370
    18
100
AcDbLine
 10
160.0
 20
287.0
 30
0.0
 11
160.0
 21
292.0
 31
0.0
  0
LINE
  5
A0
330
1F
100
AcDbEntity
  8
0
  6
Continuous
 62
     7
370
    18
100
AcDbLine
 10
260.0
 20
287.0
 30
0.0
 11
260.0
 21
292.0
 31
0.0
  0
LINE
  5
A1
330
1F
100
AcDbEntity
  8
0
  6
Continuous
 62
     7
370
    18
100
AcDbLine
 10
415.0
 20
5.0
 30
0.0
 11
415.0
 21
292.0
 31
0.0
  0
LINE
  5
A2
330
1F
100
AcDbEntity
  8
0
  6
Continuous
 62
     7
370
    18
100
AcDbLine
 10
210.0
 20
5.0
 30
0.0
 11
210.0
 21
15.0
 31
0.0
  0
LINE
  5
A3
330
1F
100
AcDbEntity
  8
0
  6
Continuous
 62
     7
370
    18
100
AcDbLine
 10
410.0
 20
198.5
 30
0.0
 11
415.0
 21
198.5
 31
0.0
  0
LINE
  5
A4
330
1F
100
AcDbEntity
  8
0
  6
Continuous
 62
     7
370
    18
100
AcDbLine
 10
410.0
 20
98.5
 30
0.0
 11
415.0
 21
98.5
 31
0.0
  0
LINE
  5
A5
330
1F
100
AcDbEntity
  8
0
  6
Continuous
 62
     7
370
    18
100
AcDbLine
 10
415.0
 20
148.5
 30
0.0
 11
405.0
 21
148.5
 31
0.0
  0
LINE
  5
A6
330
1F
100
AcDbEntity
  8
0
  6
Continuous
 62
     7
370
    18
100
AcDbLine
 10
310.0
 20
292.0
 30
0.0
 11
310.0
 21
287.0
 31
0.0
  0
LINE
  5
A7
330
1F
100
AcDbEntity
  8
0
  6
Continuous
 62
     7
370
    18
100
AcDbLine
 10
360.0
 20
287.0
 30
0.0
 11
360.0
 21
292.0
 31
0.0
  0
LINE
  5
A8
330
1F
100
AcDbEntity
  8
0
  6
Continuous
 62
     7
370
    18
100
AcDbLine
 10
210.0
 20
292.0
 30
0.0
 11
210.0
 21
282.0
 31
0.0
  0
LINE
  5
A9
330
1F
100
AcDbEntity
  8
0
  6
Continuous
 62
     7
370
    18
100
AcDbLine
 10
415.0
 20
248.5
 30
0.0
 11
410.0
 21
248.5
 31
0.0
  0
MTEXT
  5
AB
330
1F
100
AcDbEntity
  8
FORMAT
100
AcDbMText
 10
228.1890171568
 20
68.5030770826
 30
0.0
 40
3.5
 41
0.0
 71
     1
 72
     1
  1
Material: Chapa de Aço SAE 1020 Espessura: 1,50mm.
  7
SLDTEXTSTYLE0
 73
     1
 44
1.0
  0
MTEXT
  5
AC
330
1F
100
AcDbEntity
  8
FORMAT
100
AcDbMText
 10
228.1890171568
 20
75.0296875734
 30
0.0
 40
3.5
 41
0.0
 71
     1
 72
     1
  1
Descrição: Suporte
  7
SLDTEXTSTYLE0
 73
     1
 44
1.0
  0
MTEXT
  5
AD
330
1F
100
AcDbEntity
  8
FORMAT
100
AcDbMText
 10
228.1890171568
 20
81.5905386782
 30
0.0
 40
3.5
 41
0.0
 71
     1
 72
     1
  1
Cor: Galvanizado
  7
SLDTEXTSTYLE0
 73
     1
 44
1.0
  0
MTEXT
  5
AE
330
1F
100
AcDbEntity
  8
0
  6
Continuous
 62
     7
370
     0
100
AcDbMText
 10
6.6666666667
 20
124.6680204618
 30
0.0
 40
1.8520833333
 41
0.0
 71
     1
 72
     1
  1
D
  7
SLDTEXTSTYLE0
 73
     1
 44
1.0
  0
MTEXT
  5
AF
330
1F
100
AcDbEntity
  8
0
  6
Continuous
 62
     7
370
     0
100
AcDbMText
 10
6.6666666667
 20
74.6680204618
 30
0.0
 40
1.8520833333
 41
0.0
 71
     1
 72
     1
  1
E
  7
SLDTEXTSTYLE0
 73
     1
 44
1.0
  0
MTEXT
  5
B0
330
1F
100
AcDbEntity
  8
0
  6
Continuous
 62
     7
370
     0
100
AcDbMText
 10
6.6666666667
 20
24.6680204618
 30
0.0
 40
1.8520833333
 41
0.0
 71
     1
 72
     1
  1
F
  7
SLDTEXTSTYLE0
 73
     1
 44
1.0
  0
MTEXT
  5
B1
330
1F
100
AcDbEntity
  8
0
  6
Continuous
 62
     7
370
     0
100
AcDbMText
 10
6.6666666667
 20
174.6680204618
 30
0.0
 40
1.8520833333
 41
0.0
 71
     1
 72
     1
  1
C
  7
SLDTEXTSTYLE0
 73
     1
 44
1.0
  0
MTEXT
  5
B2
330
1F
100
AcDbEntity
  8
0
  6
Continuous
 62
     7
370
     0
100
AcDbMText
 10
34.5833333333
 20
8.6680244618
 30
0.0
 40
1.8520833333
 41
0.0
 71
     1
 72
     1
  1
1
  7
SLDTEXTSTYLE0
 73
     1
 44
1.0
  0
MTEXT
  5
B3
330
1F
100
AcDbEntity
  8
0
  6
Continuous
 62
     7
370
     0
100
AcDbMText
 10
84.1666666667
 20
8.6680244618
 30
0.0
 40
1.8520833333
 41
0.0
 71
     1
 72
     1
  1
2
  7
SLDTEXTSTYLE0
 73
     1
 44
1.0
  0
MTEXT
  5
B4
330
1F
100
AcDbEntity
  8
0
  6
Continuous
 62
     7
370
     0
100
AcDbMText
 10
134.1666666667
 20
8.6680244618
 30
0.0
 40
1.8520833333
 41
0.0
 71
     1
 72
     1
  1
3
  7
SLDTEXTSTYLE0
 73
     1
 44
1.0
  0
MTEXT
  5
B5
330
1F
100
AcDbEntity
  8
0
  6
Continuous
 62
     7
370
     0
100
AcDbMText
 10
184.1666666667
 20
8.6680244618
 30
0.0
 40
1.8520833333
 41
0.0
 71
     1
 72
     1
  1
4
  7
SLDTEXTSTYLE0
 73
     1
 44
1.0
  0
MTEXT
  5
B6
330
1F
100
AcDbEntity
  8
0
  6
Continuous
 62
     7
370
     0
100
AcDbMText
 10
6.6666666667
 20
224.6680204618
 30
0.0
 40
1.8520833333
 41
0.0
 71
     1
 72
     1
  1
B
  7
SLDTEXTSTYLE0
 73
     1
 44
1.0
  0
MTEXT
  5
B7
330
1F
100
AcDbEntity
  8
0
  6
Continuous
 62
     7
370
     0
100
AcDbMText
 10
6.6666666667
 20
274.6680204618
 30
0.0
 40
1.8520833333
 41
0.0
 71
     1
 72
     1
  1
A
  7
SLDTEXTSTYLE0
 73
     1
 44
1.0
  0
MTEXT
  5
B8
330
1F
100
AcDbEntity
  8
0
  6
Continuous
 62
     7
370
     0
100
AcDbMText
 10
134.1666666667
 20
290.6680244618
 30
0.0
 40
1.8520833333
 41
0.0
 71
     1
 72
     1
  1
3
  7
SLDTEXTSTYLE0
 73
     1
 44
1.0
  0
MTEXT
  5
B9
330
1F
100
AcDbEntity
  8
0
  6
Continuous
 62
     7
370
     0
100
AcDbMText
 10
84.1666666667
 20
290.6680244618
 30
0.0
 40
1.8520833333
 41
0.0
 71
     1
 72
     1
  1
2
  7
SLDTEXTSTYLE0
 73
     1
 44
1.0
  0
MTEXT
  5
BA
330
1F
100
AcDbEntity
  8
0
  6
Continuous
 62
     7
370
     0
100
AcDbMText
 10
34.5833333333
 20
290.6680244618
 30
0.0
 40
1.8520833333
 41
0.0
 71
     1
 72
     1
  1
1
  7
SLDTEXTSTYLE0
 73
     1
 44
1.0
  0
MTEXT
  5
BB
330
1F
100
AcDbEntity
  8
0
  6
Continuous
 62
     7
370
     0
100
AcDbMText
 10
234.1666666667
 20
290.6680244618
 30
0.0
 40
1.8520833333
 41
0.0
 71
     1
 72
     1
  1
5
  7
SLDTEXTSTYLE0
 73
     1
 44
1.0
  0
MTEXT
  5
BC
330
1F
100
AcDbEntity
  8
0
  6
Continuous
 62
     7
370
     0
100
AcDbMText
 10
411.6666666667
 20
174.6680204618
 30
0.0
 40
1.8520833333
 41
0.0
 71
     1
 72
     1
  1
C
  7
SLDTEXTSTYLE0
 73
     1
 44
1.0
  0
MTEXT
  5
BD
330
1F
100
AcDbEntity
  8
0
  6
Continuous
 62
     7
370
     0
100
AcDbMText
 10
411.6666666667
 20
124.6680204618
 30
0.0
 40
1.8520833333
 41
0.0
 71
     1
 72
     1
  1
D
  7
SLDTEXTSTYLE0
 73
     1
 44
1.0
  0
MTEXT
  5
BE
330
1F
100
AcDbEntity
  8
0
  6
Continuous
 62
     7
370
     0
100
AcDbMText
 10
184.1666666667
 20
290.6680244618
 30
0.0
 40
1.8520833333
 41
0.0
 71
     1
 72
     1
  1
4
  7
SLDTEXTSTYLE0
 73
     1
 44
1.0
  0
MTEXT
  5
BF
330
1F
100
AcDbEntity
  8
0
  6
Continuous
 62
     7
370
     0
100
AcDbMText
 10
284.1666666667
 20
290.6680244618
 30
0.0
 40
1.8520833333
 41
0.0
 71
     1
 72
     1
  1
6
  7
SLDTEXTSTYLE0
 73
     1
 44
1.0
  0
MTEXT
  5
C0
330
1F
100
AcDbEntity
  8
0
  6
Continuous
 62
     7
370
     0
100
AcDbMText
 10
334.1666666667
 20
290.6680244618
 30
0.0
 40
1.8520833333
 41
0.0
 71
     1
 72
     1
  1
7
  7
SLDTEXTSTYLE0
 73
     1
 44
1.0
  0
MTEXT
  5
C1
330
1F
100
AcDbEntity
  8
0
  6
Continuous
 62
     7
370
     0
100
AcDbMText
 10
384.1666666667
 20
290.6680244618
 30
0.0
 40
1.8520833333
 41
0.0
 71
     1
 72
     1
  1
8
  7
SLDTEXTSTYLE0
 73
     1
 44
1.0
  0
MTEXT
  5
C2
330
1F
100
AcDbEntity
  8
0
  6
Continuous
 62
     7
370
     0
100
AcDbMText
 10
411.6666666667
 20
274.6680204618
 30
0.0
 40
1.8520833333
 41
0.0
 71
     1
 72
     1
  1
A
  7
SLDTEXTSTYLE0
 73
     1
 44
1.0
  0
MTEXT
  5
C3
330
1F
100
AcDbEntity
  8
0
  6
Continuous
 62
     7
370
     0
100
AcDbMText
 10
411.6666666667
 20
224.6680204618
 30
0.0
 40
1.8520833333
 41
0.0
 71
     1
 72
     1
  1
B
  7
SLDTEXTSTYLE0
 73
     1
 44
1.0
  0
MTEXT
  5
C4
330
1F
100
AcDbEntity
  8
0
  6
Continuous
 62
     7
370
     0
100
AcDbMText
 10
351.2533925606
 20
15.3628143309
 30
0.0
 40
3.2
 41
0.0
 71
     2
 72
     1
  1
P037 - suporte4
  7
SLDTEXTSTYLE0
 73
     1
 44
1.0
  0
MTEXT
  5
C5
330
1F
100
AcDbEntity
  8
0
  6
Continuous
 62
     7
370
     0
100
AcDbMText
 10
228.2551864991
 20
8.0436101118
 30
0.0
 40
2.0
 41
0.0
 71
     1
 72
     1
  1
ESPESSURA: 1,50mm
  7
SLDTEXTSTYLE0
 73
     1
 44
1.0
  0
MTEXT
  5
C6
330
1F
100
AcDbEntity
  8
0
  6
Continuous
 62
     7
370
     0
100
AcDbMText
 10
254.8511999126
 20
16.4845695419
 30
0.0
 40
2.0
 41
0.0
 71
     2
 72
     1
  1
Chapa de Aço SAE 1020
  7
SLDTEXTSTYLE0
 73
     1
 44
1.0
  0
MTEXT
  5
C7
330
1F
100
AcDbEntity
  8
0
  6
Continuous
 62
     7
370
     0
100
AcDbMText
 10
406.7007320234
 20
8.1775893942
 30
0.0
 40
2.0
 41
0.0
 71
     1
 72
     1
  1
A3
  7
SLDTEXTSTYLE0
 73
     1
 44
1.0
  0
MTEXT
  5
C9
330
1F
100
AcDbEntity
  8
0
  6
Continuous
 62
     7
370
     0
100
AcDbMText
 10
372.2782944278
 20
8.0446212953
 30
0.0
 40
2.0
 41
0.0
 71
     1
 72
     1
  1
FOLHA 1 DE  1
  7
SLDTEXTSTYLE1
 73
     1
 44
1.0
  0
MTEXT
  5
CA
330
1F
100
AcDbEntity
  8
0
  6
Continuous
 62
     7
370
     0
100
AcDbMText
 10
327.8739661175
 20
8.0446212953
 30
0.0
 40
2.0
 41
0.0
 71
     1
 72
     1
  1
ESCALA: 2:1
  7
SLDTEXTSTYLE0
 73
     1
 44
1.0
  0
MTEXT
  5
CB
330
1F
100
AcDbEntity
  8
0
  6
Continuous
 62
     7
370
     0
100
AcDbMText
 10
283.4682507293
 20
20.6041821634
 30
0.0
 40
1.5
 41
0.0
 71
     1
 72
     1
  1
ARQUIVO:
  7
SLDTEXTSTYLE0
 73
     1
 44
1.0
  0
MTEXT
  5
CC
330
1F
100
AcDbEntity
  8
0
  6
Continuous
 62
     7
370
     0
100
AcDbMText
 10
327.7561869366
 20
41.2783343442
 30
0.0
 40
1.5
 41
0.0
 71
     1
 72
     1
  1
CONJUNTO:
  7
SLDTEXTSTYLE0
 73
     1
 44
1.0
  0
MTEXT
  5
CD
330
1F
100
AcDbEntity
  8
0
  6
Continuous
 62
     7
370
     0
100
AcDbMText
 10
283.5708847492
 20
8.0446212953
 30
0.0
 40
2.0
 41
0.0
 71
     1
 72
     1
  1
REVISÃO:
  7
SLDTEXTSTYLE0
 73
     1
 44
1.0
  0
MTEXT
  5
CE
330
1F
100
AcDbEntity
  8
0
  6
Continuous
 62
     7
370
     0
100
AcDbMText
 10
228.2551864991
 20
20.5046621902
 30
0.0
 40
1.5
 41
0.0
 71
     1
 72
     1
  1
MATERIAL:
  7
SLDTEXTSTYLE0
 73
     1
 44
1.0
  0
MTEXT
  5
CF
330
1F
100
AcDbEntity
  8
0
  6
Continuous
 62
     7
370
     0
100
AcDbMText
 10
261.0927285536
 20
41.5014826917
 30
0.0
 40
1.5
 41
0.0
 71
     1
 72
     1
  1
VISTO
  7
SLDTEXTSTYLE0
 73
     1
 44
1.0
  0
MTEXT
  5
D0
330
1F
100
AcDbEntity
  8
0
  6
Continuous
 62
     7
370
     0
100
AcDbMText
 10
274.2878177404
 20
41.5014826917
 30
0.0
 40
1.5
 41
0.0
 71
     1
 72
     1
  1
DATA
  7
SLDTEXTSTYLE0
 73
     1
 44
1.0
  0
MTEXT
  5
D1
330
1F
100
AcDbEntity
  8
0
  6
Continuous
 62
     7
370
     0
100
AcDbMText
 10
242.1222392177
 20
41.5014826917
 30
0.0
 40
1.5
 41
0.0
 71
     1
 72
     1
  1
NOME
  7
SLDTEXTSTYLE0
 73
     1
 44
1.0
  0
MTEXT
  5
D2
330
1F
100
AcDbEntity
  8
0
  6
Continuous
 62
     7
370
     0
100
AcDbMText
 10
228.2551864991
 20
24.7337047088
 30
0.0
 40
1.5
 41
0.0
 71
     1
 72
     1
  1
APROV.
  7
SLDTEXTSTYLE0
 73
     1
 44
1.0
  0
MTEXT
  5
D3
330
1F
100
AcDbEntity
  8
0
  6
Continuous
 62
     7
370
     0
100
AcDbMText
 10
228.2017224083
 20
29.0642960613
 30
0.0
 40
1.5
 41
0.0
 71
     1
 72
     1
  1
CONF.
  7
SLDTEXTSTYLE0
 73
     1
 44
1.0
  0
MTEXT
  5
D4
330
1F
100
AcDbEntity
  8
0
  6
Continuous
 62
     7
370
     0
100
AcDbMText
 10
228.2104688676
 20
33.1544072182
 30
0.0
 40
1.5
 41
0.0
 71
     1
 72
     1
  1
DES.
  7
SLDTEXTSTYLE0
 73
     1
 44
1.0
  0
MTEXT
  5
D5
330
1F
100
AcDbEntity
  8
0
  6
Continuous
 62
     7
370
     0
100
AcDbMText
 10
228.0121492441
 20
37.4297149441
 30
0.0
 40
1.5
 41
0.0
 71
     1
 72
     1
  1
PROJ.
  7
SLDTEXTSTYLE0
 73
     1
 44
1.0
  0
MTEXT
  5
D6
330
1F
100
AcDbEntity
  8
0
  6
Continuous
 62
     7
370
     0
100
AcDbMText
 10
327.5038427567
 20
28.9300024209
 30
0.0
 40
1.5
 41
0.0
 71
     1
 72
     1
  1
DESCRIÇÃO:
  7
SLDTEXTSTYLE0
 73
     1
 44
1.0
  0
MTEXT
  5
D7
330
1F
100
AcDbEntity
  8
0
  6
Continuous
 62
     7
370
     0
100
AcDbMText
 10
370.4740493045
 20
26.6837179248
 30
0.0
 40
3.2
 41
0.0
 71
     2
 72
     1
  1
Suporte
  7
SLDTEXTSTYLE0
 73
     1
 44
1.0
  0
INSERT
  5
DE
330
1F
100
AcDbEntity
  8
0
  6
Continuous
 62
     7
370
     0
100
AcDbBlockReference
  2
SW_NOTE_0
 10
228.3936687456
 20
56.9873699325
 30
0.0
  0
MTEXT
  5
DF
330
1F
100
AcDbEntity
  8
0
  6
Continuous
 62
     7
370
     0
100
AcDbMText
 10
263.2169977781
 20
58.9209713093
 30
0.0
 40
1.5
 41
0.0
 71
     1
 72
     1
  1
QUANTIDADE:
  7
SLDTEXTSTYLE0
 73
     1
 44
1.0
  0
MTEXT
  5
E0
330
1F
100
AcDbEntity
  8
0
  6
Continuous
 62
     7
370
     0
100
AcDbMText
 10
285.4119592066
 20
52.8815988004
 30
0.0
 40
2.7
 41
0.0
 71
     2
 72
     1
  1
2 peça(s) por conjunto
  7
SLDTEXTSTYLE0
 73
     1
 44
1.0
  0
LINE
  5
E1
330
1F
100
AcDbEntity
  8
0
  6
Continuous
 62
     7
370
    25
100
AcDbLine
 10
29.6663204634
 20
247.8018793995
 30
0.0
 11
31.9113844936
 21
250.0469434298
 31
0.0
  0
LINE
  5
E2
330
1F
100
AcDbEntity
  8
0
  6
Continuous
 62
     7
370
    25
100
AcDbLine
 10
31.9113844936
 20
250.0469434298
 30
0.0
 11
55.2115930175
 21
226.7467349059
 31
0.0
  0
LINE
  5
E3
330
1F
100
AcDbEntity
  8
0
  6
Continuous
 62
     7
370
    25
100
AcDbLine
 10
52.9665289873
 20
224.5016708756
 30
0.0
 11
55.2115930175
 21
226.7467349059
 31
0.0
  0
LINE
  5
E4
330
1F
100
AcDbEntity
  8
0
  6
Continuous
 62
     7
370
    25
100
AcDbLine
 10
29.6663204634
 20
247.8018793995
 30
0.0
 11
52.9665289873
 21
224.5016708756
 31
0.0
  0
LINE
  5
E5
330
1F
100
AcDbEntity
  8
0
  6
Continuous
 62
     7
370
    25
100
AcDbLine
 10
16.9663204634
 20
260.5018793995
 30
0.0
 11
19.2113844936
 21
262.7469434298
 31
0.0
  0
LINE
  5
E6
330
1F
100
AcDbEntity
  8
0
  6
Continuous
 62
     7
370
    25
100
AcDbLine
 10
19.2113844936
 20
262.7469434298
 30
0.0
 11
31.9113844936
 21
250.0469434298
 31
0.0
  0
LINE
  5
E7
330
1F
100
AcDbEntity
  8
0
  6
Continuous
 62
     7
370
    25
100
AcDbLine
 10
16.9663204634
 20
260.5018793995
 30
0.0
 11
29.6663204634
 21
247.8018793995
 31
0.0
  0
LINE
  5
E8
330
1F
100
AcDbEntity
  8
0
  6
Continuous
 62
     7
370
    25
100
AcDbLine
 10
107.2950124376
 20
226.7467349059
 30
0.0
 11
128.0952209615
 21
247.5469434298
 31
0.0
  0
LINE
  5
E9
330
1F
100
AcDbEntity
  8
0
  6
Continuous
 62
     7
370
    25
100
AcDbLine
 10
130.3402849918
 20
245.3018793995
 30
0.0
 11
128.0952209615
 21
247.5469434298
 31
0.0
  0
LINE
  5
EA
330
1F
100
AcDbEntity
  8
0
  6
Continuous
 62
     7
370
    25
100
AcDbLine
 10
109.5400764679
 20
224.5016708756
 30
0.0
 11
107.2950124376
 21
226.7467349059
 31
0.0
  0
LINE
  5
EB
330
1F
100
AcDbEntity
  8
0
  6
Continuous
 62
     7
370
    25
100
AcDbLine
 10
109.5400764679
 20
224.5016708756
 30
0.0
 11
130.3402849918
 21
245.3018793995
 31
0.0
  0
LINE
  5
EC
330
1F
100
AcDbEntity
  8
0
  6
Continuous
 62
     7
370
    25
100
AcDbLine
 10
143.0402849918
 20
258.0018793995
 30
0.0
 11
140.7952209615
 21
260.2469434298
 31
0.0
  0
LINE
  5
ED
330
1F
100
AcDbEntity
  8
0
  6
Continuous
 62
     7
370
    25
100
AcDbLine
 10
128.0952209615
 20
247.5469434298
 30
0.0
 11
140.7952209615
 21
260.2469434298
 31
0.0
  0
LINE
  5
EE
330
1F
100
AcDbEntity
  8
0
  6
Continuous
 62
     7
370
    25
100
AcDbLine
 10
130.3402849918
 20
245.3018793995
 30
0.0
 11
143.0402849918
 21
258.0018793995
 31
0.0
  0
SPLINE
  5
EF
330
1F
100
AcDbEntity
  8
0
  6
Continuous
 62
     7
370
    25
100
AcDbSpline
210
0.0
220
0.0
230
1.0
 70
     8
 71
     3
 72
    14
 73
    10
 74
     0
 42
0.000000001
 43
0.00000001
 40
0.0
 40
0.0
 40
0.0
 40
0.0
 40
0.25
 40
0.25
 40
0.5
 40
0.5
 40
0.75
 40
0.75
 40
1.0
 40
1.0
 40
1.0
 40
1.0
 10
109.5400764678997
 20
224.5016708756243
 30
0.0
 10
109.2567778885493
 20
224.2183722962738
 30
0.0
 10
108.8879333863417
 20
224.0206196397805
 30
0.0
 10
107.9920465660709
 20
223.7833121426495
 30
0.0
 10
107.4651338094282
 20
223.7436277405913
 30
0.0
 10
106.2900886935433
 20
223.7854785390745
 30
0.0
 10
105.6421957325903
 20
223.8667743413266
 30
0.0
 10
104.2806230069781
 20
224.095152749537
 30
0.0
 10
103.5672560312574
 20
224.2419225665568
 30
0.0
 10
102.853719775383
 20
224.3888616637302
 30
0.0
  0
SPLINE
  5
F0
330
1F
100
AcDbEntity
  8
0
  6
Continuous
 62
     7
370
    25
100
AcDbSpline
210
0.0
220
0.0
230
1.0
 70
     8
 71
     3
 72
    14
 73
    10
 74
     0
 42
0.000000001
 43
0.00000001
 40
0.0
 40
0.0
 40
0.0
 40
0.0
 40
0.25
 40
0.25
 40
0.5
 40
0.5
 40
0.75
 40
0.75
 40
1.0
 40
1.0
 40
1.0
 40
1.0
 10
107.2950124376325
 20
226.7467349058916
 30
0.0
 10
107.0117042505956
 20
226.4634267188547
 30
0.0
 10
106.7013023634905
 20
226.2072506626318
 30
0.0
 10
106.0303401754396
 20
225.7450185332809
 30
0.0
 10
105.6698305453626
 20
225.5389310046569
 30
0.0
 10
104.9103919576089
 20
225.1651752750089
 30
0.0
 10
104.5115388747997
 20
224.9974311991172
 30
0.0
 10
103.6929822468045
 20
224.6827935097106
 30
0.0
 10
103.2733920690435
 20
224.5358057441435
 30
0.0
 10
102.8537197753831
 20
224.3888616637302
 30
0.0
  0
SPLINE
  5
F1
330
1F
100
AcDbEntity
  8
0
  6
Continuous
 62
     7
370
    25
100
AcDbSpline
210
0.0
220
0.0
230
1.0
 70
     8
 71
     3
 72
    14
 73
    10
 74
     0
 42
0.000000001
 43
0.00000001
 40
0.0
 40
0.0
 40
0.0
 40
0.0
 40
0.25
 40
0.25
 40
0.5
 40
0.5
 40
0.75
 40
0.75
 40
1.0
 40
1.0
 40
1.0
 40
1.0
 10
59.65288567979378
 20
224.3888616637302
 30
0.0
 10
58.93934942391942
 20
224.2419225665568
 30
0.0
 10
58.22598244819876
 20
224.095152749537
 30
0.0
 10
56.86440972258658
 20
223.8667743413266
 30
0.0
 10
56.21651676163356
 20
223.7854785390744
 30
0.0
 10
55.04147164574869
 20
223.7436277405913
 30
0.0
 10
54.514558889106
 20
223.7833121426495
 30
0.0
 10
53.61867206883521
 20
224.0206196397805
 30
0.0
 10
53.24982756662759
 20
224.2183722962738
 30
0.0
 10
52.96652898727715
 20
224.5016708756242
 30
0.0
  0
LINE
  5
F2
330
1F
100
AcDbEntity
  8
0
  6
Continuous
 62
     7
370
    25
100
AcDbLine
 10
102.8537197754
 20
224.3888616637
 30
0.0
 11
128.2537197754
 21
249.7888616637
 31
0.0
  0
SPLINE
  5
F3
330
1F
100
AcDbEntity
  8
0
  6
Continuous
 62
     7
370
    25
100
AcDbSpline
210
0.0
220
0.0
230
1.0
 70
     8
 71
     3
 72
    14
 73
    10
 74
     0
 42
0.000000001
 43
0.00000001
 40
0.0
 40
0.0
 40
0.0
 40
0.0
 40
0.25
 40
0.25
 40
0.5
 40
0.5
 40
0.75
 40
0.75
 40
1.0
 40
1.0
 40
1.0
 40
1.0
 10
128.2537197753833
 20
249.7888616637302
 30
0.0
 10
128.6733920690437
 20
249.9358057441435
 30
0.0
 10
129.0929822468048
 20
250.0827935097106
 30
0.0
 10
129.9115388748
 20
250.3974311991172
 30
0.0
 10
130.3103919576091
 20
250.5651752750089
 30
0.0
 10
131.0698305453629
 20
250.9389310046569
 30
0.0
 10
131.4303401754398
 20
251.1450185332808
 30
0.0
 10
132.1013023634908
 20
251.6072506626317
 30
0.0
 10
132.4117042505959
 20
251.8634267188547
 30
0.0
 10
132.6950124376327
 20
252.1467349058915
 30
0.0
  0
SPLINE
  5
F4
330
1F
100
AcDbEntity
  8
0
  6
Continuous
 62
     7
370
    25
100
AcDbSpline
210
0.0
220
0.0
230
1.0
 70
     8
 71
     3
 72
    14
 73
    10
 74
     0
 42
0.000000001
 43
0.00000001
 40
0.0
 40
0.0
 40
0.0
 40
0.0
 40
0.25
 40
0.25
 40
0.5
 40
0.5
 40
0.75
 40
0.75
 40
1.0
 40
1.0
 40
1.0
 40
1.0
 10
59.65288567979378
 20
224.3888616637302
 30
0.0
 10
59.23321338613337
 20
224.5358057441435
 30
0.0
 10
58.81362320837236
 20
224.6827935097106
 30
0.0
 10
57.99506658037718
 20
224.9974311991172
 30
0.0
 10
57.59621349756799
 20
225.1651752750089
 30
0.0
 10
56.83677490981426
 20
225.5389310046569
 30
0.0
 10
56.47626527973731
 20
225.7450185332808
 30
0.0
 10
55.8053030916864
 20
226.2072506626317
 30
0.0
 10
55.4949012045813
 20
226.4634267188547
 30
0.0
 10
55.21159301754445
 20
226.7467349058915
 30
0.0
  0
LINE
  5
F5
330
1F
100
AcDbEntity
  8
0
  6
Continuous
 62
     7
370
    25
100
AcDbLine
 10
59.6528856798
 20
224.3888616637
 30
0.0
 11
34.2528856798
 21
249.7888616637
 31
0.0
  0
SPLINE
  5
F6
330
1F
100
AcDbEntity
  8
0
  6
Continuous
 62
     7
370
    25
100
AcDbSpline
210
0.0
220
0.0
230
1.0
 70
     8
 71
     3
 72
    14
 73
    10
 74
     0
 42
0.000000001
 43
0.00000001
 40
0.0
 40
0.0
 40
0.0
 40
0.0
 40
0.25
 40
0.25
 40
0.5
 40
0.5
 40
0.75
 40
0.75
 40
1.0
 40
1.0
 40
1.0
 40
1.0
 10
29.81159301754455
 20
252.1467349058915
 30
0.0
 10
30.09490120458141
 20
251.8634267188546
 30
0.0
 10
30.4053030916865
 20
251.6072506626317
 30
0.0
 10
31.07626527973741
 20
251.1450185332808
 30
0.0
 10
31.43677490981436
 20
250.9389310046569
 30
0.0
 10
32.1962134975681
 20
250.5651752750089
 30
0.0
 10
32.59506658037726
 20
250.3974311991172
 30
0.0
 10
33.41362320837245
 20
250.0827935097106
 30
0.0
 10
33.83321338613349
 20
249.9358057441435
 30
0.0
 10
34.25288567979388
 20
249.7888616637302
 30
0.0
  0
LINE
  5
F7
330
1F
100
AcDbEntity
  8
0
  6
Continuous
 62
     7
370
    25
100
AcDbLine
 10
59.6528856798
 20
224.3888616637
 30
0.0
 11
102.8537197754
 21
224.3888616637
 31
0.0
  0
LINE
  5
F8
330
1F
100
AcDbEntity
  8
0
  6
Continuous
 62
     7
370
    25
100
AcDbLine
 10
128.2537197754
 20
249.7888616637
 30
0.0
 11
34.2528856798
 21
249.7888616637
 31
0.0
  0
DIMENSION
  5
F9
330
1F
100
AcDbEntity
  8
CAMADA_1
100
AcDbDimension
  2
_D
 10
34.2528856798
 20
249.7888616637
 30
0.0
 11
58.7491830539
 21
241.1943544407
 31
0.0
 70
   162
  1
<>
 71
     1
 42
-1.0
  3
SLDDIMSTYLE0
100
AcDb2LineAngularDimension
 13
59.6528856798
 23
224.3888616637
 33
0.0
 14
34.2528856798
 24
249.7888616637
 34
0.0
 15
128.2537197754
 25
249.7888616637
 35
0.0
 16
58.2370214733
 26
239.8543073363
 36
0.0
  0
DIMENSION
  5
102
330
1F
100
AcDbEntity
  8
CAMADA_1
100
AcDbDimension
  2
_D_1
 10
34.2528856798
 20
249.7888616637
 30
0.0
 11
102.7558254551
 21
239.0805369418
 31
0.0
 70
   162
  1
<>
 71
     1
 42
-1.0
  3
SLDDIMSTYLE0
100
AcDb2LineAngularDimension
 13
102.8537197754
 23
224.3888616637
 33
0.0
 14
128.2537197754
 24
249.7888616637
 34
0.0
 15
128.2537197754
 25
249.7888616637
 35
0.0
 16
102.7036340657
 26
239.205669643
 36
0.0
  0
LINE
  5
10A
330
1F
100
AcDbEntity
  8
0
  6
Continuous
 62
     7
370
    25
100
AcDbLine
 10
16.9663204634
 20
169.5870323862
 30
0.0
 11
19.2113844936
 21
169.5870323862
 31
0.0
  0
LINE
  5
10B
330
1F
100
AcDbEntity
  8
0
  6
Continuous
 62
     7
370
    25
100
AcDbLine
 10
27.5665289873
 20
184.5779910447
 30
0.0
 11
16.9663204634
 21
169.5870323862
 31
0.0
  0
LINE
  5
10C
330
1F
100
AcDbEntity
  8
0
  6
Continuous
 62
     7
370
    25
100
AcDbLine
 10
29.8115930175
 20
184.5779910447
 30
0.0
 11
27.5665289873
 21
184.5779910447
 31
0.0
  0
LINE
  5
10D
330
1F
100
AcDbEntity
  8
0
  6
Continuous
 62
     7
370
    25
100
AcDbLine
 10
29.8115930175
 20
184.5779910447
 30
0.0
 11
19.2113844936
 21
169.5870323862
 31
0.0
  0
LINE
  5
10E
330
1F
100
AcDbEntity
  8
0
  6
Continuous
 62
     7
370
    25
100
AcDbLine
 10
19.2113844936
 20
169.5870323862
 30
0.0
 11
31.9113844936
 21
151.6265201441
 31
0.0
  0
LINE
  5
10F
330
1F
100
AcDbEntity
  8
0
  6
Continuous
 62
     7
370
    25
100
AcDbLine
 10
55.2115930175
 20
184.5779910447
 30
0.0
 11
29.8115930175
 21
184.5779910447
 31
0.0
  0
LINE
  5
110
330
1F
100
AcDbEntity
  8
0
  6
Continuous
 62
     7
370
    25
100
AcDbLine
 10
31.9113844936
 20
151.6265201441
 30
0.0
 11
55.2115930175
 21
184.5779910447
 31
0.0
  0
LWPOLYLINE
  5
111
330
1F
100
AcDbEntity
  8
0
  6
Continuous
 62
     7
370
    25
100
AcDbPolyline
 90
       39
 70
   128
 43
0.0
 10
29.4365107595
 20
169.5870323862
 10
29.4702648115
 20
169.0109513202
 10
29.5706062449
 20
168.450584244
 10
29.7347980069
 20
167.9212165106
 10
29.9583613744
 20
167.4372878918
 10
30.2351981214
 20
167.0119986988
 10
30.5577568632
 20
166.6569497123
 10
30.917239038
 20
166.3818257429
 10
31.3038389094
 20
166.1941314554
 10
31.7070110406
 20
166.0989866607
 10
32.1157579467
 20
166.0989866607
 10
32.5189300779
 20
166.1941314554
 10
32.9055299493
 20
166.3818257429
 10
33.2650121241
 20
166.6569497123
 10
33.5875708659
 20
167.0119986988
 10
33.8644076129
 20
167.4372878918
 10
34.0879709804
 20
167.9212165106
 10
34.2521627424
 20
168.450584244
 10
34.3525041758
 20
169.0109513202
 10
34.3862582278
 20
169.5870323862
 10
34.3525041758
 20
170.1631134522
 10
34.2521627424
 20
170.7234805284
 10
34.0879709804
 20
171.2528482618
 10
33.8644076129
 20
171.7367768806
 10
33.5875708659
 20
172.1620660736
 10
33.2650121241
 20
172.5171150601
 10
32.9055299493
 20
172.7922390295
 10
32.5189300779
 20
172.979933317
 10
32.1157579467
 20
173.0750781117
 10
31.7070110406
 20
173.0750781117
 10
31.3038389094
 20
172.979933317
 10
30.917239038
 20
172.7922390295
 10
30.5577568632
 20
172.5171150601
 10
30.2351981214
 20
172.1620660736
 10
29.9583613744
 20
171.7367768806
 10
29.7347980069
 20
171.2528482618
 10
29.5706062449
 20
170.7234805284
 10
29.4702648115
 20
170.1631134522
 10
29.4365107595
 20
169.5870323862
  0
LINE
  5
112
330
1F
100
AcDbEntity
  8
0
  6
Continuous
 62
     7
370
    25
100
AcDbLine
 10
29.6663204634
 20
151.6265201441
 30
0.0
 11
31.9113844936
 21
151.6265201441
 31
0.0
  0
LINE
  5
113
330
1F
100
AcDbEntity
  8
0
  6
Continuous
 62
     7
370
    25
100
AcDbLine
 10
16.9663204634
 20
169.5870323862
 30
0.0
 11
29.6663204634
 21
151.6265201441
 31
0.0
  0
LINE
  5
114
330
1F
100
AcDbEntity
  8
0
  6
Continuous
 62
     7
370
    25
100
AcDbLine
 10
140.7952209615
 20
173.1225662921
 30
0.0
 11
132.6950124376
 21
184.5779910447
 31
0.0
  0
LINE
  5
115
330
1F
100
AcDbEntity
  8
0
  6
Continuous
 62
     7
370
    25
100
AcDbLine
 10
128.0952209615
 20
155.16205405
 30
0.0
 11
140.7952209615
 21
173.1225662921
 31
0.0
  0
LINE
  5
116
330
1F
100
AcDbEntity
  8
0
  6
Continuous
 62
     7
370
    25
100
AcDbLine
 10
107.2950124376
 20
184.5779910447
 30
0.0
 11
128.0952209615
 21
155.16205405
 31
0.0
  0
LINE
  5
117
330
1F
100
AcDbEntity
  8
0
  6
Continuous
 62
     7
370
    25
100
AcDbLine
 10
107.2950124376
 20
184.5779910447
 30
0.0
 11
132.6950124376
 21
184.5779910447
 31
0.0
  0
LWPOLYLINE
  5
118
330
1F
100
AcDbEntity
  8
0
  6
Continuous
 62
     7
370
    25
100
AcDbPolyline
 90
       33
 70
   128
 43
0.0
 10
126.3274540086
 20
173.1225662921
 10
126.3614211549
 20
172.6348404871
 10
126.4620172554
 20
172.1658577112
 10
126.6253764585
 20
171.7336407096
 10
126.8452209615
 20
171.3547993392
 10
127.1131022635
 20
171.0438922614
 10
127.4187258363
 20
170.8128674609
 10
127.7503467374
 20
170.6706030911
 10
128.0952209615
 20
170.6225662921
 10
128.4400951856
 20
170.6706030911
 10
128.7717160867
 20
170.8128674609
 10
129.0773396595
 20
171.0438922614
 10
129.3452209615
 20
171.3547993392
 10
129.5650654646
 20
171.7336407096
 10
129.7284246676
 20
172.1658577112
 10
129.8290207682
 20
172.6348404871
 10
129.8629879145
 20
173.1225662921
 10
129.8290207682
 20
173.6102920972
 10
129.7284246676
 20
174.079274873
 10
129.5650654646
 20
174.5114918747
 10
129.3452209615
 20
174.8903332451
 10
129.0773396595
 20
175.2012403229
 10
128.7717160867
 20
175.4322651234
 10
128.4400951856
 20
175.5745294931
 10
128.0952209615
 20
175.6225662921
 10
127.7503467374
 20
175.5745294931
 10
127.4187258363
 20
175.4322651234
 10
127.1131022635
 20
175.2012403229
 10
126.8452209615
 20
174.8903332451
 10
126.6253764585
 20
174.5114918747
 10
126.4620172554
 20
174.079274873
 10
126.3614211549
 20
173.6102920972
 10
126.3274540086
 20
173.1225662921
  0
LINE
  5
119
330
1F
100
AcDbEntity
  8
0
  6
Continuous
 62
     7
370
    25
100
AcDbLine
 10
143.0402849918
 20
173.1225662921
 30
0.0
 11
134.9400764679
 21
184.5779910447
 31
0.0
  0
LINE
  5
11A
330
1F
100
AcDbEntity
  8
0
  6
Continuous
 62
     7
370
    25
100
AcDbLine
 10
143.0402849918
 20
173.1225662921
 30
0.0
 11
140.7952209615
 21
173.1225662921
 31
0.0
  0
LINE
  5
11B
330
1F
100
AcDbEntity
  8
0
  6
Continuous
 62
     7
370
    25
100
AcDbLine
 10
132.6950124376
 20
184.5779910447
 30
0.0
 11
134.9400764679
 21
184.5779910447
 31
0.0
  0
LINE
  5
11C
330
1F
100
AcDbEntity
  8
0
  6
Continuous
 62
     7
370
    25
100
AcDbLine
 10
130.3402849918
 20
155.16205405
 30
0.0
 11
143.0402849918
 21
173.1225662921
 31
0.0
  0
LINE
  5
11D
330
1F
100
AcDbEntity
  8
0
  6
Continuous
 62
     7
370
    25
100
AcDbLine
 10
130.3402849918
 20
155.16205405
 30
0.0
 11
128.0952209615
 21
155.16205405
 31
0.0
  0
SPLINE
  5
11E
330
1F
100
AcDbEntity
  8
0
  6
Continuous
 62
     7
370
    25
100
AcDbSpline
210
0.0
220
0.0
230
1.0
 70
     8
 71
     3
 72
    14
 73
    10
 74
     0
 42
0.000000001
 43
0.00000001
 40
0.0
 40
0.0
 40
0.0
 40
0.0
 40
0.25
 40
0.25
 40
0.5
 40
0.5
 40
0.75
 40
0.75
 40
1.0
 40
1.0
 40
1.0
 40
1.0
 10
128.2537197753833
 20
189.2261910446829
 30
0.0
 10
128.9672560312577
 20
189.2261910446829
 30
0.0
 10
129.6806230069784
 20
189.1052108403725
 30
0.0
 10
131.0421957325906
 20
188.6395249350311
 30
0.0
 10
131.6900886935435
 20
188.2950024615181
 30
0.0
 10
132.8651338094285
 20
187.4345271084703
 30
0.0
 10
133.3920465660711
 20
186.9189127892429
 30
0.0
 10
134.2879333863419
 20
185.7946475607617
 30
0.0
 10
134.6567778885496
 20
185.1864390018669
 30
0.0
 10
134.9400764679
 20
184.5779910446829
 30
0.0
  0
SPLINE
  5
11F
330
1F
100
AcDbEntity
  8
0
  6
Continuous
 62
     7
370
    25
100
AcDbSpline
210
0.0
220
0.0
230
1.0
 70
     8
 71
     3
 72
    14
 73
    10
 74
     0
 42
0.000000001
 43
0.00000001
 40
0.0
 40
0.0
 40
0.0
 40
0.0
 40
0.25
 40
0.25
 40
0.5
 40
0.5
 40
0.75
 40
0.75
 40
1.0
 40
1.0
 40
1.0
 40
1.0
 10
128.2537197753833
 20
186.0511910446829
 30
0.0
 10
128.6733920690437
 20
186.0511910446829
 30
0.0
 10
129.0929822468048
 20
186.0128475919506
 30
0.0
 10
129.9115388748
 20
185.8652531520064
 30
0.0
 10
130.3103919576091
 20
185.7560602369039
 30
0.0
 10
131.0698305453629
 20
185.4833412725499
 30
0.0
 10
131.4303401754398
 20
185.3199225265653
 30
0.0
 10
132.1013023634908
 20
184.963598027921
 30
0.0
 10
132.4117042505959
 20
184.7708390136908
 30
0.0
 10
132.6950124376327
 20
184.5779910446829
 30
0.0
  0
LINE
  5
120
330
1F
100
AcDbEntity
  8
0
  6
Continuous
 62
     7
370
    25
100
AcDbLine
 10
128.2537197754
 20
186.0511910447
 30
0.0
 11
128.2537197754
 21
189.2261910447
 31
0.0
  0
SPLINE
  5
121
330
1F
100
AcDbEntity
  8
0
  6
Continuous
 62
     7
370
    25
100
AcDbSpline
210
0.0
220
0.0
230
1.0
 70
     8
 71
     3
 72
    14
 73
    10
 74
     0
 42
0.000000001
 43
0.00000001
 40
0.0
 40
0.0
 40
0.0
 40
0.0
 40
0.25
 40
0.25
 40
0.5
 40
0.5
 40
0.75
 40
0.75
 40
1.0
 40
1.0
 40
1.0
 40
1.0
 10
107.2950124376325
 20
184.5779910446829
 30
0.0
 10
107.0117042505956
 20
184.7708390136908
 30
0.0
 10
106.7013023634905
 20
184.963598027921
 30
0.0
 10
106.0303401754396
 20
185.3199225265653
 30
0.0
 10
105.6698305453626
 20
185.4833412725499
 30
0.0
 10
104.9103919576089
 20
185.7560602369039
 30
0.0
 10
104.5115388747997
 20
185.8652531520064
 30
0.0
 10
103.6929822468045
 20
186.0128475919506
 30
0.0
 10
103.2733920690435
 20
186.0511910446829
 30
0.0
 10
102.8537197753831
 20
186.0511910446829
 30
0.0
  0
SPLINE
  5
122
330
1F
100
AcDbEntity
  8
0
  6
Continuous
 62
     7
370
    25
100
AcDbSpline
210
0.0
220
0.0
230
1.0
 70
     8
 71
     3
 72
    14
 73
    10
 74
     0
 42
0.000000001
 43
0.00000001
 40
0.0
 40
0.0
 40
0.0
 40
0.0
 40
0.25
 40
0.25
 40
0.5
 40
0.5
 40
0.75
 40
0.75
 40
1.0
 40
1.0
 40
1.0
 40
1.0
 10
59.65288567979378
 20
186.0511910446829
 30
0.0
 10
59.23321338613337
 20
186.0511910446829
 30
0.0
 10
58.81362320837236
 20
186.0128475919506
 30
0.0
 10
57.99506658037718
 20
185.8652531520064
 30
0.0
 10
57.59621349756799
 20
185.7560602369039
 30
0.0
 10
56.83677490981426
 20
185.4833412725499
 30
0.0
 10
56.47626527973731
 20
185.3199225265653
 30
0.0
 10
55.8053030916864
 20
184.963598027921
 30
0.0
 10
55.4949012045813
 20
184.7708390136908
 30
0.0
 10
55.21159301754445
 20
184.5779910446829
 30
0.0
  0
SPLINE
  5
123
330
1F
100
AcDbEntity
  8
0
  6
Continuous
 62
     7
370
    25
100
AcDbSpline
210
0.0
220
0.0
230
1.0
 70
     8
 71
     3
 72
    14
 73
    10
 74
     0
 42
0.000000001
 43
0.00000001
 40
0.0
 40
0.0
 40
0.0
 40
0.0
 40
0.25
 40
0.25
 40
0.5
 40
0.5
 40
0.75
 40
0.75
 40
1.0
 40
1.0
 40
1.0
 40
1.0
 10
29.81159301754455
 20
184.5779910446829
 30
0.0
 10
30.09490120458141
 20
184.7708390136908
 30
0.0
 10
30.4053030916865
 20
184.963598027921
 30
0.0
 10
31.07626527973741
 20
185.3199225265653
 30
0.0
 10
31.43677490981436
 20
185.4833412725499
 30
0.0
 10
32.1962134975681
 20
185.7560602369039
 30
0.0
 10
32.59506658037726
 20
185.8652531520064
 30
0.0
 10
33.41362320837245
 20
186.0128475919506
 30
0.0
 10
33.83321338613349
 20
186.0511910446829
 30
0.0
 10
34.25288567979388
 20
186.0511910446829
 30
0.0
  0
SPLINE
  5
124
330
1F
100
AcDbEntity
  8
0
  6
Continuous
 62
     7
370
    25
100
AcDbSpline
210
0.0
220
0.0
230
1.0
 70
     8
 71
     3
 72
    14
 73
    10
 74
     0
 42
0.000000001
 43
0.00000001
 40
0.0
 40
0.0
 40
0.0
 40
0.0
 40
0.25
 40
0.25
 40
0.5
 40
0.5
 40
0.75
 40
0.75
 40
1.0
 40
1.0
 40
1.0
 40
1.0
 10
27.56652898727724
 20
184.5779910446829
 30
0.0
 10
27.8498275666277
 20
185.1864390018669
 30
0.0
 10
28.21867206883531
 20
185.7946475607617
 30
0.0
 10
29.11455888910611
 20
186.9189127892429
 30
0.0
 10
29.64147164574878
 20
187.4345271084703
 30
0.0
 10
30.81651676163366
 20
188.2950024615181
 30
0.0
 10
31.46440972258667
 20
188.6395249350311
 30
0.0
 10
32.82598244819884
 20
189.1052108403725
 30
0.0
 10
33.53934942391952
 20
189.2261910446829
 30
0.0
 10
34.25288567979388
 20
189.2261910446829
 30
0.0
  0
LINE
  5
125
330
1F
100
AcDbEntity
  8
0
  6
Continuous
 62
     7
370
    25
100
AcDbLine
 10
34.2528856798
 20
186.0511910447
 30
0.0
 11
34.2528856798
 21
189.2261910447
 31
0.0
  0
ARC
  5
126
330
1F
100
AcDbEntity
  8
0
  6
Continuous
 62
     7
370
    25
100
AcDbCircle
 10
28.0415677937
 20
169.5870323862
 30
0.0
 40
4.156611226637501
100
AcDbArc
 50
311.3718602623
 51
48.6281397377
  0
LINE
  5
127
330
1F
100
AcDbEntity
  8
0
  6
Continuous
 62
     7
370
    25
100
AcDbLine
 10
128.2537197754
 20
189.2261910447
 30
0.0
 11
34.2528856798
 21
189.2261910447
 31
0.0
  0
LINE
  5
128
330
1F
100
AcDbEntity
  8
0
  6
Continuous
 62
     7
370
    25
100
AcDbLine
 10
128.2537197754
 20
186.0511910447
 30
0.0
 11
34.2528856798
 21
186.0511910447
 31
0.0
  0
ARC
  5
129
330
1F
100
AcDbEntity
  8
0
  6
Continuous
 62
     7
370
    25
100
AcDbCircle
 10
131.6861269925
 20
173.1225662921
 30
0.0
 40
3.134120934523668
100
AcDbArc
 50
141.9600208673
 51
218.0399791327
  0
DIMENSION
  5
12A
330
1F
100
AcDbEntity
  8
CAMADA_1
100
AcDbDimension
  2
_D_2
 10
128.0952209615
 20
173.1225662921
 30
0.0
 11
150.3839008115
 21
159.51842591
 31
0.0
 70
   164
  1
M3
 71
     1
 42
-1.0
  3
SLDDIMSTYLE1
100
AcDbRadialDimension
 15
129.5045869611
 25
171.712996263
 35
0.0
 40
0.0
  0
DIMENSION
  5
133
330
1F
100
AcDbEntity
  8
CAMADA_1
100
AcDbDimension
  2
_D_3
 10
31.9113844936
 20
169.5870323862
 30
0.0
 11
59.3704350121
 21
133.6237865343
 31
0.0
 70
   164
  1
TRUE <>
 71
     1
 42
-1.0
  3
SLDDIMSTYLE2
100
AcDbRadialDimension
 15
32.8662733785
 25
166.573318232
 35
0.0
 40
0.0
  0
SPLINE
  5
13D
330
1F
100
AcDbEntity
  8
0
  6
Continuous
 62
     7
370
    25
100
AcDbSpline
210
0.0
220
0.0
230
1.0
 70
     8
 71
     3
 72
    11
 73
     7
 74
     0
 42
0.000000001
 43
0.00000001
 40
0.0
 40
0.0
 40
0.0
 40
0.0
 40
0.2234430026014683
 40
0.4629265178655961
 40
0.7211891175267684
 40
1.0
 40
1.0
 40
1.0
 40
1.0
 10
173.5233198264515
 20
251.2275624367591
 30
0.0
 10
173.3193701503692
 20
250.9971353858112
 30
0.0
 10
172.8968296712789
 20
250.5197394008154
 30
0.0
 10
172.1822688789155
 20
250.0783261536255
 30
0.0
 10
171.5203662757775
 20
249.8214186267297
 30
0.0
 10
171.27095088976
 20
249.7999873035614
 30
0.0
 10
171.1414719149247
 20
249.7888616637302
 30
0.0
  0
LINE
  5
13E
330
1F
100
AcDbEntity
  8
0
  6
Continuous
 62
     7
370
    25
100
AcDbLine
 10
174.2020997509
 20
249.9016708756
 30
0.0
 11
189.1930584094
 21
260.5018793995
 31
0.0
  0
LINE
  5
13F
330
1F
100
AcDbEntity
  8
0
  6
Continuous
 62
     7
370
    25
100
AcDbLine
 10
189.1930584094
 20
260.5018793995
 30
0.0
 11
207.1535706515
 21
247.8018793995
 31
0.0
  0
LINE
  5
140
330
1F
100
AcDbEntity
  8
0
  6
Continuous
 62
     7
370
    25
100
AcDbLine
 10
207.1535706515
 20
247.8018793995
 30
0.0
 11
174.2020997509
 21
224.5016708756
 31
0.0
  0
LINE
  5
141
330
1F
100
AcDbEntity
  8
0
  6
Continuous
 62
     7
370
    25
100
AcDbLine
 10
174.2020997509
 20
224.5016708756
 30
0.0
 11
174.2020997509
 21
249.9016708756
 31
0.0
  0
LWPOLYLINE
  5
142
330
1F
100
AcDbEntity
  8
0
  6
Continuous
 62
     7
370
    25
100
AcDbPolyline
 90
       39
 70
   128
 43
0.0
 10
189.1930584094
 20
250.2767531337
 10
189.7691394753
 20
250.2429990817
 10
190.3295065516
 20
250.1426576483
 10
190.858874285
 20
249.9784658863
 10
191.3428029038
 20
249.7549025188
 10
191.7680920967
 20
249.4780657718
 10
192.1231410833
 20
249.15550703
 10
192.3982650527
 20
248.7960248551
 10
192.5859593402
 20
248.4094249838
 10
192.6811041349
 20
248.0062528526
 10
192.6811041349
 20
247.5975059464
 10
192.5859593402
 20
247.1943338153
 10
192.3982650527
 20
246.8077339439
 10
192.1231410833
 20
246.448251769
 10
191.7680920967
 20
246.1256930273
 10
191.3428029038
 20
245.8488562803
 10
190.858874285
 20
245.6252929128
 10
190.3295065516
 20
245.4611011507
 10
189.7691394753
 20
245.3607597173
 10
189.1930584094
 20
245.3270056654
 10
188.6169773434
 20
245.3607597173
 10
188.0566102672
 20
245.4611011507
 10
187.5272425337
 20
245.6252929128
 10
187.043313915
 20
245.8488562803
 10
186.618024722
 20
246.1256930273
 10
186.2629757354
 20
246.448251769
 10
185.9878517661
 20
246.8077339439
 10
185.8001574786
 20
247.1943338153
 10
185.7050126838
 20
247.5975059464
 10
185.7050126838
 20
248.0062528526
 10
185.8001574786
 20
248.4094249838
 10
185.9878517661
 20
248.7960248551
 10
186.2629757354
 20
249.15550703
 10
186.618024722
 20
249.4780657718
 10
187.043313915
 20
249.7549025188
 10
187.5272425337
 20
249.9784658863
 10
188.0566102672
 20
250.1426576483
 10
188.6169773434
 20
250.2429990817
 10
189.1930584094
 20
250.2767531337
  0
LINE
  5
143
330
1F
100
AcDbEntity
  8
0
  6
Continuous
 62
     7
370
    25
100
AcDbLine
 10
189.1930584094
 20
260.5018793995
 30
0.0
 11
189.1930584094
 21
262.7469434298
 31
0.0
  0
LINE
  5
144
330
1F
100
AcDbEntity
  8
0
  6
Continuous
 62
     7
370
    25
100
AcDbLine
 10
174.2020997509
 20
252.1467349059
 30
0.0
 11
174.2020997509
 21
249.9016708756
 31
0.0
  0
LINE
  5
145
330
1F
100
AcDbEntity
  8
0
  6
Continuous
 62
     7
370
    25
100
AcDbLine
 10
174.2020997509
 20
252.1467349059
 30
0.0
 11
189.1930584094
 21
262.7469434298
 31
0.0
  0
LINE
  5
146
330
1F
100
AcDbEntity
  8
0
  6
Continuous
 62
     7
370
    25
100
AcDbLine
 10
207.1535706515
 20
247.8018793995
 30
0.0
 11
207.1535706515
 21
250.0469434298
 31
0.0
  0
LINE
  5
147
330
1F
100
AcDbEntity
  8
0
  6
Continuous
 62
     7
370
    25
100
AcDbLine
 10
189.1930584094
 20
262.7469434298
 30
0.0
 11
207.1535706515
 21
250.0469434298
 31
0.0
  0
ARC
  5
148
330
1F
100
AcDbEntity
  8
0
  6
Continuous
 62
     7
370
    25
100
AcDbCircle
 10
189.1930584094
 20
251.6716960995
 30
0.0
 40
4.156611226637535
100
AcDbArc
 50
221.3718602623
 51
318.6281397377
  0
SPLINE
  5
149
330
1F
100
AcDbEntity
  8
0
  6
Continuous
 62
     7
370
    25
100
AcDbSpline
210
0.0
220
0.0
230
1.0
 70
     8
 71
     3
 72
    14
 73
    10
 74
     0
 42
0.000000001
 43
0.00000001
 40
0.0
 40
0.0
 40
0.0
 40
0.0
 40
0.25
 40
0.25
 40
0.5
 40
0.5
 40
0.75
 40
0.75
 40
1.0
 40
1.0
 40
1.0
 40
1.0
 10
174.2020997508885
 20
249.9016708756242
 30
0.0
 10
173.5936517937045
 20
249.6183722962738
 30
0.0
 10
172.9854432348097
 20
249.4206196397805
 30
0.0
 10
171.8611780063284
 20
249.1833121426495
 30
0.0
 10
171.3455636871011
 20
249.1436277405913
 30
0.0
 10
170.4850883340532
 20
249.1854785390744
 30
0.0
 10
170.1405658605402
 20
249.2667743413266
 30
0.0
 10
169.6748799551988
 20
249.495152749537
 30
0.0
 10
169.5538997508885
 20
249.6419225665567
 30
0.0
 10
169.5538997508885
 20
249.7888616637302
 30
0.0
  0
LINE
  5
14A
330
1F
100
AcDbEntity
  8
0
  6
Continuous
 62
     7
370
    25
100
AcDbLine
 10
171.1414719149
 20
249.7888616637
 30
0.0
 11
169.5538997509
 21
249.7888616637
 31
0.0
  0
SPLINE
  5
14B
330
1F
100
AcDbEntity
  8
0
  6
Continuous
 62
     7
370
    25
100
AcDbSpline
210
0.0
220
0.0
230
1.0
 70
     8
 71
     3
 72
     9
 73
     5
 74
     0
 42
0.000000001
 43
0.00000001
 40
0.0
 40
0.0
 40
0.0
 40
0.0
 40
0.7843317640209528
 40
1.0
 40
1.0
 40
1.0
 40
1.0
 10
174.2020997508885
 20
252.1467349058915
 30
0.0
 10
174.0029569702229
 20
251.8707149052572
 30
0.0
 10
173.7490557643803
 20
251.5187974982415
 30
0.0
 10
173.5498691315116
 20
251.2602837097793
 30
0.0
 10
173.5069109017702
 20
251.2045304970453
 30
0.0
  0
SPLINE
  5
14C
330
1F
100
AcDbEntity
  8
0
  6
Continuous
 62
     7
370
    25
100
AcDbSpline
210
0.0
220
0.0
230
1.0
 70
     8
 71
     3
 72
    14
 73
    10
 74
     0
 42
0.000000001
 43
0.00000001
 40
0.0
 40
0.0
 40
0.0
 40
0.0
 40
0.25
 40
0.25
 40
0.5
 40
0.5
 40
0.75
 40
0.75
 40
1.0
 40
1.0
 40
1.0
 40
1.0
 10
169.5538997508885
 20
224.3888616637302
 30
0.0
 10
169.5538997508885
 20
224.2419225665568
 30
0.0
 10
169.6748799551988
 20
224.095152749537
 30
0.0
 10
170.1405658605402
 20
223.8667743413266
 30
0.0
 10
170.4850883340532
 20
223.7854785390744
 30
0.0
 10
171.3455636871011
 20
223.7436277405913
 30
0.0
 10
171.8611780063284
 20
223.7833121426495
 30
0.0
 10
172.9854432348097
 20
224.0206196397805
 30
0.0
 10
173.5936517937045
 20
224.2183722962738
 30
0.0
 10
174.2020997508885
 20
224.5016708756242
 30
0.0
  0
LINE
  5
14D
330
1F
100
AcDbEntity
  8
0
  6
Continuous
 62
     7
370
    25
100
AcDbLine
 10
169.5538997509
 20
224.3888616637
 30
0.0
 11
169.5538997509
 21
249.7888616637
 31
0.0
  0
ARC
  5
14E
330
1F
100
AcDbEntity
  8
0
  6
Continuous
 62
     7
370
    25
100
AcDbCircle
 10
186.1022122473
 20
247.1415781803
 30
0.0
 40
2.118489013634387
100
AcDbArc
 50
14.8504249554
 51
83.2778715296
  0
LINE
  5
14F
330
1F
100
AcDbEntity
  8
0
  6
CENTERX2
 62
     7
100
AcDbLine
 10
257.4425946001
 20
167.2226661929
 30
0.0
 11
282.8425946001
 21
141.8226661929
 31
0.0
  0
LINE
  5
150
330
1F
100
AcDbEntity
  8
0
  6
CENTERX2
 62
     7
100
AcDbLine
 10
332.8425946001
 20
141.8226661929
 30
0.0
 11
358.2425946001
 21
167.2226661929
 31
0.0
  0
CIRCLE
  5
151
330
1F
100
AcDbEntity
  8
0
  6
Continuous
 62
     7
370
    25
100
AcDbCircle
 10
365.1425946001
 20
154.5226661929
 30
0.0
 40
2.49999999999996
  0
CIRCLE
  5
152
330
1F
100
AcDbEntity
  8
0
  6
Continuous
 62
     7
370
    25
100
AcDbCircle
 10
245.5425946001
 20
154.5226661929
 30
0.0
 40
3.500000000000008
  0
LINE
  5
153
330
1F
100
AcDbEntity
  8
0
  6
Continuous
 62
     7
370
    25
100
AcDbLine
 10
232.8425946001
 20
167.2226661929
 30
0.0
 11
232.8425946001
 21
141.8226661929
 31
0.0
  0
LINE
  5
154
330
1F
100
AcDbEntity
  8
0
  6
Continuous
 62
     7
370
    25
100
AcDbLine
 10
377.8425946001
 20
167.2226661929
 30
0.0
 11
232.8425946001
 21
167.2226661929
 31
0.0
  0
LINE
  5
155
330
1F
100
AcDbEntity
  8
0
  6
Continuous
 62
     7
370
    25
100
AcDbLine
 10
377.8425946001
 20
141.8226661929
 30
0.0
 11
377.8425946001
 21
167.2226661929
 31
0.0
  0
LINE
  5
156
330
1F
100
AcDbEntity
  8
0
  6
Continuous
 62
     7
370
    25
100
AcDbLine
 10
232.8425946001
 20
141.8226661929
 30
0.0
 11
377.8425946001
 21
141.8226661929
 31
0.0
  0
POINT
  5
157
330
1F
100
AcDbEntity
  8
CAMADA_1
100
AcDbPoint
 10
332.8425946001
 20
141.8226661929
 30
0.0
  0
POINT
  5
158
330
1F
100
AcDbEntity
  8
CAMADA_1
100
AcDbPoint
 10
358.2425946001
 20
167.2226661929
 30
0.0
  0
POINT
  5
159
330
1F
100
AcDbEntity
  8
CAMADA_1
100
AcDbPoint
 10
257.4425946001
 20
167.2226661929
 30
0.0
  0
POINT
  5
15A
330
1F
100
AcDbEntity
  8
CAMADA_1
100
AcDbPoint
 10
282.8425946001
 20
141.8226661929
 30
0.0
  0
DIMENSION
  5
15B
330
1F
100
AcDbEntity
  8
CAMADA_1
100
AcDbDimension
  2
_D_4
 10
282.8425946001
 20
128.307499574
 30
0.0
 11
258.7294267074
 21
128.307499574
 31
0.0
 70
   160
  1
<>
 71
     2
 42
-1.0
  3
SLDDIMSTYLE3
100
AcDbAlignedDimension
 13
232.8425946001
 23
141.8226661929
 33
0.0
 14
282.8425946001
 24
141.8226661929
 34
0.0
100
AcDbRotatedDimension
  0
DIMENSION
  5
166
330
1F
100
AcDbEntity
  8
CAMADA_1
100
AcDbDimension
  2
_D_5
 10
377.8425946001
 20
125.8226661929
 30
0.0
 11
357.7475869966
 21
125.8226661929
 31
0.0
 70
   160
  1
<>
 71
     2
 42
-1.0
  3
SLDDIMSTYLE3
100
AcDbAlignedDimension
 13
332.8425946001
 23
141.8226661929
 33
0.0
 14
377.8425946001
 24
141.8226661929
 34
0.0
100
AcDbRotatedDimension
  0
DIMENSION
  5
170
330
1F
100
AcDbEntity
  8
CAMADA_1
100
AcDbDimension
  2
_D_6
 10
232.8425946001
 20
177.2226661929
 30
0.0
 11
245.1425946001
 21
177.2226661929
 31
0.0
 70
   160
  1
<>
 71
     2
 42
-1.0
  3
SLDDIMSTYLE4
100
AcDbAlignedDimension
 13
257.4425946001
 23
167.2226661929
 33
0.0
 14
232.8425946001
 24
167.2226661929
 34
0.0
 50
0.0
100
AcDbRotatedDimension
  0
DIMENSION
  5
17D
330
1F
100
AcDbEntity
  8
CAMADA_1
100
AcDbDimension
  2
_D_7
 10
377.8425946001
 20
177.2226661929
 30
0.0
 11
368.0425946001
 21
177.2226661929
 31
0.0
 70
   160
  1
<>
 71
     2
 42
-1.0
  3
SLDDIMSTYLE4
100
AcDbAlignedDimension
 13
358.2425946001
 23
167.2226661929
 33
0.0
 14
377.8425946001
 24
167.2226661929
 34
0.0
100
AcDbRotatedDimension
  0
DIMENSION
  5
189
330
1F
100
AcDbEntity
  8
CAMADA_1
100
AcDbDimension
  2
_D_8
 10
232.8425946001
 20
183.2226661929
 30
0.0
 11
305.3425946001
 21
183.2226661929
 31
0.0
 70
   160
  1
<>
 71
     2
 42
-1.0
  3
SLDDIMSTYLE3
100
AcDbAlignedDimension
 13
377.8425946001
 23
167.2226661929
 33
0.0
 14
232.8425946001
 24
167.2226661929
 34
0.0
100
AcDbRotatedDimension
  0
DIMENSION
  5
193
330
1F
100
AcDbEntity
  8
CAMADA_1
100
AcDbDimension
  2
_D_9
 10
222.8425946001
 20
141.8226661929
 30
0.0
 11
222.8425946001
 21
154.5226661929
 31
0.0
 70
   160
  1
<>
 71
     2
 42
-1.0
  3
SLDDIMSTYLE4
100
AcDbAlignedDimension
 13
232.8425946001
 23
167.2226661929
 33
0.0
 14
232.8425946001
 24
141.8226661929
 34
0.0
 50
90.0
100
AcDbRotatedDimension
  0
DIMENSION
  5
19D
330
1F
100
AcDbEntity
  8
CAMADA_1
100
AcDbDimension
  2
_D_10
 10
362.9278172219
 20
153.363027816
 30
0.0
 11
399.5009797132
 21
172.512425746
 31
0.0
 70
   163
  1
M3
 71
     1
 42
-1.0
  3
SLDDIMSTYLE5
100
AcDbDiametricDimension
 15
367.3573719783
 25
155.6823045698
 35
0.0
 40
0.0
  0
MTEXT
  5
1AA
330
1F
100
AcDbEntity
  8
0
  6
Continuous
 62
     7
370
     0
100
AcDbMText
 10
272.4509582222
 20
158.5307857261
 30
0.0
 40
3.5
 41
0.0
 71
     2
 72
     1
  1
PARA CIMA  90°  R 0.74
  7
SLDTEXTSTYLE2
 11
0.7071067811865419
 21
-0.7071067811865531
 31
0.0
 73
     1
 44
1.0
  0
MTEXT
  5
1AB
330
1F
100
AcDbEntity
  8
0
  6
Continuous
 62
     7
370
     0
100
AcDbMText
 10
341.5344750668
 20
156.831029815
 30
0.0
 40
3.5
 41
0.0
 71
     2
 72
     1
  1
PARA CIMA  90°  R 0.74
  7
SLDTEXTSTYLE2
 11
0.7071067811865469
 21
0.7071067811865481
 31
0.0
 73
     1
 44
1.0
  0
INSERT
  5
1B7
330
1F
100
AcDbEntity
  8
CAMADA_1
100
AcDbBlockReference
  2
SW_CENTERMARKSYMBOL_0
 10
245.5425946001
 20
154.5226661929
 30
0.0
  0
INSERT
  5
1C3
330
1F
100
AcDbEntity
  8
CAMADA_1
100
AcDbBlockReference
  2
SW_CENTERMARKSYMBOL_1
 10
365.1425946001
 20
154.5226661929
 30
0.0
  0
ENDSEC
  0
SECTION
  2
OBJECTS
  0
DICTIONARY
  5
C
330
0
100
AcDbDictionary
281
     1
  3
ACAD_GROUP
350
D
  3
ACAD_LAYOUT
350
1A
  3
ACAD_MLINESTYLE
350
17
  3
ACAD_PLOTSETTINGS
350
19
  3
ACAD_PLOTSTYLENAME
350
E
  3
ACAD_SCALELIST
350
47
  0
DICTIONARY
  5
D
102
{ACAD_REACTORS
330
C
102
}
330
C
100
AcDbDictionary
281
     1
  0
DICTIONARY
  5
1A
102
{ACAD_REACTORS
330
C
102
}
330
C
100
AcDbDictionary
281
     1
  3
Layout1
350
1E
  3
Layout2
350
26
  3
Model
350
22
  0
DICTIONARY
  5
17
102
{ACAD_REACTORS
330
C
102
}
330
C
100
AcDbDictionary
281
     1
  3
Standard
350
18
  0
DICTIONARY
  5
19
102
{ACAD_REACTORS
330
C
102
}
330
C
100
AcDbDictionary
281
     1
  0
ACDBDICTIONARYWDFLT
  5
E
102
{ACAD_REACTORS
330
C
102
}
330
C
100
AcDbDictionary
281
     1
  3
Normal
350
F
100
AcDbDictionaryWithDefault
340
F
  0
DICTIONARY
  5
47
102
{ACAD_REACTORS
330
C
102
}
330
C
100
AcDbDictionary
281
     1
  3
A0
350
48
  3
A1
350
49
  3
A2
350
4A
  3
A3
350
4B
  3
A4
350
4C
  3
A5
350
4D
  3
A6
350
4E
  3
A7
350
4F
  3
A8
350
50
  3
A9
350
51
  3
B0
350
52
  3
B1
350
53
  3
B2
350
54
  3
B3
350
55
  3
B4
350
56
  3
B5
350
57
  3
B6
350
58
  3
B7
350
59
  3
B8
350
5A
  3
B9
350
5B
  3
C0
350
5C
  3
C1
350
5D
  3
C2
350
5E
  3
C3
350
5F
  3
C4
350
60
  3
C5
350
61
  3
C6
350
62
  3
C7
350
63
  3
C8
350
64
  3
C9
350
65
  3
D0
350
66
  3
D1
350
67
  3
D2
350
68
  0
LAYOUT
  5
1E
102
{ACAD_REACTORS
330
1A
102
}
330
1A
100
AcDbPlotSettings
  1

  2
none_device
  4

  6

 40
0.0
 41
0.0
 42
0.0
 43
0.0
 44
0.0
 45
0.0
 46
0.0
 47
0.0
 48
0.0
 49
0.0
140
0.0
141
0.0
142
1.0
143
1.0
 70
   688
 72
     1
 73
     0
 74
     5
  7

 75
    16
147
1.0
148
0.0
149
0.0
100
AcDbLayout
  1
Layout1
 70
     1
 71
     1
 10
0.0
 20
0.0
 11
420.0
 21
297.0
 12
0.0
 22
0.0
 32
0.0
 14
1.0000000000E+20
 24
1.0000000000E+20
 34
1.0000000000E+20
 15
-1.0000000000E+20
 25
-1.0000000000E+20
 35
-1.0000000000E+20
146
0.0
 13
0.0
 23
0.0
 33
0.0
 16
1.0
 26
0.0
 36
0.0
 17
0.0
 27
1.0
 37
0.0
 76
     0
330
1B
  0
LAYOUT
  5
26
102
{ACAD_REACTORS
330
1A
102
}
330
1A
100
AcDbPlotSettings
  1

  2
none_device
  4

  6

 40
0.0
 41
0.0
 42
0.0
 43
0.0
 44
0.0
 45
0.0
 46
0.0
 47
0.0
 48
0.0
 49
0.0
140
0.0
141
0.0
142
1.0
143
1.0
 70
   688
 72
     1
 73
     0
 74
     5
  7

 75
    16
147
1.0
148
0.0
149
0.0
100
AcDbLayout
  1
Layout2
 70
     1
 71
     2
 10
0.0
 20
0.0
 11
0.0
 21
0.0
 12
0.0
 22
0.0
 32
0.0
 14
0.0
 24
0.0
 34
0.0
 15
0.0
 25
0.0
 35
0.0
146
0.0
 13
0.0
 23
0.0
 33
0.0
 16
1.0
 26
0.0
 36
0.0
 17
0.0
 27
1.0
 37
0.0
 76
     0
330
23
  0
LAYOUT
  5
22
102
{ACAD_REACTORS
330
1A
102
}
330
1A
100
AcDbPlotSettings
  1

  2
none_device
  4
Letter_(8.50_x_11.00_Inches)
  6

 40
6.35
 41
6.35
 42
6.35000508
 43
6.35000508
 44
215.9
 45
279.4
 46
0.0
 47
0.0
 48
0.0
 49
0.0
140
0.0
141
0.0
142
1.0
143
1.0
 70
  1712
 72
     1
 73
     0
 74
     0
  7

 75
     0
147
1.0
148
0.0
149
0.0
100
AcDbLayout
  1
Model
 70
     1
 71
     0
 10
0.0
 20
0.0
 11
420.0
 21
297.0
 12
0.0
 22
0.0
 32
0.0
 14
0.0
 24
0.0
 34
0.0
 15
420.0
 25
297.0
 35
0.0
146
0.0
 13
0.0
 23
0.0
 33
0.0
 16
1.0
 26
0.0
 36
0.0
 17
0.0
 27
1.0
 37
0.0
 76
     0
330
1F
331
29
  0
MLINESTYLE
  5
18
102
{ACAD_REACTORS
330
17
102
}
330
17
100
AcDbMlineStyle
  2
Standard
 70
     0
  3

 62
   256
 51
90.0
 52
90.0
 71
     2
 49
0.5
 62
   256
  6
BYLAYER
 49
-0.5
 62
   256
  6
BYLAYER
  0
ACDBPLACEHOLDER
  5
F
102
{ACAD_REACTORS
330
E
102
}
330
E
  0
SCALE
  5
48
102
{ACAD_REACTORS
330
47
102
}
330
47
100
AcDbScale
 70
     0
300
1:1
140
1.0
141
1.0
290
     1
  0
SCALE
  5
49
102
{ACAD_REACTORS
330
47
102
}
330
47
100
AcDbScale
 70
     0
300
1:2
140
1.0
141
2.0
290
     0
  0
SCALE
  5
4A
102
{ACAD_REACTORS
330
47
102
}
330
47
100
AcDbScale
 70
     0
300
1:4
140
1.0
141
4.0
290
     0
  0
SCALE
  5
4B
102
{ACAD_REACTORS
330
47
102
}
330
47
100
AcDbScale
 70
     0
300
1:5
140
1.0
141
5.0
290
     0
  0
SCALE
  5
4C
102
{ACAD_REACTORS
330
47
102
}
330
47
100
AcDbScale
 70
     0
300
1:8
140
1.0
141
8.0
290
     0
  0
SCALE
  5
4D
102
{ACAD_REACTORS
330
47
102
}
330
47
100
AcDbScale
 70
     0
300
1:10
140
1.0
141
10.0
290
     0
  0
SCALE
  5
4E
102
{ACAD_REACTORS
330
47
102
}
330
47
100
AcDbScale
 70
     0
300
1:16
140
1.0
141
16.0
290
     0
  0
SCALE
  5
4F
102
{ACAD_REACTORS
330
47
102
}
330
47
100
AcDbScale
 70
     0
300
1:20
140
1.0
141
20.0
290
     0
  0
SCALE
  5
50
102
{ACAD_REACTORS
330
47
102
}
330
47
100
AcDbScale
 70
     0
300
1:30
140
1.0
141
30.0
290
     0
  0
SCALE
  5
51
102
{ACAD_REACTORS
330
47
102
}
330
47
100
AcDbScale
 70
     0
300
1:40
140
1.0
141
40.0
290
     0
  0
SCALE
  5
52
102
{ACAD_REACTORS
330
47
102
}
330
47
100
AcDbScale
 70
     0
300
1:50
140
1.0
141
50.0
290
     0
  0
SCALE
  5
53
102
{ACAD_REACTORS
330
47
102
}
330
47
100
AcDbScale
 70
     0
300
1:100
140
1.0
141
100.0
290
     0
  0
SCALE
  5
54
102
{ACAD_REACTORS
330
47
102
}
330
47
100
AcDbScale
 70
     0
300
2:1
140
2.0
141
1.0
290
     0
  0
SCALE
  5
55
102
{ACAD_REACTORS
330
47
102
}
330
47
100
AcDbScale
 70
     0
300
4:1
140
4.0
141
1.0
290
     0
  0
SCALE
  5
56
102
{ACAD_REACTORS
330
47
102
}
330
47
100
AcDbScale
 70
     0
300
8:1
140
8.0
141
1.0
290
     0
  0
SCALE
  5
57
102
{ACAD_REACTORS
330
47
102
}
330
47
100
AcDbScale
 70
     0
300
10:1
140
10.0
141
1.0
290
     0
  0
SCALE
  5
58
102
{ACAD_REACTORS
330
47
102
}
330
47
100
AcDbScale
 70
     0
300
100:1
140
100.0
141
1.0
290
     0
  0
SCALE
  5
59
102
{ACAD_REACTORS
330
47
102
}
330
47
100
AcDbScale
 70
     0
300
1/128" = 1'-0"
140
0.0078125
141
12.0
290
     0
  0
SCALE
  5
5A
102
{ACAD_REACTORS
330
47
102
}
330
47
100
AcDbScale
 70
     0
300
1/64" = 1'-0"
140
0.015625
141
12.0
290
     0
  0
SCALE
  5
5B
102
{ACAD_REACTORS
330
47
102
}
330
47
100
AcDbScale
 70
     0
300
1/32" = 1'-0"
140
0.03125
141
12.0
290
     0
  0
SCALE
  5
5C
102
{ACAD_REACTORS
330
47
102
}
330
47
100
AcDbScale
 70
     0
300
1/16" = 1'-0"
140
0.0625
141
12.0
290
     0
  0
SCALE
  5
5D
102
{ACAD_REACTORS
330
47
102
}
330
47
100
AcDbScale
 70
     0
300
3/32" = 1'-0"
140
0.09375
141
12.0
290
     0
  0
SCALE
  5
5E
102
{ACAD_REACTORS
330
47
102
}
330
47
100
AcDbScale
 70
     0
300
1/8" = 1'-0"
140
0.125
141
12.0
290
     0
  0
SCALE
  5
5F
102
{ACAD_REACTORS
330
47
102
}
330
47
100
AcDbScale
 70
     0
300
3/16" = 1'-0"
140
0.1875
141
12.0
290
     0
  0
SCALE
  5
60
102
{ACAD_REACTORS
330
47
102
}
330
47
100
AcDbScale
 70
     0
300
1/4" = 1'-0"
140
0.25
141
12.0
290
     0
  0
SCALE
  5
61
102
{ACAD_REACTORS
330
47
102
}
330
47
100
AcDbScale
 70
     0
300
3/8" = 1'-0"
140
0.375
141
12.0
290
     0
  0
SCALE
  5
62
102
{ACAD_REACTORS
330
47
102
}
330
47
100
AcDbScale
 70
     0
300
1/2" = 1'-0"
140
0.5
141
12.0
290
     0
  0
SCALE
  5
63
102
{ACAD_REACTORS
330
47
102
}
330
47
100
AcDbScale
 70
     0
300
3/4" = 1'-0"
140
0.75
141
12.0
290
     0
  0
SCALE
  5
64
102
{ACAD_REACTORS
330
47
102
}
330
47
100
AcDbScale
 70
     0
300
1" = 1'-0"
140
1.0
141
12.0
290
     0
  0
SCALE
  5
65
102
{ACAD_REACTORS
330
47
102
}
330
47
100
AcDbScale
 70
     0
300
1-1/2" = 1'-0"
140
1.5
141
12.0
290
     0
  0
SCALE
  5
66
102
{ACAD_REACTORS
330
47
102
}
330
47
100
AcDbScale
 70
     0
300
3" = 1'-0"
140
3.0
141
12.0
290
     0
  0
SCALE
  5
67
102
{ACAD_REACTORS
330
47
102
}
330
47
100
AcDbScale
 70
     0
300
6" = 1'-0"
140
6.0
141
12.0
290
     0
  0
SCALE
  5
68
102
{ACAD_REACTORS
330
47
102
}
330
47
100
AcDbScale
 70
     0
300
1'-0" = 1'-0"
140
12.0
141
12.0
290
     0
  0
ENDSEC
  0
EOF
