  0
SECTION
  2
HEADER
  9
$ACADVER
  1
AC1015
  9
$ACADMAINTVER
 70
     6
  9
$DWGCODEPAGE
  3
ANSI_1252
  9
$INSBASE
 10
0.0
 20
0.0
 30
0.0
  9
$EXTMIN
 10
0.0
 20
0.0
 30
0.0
  9
$EXTMAX
 10
420.0
 20
297.0
 30
0.0
  9
$LIMMIN
 10
0.0
 20
0.0
  9
$LIMMAX
 10
420.0
 20
297.0
  9
$ORTHOMODE
 70
     0
  9
$REGENMODE
 70
     1
  9
$FILLMODE
 70
     1
  9
$QTEXTMODE
 70
     0
  9
$MIRRTEXT
 70
     1
  9
$LTSCALE
 40
1.0
  9
$ATTMODE
 70
     1
  9
$TEXTSIZE
 40
3.5
  9
$TRACEWID
 40
1.0
  9
$TEXTSTYLE
  7
Standard
  9
$CLAYER
  8
0
  9
$CELTYPE
  6
ByLayer
  9
$CECOLOR
 62
   256
  9
$CELTSCALE
 40
1.0
  9
$DISPSILH
 70
     0
  9
$DIMSCALE
 40
1.0
  9
$DIMASZ
 40
3.302
  9
$DIMEXO
 40
1.0
  9
$DIMDLI
 40
3.75
  9
$DIMRND
 40
0.0
  9
$DIMDLE
 40
0.0
  9
$DIMEXE
 40
1.0
  9
$DIMTP
 40
0.0
  9
$DIMTM
 40
0.0
  9
$DIMTXT
 40
3.5
  9
$DIMCEN
 40
2.5
  9
$DIMTSZ
 40
0.0
  9
$DIMTOL
 70
     0
  9
$DIMLIM
 70
     0
  9
$DIMTIH
 70
     1
  9
$DIMTOH
 70
     1
  9
$DIMSE1
 70
     0
  9
$DIMSE2
 70
     0
  9
$DIMTAD
 70
     1
  9
$DIMZIN
 70
     1
  9
$DIMBLK
  1

  9
$DIMASO
 70
     1
  9
$DIMSHO
 70
     1
  9
$DIMPOST
  1

  9
$DIMAPOST
  1

  9
$DIMALT
 70
     0
  9
$DIMALTD
 70
     3
  9
$DIMALTF
 40
0.0393700787
  9
$DIMLFAC
 40
0.5
  9
$DIMTOFL
 70
     1
  9
$DIMTVP
 40
0.0
  9
$DIMTIX
 70
     0
  9
$DIMSOXD
 70
     0
  9
$DIMSAH
 70
     0
  9
$DIMBLK1
  1

  9
$DIMBLK2
  1

  9
$DIMSTYLE
  2
ISO-25
  9
$DIMCLRD
 70
     0
  9
$DIMCLRE
 70
     0
  9
$DIMCLRT
 70
     0
  9
$DIMTFAC
 40
1.0
  9
$DIMGAP
 40
1.524
  9
$DIMJUST
 70
     0
  9
$DIMSD1
 70
     0
  9
$DIMSD2
 70
     0
  9
$DIMTOLJ
 70
     0
  9
$DIMTZIN
 70
     1
  9
$DIMALTZ
 70
     0
  9
$DIMALTTZ
 70
     0
  9
$DIMUPT
 70
     0
  9
$DIMDEC
 70
     1
  9
$DIMTDEC
 70
     1
  9
$DIMALTU
 70
     2
  9
$DIMALTTD
 70
     3
  9
$DIMTXSTY
  7
Standard
  9
$DIMAUNIT
 70
     0
  9
$DIMADEC
 70
     2
  9
$DIMALTRND
 40
0.0
  9
$DIMAZIN
 70
     0
  9
$DIMDSEP
 70
    44
  9
$DIMATFIT
 70
     3
  9
$DIMFRAC
 70
     0
  9
$DIMLDRBLK
  1

  9
$DIMLUNIT
 70
     2
  9
$DIMLWD
 70
    -2
  9
$DIMLWE
 70
    -2
  9
$DIMTMOVE
 70
     0
  9
$LUNITS
 70
     2
  9
$LUPREC
 70
     1
  9
$SKETCHINC
 40
1.0
  9
$FILLETRAD
 40
10.0
  9
$AUNITS
 70
     0
  9
$AUPREC
 70
     2
  9
$MENU
  1
.
  9
$ELEVATION
 40
0.0
  9
$PELEVATION
 40
0.0
  9
$THICKNESS
 40
0.0
  9
$LIMCHECK
 70
     0
  9
$CHAMFERA
 40
0.0
  9
$CHAMFERB
 40
0.0
  9
$CHAMFERC
 40
0.0
  9
$CHAMFERD
 40
0.0
  9
$SKPOLY
 70
     0
  9
$TDCREATE
 40
2460713.825952373
  9
$TDUCREATE
 40
2460713.950952373
  9
$TDUPDATE
 40
2460713.82595691
  9
$TDUUPDATE
 40
2460713.95095691
  9
$TDINDWG
 40
0.0000000116
  9
$TDUSRTIMER
 40
0.0000000116
  9
$USRTIMER
 70
     1
  9
$ANGBASE
 50
0.0
  9
$ANGDIR
 70
     0
  9
$PDMODE
 70
     0
  9
$PDSIZE
 40
-1.0
  9
$PLINEWID
 40
0.0
  9
$SPLFRAME
 70
     0
  9
$SPLINETYPE
 70
     6
  9
$SPLINESEGS
 70
     8
  9
$HANDSEED
  5
210
  9
$SURFTAB1
 70
     6
  9
$SURFTAB2
 70
     6
  9
$SURFTYPE
 70
     6
  9
$SURFU
 70
     6
  9
$SURFV
 70
     6
  9
$UCSBASE
  2

  9
$UCSNAME
  2

  9
$UCSORG
 10
0.0
 20
0.0
 30
0.0
  9
$UCSXDIR
 10
1.0
 20
0.0
 30
0.0
  9
$UCSYDIR
 10
0.0
 20
1.0
 30
0.0
  9
$UCSORTHOREF
  2

  9
$UCSORTHOVIEW
 70
     0
  9
$UCSORGTOP
 10
0.0
 20
0.0
 30
0.0
  9
$UCSORGBOTTOM
 10
0.0
 20
0.0
 30
0.0
  9
$UCSORGLEFT
 10
0.0
 20
0.0
 30
0.0
  9
$UCSORGRIGHT
 10
0.0
 20
0.0
 30
0.0
  9
$UCSORGFRONT
 10
0.0
 20
0.0
 30
0.0
  9
$UCSORGBACK
 10
0.0
 20
0.0
 30
0.0
  9
$PUCSBASE
  2

  9
$PUCSNAME
  2

  9
$PUCSORG
 10
0.0
 20
0.0
 30
0.0
  9
$PUCSXDIR
 10
1.0
 20
0.0
 30
0.0
  9
$PUCSYDIR
 10
0.0
 20
1.0
 30
0.0
  9
$PUCSORTHOREF
  2

  9
$PUCSORTHOVIEW
 70
     0
  9
$PUCSORGTOP
 10
0.0
 20
0.0
 30
0.0
  9
$PUCSORGBOTTOM
 10
0.0
 20
0.0
 30
0.0
  9
$PUCSORGLEFT
 10
0.0
 20
0.0
 30
0.0
  9
$PUCSORGRIGHT
 10
0.0
 20
0.0
 30
0.0
  9
$PUCSORGFRONT
 10
0.0
 20
0.0
 30
0.0
  9
$PUCSORGBACK
 10
0.0
 20
0.0
 30
0.0
  9
$USERI1
 70
     0
  9
$USERI2
 70
     0
  9
$USERI3
 70
     0
  9
$USERI4
 70
     0
  9
$USERI5
 70
     0
  9
$USERR1
 40
0.0
  9
$USERR2
 40
0.0
  9
$USERR3
 40
0.0
  9
$USERR4
 40
0.0
  9
$USERR5
 40
0.0
  9
$WORLDVIEW
 70
     1
  9
$SHADEDGE
 70
     3
  9
$SHADEDIF
 70
    70
  9
$TILEMODE
 70
     1
  9
$MAXACTVP
 70
    64
  9
$PINSBASE
 10
0.0
 20
0.0
 30
0.0
  9
$PLIMCHECK
 70
     0
  9
$PEXTMIN
 10
1.0000000000E+20
 20
1.0000000000E+20
 30
1.0000000000E+20
  9
$PEXTMAX
 10
-1.0000000000E+20
 20
-1.0000000000E+20
 30
-1.0000000000E+20
  9
$PLIMMIN
 10
0.0
 20
0.0
  9
$PLIMMAX
 10
420.0
 20
297.0
  9
$UNITMODE
 70
     0
  9
$VISRETAIN
 70
     1
  9
$PLINEGEN
 70
     0
  9
$PSLTSCALE
 70
     1
  9
$TREEDEPTH
 70
  3020
  9
$CMLSTYLE
  2
Standard
  9
$CMLJUST
 70
     0
  9
$CMLSCALE
 40
20.0
  9
$PROXYGRAPHICS
 70
     1
  9
$MEASUREMENT
 70
     1
  9
$CELWEIGHT
370
    -1
  9
$ENDCAPS
280
     0
  9
$JOINSTYLE
280
     0
  9
$LWDISPLAY
290
     1
  9
$INSUNITS
 70
     4
  9
$HYPERLINKBASE
  1

  9
$STYLESHEET
  1

  9
$XEDIT
290
     1
  9
$CEPSNTYPE
380
     0
  9
$PSTYLEMODE
290
     1
  9
$FINGERPRINTGUID
  2
{FF346F0B-4FC1-40BE-B986-3B4E5418D7ED}
  9
$VERSIONGUID
  2
{FAEB1C32-E019-11D5-929B-00C0DF256EC4}
  9
$EXTNAMES
290
     1
  9
$PSVPSCALE
 40
0.0
  9
$OLESTARTUP
290
     0
  0
ENDSEC
  0
SECTION
  2
CLASSES
  0
CLASS
  1
ACDBDICTIONARYWDFLT
  2
AcDbDictionaryWithDefault
  3
ObjectDBX Classes
 90
        0
280
     0
281
     0
  0
CLASS
  1
VISUALSTYLE
  2
AcDbVisualStyle
  3
ObjectDBX Classes
 90
     4095
280
     0
281
     0
  0
CLASS
  1
MATERIAL
  2
AcDbMaterial
  3
ObjectDBX Classes
 90
     1153
280
     0
281
     0
  0
CLASS
  1
SCALE
  2
AcDbScale
  3
ObjectDBX Classes
 90
     1153
280
     0
281
     0
  0
CLASS
  1
TABLESTYLE
  2
AcDbTableStyle
  3
ObjectDBX Classes
 90
     4095
280
     0
281
     0
  0
CLASS
  1
MLEADERSTYLE
  2
AcDbMLeaderStyle
  3
ACDB_MLEADERSTYLE_CLASS
 90
     4095
280
     0
281
     0
  0
CLASS
  1
SUN
  2
AcDbSun
  3
SCENEOE
 90
     1153
280
     0
281
     0
  0
CLASS
  1
ACDBPLACEHOLDER
  2
AcDbPlaceHolder
  3
ObjectDBX Classes
 90
        0
280
     0
281
     0
  0
CLASS
  1
LAYOUT
  2
AcDbLayout
  3
ObjectDBX Classes
 90
        0
280
     0
281
     0
  0
ENDSEC
  0
SECTION
  2
TABLES
  0
TABLE
  2
VPORT
  5
8
330
0
100
AcDbSymbolTable
 70
     1
  0
VPORT
  5
29
330
8
100
AcDbSymbolTableRecord
100
AcDbViewportTableRecord
  2
*Active
 70
     0
 10
0.0
 20
0.0
 11
1.0
 21
1.0
 12
210.0
 22
148.5
 13
0.0
 23
0.0
 14
10.0
 24
10.0
 15
10.0
 25
10.0
 16
0.0
 26
0.0
 36
1.0
 17
0.0
 27
0.0
 37
0.0
 40
297.0
 41
1.4141414141
 42
50.0
 43
0.0
 44
0.0
 50
0.0
 51
0.0
 71
     0
 72
  2000
 73
     1
 74
     3
 75
     0
 76
     0
 77
     0
 78
     0
281
     0
 65
     1
110
0.0
120
0.0
130
0.0
111
1.0
121
0.0
131
0.0
112
0.0
122
1.0
132
0.0
 79
     0
146
0.0
  0
ENDTAB
  0
TABLE
  2
LTYPE
  5
5
330
0
100
AcDbSymbolTable
 70
     6
  0
LTYPE
  5
14
330
5
100
AcDbSymbolTableRecord
100
AcDbLinetypeTableRecord
  2
ByBlock
 70
     0
  3

 72
    65
 73
     0
 40
0.0
  0
LTYPE
  5
15
330
5
100
AcDbSymbolTableRecord
100
AcDbLinetypeTableRecord
  2
ByLayer
 70
     0
  3

 72
    65
 73
     0
 40
0.0
  0
LTYPE
  5
16
330
5
100
AcDbSymbolTableRecord
100
AcDbLinetypeTableRecord
  2
Continuous
 70
     0
  3
Solid line
 72
    65
 73
     0
 40
0.0
  0
LTYPE
  5
6E
330
5
100
AcDbSymbolTableRecord
100
AcDbLinetypeTableRecord
  2
HIDDEN
 70
     0
  3
Hidden __ __ __ __ __ __ __ __ __ __ __ __ __ __
 72
    65
 73
     2
 40
1.905
 49
1.27
 74
     0
 49
-0.635
 74
     0
  0
LTYPE
  5
6F
330
5
100
AcDbSymbolTableRecord
100
AcDbLinetypeTableRecord
  2
PHANTOM
 70
     0
  3
Phantom ______  __  __  ______  __  __  ______
 72
    65
 73
     6
 40
12.7
 49
6.35
 74
     0
 49
-1.27
 74
     0
 49
1.27
 74
     0
 49
-1.27
 74
     0
 49
1.27
 74
     0
 49
-1.27
 74
     0
  0
LTYPE
  5
70
330
5
100
AcDbSymbolTableRecord
100
AcDbLinetypeTableRecord
  2
CENTER
 70
     0
  3
Center ____ _ ____ _ ____ _ ____ _ ____ _ ____
 72
    65
 73
     4
 40
10.16
 49
6.35
 74
     0
 49
-1.27
 74
     0
 49
1.27
 74
     0
 49
-1.27
 74
     0
  0
LTYPE
  5
71
330
5
100
AcDbSymbolTableRecord
100
AcDbLinetypeTableRecord
  2
CENTERX2
 70
     0
  3
Center (2x) ________  __  ________  __  _____
 72
    65
 73
     4
 40
20.32
 49
12.7
 74
     0
 49
-2.54
 74
     0
 49
2.54
 74
     0
 49
-2.54
 74
     0
  0
LTYPE
  5
72
330
5
100
AcDbSymbolTableRecord
100
AcDbLinetypeTableRecord
  2
DOT2
 70
     0
  3
Dot (.5x) ........................................
 72
    65
 73
     2
 40
0.635
 49
0.0
 74
     0
 49
-0.635
 74
     0
  0
ENDTAB
  0
TABLE
  2
LAYER
  5
2
330
0
100
AcDbSymbolTable
 70
     4
  0
LAYER
  5
10
330
2
100
AcDbSymbolTableRecord
100
AcDbLayerTableRecord
  2
0
 70
     0
 62
     7
  6
Continuous
370
    -3
390
F
  0
LAYER
  5
73
330
2
100
AcDbSymbolTableRecord
100
AcDbLayerTableRecord
  2
FORMAT
 70
     0
 62
     7
  6
Continuous
370
    -3
390
F
  0
LAYER
  5
74
330
2
100
AcDbSymbolTableRecord
100
AcDbLayerTableRecord
  2
SLD-0
 70
     0
 62
   179
  6
Continuous
370
    -3
390
F
  0
LAYER
  5
75
330
2
100
AcDbSymbolTableRecord
100
AcDbLayerTableRecord
  2
CAMADA_1
 70
     0
 62
   179
  6
Continuous
370
    -3
390
F
  0
ENDTAB
  0
TABLE
  2
STYLE
  5
3
330
0
100
AcDbSymbolTable
 70
     4
  0
STYLE
  5
11
330
3
100
AcDbSymbolTableRecord
100
AcDbTextStyleTableRecord
  2
Standard
 70
     0
 40
0.0
 41
1.0
 50
0.0
 71
     0
 42
3.5
  3
txt
  4

  0
STYLE
  5
AA
330
3
100
AcDbSymbolTableRecord
100
AcDbTextStyleTableRecord
  2
SLDTEXTSTYLE0
 70
     0
 40
0.0
 41
0.75
 50
0.0
 71
     0
 42
3.5
  3
TXT
  4

  0
STYLE
  5
C8
330
3
100
AcDbSymbolTableRecord
100
AcDbTextStyleTableRecord
  2
SLDTEXTSTYLE1
 70
     0
 40
0.0
 41
0.6730769231
 50
0.0
 71
     0
 42
3.5
  3
TXT
  4

  0
STYLE
  5
1C6
330
3
100
AcDbSymbolTableRecord
100
AcDbTextStyleTableRecord
  2
SLDTEXTSTYLE2
 70
     0
 40
0.0
 41
0.6847826087
 50
0.0
 71
     0
 42
3.5
  3
TXT
  4

  0
ENDTAB
  0
TABLE
  2
VIEW
  5
6
330
0
100
AcDbSymbolTable
 70
     0
  0
ENDTAB
  0
TABLE
  2
UCS
  5
7
330
0
100
AcDbSymbolTable
 70
     0
  0
ENDTAB
  0
TABLE
  2
APPID
  5
9
330
0
100
AcDbSymbolTable
 70
     1
  0
APPID
  5
12
330
9
100
AcDbSymbolTableRecord
100
AcDbRegAppTableRecord
  2
ACAD
 70
     0
  0
ENDTAB
  0
TABLE
  2
DIMSTYLE
  5
A
330
0
100
AcDbSymbolTable
 70
     5
100
AcDbDimStyleTable
  0
DIMSTYLE
105
27
330
A
100
AcDbSymbolTableRecord
100
AcDbDimStyleTableRecord
  2
ISO-25
 70
     0
 41
2.5
 42
0.625
 43
3.75
 44
1.25
 73
     0
 74
     0
 77
     1
 78
     8
140
2.5
141
2.5
143
0.0393700787
147
0.625
171
     3
172
     1
178
     0
271
     2
272
     2
274
     3
278
    44
283
     0
284
     8
340
11
  0
DIMSTYLE
105
107
102
{ACAD_REACTORS
330
106
330
12F
330
16E
330
178
330
19C
102
}
330
A
100
AcDbSymbolTableRecord
100
AcDbDimStyleTableRecord
  2
SLDDIMSTYLE0
 70
     0
 41
3.302
 44
0.0
 45
0.000000001
 73
     0
 74
     0
 77
     1
 78
    12
 79
     3
140
3.5
144
0.5
147
0.875
173
     1
178
     0
271
     1
272
     1
276
     2
284
    12
340
AA
  0
DIMSTYLE
105
162
102
{ACAD_REACTORS
330
161
330
1A6
102
}
330
A
100
AcDbSymbolTableRecord
100
AcDbDimStyleTableRecord
  2
SLDDIMSTYLE1
 70
     0
 41
3.302
 44
0.0
 45
0.000000001
 73
     0
 74
     0
 77
     1
 78
    12
 79
     3
140
3.5
144
0.5
147
0.875
172
     1
173
     1
178
     0
271
     1
272
     1
276
     2
284
    12
289
     0
340
AA
  0
DIMSTYLE
105
183
102
{ACAD_REACTORS
330
182
102
}
330
A
100
AcDbSymbolTableRecord
100
AcDbDimStyleTableRecord
  2
SLDDIMSTYLE2
 70
     0
 41
3.302
 44
0.0
 73
     0
 74
     0
 77
     1
 78
    12
 79
     3
140
3.5
144
0.5
147
0.875
173
     1
178
     0
179
     2
272
     2
276
     2
284
    12
340
AA
  0
DIMSTYLE
105
1B3
102
{ACAD_REACTORS
330
1B2
330
1BE
102
}
330
A
100
AcDbSymbolTableRecord
100
AcDbDimStyleTableRecord
  2
SLDDIMSTYLE3
 70
     0
  3
<>
 41
3.302
 44
0.0
 45
0.000000001
 73
     0
 74
     0
 77
     1
 78
    12
 79
     3
140
3.5
141
0.0
144
0.5
147
0.875
172
     1
173
     1
178
     0
271
     1
272
     1
276
     2
284
    12
340
AA
341
1B4
343
1B4
  0
ENDTAB
  0
TABLE
  2
BLOCK_RECORD
  5
1
330
0
100
AcDbSymbolTable
 70
    17
  0
BLOCK_RECORD
  5
1F
330
1
100
AcDbSymbolTableRecord
100
AcDbBlockTableRecord
  2
*Model_Space
340
22
  0
BLOCK_RECORD
  5
1B
330
1
100
AcDbSymbolTableRecord
100
AcDbBlockTableRecord
  2
*Paper_Space
340
1E
  0
BLOCK_RECORD
  5
23
330
1
100
AcDbSymbolTableRecord
100
AcDbBlockTableRecord
  2
*Paper_Space0
340
26
  0
BLOCK_RECORD
  5
D8
330
1
100
AcDbSymbolTableRecord
100
AcDbBlockTableRecord
  2
SW_NOTE_0
340
0
102
{BLKREFS
331
DE
102
}
  0
BLOCK_RECORD
  5
108
330
1
100
AcDbSymbolTableRecord
100
AcDbBlockTableRecord
  2
_D
340
0
  0
BLOCK_RECORD
  5
130
330
1
100
AcDbSymbolTableRecord
100
AcDbBlockTableRecord
  2
_D_1
340
0
  0
BLOCK_RECORD
  5
139
330
1
100
AcDbSymbolTableRecord
100
AcDbBlockTableRecord
  2
SW_CENTERMARKSYMBOL_0
340
0
102
{BLKREFS
331
144
102
}
  0
BLOCK_RECORD
  5
145
330
1
100
AcDbSymbolTableRecord
100
AcDbBlockTableRecord
  2
SW_CENTERMARKSYMBOL_1
340
0
102
{BLKREFS
331
150
102
}
  0
BLOCK_RECORD
  5
163
330
1
100
AcDbSymbolTableRecord
100
AcDbBlockTableRecord
  2
_D_2
340
0
  0
BLOCK_RECORD
  5
16F
330
1
100
AcDbSymbolTableRecord
100
AcDbBlockTableRecord
  2
_D_3
340
0
  0
BLOCK_RECORD
  5
179
330
1
100
AcDbSymbolTableRecord
100
AcDbBlockTableRecord
  2
_D_4
340
0
  0
BLOCK_RECORD
  5
184
330
1
100
AcDbSymbolTableRecord
100
AcDbBlockTableRecord
  2
_D_5
340
0
  0
BLOCK_RECORD
  5
19D
330
1
100
AcDbSymbolTableRecord
100
AcDbBlockTableRecord
  2
_D_6
340
0
  0
BLOCK_RECORD
  5
1A7
330
1
100
AcDbSymbolTableRecord
100
AcDbBlockTableRecord
  2
_D_7
340
0
  0
BLOCK_RECORD
  5
1B4
330
1
100
AcDbSymbolTableRecord
100
AcDbBlockTableRecord
  2
_NONE
340
0
  0
BLOCK_RECORD
  5
1B7
330
1
100
AcDbSymbolTableRecord
100
AcDbBlockTableRecord
  2
_D_8
340
0
  0
BLOCK_RECORD
  5
1BF
330
1
100
AcDbSymbolTableRecord
100
AcDbBlockTableRecord
  2
_D_9
340
0
  0
BLOCK_RECORD
  5
1C9
330
1
100
AcDbSymbolTableRecord
100
AcDbBlockTableRecord
  2
SW_CENTERMARKSYMBOL_2
340
0
102
{BLKREFS
331
1D4
102
}
  0
BLOCK_RECORD
  5
1D5
330
1
100
AcDbSymbolTableRecord
100
AcDbBlockTableRecord
  2
SW_CENTERMARKSYMBOL_3
340
0
102
{BLKREFS
331
1E0
102
}
  0
ENDTAB
  0
ENDSEC
  0
SECTION
  2
BLOCKS
  0
BLOCK
  5
20
330
1F
100
AcDbEntity
  8
0
100
AcDbBlockBegin
  2
*Model_Space
 70
     0
 10
0.0
 20
0.0
 30
0.0
  3
*Model_Space
  1

  0
ENDBLK
  5
21
330
1F
100
AcDbEntity
  8
0
100
AcDbBlockEnd
  0
BLOCK
  5
1C
330
1B
100
AcDbEntity
 67
     1
  8
0
100
AcDbBlockBegin
  2
*Paper_Space
 70
     0
 10
0.0
 20
0.0
 30
0.0
  3
*Paper_Space
  1

  0
ENDBLK
  5
1D
330
1B
100
AcDbEntity
 67
     1
  8
0
100
AcDbBlockEnd
  0
BLOCK
  5
24
330
23
100
AcDbEntity
  8
0
100
AcDbBlockBegin
  2
*Paper_Space0
 70
     0
 10
0.0
 20
0.0
 30
0.0
  3
*Paper_Space0
  1

  0
ENDBLK
  5
25
330
23
100
AcDbEntity
  8
0
100
AcDbBlockEnd
  0
BLOCK
  5
D9
330
D8
100
AcDbEntity
  8
0
100
AcDbBlockBegin
  2
SW_NOTE_0
 70
     0
 10
0.0
 20
0.0
 30
0.0
  3
SW_NOTE_0
  1

  0
MTEXT
  5
DB
330
D8
100
AcDbEntity
  8
0
  6
Continuous
 62
     0
370
     0
100
AcDbMText
 10
0.0
 20
1.9336016097
 30
0.0
 40
1.5
 41
0.0
 71
     1
 72
     1
  1
A MENOS QUE ESPECIFICADAS,
  7
SLDTEXTSTYLE0
 73
     1
 44
1.0
  0
MTEXT
  5
DC
330
D8
100
AcDbEntity
  8
0
  6
Continuous
 62
     0
370
     0
100
AcDbMText
 10
0.0
 20
-0.5663983345
 30
0.0
 40
1.5
 41
0.0
 71
     1
 72
     1
  1
AS DIMENSÕES ESTÃO EM
  7
SLDTEXTSTYLE0
 73
     1
 44
1.0
  0
MTEXT
  5
DD
330
D8
100
AcDbEntity
  8
0
  6
Continuous
 62
     0
370
     0
100
AcDbMText
 10
0.0
 20
-3.0663982786
 30
0.0
 40
1.5
 41
0.0
 71
     1
 72
     1
  1
MILÍMETROS.
  7
SLDTEXTSTYLE0
 73
     1
 44
1.0
  0
ENDBLK
  5
DA
330
D8
100
AcDbEntity
  8
0
100
AcDbBlockEnd
  0
BLOCK
  5
109
330
108
100
AcDbEntity
  8
0
100
AcDbBlockBegin
  2
_D
 70
     0
 10
0.0
 20
0.0
 30
0.0
  3
_D
  1

  0
SOLID
  5
10B
330
108
100
AcDbEntity
  8
CAMADA_1
100
AcDbTrace
 10
65.2568457086
 20
182.7153272352
 30
0.0
 11
65.7648457086
 21
186.0125697985
 31
0.0
 12
64.7488457086
 22
186.0125697985
 32
0.0
 13
64.7488457086
 23
186.0125697985
 33
0.0
  0
SOLID
  5
10C
330
108
100
AcDbEntity
  8
CAMADA_1
100
AcDbTrace
 10
65.2568457086
 20
278.3843769936
 30
0.0
 11
64.7488457086
 21
275.0871344302
 31
0.0
 12
65.7648457086
 22
275.0871344302
 32
0.0
 13
65.7648457086
 23
275.0871344302
 33
0.0
  0
LINE
  5
10D
330
108
100
AcDbEntity
  8
CAMADA_1
100
AcDbLine
 10
80.2568457086
 20
182.7153272352
 30
0.0
 11
64.2568457086
 21
182.7153272352
 31
0.0
  0
LINE
  5
10E
330
108
100
AcDbEntity
  8
CAMADA_1
100
AcDbLine
 10
80.2568457086
 20
278.3843769936
 30
0.0
 11
64.2568457086
 21
278.3843769936
 31
0.0
  0
LINE
  5
10F
330
108
100
AcDbEntity
  8
CAMADA_1
100
AcDbLine
 10
65.2568457086
 20
182.7153272352
 30
0.0
 11
65.2568457086
 21
278.3843769936
 31
0.0
  0
MTEXT
  5
110
330
108
100
AcDbEntity
  8
CAMADA_1
100
AcDbMText
 10
60.7451083865
 20
227.2080056977
 30
0.0
 40
3.5
 41
0.0
 71
     1
 72
     1
  1
47,9
  7
SLDTEXTSTYLE0
 11
-1.037486409151910E-14
 21
1.0
 31
0.0
 73
     1
 44
1.0
  0
ENDBLK
  5
10A
330
108
100
AcDbEntity
  8
0
100
AcDbBlockEnd
  0
BLOCK
  5
131
330
130
100
AcDbEntity
  8
0
100
AcDbBlockBegin
  2
_D_1
 70
     0
 10
0.0
 20
0.0
 30
0.0
  3
_D_1
  1

  0
SOLID
  5
133
330
130
100
AcDbEntity
  8
CAMADA_1
100
AcDbTrace
 10
65.2568457086
 20
119.4817288703
 30
0.0
 11
65.7648457086
 21
121.2545580163
 31
0.0
 12
64.7488457086
 22
121.2545580163
 32
0.0
 13
64.7488457086
 23
121.2545580163
 33
0.0
  0
SOLID
  5
134
330
130
100
AcDbEntity
  8
CAMADA_1
100
AcDbTrace
 10
65.2568457086
 20
149.3589363658
 30
0.0
 11
64.7488457086
 21
147.5861072198
 31
0.0
 12
65.7648457086
 22
147.5861072198
 32
0.0
 13
65.7648457086
 23
147.5861072198
 33
0.0
  0
LINE
  5
135
330
130
100
AcDbEntity
  8
CAMADA_1
100
AcDbLine
 10
80.2568457086
 20
119.4817288703
 30
0.0
 11
64.2568457086
 21
119.4817288703
 31
0.0
  0
LINE
  5
136
330
130
100
AcDbEntity
  8
CAMADA_1
100
AcDbLine
 10
80.2568457086
 20
149.3589363658
 30
0.0
 11
64.2568457086
 21
149.3589363658
 31
0.0
  0
LINE
  5
137
330
130
100
AcDbEntity
  8
CAMADA_1
100
AcDbLine
 10
65.2568457086
 20
119.4817288703
 30
0.0
 11
65.2568457086
 21
149.3589363658
 31
0.0
  0
MTEXT
  5
138
330
130
100
AcDbEntity
  8
CAMADA_1
100
AcDbMText
 10
60.7451083865
 20
132.0361133904
 30
0.0
 40
3.5
 41
0.0
 71
     1
 72
     1
  1
27,8
  7
SLDTEXTSTYLE0
 11
1.649253310440968E-14
 21
1.0
 31
0.0
 73
     1
 44
1.0
  0
ENDBLK
  5
132
330
130
100
AcDbEntity
  8
0
100
AcDbBlockEnd
  0
BLOCK
  5
13A
330
139
100
AcDbEntity
  8
0
100
AcDbBlockBegin
  2
SW_CENTERMARKSYMBOL_0
 70
     0
 10
0.0
 20
0.0
 30
0.0
  3
SW_CENTERMARKSYMBOL_0
  1

  0
LINE
  5
13C
330
139
100
AcDbEntity
  8
CAMADA_1
 62
     0
100
AcDbLine
 10
0.0
 20
0.0
 30
0.0
 11
0.0
 21
5.0
 31
0.0
  0
LINE
  5
13D
330
139
100
AcDbEntity
  8
CAMADA_1
 62
     0
100
AcDbLine
 10
0.0
 20
0.0
 30
0.0
 11
-5.0
 21
0.0
 31
0.0
  0
LINE
  5
13E
330
139
100
AcDbEntity
  8
CAMADA_1
 62
     0
100
AcDbLine
 10
0.0
 20
0.0
 30
0.0
 11
0.0
 21
-5.0
 31
0.0
  0
LINE
  5
13F
330
139
100
AcDbEntity
  8
CAMADA_1
 62
     0
100
AcDbLine
 10
0.0
 20
0.0
 30
0.0
 11
5.0
 21
0.0
 31
0.0
  0
LINE
  5
140
330
139
100
AcDbEntity
  8
CAMADA_1
 62
     0
100
AcDbLine
 10
0.0
 20
5.0
 30
0.0
 11
0.0
 21
7.5
 31
0.0
  0
LINE
  5
141
330
139
100
AcDbEntity
  8
CAMADA_1
 62
     0
100
AcDbLine
 10
-5.0
 20
0.0
 30
0.0
 11
-7.5
 21
0.0
 31
0.0
  0
LINE
  5
142
330
139
100
AcDbEntity
  8
CAMADA_1
 62
     0
100
AcDbLine
 10
0.0
 20
-5.0
 30
0.0
 11
0.0
 21
-7.5
 31
0.0
  0
LINE
  5
143
330
139
100
AcDbEntity
  8
CAMADA_1
 62
     0
100
AcDbLine
 10
5.0
 20
0.0
 30
0.0
 11
7.5
 21
0.0
 31
0.0
  0
ENDBLK
  5
13B
330
139
100
AcDbEntity
  8
0
100
AcDbBlockEnd
  0
BLOCK
  5
146
330
145
100
AcDbEntity
  8
0
100
AcDbBlockBegin
  2
SW_CENTERMARKSYMBOL_1
 70
     0
 10
0.0
 20
0.0
 30
0.0
  3
SW_CENTERMARKSYMBOL_1
  1

  0
LINE
  5
148
330
145
100
AcDbEntity
  8
CAMADA_1
 62
     0
100
AcDbLine
 10
0.0
 20
0.0
 30
0.0
 11
0.0
 21
5.0
 31
0.0
  0
LINE
  5
149
330
145
100
AcDbEntity
  8
CAMADA_1
 62
     0
100
AcDbLine
 10
0.0
 20
0.0
 30
0.0
 11
-5.0
 21
0.0
 31
0.0
  0
LINE
  5
14A
330
145
100
AcDbEntity
  8
CAMADA_1
 62
     0
100
AcDbLine
 10
0.0
 20
0.0
 30
0.0
 11
0.0
 21
-5.0
 31
0.0
  0
LINE
  5
14B
330
145
100
AcDbEntity
  8
CAMADA_1
 62
     0
100
AcDbLine
 10
0.0
 20
0.0
 30
0.0
 11
5.0
 21
0.0
 31
0.0
  0
LINE
  5
14C
330
145
100
AcDbEntity
  8
CAMADA_1
 62
     0
100
AcDbLine
 10
0.0
 20
5.0
 30
0.0
 11
0.0
 21
7.5
 31
0.0
  0
LINE
  5
14D
330
145
100
AcDbEntity
  8
CAMADA_1
 62
     0
100
AcDbLine
 10
-5.0
 20
0.0
 30
0.0
 11
-7.5
 21
0.0
 31
0.0
  0
LINE
  5
14E
330
145
100
AcDbEntity
  8
CAMADA_1
 62
     0
100
AcDbLine
 10
0.0
 20
-5.0
 30
0.0
 11
0.0
 21
-7.5
 31
0.0
  0
LINE
  5
14F
330
145
100
AcDbEntity
  8
CAMADA_1
 62
     0
100
AcDbLine
 10
5.0
 20
0.0
 30
0.0
 11
7.5
 21
0.0
 31
0.0
  0
ENDBLK
  5
147
330
145
100
AcDbEntity
  8
0
100
AcDbBlockEnd
  0
BLOCK
  5
164
330
163
100
AcDbEntity
  8
0
100
AcDbBlockBegin
  2
_D_2
 70
     0
 10
0.0
 20
0.0
 30
0.0
  3
_D_2
  1

  0
SOLID
  5
166
330
163
100
AcDbEntity
  8
CAMADA_1
100
AcDbTrace
 10
173.2550968086
 20
164.5472161618
 30
0.0
 11
176.5570968086
 21
164.0392161618
 31
0.0
 12
176.5570968086
 22
165.0552161618
 32
0.0
 13
176.5570968086
 23
165.0552161618
 33
0.0
  0
SOLID
  5
167
330
163
100
AcDbEntity
  8
CAMADA_1
100
AcDbTrace
 10
155.590242628
 20
164.5472161618
 30
0.0
 11
152.288242628
 21
165.0552161618
 31
0.0
 12
152.288242628
 22
164.0392161618
 32
0.0
 13
152.288242628
 23
164.0392161618
 33
0.0
  0
LINE
  5
168
330
163
100
AcDbEntity
  8
CAMADA_1
100
AcDbLine
 10
173.2550968086
 20
181.7153272352
 30
0.0
 11
173.2550968086
 21
163.5472161618
 31
0.0
  0
LINE
  5
169
330
163
100
AcDbEntity
  8
CAMADA_1
100
AcDbLine
 10
155.590242628
 20
181.7153272352
 30
0.0
 11
155.590242628
 21
163.5472161618
 31
0.0
  0
LINE
  5
16A
330
163
100
AcDbEntity
  8
CAMADA_1
100
AcDbLine
 10
173.2550968086
 20
164.5472161618
 30
0.0
 11
179.6050968086
 21
164.5472161618
 31
0.0
  0
LINE
  5
16B
330
163
100
AcDbEntity
  8
CAMADA_1
100
AcDbLine
 10
173.2550968086
 20
164.5472161618
 30
0.0
 11
155.590242628
 21
164.5472161618
 31
0.0
  0
LINE
  5
16C
330
163
100
AcDbEntity
  8
CAMADA_1
100
AcDbLine
 10
155.590242628
 20
164.5472161618
 30
0.0
 11
149.240242628
 21
164.5472161618
 31
0.0
  0
MTEXT
  5
16D
330
163
100
AcDbEntity
  8
CAMADA_1
100
AcDbMText
 10
161.0806559122
 20
169.0589534838
 30
0.0
 40
3.5
 41
0.0
 71
     1
 72
     1
  1
8,8
  7
SLDTEXTSTYLE0
 73
     1
 44
1.0
  0
ENDBLK
  5
165
330
163
100
AcDbEntity
  8
0
100
AcDbBlockEnd
  0
BLOCK
  5
170
330
16F
100
AcDbEntity
  8
0
100
AcDbBlockBegin
  2
_D_3
 70
     0
 10
0.0
 20
0.0
 30
0.0
  3
_D_3
  1

  0
SOLID
  5
172
330
16F
100
AcDbEntity
  8
CAMADA_1
100
AcDbTrace
 10
120.969129786
 20
187.1885272352
 30
0.0
 11
121.477129786
 21
190.4905272352
 31
0.0
 12
120.461129786
 22
190.4905272352
 32
0.0
 13
120.461129786
 23
190.4905272352
 33
0.0
  0
SOLID
  5
173
330
16F
100
AcDbEntity
  8
CAMADA_1
100
AcDbTrace
 10
120.969129786
 20
229.9369452954
 30
0.0
 11
120.461129786
 21
226.6349452954
 31
0.0
 12
121.477129786
 22
226.6349452954
 32
0.0
 13
121.477129786
 23
226.6349452954
 33
0.0
  0
LINE
  5
174
330
16F
100
AcDbEntity
  8
CAMADA_1
100
AcDbLine
 10
150.117042628
 20
187.1885272352
 30
0.0
 11
119.969129786
 21
187.1885272352
 31
0.0
  0
LINE
  5
175
330
16F
100
AcDbEntity
  8
CAMADA_1
100
AcDbLine
 10
150.117042628
 20
229.9369452954
 30
0.0
 11
119.969129786
 21
229.9369452954
 31
0.0
  0
LINE
  5
176
330
16F
100
AcDbEntity
  8
CAMADA_1
100
AcDbLine
 10
120.969129786
 20
187.1885272352
 30
0.0
 11
120.969129786
 21
229.9369452954
 31
0.0
  0
MTEXT
  5
177
330
16F
100
AcDbEntity
  8
CAMADA_1
100
AcDbMText
 10
116.4573924639
 20
203.8839169368
 30
0.0
 40
3.5
 41
0.0
 71
     1
 72
     1
  1
21,4
  7
SLDTEXTSTYLE0
 11
4.058035228607931E-15
 21
1.0
 31
0.0
 73
     1
 44
1.0
  0
ENDBLK
  5
171
330
16F
100
AcDbEntity
  8
0
100
AcDbBlockEnd
  0
BLOCK
  5
17A
330
179
100
AcDbEntity
  8
0
100
AcDbBlockBegin
  2
_D_4
 70
     0
 10
0.0
 20
0.0
 30
0.0
  3
_D_4
  1

  0
SOLID
  5
17C
330
179
100
AcDbEntity
  8
CAMADA_1
100
AcDbTrace
 10
184.4143394105
 20
213.2953452589
 30
0.0
 11
186.5052803157
 21
215.9009611422
 31
0.0
 12
185.6253985054
 22
216.4089611422
 32
0.0
 13
185.6253985054
 23
216.4089611422
 33
0.0
  0
SOLID
  5
17D
330
179
100
AcDbEntity
  8
CAMADA_1
100
AcDbTrace
 10
211.0941755309
 20
259.506176957
 30
0.0
 11
209.0032346258
 21
256.9005610737
 31
0.0
 12
209.883116436
 22
256.3925610737
 32
0.0
 13
209.883116436
 23
256.3925610737
 33
0.0
  0
LINE
  5
17E
330
179
100
AcDbEntity
  8
CAMADA_1
100
AcDbLine
 10
155.180439407
 20
230.1735452954
 30
0.0
 11
185.2803648143
 21
212.7953452589
 31
0.0
  0
LINE
  5
17F
330
179
100
AcDbEntity
  8
CAMADA_1
100
AcDbLine
 10
181.8602755274
 20
276.3843769936
 30
0.0
 11
211.9602009347
 21
259.006176957
 31
0.0
  0
LINE
  5
180
330
179
100
AcDbEntity
  8
CAMADA_1
100
AcDbLine
 10
184.4143394105
 20
213.2953452589
 30
0.0
 11
211.0941755309
 21
259.506176957
 31
0.0
  0
MTEXT
  5
181
330
179
100
AcDbEntity
  8
CAMADA_1
100
AcDbMText
 10
189.8374290039
 20
231.7118866127
 30
0.0
 40
3.5
 41
0.0
 71
     1
 72
     1
  1
26,7
  7
SLDTEXTSTYLE0
 11
0.5000000000000041
 21
0.8660254037844363
 31
0.0
 73
     1
 44
1.0
  0
ENDBLK
  5
17B
330
179
100
AcDbEntity
  8
0
100
AcDbBlockEnd
  0
BLOCK
  5
185
330
184
100
AcDbEntity
  8
0
100
AcDbBlockBegin
  2
_D_5
 70
     0
 10
0.0
 20
0.0
 30
0.0
  3
_D_5
  1

  0
ARC
  5
187
330
184
100
AcDbEntity
  8
CAMADA_1
100
AcDbCircle
 10
151.117042628
 20
231.135535623
 30
0.0
 40
45.40867811524515
100
AcDbArc
 50
60.0
 51
90.0
  0
SOLID
  5
188
330
184
100
AcDbEntity
  8
CAMADA_1
100
AcDbTrace
 10
173.8213816857
 20
270.4606044231
 30
0.0
 11
171.1416081872
 21
272.455618708
 31
0.0
 12
170.6658708761
 22
271.5578826606
 32
0.0
 13
170.6658708761
 23
271.5578826606
 33
0.0
  0
SOLID
  5
189
330
184
100
AcDbEntity
  8
CAMADA_1
100
AcDbTrace
 10
151.117042628
 20
276.5442137383
 30
0.0
 11
154.3984342698
 21
275.9167291621
 31
0.0
 12
154.4353016965
 22
276.9320600406
 32
0.0
 13
154.4353016965
 23
276.9320600406
 33
0.0
  0
LINE
  5
18A
330
184
100
AcDbEntity
  8
CAMADA_1
100
AcDbLine
 10
151.117042628
 20
230.9369452954
 30
0.0
 11
151.117042628
 21
277.5442137383
 31
0.0
  0
MTEXT
  5
18B
330
184
100
AcDbEntity
  8
CAMADA_1
100
AcDbMText
 10
161.7607229933
 20
280.0434209709
 30
0.0
 40
3.5
 41
0.0
 71
     1
 72
     1
  1
30°
  7
SLDTEXTSTYLE0
 11
0.9590986746430317
 21
-0.2830719560429468
 31
0.0
 73
     1
 44
1.0
  0
ENDBLK
  5
186
330
184
100
AcDbEntity
  8
0
100
AcDbBlockEnd
  0
BLOCK
  5
19E
330
19D
100
AcDbEntity
  8
0
100
AcDbBlockBegin
  2
_D_6
 70
     0
 10
0.0
 20
0.0
 30
0.0
  3
_D_6
  1

  0
SOLID
  5
1A0
330
19D
100
AcDbEntity
  8
CAMADA_1
100
AcDbTrace
 10
396.1801155782
 20
173.5682617473
 30
0.0
 11
392.8781155782
 21
174.0762617473
 31
0.0
 12
392.8781155782
 22
173.0602617473
 32
0.0
 13
392.8781155782
 23
173.0602617473
 33
0.0
  0
SOLID
  5
1A1
330
19D
100
AcDbEntity
  8
CAMADA_1
100
AcDbTrace
 10
276.1801155782
 20
173.5682617473
 30
0.0
 11
279.4821155782
 21
173.0602617473
 31
0.0
 12
279.4821155782
 22
174.0762617473
 32
0.0
 13
279.4821155782
 23
174.0762617473
 33
0.0
  0
LINE
  5
1A2
330
19D
100
AcDbEntity
  8
CAMADA_1
100
AcDbLine
 10
396.1801155782
 20
164.5682617473
 30
0.0
 11
396.1801155782
 21
174.5682617473
 31
0.0
  0
LINE
  5
1A3
330
19D
100
AcDbEntity
  8
CAMADA_1
100
AcDbLine
 10
276.1801155782
 20
164.5682617473
 30
0.0
 11
276.1801155782
 21
174.5682617473
 31
0.0
  0
LINE
  5
1A4
330
19D
100
AcDbEntity
  8
CAMADA_1
100
AcDbLine
 10
396.1801155782
 20
173.5682617473
 30
0.0
 11
276.1801155782
 21
173.5682617473
 31
0.0
  0
MTEXT
  5
1A5
330
19D
100
AcDbEntity
  8
CAMADA_1
100
AcDbMText
 10
331.5012962496
 20
178.0799990693
 30
0.0
 40
3.5
 41
0.0
 71
     1
 72
     1
  1
60,0
  7
SLDTEXTSTYLE0
 73
     1
 44
1.0
  0
ENDBLK
  5
19F
330
19D
100
AcDbEntity
  8
0
100
AcDbBlockEnd
  0
BLOCK
  5
1A8
330
1A7
100
AcDbEntity
  8
0
100
AcDbBlockBegin
  2
_D_7
 70
     0
 10
0.0
 20
0.0
 30
0.0
  3
_D_7
  1

  0
SOLID
  5
1AA
330
1A7
100
AcDbEntity
  8
CAMADA_1
100
AcDbTrace
 10
266.1801155782
 20
163.5682617473
 30
0.0
 11
266.6881155782
 21
166.8702617473
 31
0.0
 12
265.6721155782
 22
166.8702617473
 32
0.0
 13
265.6721155782
 23
166.8702617473
 33
0.0
  0
SOLID
  5
1AB
330
1A7
100
AcDbEntity
  8
CAMADA_1
100
AcDbTrace
 10
266.1801155782
 20
143.5682617473
 30
0.0
 11
265.6721155782
 21
140.2662617473
 31
0.0
 12
266.6881155782
 22
140.2662617473
 32
0.0
 13
266.6881155782
 23
140.2662617473
 33
0.0
  0
LINE
  5
1AC
330
1A7
100
AcDbEntity
  8
CAMADA_1
100
AcDbLine
 10
275.1801155782
 20
163.5682617473
 30
0.0
 11
265.1801155782
 21
163.5682617473
 31
0.0
  0
LINE
  5
1AD
330
1A7
100
AcDbEntity
  8
CAMADA_1
100
AcDbLine
 10
275.1801155782
 20
143.5682617473
 30
0.0
 11
265.1801155782
 21
143.5682617473
 31
0.0
  0
LINE
  5
1AE
330
1A7
100
AcDbEntity
  8
CAMADA_1
100
AcDbLine
 10
266.1801155782
 20
163.5682617473
 30
0.0
 11
266.1801155782
 21
169.9182617473
 31
0.0
  0
LINE
  5
1AF
330
1A7
100
AcDbEntity
  8
CAMADA_1
100
AcDbLine
 10
266.1801155782
 20
163.5682617473
 30
0.0
 11
266.1801155782
 21
143.5682617473
 31
0.0
  0
LINE
  5
1B0
330
1A7
100
AcDbEntity
  8
CAMADA_1
100
AcDbLine
 10
266.1801155782
 20
143.5682617473
 30
0.0
 11
266.1801155782
 21
137.2182617473
 31
0.0
  0
MTEXT
  5
1B1
330
1A7
100
AcDbEntity
  8
CAMADA_1
100
AcDbMText
 10
261.6683782562
 20
148.8894424187
 30
0.0
 40
3.5
 41
0.0
 71
     1
 72
     1
  1
10,0
  7
SLDTEXTSTYLE0
 11
-7.044195017643634E-15
 21
1.0
 31
0.0
 73
     1
 44
1.0
  0
ENDBLK
  5
1A9
330
1A7
100
AcDbEntity
  8
0
100
AcDbBlockEnd
  0
BLOCK
  5
1B5
330
1B4
100
AcDbEntity
  8
0
100
AcDbBlockBegin
  2
_NONE
 70
     0
 10
0.0
 20
0.0
 30
0.0
  3
_NONE
  1

  0
ENDBLK
  5
1B6
330
1B4
100
AcDbEntity
  8
0
100
AcDbBlockEnd
  0
BLOCK
  5
1B8
330
1B7
100
AcDbEntity
  8
0
100
AcDbBlockBegin
  2
_D_8
 70
     0
 10
0.0
 20
0.0
 30
0.0
  3
_D_8
  1

  0
SOLID
  5
1BA
330
1B7
100
AcDbEntity
  8
CAMADA_1
100
AcDbTrace
 10
286.071669222
 20
161.4201195972
 30
0.0
 11
284.0960128753
 21
164.1141964335
 31
0.0
 12
283.3775923857
 22
163.3957759438
 32
0.0
 13
283.3775923857
 23
163.3957759438
 33
0.0
  0
LINE
  5
1BB
330
1B7
100
AcDbEntity
  8
CAMADA_1
100
AcDbLine
 10
286.071669222
 20
161.4201195972
 30
0.0
 11
265.6520195231
 21
181.8397692961
 31
0.0
  0
LINE
  5
1BC
330
1B7
100
AcDbEntity
  8
CAMADA_1
100
AcDbLine
 10
286.071669222
 20
161.4201195972
 30
0.0
 11
289.6072031279
 21
157.8845856913
 31
0.0
  0
MTEXT
  5
1BD
330
1B7
100
AcDbEntity
  8
CAMADA_1
100
AcDbMText
 10
268.8337236978
 20
185.0214734708
 30
0.0
 40
3.5
 41
0.0
 71
     1
 72
     1
  1
M3
  7
SLDTEXTSTYLE0
 11
0.7071067811865422
 21
-0.7071067811865528
 31
0.0
 73
     1
 44
1.0
  0
ENDBLK
  5
1B9
330
1B7
100
AcDbEntity
  8
0
100
AcDbBlockEnd
  0
BLOCK
  5
1C0
330
1BF
100
AcDbEntity
  8
0
100
AcDbBlockBegin
  2
_D_9
 70
     0
 10
0.0
 20
0.0
 30
0.0
  3
_D_9
  1

  0
SOLID
  5
1C2
330
1BF
100
AcDbEntity
  8
CAMADA_1
100
AcDbTrace
 10
286.0772028058
 20
145.7164038974
 30
0.0
 11
283.3831259695
 21
143.7407475507
 31
0.0
 12
284.1015464592
 22
143.0223270611
 32
0.0
 13
284.1015464592
 23
143.0223270611
 33
0.0
  0
LINE
  5
1C3
330
1BF
100
AcDbEntity
  8
CAMADA_1
100
AcDbLine
 10
286.0772028058
 20
145.7164038974
 30
0.0
 11
265.6575531069
 21
125.2967541985
 31
0.0
  0
LINE
  5
1C4
330
1BF
100
AcDbEntity
  8
CAMADA_1
100
AcDbLine
 10
286.0772028058
 20
145.7164038974
 30
0.0
 11
289.6127367117
 21
149.2519378033
 31
0.0
  0
MTEXT
  5
1C5
330
1BF
100
AcDbEntity
  8
CAMADA_1
100
AcDbMText
 10
262.4758489322
 20
128.4784583732
 30
0.0
 40
3.5
 41
0.0
 71
     1
 72
     1
  1
M3
  7
SLDTEXTSTYLE0
 11
0.7071067811865428
 21
0.7071067811865522
 31
0.0
 73
     1
 44
1.0
  0
ENDBLK
  5
1C1
330
1BF
100
AcDbEntity
  8
0
100
AcDbBlockEnd
  0
BLOCK
  5
1CA
330
1C9
100
AcDbEntity
  8
0
100
AcDbBlockBegin
  2
SW_CENTERMARKSYMBOL_2
 70
     0
 10
0.0
 20
0.0
 30
0.0
  3
SW_CENTERMARKSYMBOL_2
  1

  0
LINE
  5
1CC
330
1C9
100
AcDbEntity
  8
CAMADA_1
 62
     0
100
AcDbLine
 10
0.0
 20
0.0
 30
0.0
 11
0.0
 21
5.0
 31
0.0
  0
LINE
  5
1CD
330
1C9
100
AcDbEntity
  8
CAMADA_1
 62
     0
100
AcDbLine
 10
0.0
 20
0.0
 30
0.0
 11
-5.0
 21
0.0
 31
0.0
  0
LINE
  5
1CE
330
1C9
100
AcDbEntity
  8
CAMADA_1
 62
     0
100
AcDbLine
 10
0.0
 20
0.0
 30
0.0
 11
0.0
 21
-5.0
 31
0.0
  0
LINE
  5
1CF
330
1C9
100
AcDbEntity
  8
CAMADA_1
 62
     0
100
AcDbLine
 10
0.0
 20
0.0
 30
0.0
 11
5.0
 21
0.0
 31
0.0
  0
LINE
  5
1D0
330
1C9
100
AcDbEntity
  8
CAMADA_1
 62
     0
100
AcDbLine
 10
0.0
 20
5.0
 30
0.0
 11
0.0
 21
7.5
 31
0.0
  0
LINE
  5
1D1
330
1C9
100
AcDbEntity
  8
CAMADA_1
 62
     0
100
AcDbLine
 10
-5.0
 20
0.0
 30
0.0
 11
-7.5
 21
0.0
 31
0.0
  0
LINE
  5
1D2
330
1C9
100
AcDbEntity
  8
CAMADA_1
 62
     0
100
AcDbLine
 10
0.0
 20
-5.0
 30
0.0
 11
0.0
 21
-7.5
 31
0.0
  0
LINE
  5
1D3
330
1C9
100
AcDbEntity
  8
CAMADA_1
 62
     0
100
AcDbLine
 10
5.0
 20
0.0
 30
0.0
 11
7.5
 21
0.0
 31
0.0
  0
ENDBLK
  5
1CB
330
1C9
100
AcDbEntity
  8
0
100
AcDbBlockEnd
  0
BLOCK
  5
1D6
330
1D5
100
AcDbEntity
  8
0
100
AcDbBlockBegin
  2
SW_CENTERMARKSYMBOL_3
 70
     0
 10
0.0
 20
0.0
 30
0.0
  3
SW_CENTERMARKSYMBOL_3
  1

  0
LINE
  5
1D8
330
1D5
100
AcDbEntity
  8
CAMADA_1
 62
     0
100
AcDbLine
 10
0.0
 20
0.0
 30
0.0
 11
0.0
 21
5.0
 31
0.0
  0
LINE
  5
1D9
330
1D5
100
AcDbEntity
  8
CAMADA_1
 62
     0
100
AcDbLine
 10
0.0
 20
0.0
 30
0.0
 11
-5.0
 21
0.0
 31
0.0
  0
LINE
  5
1DA
330
1D5
100
AcDbEntity
  8
CAMADA_1
 62
     0
100
AcDbLine
 10
0.0
 20
0.0
 30
0.0
 11
0.0
 21
-5.0
 31
0.0
  0
LINE
  5
1DB
330
1D5
100
AcDbEntity
  8
CAMADA_1
 62
     0
100
AcDbLine
 10
0.0
 20
0.0
 30
0.0
 11
5.0
 21
0.0
 31
0.0
  0
LINE
  5
1DC
330
1D5
100
AcDbEntity
  8
CAMADA_1
 62
     0
100
AcDbLine
 10
0.0
 20
5.0
 30
0.0
 11
0.0
 21
7.5
 31
0.0
  0
LINE
  5
1DD
330
1D5
100
AcDbEntity
  8
CAMADA_1
 62
     0
100
AcDbLine
 10
-5.0
 20
0.0
 30
0.0
 11
-7.5
 21
0.0
 31
0.0
  0
LINE
  5
1DE
330
1D5
100
AcDbEntity
  8
CAMADA_1
 62
     0
100
AcDbLine
 10
0.0
 20
-5.0
 30
0.0
 11
0.0
 21
-7.5
 31
0.0
  0
LINE
  5
1DF
330
1D5
100
AcDbEntity
  8
CAMADA_1
 62
     0
100
AcDbLine
 10
5.0
 20
0.0
 30
0.0
 11
7.5
 21
0.0
 31
0.0
  0
ENDBLK
  5
1D7
330
1D5
100
AcDbEntity
  8
0
100
AcDbBlockEnd
  0
ENDSEC
  0
SECTION
  2
ENTITIES
  0
LINE
  5
76
330
1F
100
AcDbEntity
  8
0
  6
Continuous
 62
     7
370
    18
100
AcDbLine
 10
227.8
 20
9.25
 30
0.0
 11
415.0
 21
9.25
 31
0.0
  0
LINE
  5
77
330
1F
100
AcDbEntity
  8
0
  6
Continuous
 62
     7
370
    18
100
AcDbLine
 10
415.0000003319
 20
43.2542330964
 30
0.0
 11
227.8000003319
 21
43.2542330964
 31
0.0
  0
LINE
  5
78
330
1F
100
AcDbEntity
  8
0
  6
Continuous
 62
     7
370
    18
100
AcDbLine
 10
227.8
 20
60.25
 30
0.0
 11
415.0
 21
60.25
 31
0.0
  0
LINE
  5
79
330
1F
100
AcDbEntity
  8
0
  6
Continuous
 62
     7
370
    18
100
AcDbLine
 10
410.0
 20
287.0
 30
0.0
 11
410.0
 21
60.25
 31
0.0
  0
LINE
  5
7A
330
1F
100
AcDbEntity
  8
0
  6
Continuous
 62
     7
370
    18
100
AcDbLine
 10
254.7909527657
 20
43.2542330964
 30
0.0
 11
254.7909527657
 21
22.0085631312
 31
0.0
  0
LINE
  5
7B
330
1F
100
AcDbEntity
  8
0
  6
Continuous
 62
     7
370
    18
100
AcDbLine
 10
326.6
 20
26.25
 30
0.0
 11
227.8
 21
26.25
 31
0.0
  0
LINE
  5
7C
330
1F
100
AcDbEntity
  8
0
  6
Continuous
 62
     7
370
    18
100
AcDbLine
 10
326.6
 20
30.5
 30
0.0
 11
227.8
 21
30.5
 31
0.0
  0
LINE
  5
7D
330
1F
100
AcDbEntity
  8
0
  6
Continuous
 62
     7
370
    18
100
AcDbLine
 10
326.6
 20
34.75
 30
0.0
 11
227.8
 21
34.75
 31
0.0
  0
LINE
  5
7E
330
1F
100
AcDbEntity
  8
0
  6
Continuous
 62
     7
370
    18
100
AcDbLine
 10
326.6
 20
39.0
 30
0.0
 11
227.8
 21
39.0
 31
0.0
  0
LINE
  5
7F
330
1F
100
AcDbEntity
  8
0
  6
Continuous
 62
     7
370
    18
100
AcDbLine
 10
282.4000003319
 20
5.0042330964
 30
0.0
 11
282.4000003319
 21
43.2542330964
 31
0.0
  0
LINE
  5
80
330
1F
100
AcDbEntity
  8
0
  6
Continuous
 62
     7
370
    18
100
AcDbLine
 10
227.8
 20
60.25
 30
0.0
 11
227.8
 21
5.0
 31
0.0
  0
LINE
  5
81
330
1F
100
AcDbEntity
  8
0
  6
Continuous
 62
     7
370
    18
100
AcDbLine
 10
235.6000000959
 20
43.2512233045
 30
0.0
 11
235.6000000959
 21
22.0085631312
 31
0.0
  0
LINE
  5
82
330
1F
100
AcDbEntity
  8
0
  6
Continuous
 62
     7
370
    18
100
AcDbLine
 10
261.5966683743
 20
43.2542330964
 30
0.0
 11
261.5940028618
 21
60.25
 31
0.0
  0
LINE
  5
83
330
1F
100
AcDbEntity
  8
0
  6
Continuous
 62
     7
370
    18
100
AcDbLine
 10
272.1989267096
 20
43.2569632569
 30
0.0
 11
272.1989267096
 21
22.0085631312
 31
0.0
  0
LINE
  5
84
330
1F
100
AcDbEntity
  8
0
  6
Continuous
 62
     7
370
    18
100
AcDbLine
 10
292.8
 20
26.25
 30
0.0
 11
292.8
 21
43.25
 31
0.0
  0
LINE
  5
85
330
1F
100
AcDbEntity
  8
0
  6
Continuous
 62
     7
370
    18
100
AcDbLine
 10
324.7768844999
 20
9.25
 30
0.0
 11
324.7768844999
 21
5.0
 31
0.0
  0
LINE
  5
86
330
1F
100
AcDbEntity
  8
0
  6
Continuous
 62
     7
370
    18
100
AcDbLine
 10
308.4
 20
60.25
 30
0.0
 11
308.4
 21
22.0
 31
0.0
  0
LINE
  5
87
330
1F
100
AcDbEntity
  8
0
  6
Continuous
 62
     7
370
    18
100
AcDbLine
 10
282.4000006715
 20
22.0085631312
 30
0.0
 11
227.8
 21
22.0085631312
 31
0.0
  0
LINE
  5
88
330
1F
100
AcDbEntity
  8
0
  6
Continuous
 62
     7
370
    18
100
AcDbLine
 10
282.4000006715
 20
22.0085631312
 30
0.0
 11
414.9999990407
 21
22.0293593066
 31
0.0
  0
LINE
  5
89
330
1F
100
AcDbEntity
  8
0
  6
Continuous
 62
     7
370
    18
100
AcDbLine
 10
326.6
 20
60.25
 30
0.0
 11
326.6
 21
22.0154951896
 31
0.0
  0
LINE
  5
8A
330
1F
100
AcDbEntity
  8
0
  6
Continuous
 62
     7
370
    18
100
AcDbLine
 10
370.8
 20
5.0
 30
0.0
 11
370.8
 21
9.25
 31
0.0
  0
LINE
  5
8B
330
1F
100
AcDbEntity
  8
0
  6
Continuous
 62
     7
370
    18
100
AcDbLine
 10
378.6
 20
53.875
 30
0.0
 11
378.6
 21
60.25
 31
0.0
  0
LINE
  5
8C
330
1F
100
AcDbEntity
  8
0
  6
Continuous
 62
     7
370
    18
100
AcDbLine
 10
415.0
 20
53.875
 30
0.0
 11
326.6
 21
53.875
 31
0.0
  0
LINE
  5
8D
330
1F
100
AcDbEntity
  8
0
  6
Continuous
 62
     7
370
    18
100
AcDbLine
 10
402.0
 20
5.0
 30
0.0
 11
402.0
 21
9.25
 31
0.0
  0
LINE
  5
8E
330
1F
100
AcDbEntity
  8
0
  6
Continuous
 62
     7
370
    18
100
AcDbLine
 10
326.6
 20
30.5
 30
0.0
 11
415.0
 21
30.5
 31
0.0
  0
LINE
  5
8F
330
1F
100
AcDbEntity
  8
0
  6
Continuous
 62
     7
370
    18
100
AcDbLine
 10
415.0
 20
292.0
 30
0.0
 11
5.0
 21
292.0
 31
0.0
  0
LINE
  5
90
330
1F
100
AcDbEntity
  8
0
  6
Continuous
 62
     7
370
    18
100
AcDbLine
 10
410.0
 20
287.0
 30
0.0
 11
10.0
 21
287.0
 31
0.0
  0
LINE
  5
91
330
1F
100
AcDbEntity
  8
0
  6
Continuous
 62
     7
370
    18
100
AcDbLine
 10
5.0
 20
292.0
 30
0.0
 11
5.0
 21
5.0
 31
0.0
  0
LINE
  5
92
330
1F
100
AcDbEntity
  8
0
  6
Continuous
 62
     7
370
    18
100
AcDbLine
 10
10.0
 20
287.0
 30
0.0
 11
10.0
 21
10.0
 31
0.0
  0
LINE
  5
93
330
1F
100
AcDbEntity
  8
0
  6
Continuous
 62
     7
370
    18
100
AcDbLine
 10
10.0
 20
48.5
 30
0.0
 11
5.0
 21
48.5
 31
0.0
  0
LINE
  5
94
330
1F
100
AcDbEntity
  8
0
  6
Continuous
 62
     7
370
    18
100
AcDbLine
 10
5.0
 20
98.5
 30
0.0
 11
10.0
 21
98.5
 31
0.0
  0
LINE
  5
95
330
1F
100
AcDbEntity
  8
0
  6
Continuous
 62
     7
370
    18
100
AcDbLine
 10
5.0
 20
198.5
 30
0.0
 11
10.0
 21
198.5
 31
0.0
  0
LINE
  5
96
330
1F
100
AcDbEntity
  8
0
  6
Continuous
 62
     7
370
    18
100
AcDbLine
 10
5.0
 20
148.5
 30
0.0
 11
15.0
 21
148.5
 31
0.0
  0
LINE
  5
97
330
1F
100
AcDbEntity
  8
0
  6
Continuous
 62
     7
370
    18
100
AcDbLine
 10
5.0
 20
5.0
 30
0.0
 11
415.0
 21
5.0
 31
0.0
  0
LINE
  5
98
330
1F
100
AcDbEntity
  8
0
  6
Continuous
 62
     7
370
    18
100
AcDbLine
 10
10.0
 20
10.0
 30
0.0
 11
227.8
 21
10.0
 31
0.0
  0
LINE
  5
99
330
1F
100
AcDbEntity
  8
0
  6
Continuous
 62
     7
370
    18
100
AcDbLine
 10
60.0
 20
5.0
 30
0.0
 11
60.0
 21
10.0
 31
0.0
  0
LINE
  5
9A
330
1F
100
AcDbEntity
  8
0
  6
Continuous
 62
     7
370
    18
100
AcDbLine
 10
110.0
 20
10.0
 30
0.0
 11
110.0
 21
5.0
 31
0.0
  0
LINE
  5
9B
330
1F
100
AcDbEntity
  8
0
  6
Continuous
 62
     7
370
    18
100
AcDbLine
 10
160.0
 20
5.0
 30
0.0
 11
160.0
 21
10.0
 31
0.0
  0
LINE
  5
9C
330
1F
100
AcDbEntity
  8
0
  6
Continuous
 62
     7
370
    18
100
AcDbLine
 10
10.0
 20
248.5
 30
0.0
 11
5.0
 21
248.5
 31
0.0
  0
LINE
  5
9D
330
1F
100
AcDbEntity
  8
0
  6
Continuous
 62
     7
370
    18
100
AcDbLine
 10
60.0
 20
287.0
 30
0.0
 11
60.0
 21
292.0
 31
0.0
  0
LINE
  5
9E
330
1F
100
AcDbEntity
  8
0
  6
Continuous
 62
     7
370
    18
100
AcDbLine
 10
110.0
 20
292.0
 30
0.0
 11
110.0
 21
287.0
 31
0.0
  0
LINE
  5
9F
330
1F
100
AcDbEntity
  8
0
  6
Continuous
 62
     7
370
    18
100
AcDbLine
 10
160.0
 20
287.0
 30
0.0
 11
160.0
 21
292.0
 31
0.0
  0
LINE
  5
A0
330
1F
100
AcDbEntity
  8
0
  6
Continuous
 62
     7
370
    18
100
AcDbLine
 10
260.0
 20
287.0
 30
0.0
 11
260.0
 21
292.0
 31
0.0
  0
LINE
  5
A1
330
1F
100
AcDbEntity
  8
0
  6
Continuous
 62
     7
370
    18
100
AcDbLine
 10
415.0
 20
5.0
 30
0.0
 11
415.0
 21
292.0
 31
0.0
  0
LINE
  5
A2
330
1F
100
AcDbEntity
  8
0
  6
Continuous
 62
     7
370
    18
100
AcDbLine
 10
210.0
 20
5.0
 30
0.0
 11
210.0
 21
15.0
 31
0.0
  0
LINE
  5
A3
330
1F
100
AcDbEntity
  8
0
  6
Continuous
 62
     7
370
    18
100
AcDbLine
 10
410.0
 20
198.5
 30
0.0
 11
415.0
 21
198.5
 31
0.0
  0
LINE
  5
A4
330
1F
100
AcDbEntity
  8
0
  6
Continuous
 62
     7
370
    18
100
AcDbLine
 10
410.0
 20
98.5
 30
0.0
 11
415.0
 21
98.5
 31
0.0
  0
LINE
  5
A5
330
1F
100
AcDbEntity
  8
0
  6
Continuous
 62
     7
370
    18
100
AcDbLine
 10
415.0
 20
148.5
 30
0.0
 11
405.0
 21
148.5
 31
0.0
  0
LINE
  5
A6
330
1F
100
AcDbEntity
  8
0
  6
Continuous
 62
     7
370
    18
100
AcDbLine
 10
310.0
 20
292.0
 30
0.0
 11
310.0
 21
287.0
 31
0.0
  0
LINE
  5
A7
330
1F
100
AcDbEntity
  8
0
  6
Continuous
 62
     7
370
    18
100
AcDbLine
 10
360.0
 20
287.0
 30
0.0
 11
360.0
 21
292.0
 31
0.0
  0
LINE
  5
A8
330
1F
100
AcDbEntity
  8
0
  6
Continuous
 62
     7
370
    18
100
AcDbLine
 10
210.0
 20
292.0
 30
0.0
 11
210.0
 21
282.0
 31
0.0
  0
LINE
  5
A9
330
1F
100
AcDbEntity
  8
0
  6
Continuous
 62
     7
370
    18
100
AcDbLine
 10
415.0
 20
248.5
 30
0.0
 11
410.0
 21
248.5
 31
0.0
  0
MTEXT
  5
AB
330
1F
100
AcDbEntity
  8
FORMAT
100
AcDbMText
 10
230.1867056085
 20
82.8367357876
 30
0.0
 40
3.5
 41
0.0
 71
     1
 72
     1
  1
Cor: Galvanizado
  7
SLDTEXTSTYLE0
 73
     1
 44
1.0
  0
MTEXT
  5
AC
330
1F
100
AcDbEntity
  8
FORMAT
100
AcDbMText
 10
230.1867056085
 20
76.2758846827
 30
0.0
 40
3.5
 41
0.0
 71
     1
 72
     1
  1
Descrição: Suporte placa comando
  7
SLDTEXTSTYLE0
 73
     1
 44
1.0
  0
MTEXT
  5
AD
330
1F
100
AcDbEntity
  8
FORMAT
100
AcDbMText
 10
230.1867056085
 20
69.7492741919
 30
0.0
 40
3.5
 41
0.0
 71
     1
 72
     1
  1
Material: Chapa de Aço SEA 1020 Espessura: 1,5mm.
  7
SLDTEXTSTYLE0
 73
     1
 44
1.0
  0
MTEXT
  5
AE
330
1F
100
AcDbEntity
  8
0
  6
Continuous
 62
     7
370
     0
100
AcDbMText
 10
6.6666666667
 20
124.6680204618
 30
0.0
 40
1.8520833333
 41
0.0
 71
     1
 72
     1
  1
D
  7
SLDTEXTSTYLE0
 73
     1
 44
1.0
  0
MTEXT
  5
AF
330
1F
100
AcDbEntity
  8
0
  6
Continuous
 62
     7
370
     0
100
AcDbMText
 10
6.6666666667
 20
74.6680204618
 30
0.0
 40
1.8520833333
 41
0.0
 71
     1
 72
     1
  1
E
  7
SLDTEXTSTYLE0
 73
     1
 44
1.0
  0
MTEXT
  5
B0
330
1F
100
AcDbEntity
  8
0
  6
Continuous
 62
     7
370
     0
100
AcDbMText
 10
6.6666666667
 20
24.6680204618
 30
0.0
 40
1.8520833333
 41
0.0
 71
     1
 72
     1
  1
F
  7
SLDTEXTSTYLE0
 73
     1
 44
1.0
  0
MTEXT
  5
B1
330
1F
100
AcDbEntity
  8
0
  6
Continuous
 62
     7
370
     0
100
AcDbMText
 10
6.6666666667
 20
174.6680204618
 30
0.0
 40
1.8520833333
 41
0.0
 71
     1
 72
     1
  1
C
  7
SLDTEXTSTYLE0
 73
     1
 44
1.0
  0
MTEXT
  5
B2
330
1F
100
AcDbEntity
  8
0
  6
Continuous
 62
     7
370
     0
100
AcDbMText
 10
34.5833333333
 20
8.6680244618
 30
0.0
 40
1.8520833333
 41
0.0
 71
     1
 72
     1
  1
1
  7
SLDTEXTSTYLE0
 73
     1
 44
1.0
  0
MTEXT
  5
B3
330
1F
100
AcDbEntity
  8
0
  6
Continuous
 62
     7
370
     0
100
AcDbMText
 10
84.1666666667
 20
8.6680244618
 30
0.0
 40
1.8520833333
 41
0.0
 71
     1
 72
     1
  1
2
  7
SLDTEXTSTYLE0
 73
     1
 44
1.0
  0
MTEXT
  5
B4
330
1F
100
AcDbEntity
  8
0
  6
Continuous
 62
     7
370
     0
100
AcDbMText
 10
134.1666666667
 20
8.6680244618
 30
0.0
 40
1.8520833333
 41
0.0
 71
     1
 72
     1
  1
3
  7
SLDTEXTSTYLE0
 73
     1
 44
1.0
  0
MTEXT
  5
B5
330
1F
100
AcDbEntity
  8
0
  6
Continuous
 62
     7
370
     0
100
AcDbMText
 10
184.1666666667
 20
8.6680244618
 30
0.0
 40
1.8520833333
 41
0.0
 71
     1
 72
     1
  1
4
  7
SLDTEXTSTYLE0
 73
     1
 44
1.0
  0
MTEXT
  5
B6
330
1F
100
AcDbEntity
  8
0
  6
Continuous
 62
     7
370
     0
100
AcDbMText
 10
6.6666666667
 20
224.6680204618
 30
0.0
 40
1.8520833333
 41
0.0
 71
     1
 72
     1
  1
B
  7
SLDTEXTSTYLE0
 73
     1
 44
1.0
  0
MTEXT
  5
B7
330
1F
100
AcDbEntity
  8
0
  6
Continuous
 62
     7
370
     0
100
AcDbMText
 10
6.6666666667
 20
274.6680204618
 30
0.0
 40
1.8520833333
 41
0.0
 71
     1
 72
     1
  1
A
  7
SLDTEXTSTYLE0
 73
     1
 44
1.0
  0
MTEXT
  5
B8
330
1F
100
AcDbEntity
  8
0
  6
Continuous
 62
     7
370
     0
100
AcDbMText
 10
134.1666666667
 20
290.6680244618
 30
0.0
 40
1.8520833333
 41
0.0
 71
     1
 72
     1
  1
3
  7
SLDTEXTSTYLE0
 73
     1
 44
1.0
  0
MTEXT
  5
B9
330
1F
100
AcDbEntity
  8
0
  6
Continuous
 62
     7
370
     0
100
AcDbMText
 10
84.1666666667
 20
290.6680244618
 30
0.0
 40
1.8520833333
 41
0.0
 71
     1
 72
     1
  1
2
  7
SLDTEXTSTYLE0
 73
     1
 44
1.0
  0
MTEXT
  5
BA
330
1F
100
AcDbEntity
  8
0
  6
Continuous
 62
     7
370
     0
100
AcDbMText
 10
34.5833333333
 20
290.6680244618
 30
0.0
 40
1.8520833333
 41
0.0
 71
     1
 72
     1
  1
1
  7
SLDTEXTSTYLE0
 73
     1
 44
1.0
  0
MTEXT
  5
BB
330
1F
100
AcDbEntity
  8
0
  6
Continuous
 62
     7
370
     0
100
AcDbMText
 10
234.1666666667
 20
290.6680244618
 30
0.0
 40
1.8520833333
 41
0.0
 71
     1
 72
     1
  1
5
  7
SLDTEXTSTYLE0
 73
     1
 44
1.0
  0
MTEXT
  5
BC
330
1F
100
AcDbEntity
  8
0
  6
Continuous
 62
     7
370
     0
100
AcDbMText
 10
411.6666666667
 20
174.6680204618
 30
0.0
 40
1.8520833333
 41
0.0
 71
     1
 72
     1
  1
C
  7
SLDTEXTSTYLE0
 73
     1
 44
1.0
  0
MTEXT
  5
BD
330
1F
100
AcDbEntity
  8
0
  6
Continuous
 62
     7
370
     0
100
AcDbMText
 10
411.6666666667
 20
124.6680204618
 30
0.0
 40
1.8520833333
 41
0.0
 71
     1
 72
     1
  1
D
  7
SLDTEXTSTYLE0
 73
     1
 44
1.0
  0
MTEXT
  5
BE
330
1F
100
AcDbEntity
  8
0
  6
Continuous
 62
     7
370
     0
100
AcDbMText
 10
184.1666666667
 20
290.6680244618
 30
0.0
 40
1.8520833333
 41
0.0
 71
     1
 72
     1
  1
4
  7
SLDTEXTSTYLE0
 73
     1
 44
1.0
  0
MTEXT
  5
BF
330
1F
100
AcDbEntity
  8
0
  6
Continuous
 62
     7
370
     0
100
AcDbMText
 10
284.1666666667
 20
290.6680244618
 30
0.0
 40
1.8520833333
 41
0.0
 71
     1
 72
     1
  1
6
  7
SLDTEXTSTYLE0
 73
     1
 44
1.0
  0
MTEXT
  5
C0
330
1F
100
AcDbEntity
  8
0
  6
Continuous
 62
     7
370
     0
100
AcDbMText
 10
334.1666666667
 20
290.6680244618
 30
0.0
 40
1.8520833333
 41
0.0
 71
     1
 72
     1
  1
7
  7
SLDTEXTSTYLE0
 73
     1
 44
1.0
  0
MTEXT
  5
C1
330
1F
100
AcDbEntity
  8
0
  6
Continuous
 62
     7
370
     0
100
AcDbMText
 10
384.1666666667
 20
290.6680244618
 30
0.0
 40
1.8520833333
 41
0.0
 71
     1
 72
     1
  1
8
  7
SLDTEXTSTYLE0
 73
     1
 44
1.0
  0
MTEXT
  5
C2
330
1F
100
AcDbEntity
  8
0
  6
Continuous
 62
     7
370
     0
100
AcDbMText
 10
411.6666666667
 20
274.6680204618
 30
0.0
 40
1.8520833333
 41
0.0
 71
     1
 72
     1
  1
A
  7
SLDTEXTSTYLE0
 73
     1
 44
1.0
  0
MTEXT
  5
C3
330
1F
100
AcDbEntity
  8
0
  6
Continuous
 62
     7
370
     0
100
AcDbMText
 10
411.6666666667
 20
224.6680204618
 30
0.0
 40
1.8520833333
 41
0.0
 71
     1
 72
     1
  1
B
  7
SLDTEXTSTYLE0
 73
     1
 44
1.0
  0
MTEXT
  5
C4
330
1F
100
AcDbEntity
  8
0
  6
Continuous
 62
     7
370
     0
100
AcDbMText
 10
351.3236684767
 20
15.3628143309
 30
0.0
 40
3.2
 41
0.0
 71
     2
 72
     1
  1
P043 - suporte placa de comando
  7
SLDTEXTSTYLE0
 73
     1
 44
1.0
  0
MTEXT
  5
C5
330
1F
100
AcDbEntity
  8
0
  6
Continuous
 62
     7
370
     0
100
AcDbMText
 10
228.2551864991
 20
8.0436101118
 30
0.0
 40
2.0
 41
0.0
 71
     1
 72
     1
  1
ESPESSURA: 1,5mm
  7
SLDTEXTSTYLE0
 73
     1
 44
1.0
  0
MTEXT
  5
C6
330
1F
100
AcDbEntity
  8
0
  6
Continuous
 62
     7
370
     0
100
AcDbMText
 10
254.8511999126
 20
16.4845695419
 30
0.0
 40
2.0
 41
0.0
 71
     2
 72
     1
  1
Chapa de Aço SEA 1020
  7
SLDTEXTSTYLE0
 73
     1
 44
1.0
  0
MTEXT
  5
C7
330
1F
100
AcDbEntity
  8
0
  6
Continuous
 62
     7
370
     0
100
AcDbMText
 10
406.7007320234
 20
8.1775893942
 30
0.0
 40
2.0
 41
0.0
 71
     1
 72
     1
  1
A3
  7
SLDTEXTSTYLE0
 73
     1
 44
1.0
  0
MTEXT
  5
C9
330
1F
100
AcDbEntity
  8
0
  6
Continuous
 62
     7
370
     0
100
AcDbMText
 10
372.2782944278
 20
8.0446212953
 30
0.0
 40
2.0
 41
0.0
 71
     1
 72
     1
  1
FOLHA 1 DE  1
  7
SLDTEXTSTYLE1
 73
     1
 44
1.0
  0
MTEXT
  5
CA
330
1F
100
AcDbEntity
  8
0
  6
Continuous
 62
     7
370
     0
100
AcDbMText
 10
327.8739661175
 20
8.0446212953
 30
0.0
 40
2.0
 41
0.0
 71
     1
 72
     1
  1
ESCALA: 2:1
  7
SLDTEXTSTYLE0
 73
     1
 44
1.0
  0
MTEXT
  5
CB
330
1F
100
AcDbEntity
  8
0
  6
Continuous
 62
     7
370
     0
100
AcDbMText
 10
283.4682507293
 20
20.6041821634
 30
0.0
 40
1.5
 41
0.0
 71
     1
 72
     1
  1
ARQUIVO:
  7
SLDTEXTSTYLE0
 73
     1
 44
1.0
  0
MTEXT
  5
CC
330
1F
100
AcDbEntity
  8
0
  6
Continuous
 62
     7
370
     0
100
AcDbMText
 10
327.7561869366
 20
41.2783343442
 30
0.0
 40
1.5
 41
0.0
 71
     1
 72
     1
  1
CONJUNTO:
  7
SLDTEXTSTYLE0
 73
     1
 44
1.0
  0
MTEXT
  5
CD
330
1F
100
AcDbEntity
  8
0
  6
Continuous
 62
     7
370
     0
100
AcDbMText
 10
283.5708847492
 20
8.0446212953
 30
0.0
 40
2.0
 41
0.0
 71
     1
 72
     1
  1
REVISÃO:
  7
SLDTEXTSTYLE0
 73
     1
 44
1.0
  0
MTEXT
  5
CE
330
1F
100
AcDbEntity
  8
0
  6
Continuous
 62
     7
370
     0
100
AcDbMText
 10
228.2551864991
 20
20.5046621902
 30
0.0
 40
1.5
 41
0.0
 71
     1
 72
     1
  1
MATERIAL:
  7
SLDTEXTSTYLE0
 73
     1
 44
1.0
  0
MTEXT
  5
CF
330
1F
100
AcDbEntity
  8
0
  6
Continuous
 62
     7
370
     0
100
AcDbMText
 10
261.0927285536
 20
41.5014826917
 30
0.0
 40
1.5
 41
0.0
 71
     1
 72
     1
  1
VISTO
  7
SLDTEXTSTYLE0
 73
     1
 44
1.0
  0
MTEXT
  5
D0
330
1F
100
AcDbEntity
  8
0
  6
Continuous
 62
     7
370
     0
100
AcDbMText
 10
274.2878177404
 20
41.5014826917
 30
0.0
 40
1.5
 41
0.0
 71
     1
 72
     1
  1
DATA
  7
SLDTEXTSTYLE0
 73
     1
 44
1.0
  0
MTEXT
  5
D1
330
1F
100
AcDbEntity
  8
0
  6
Continuous
 62
     7
370
     0
100
AcDbMText
 10
242.1222392177
 20
41.5014826917
 30
0.0
 40
1.5
 41
0.0
 71
     1
 72
     1
  1
NOME
  7
SLDTEXTSTYLE0
 73
     1
 44
1.0
  0
MTEXT
  5
D2
330
1F
100
AcDbEntity
  8
0
  6
Continuous
 62
     7
370
     0
100
AcDbMText
 10
228.2551864991
 20
24.7337047088
 30
0.0
 40
1.5
 41
0.0
 71
     1
 72
     1
  1
APROV.
  7
SLDTEXTSTYLE0
 73
     1
 44
1.0
  0
MTEXT
  5
D3
330
1F
100
AcDbEntity
  8
0
  6
Continuous
 62
     7
370
     0
100
AcDbMText
 10
228.2017224083
 20
29.0642960613
 30
0.0
 40
1.5
 41
0.0
 71
     1
 72
     1
  1
CONF.
  7
SLDTEXTSTYLE0
 73
     1
 44
1.0
  0
MTEXT
  5
D4
330
1F
100
AcDbEntity
  8
0
  6
Continuous
 62
     7
370
     0
100
AcDbMText
 10
228.2104688676
 20
33.1544072182
 30
0.0
 40
1.5
 41
0.0
 71
     1
 72
     1
  1
DES.
  7
SLDTEXTSTYLE0
 73
     1
 44
1.0
  0
MTEXT
  5
D5
330
1F
100
AcDbEntity
  8
0
  6
Continuous
 62
     7
370
     0
100
AcDbMText
 10
228.0121492441
 20
37.4297149441
 30
0.0
 40
1.5
 41
0.0
 71
     1
 72
     1
  1
PROJ.
  7
SLDTEXTSTYLE0
 73
     1
 44
1.0
  0
MTEXT
  5
D6
330
1F
100
AcDbEntity
  8
0
  6
Continuous
 62
     7
370
     0
100
AcDbMText
 10
327.5038427567
 20
28.9300024209
 30
0.0
 40
1.5
 41
0.0
 71
     1
 72
     1
  1
DESCRIÇÃO:
  7
SLDTEXTSTYLE0
 73
     1
 44
1.0
  0
MTEXT
  5
D7
330
1F
100
AcDbEntity
  8
0
  6
Continuous
 62
     7
370
     0
100
AcDbMText
 10
370.2540461459
 20
26.6837179248
 30
0.0
 40
3.2
 41
0.0
 71
     2
 72
     1
  1
Suporte placa comando
  7
SLDTEXTSTYLE0
 73
     1
 44
1.0
  0
INSERT
  5
DE
330
1F
100
AcDbEntity
  8
0
  6
Continuous
 62
     7
370
     0
100
AcDbBlockReference
  2
SW_NOTE_0
 10
228.3936687456
 20
56.9873699325
 30
0.0
  0
MTEXT
  5
DF
330
1F
100
AcDbEntity
  8
0
  6
Continuous
 62
     7
370
     0
100
AcDbMText
 10
263.2169977781
 20
58.9209713093
 30
0.0
 40
1.5
 41
0.0
 71
     1
 72
     1
  1
QUANTIDADE:
  7
SLDTEXTSTYLE0
 73
     1
 44
1.0
  0
MTEXT
  5
E0
330
1F
100
AcDbEntity
  8
0
  6
Continuous
 62
     7
370
     0
100
AcDbMText
 10
285.4119592066
 20
52.8815988004
 30
0.0
 40
2.7
 41
0.0
 71
     2
 72
     1
  1
2 peça(s) por conjunto
  7
SLDTEXTSTYLE0
 73
     1
 44
1.0
  0
LINE
  5
E1
330
1F
100
AcDbEntity
  8
0
  6
Continuous
 62
     7
370
    25
100
AcDbLine
 10
81.2568459321
 20
230.6735451694
 30
0.0
 11
81.2568459321
 21
276.8843758191
 31
0.0
  0
LINE
  5
E2
330
1F
100
AcDbEntity
  8
0
  6
Continuous
 62
     7
370
    25
100
AcDbLine
 10
81.2568459321
 20
276.8843758191
 30
0.0
 11
101.2568454851
 21
276.8843758191
 31
0.0
  0
LINE
  5
E3
330
1F
100
AcDbEntity
  8
0
  6
Continuous
 62
     7
370
    25
100
AcDbLine
 10
101.2568454851
 20
276.8843758191
 30
0.0
 11
101.2568454851
 21
230.6735451694
 31
0.0
  0
LINE
  5
E4
330
1F
100
AcDbEntity
  8
0
  6
Continuous
 62
     7
370
    25
100
AcDbLine
 10
101.2568454851
 20
230.6735451694
 30
0.0
 11
81.2568459321
 21
230.6735451694
 31
0.0
  0
LINE
  5
E5
330
1F
100
AcDbEntity
  8
0
  6
Continuous
 62
     7
370
    25
100
AcDbLine
 10
88.2568456825
 20
243.1777023019
 30
0.0
 11
94.2568457346
 21
243.1777023019
 31
0.0
  0
LWPOLYLINE
  5
E6
330
1F
100
AcDbEntity
  8
0
  6
Continuous
 62
     7
370
    25
100
AcDbPolyline
 90
       22
 70
   128
 43
0.0
 10
94.2568457346
 20
243.1777023019
 10
94.7784937114
 20
243.2115580031
 10
95.28848898
 20
243.3123653375
 10
95.7754389044
 20
243.4778756464
 10
96.2284658697
 20
243.7043884832
 10
96.6374501247
 20
243.9868467853
 10
96.9932558607
 20
244.3189385004
 10
97.2879347052
 20
244.6932482167
 10
97.5149036046
 20
245.1014104081
 10
97.6690933701
 20
245.5343110706
 10
97.7470590394
 20
245.9822780687
 10
97.7470590394
 20
246.4353053552
 10
97.6690933701
 20
246.8832723532
 10
97.5149036046
 20
247.3161730158
 10
97.2879347052
 20
247.7243368203
 10
96.9932558607
 20
248.0986449235
 10
96.6374501247
 20
248.4307366386
 10
96.2284658697
 20
248.7131949407
 10
95.7754389044
 20
248.9397093905
 10
95.28848898
 20
249.1052180864
 10
94.7784937114
 20
249.2060254208
 10
94.2568457346
 20
249.239881122
  0
LINE
  5
E7
330
1F
100
AcDbEntity
  8
0
  6
Continuous
 62
     7
370
    25
100
AcDbLine
 10
94.2568457346
 20
249.239881122
 30
0.0
 11
88.2568456825
 21
249.239881122
 31
0.0
  0
LWPOLYLINE
  5
E8
330
1F
100
AcDbEntity
  8
0
  6
Continuous
 62
     7
370
    25
100
AcDbPolyline
 90
       22
 70
   128
 43
0.0
 10
88.2568456825
 20
249.239881122
 10
87.7351977058
 20
249.2060254208
 10
87.2252024371
 20
249.1052180864
 10
86.7382525127
 20
248.9397093905
 10
86.2852255475
 20
248.7131949407
 10
85.8762412924
 20
248.4307366386
 10
85.5204355564
 20
248.0986449235
 10
85.2257567119
 20
247.7243368203
 10
84.9987878125
 20
247.3161730158
 10
84.8445980471
 20
246.8832723532
 10
84.7666323777
 20
246.4353053552
 10
84.7666323777
 20
245.9822780687
 10
84.8445980471
 20
245.5343110706
 10
84.9987878125
 20
245.1014104081
 10
85.2257567119
 20
244.6932482167
 10
85.5204355564
 20
244.3189385004
 10
85.8762412924
 20
243.9868467853
 10
86.2852255475
 20
243.7043884832
 10
86.7382525127
 20
243.4778756464
 10
87.2252024371
 20
243.3123653375
 10
87.7351977058
 20
243.2115580031
 10
88.2568456825
 20
243.1777023019
  0
LINE
  5
E9
330
1F
100
AcDbEntity
  8
0
  6
Continuous
 62
     7
370
    25
100
AcDbLine
 10
88.2568456825
 20
266.5603904237
 30
0.0
 11
94.2568457346
 21
266.5603904237
 31
0.0
  0
LWPOLYLINE
  5
EA
330
1F
100
AcDbEntity
  8
0
  6
Continuous
 62
     7
370
    25
100
AcDbPolyline
 90
       22
 70
   128
 43
0.0
 10
94.2568457346
 20
266.5603904237
 10
94.7784937114
 20
266.5942428987
 10
95.28848898
 20
266.6950518462
 10
95.7754389044
 20
266.8605621552
 10
96.2284658697
 20
267.0870733788
 10
96.6374501247
 20
267.369533294
 10
96.9932558607
 20
267.7016250091
 10
97.2879347052
 20
268.0759347254
 10
97.5149036046
 20
268.4840969168
 10
97.6690933701
 20
268.9169975794
 10
97.7470590394
 20
269.3649645774
 10
97.7470590394
 20
269.8179902508
 10
97.6690933701
 20
270.2659572489
 10
97.5149036046
 20
270.6988579114
 10
97.2879347052
 20
271.107023329
 10
96.9932558607
 20
271.4813298191
 10
96.6374501247
 20
271.8134247604
 10
96.2284658697
 20
272.0958814494
 10
95.7754389044
 20
272.3223958992
 10
95.28848898
 20
272.487902982
 10
94.7784937114
 20
272.5887119295
 10
94.2568457346
 20
272.6225676307
  0
LINE
  5
EB
330
1F
100
AcDbEntity
  8
0
  6
Continuous
 62
     7
370
    25
100
AcDbLine
 10
94.2568457346
 20
272.6225676307
 30
0.0
 11
88.2568456825
 21
272.6225676307
 31
0.0
  0
LWPOLYLINE
  5
EC
330
1F
100
AcDbEntity
  8
0
  6
Continuous
 62
     7
370
    25
100
AcDbPolyline
 90
       22
 70
   128
 43
0.0
 10
88.2568456825
 20
272.6225676307
 10
87.7351977058
 20
272.5887119295
 10
87.2252024371
 20
272.487902982
 10
86.7382525127
 20
272.3223958992
 10
86.2852255475
 20
272.0958814494
 10
85.8762412924
 20
271.8134247604
 10
85.5204355564
 20
271.4813298191
 10
85.2257567119
 20
271.107023329
 10
84.9987878125
 20
270.6988579114
 10
84.8445980471
 20
270.2659572489
 10
84.7666323777
 20
269.8179902508
 10
84.7666323777
 20
269.3649645774
 10
84.8445980471
 20
268.9169975794
 10
84.9987878125
 20
268.4840969168
 10
85.2257567119
 20
268.0759347254
 10
85.5204355564
 20
267.7016250091
 10
85.8762412924
 20
267.369533294
 10
86.2852255475
 20
267.0870733788
 10
86.7382525127
 20
266.8605621552
 10
87.2252024371
 20
266.6950518462
 10
87.7351977058
 20
266.5942428987
 10
88.2568456825
 20
266.5603904237
  0
LINE
  5
ED
330
1F
100
AcDbEntity
  8
0
  6
Continuous
 62
     7
370
    25
100
AcDbLine
 10
81.2568459321
 20
278.3843758321
 30
0.0
 11
101.2568454851
 21
278.3843758321
 31
0.0
  0
LINE
  5
EE
330
1F
100
AcDbEntity
  8
0
  6
Continuous
 62
     7
370
    25
100
AcDbLine
 10
101.2568454851
 20
276.8843758191
 30
0.0
 11
101.2568454851
 21
278.3843758321
 31
0.0
  0
LINE
  5
EF
330
1F
100
AcDbEntity
  8
0
  6
Continuous
 62
     7
370
    25
100
AcDbLine
 10
81.2568459321
 20
276.8843758191
 30
0.0
 11
81.2568459321
 21
278.3843758321
 31
0.0
  0
ARC
  5
F0
330
1F
100
AcDbEntity
  8
0
  6
Continuous
 62
     7
370
    25
100
AcDbCircle
 10
88.1114927458
 20
271.5055729412
 30
0.0
 40
3.448247375915085
100
AcDbArc
 50
199.7301172361
 51
272.4158876036
  0
LINE
  5
F1
330
1F
100
AcDbEntity
  8
0
  6
Continuous
 62
     7
370
    25
100
AcDbLine
 10
88.2568456825
 20
268.0603904367
 30
0.0
 11
88.2568456825
 21
266.5603904237
 31
0.0
  0
ARC
  5
F2
330
1F
100
AcDbEntity
  8
0
  6
Continuous
 62
     7
370
    25
100
AcDbCircle
 10
94.4151925882
 20
271.4862556213
 30
0.0
 40
3.429522705754697
100
AcDbArc
 50
267.3536162856
 51
340.5003788747
  0
LINE
  5
F3
330
1F
100
AcDbEntity
  8
0
  6
Continuous
 62
     7
370
    25
100
AcDbLine
 10
94.2568457346
 20
268.0603904367
 30
0.0
 11
94.2568457346
 21
266.5603904237
 31
0.0
  0
LINE
  5
F4
330
1F
100
AcDbEntity
  8
0
  6
Continuous
 62
     7
370
    25
100
AcDbLine
 10
88.2568456825
 20
268.0603904367
 30
0.0
 11
94.2568457346
 21
268.0603904367
 31
0.0
  0
LINE
  5
F5
330
1F
100
AcDbEntity
  8
0
  6
Continuous
 62
     7
370
    25
100
AcDbLine
 10
101.2568454851
 20
185.7153281013
 30
0.0
 11
81.2568459321
 21
185.7153281013
 31
0.0
  0
LINE
  5
F6
330
1F
100
AcDbEntity
  8
0
  6
Continuous
 62
     7
370
    25
100
AcDbLine
 10
101.2568454851
 20
182.7153277101
 30
0.0
 11
81.2568459321
 21
182.7153277101
 31
0.0
  0
LINE
  5
F7
330
1F
100
AcDbEntity
  8
0
  6
Continuous
 62
     7
370
    25
100
AcDbLine
 10
101.2568454851
 20
185.7153281013
 30
0.0
 11
101.2568454851
 21
182.7153277101
 31
0.0
  0
LINE
  5
F8
330
1F
100
AcDbEntity
  8
0
  6
Continuous
 62
     7
370
    25
100
AcDbLine
 10
81.2568459321
 20
185.7153281013
 30
0.0
 11
81.2568459321
 21
182.7153277101
 31
0.0
  0
LINE
  5
F9
330
1F
100
AcDbEntity
  8
0
  6
Continuous
 62
     7
370
    25
100
AcDbLine
 10
81.2568459321
 20
187.1885275112
 30
0.0
 11
101.2568454851
 21
187.1885275112
 31
0.0
  0
LINE
  5
FA
330
1F
100
AcDbEntity
  8
0
  6
Continuous
 62
     7
370
    25
100
AcDbLine
 10
81.2568459321
 20
187.1885275112
 30
0.0
 11
81.2568459321
 21
229.9369454229
 31
0.0
  0
LINE
  5
FB
330
1F
100
AcDbEntity
  8
0
  6
Continuous
 62
     7
370
    25
100
AcDbLine
 10
101.2568454851
 20
229.9369454229
 30
0.0
 11
81.2568459321
 21
229.9369454229
 31
0.0
  0
LINE
  5
FC
330
1F
100
AcDbEntity
  8
0
  6
Continuous
 62
     7
370
    25
100
AcDbLine
 10
101.2568454851
 20
229.9369454229
 30
0.0
 11
101.2568454851
 21
187.1885275112
 31
0.0
  0
LINE
  5
FD
330
1F
100
AcDbEntity
  8
0
  6
Continuous
 62
     7
370
    25
100
AcDbLine
 10
88.2568456825
 20
244.6777023149
 30
0.0
 11
88.2568456825
 21
243.1777023019
 31
0.0
  0
ARC
  5
FE
330
1F
100
AcDbEntity
  8
0
  6
Continuous
 62
     7
370
    25
100
AcDbCircle
 10
88.1114982225
 20
248.1228921381
 30
0.0
 40
3.448254457290853
100
AcDbArc
 50
199.7301757537
 51
272.4157915577
  0
LINE
  5
FF
330
1F
100
AcDbEntity
  8
0
  6
Continuous
 62
     7
370
    25
100
AcDbLine
 10
94.2568457346
 20
244.6777023149
 30
0.0
 11
94.2568457346
 21
243.1777023019
 31
0.0
  0
ARC
  5
100
330
1F
100
AcDbEntity
  8
0
  6
Continuous
 62
     7
370
    25
100
AcDbCircle
 10
94.4151886443
 20
248.1035725532
 30
0.0
 40
3.429527571897164
100
AcDbArc
 50
267.3536860027
 51
340.5003466858
  0
LINE
  5
101
330
1F
100
AcDbEntity
  8
0
  6
Continuous
 62
     7
370
    25
100
AcDbLine
 10
88.2568456825
 20
244.6777023149
 30
0.0
 11
94.2568457346
 21
244.6777023149
 31
0.0
  0
LINE
  5
102
330
1F
100
AcDbEntity
  8
0
  6
Continuous
 62
     7
370
    25
100
AcDbLine
 10
81.2568459321
 20
187.1885275112
 30
0.0
 11
81.2568459321
 21
185.7153281394
 31
0.0
  0
LINE
  5
103
330
1F
100
AcDbEntity
  8
0
  6
Continuous
 62
     7
370
    25
100
AcDbLine
 10
101.2568454851
 20
185.7153281394
 30
0.0
 11
101.2568454851
 21
187.1885275112
 31
0.0
  0
LINE
  5
104
330
1F
100
AcDbEntity
  8
0
  6
Continuous
 62
     7
370
    25
100
AcDbLine
 10
101.2568454851
 20
229.9369454229
 30
0.0
 11
101.2568454851
 21
230.6735451694
 31
0.0
  0
LINE
  5
105
330
1F
100
AcDbEntity
  8
0
  6
Continuous
 62
     7
370
    25
100
AcDbLine
 10
81.2568459321
 20
230.6735451694
 30
0.0
 11
81.2568459321
 21
229.9369454229
 31
0.0
  0
DIMENSION
  5
106
330
1F
100
AcDbEntity
  8
CAMADA_1
100
AcDbDimension
  2
_D
 10
65.2568457086
 20
278.3843769936
 30
0.0
 11
65.2568457086
 21
231.8868250262
 31
0.0
 70
   160
  1
<>
 71
     2
 42
-1.0
  3
SLDDIMSTYLE0
100
AcDbAlignedDimension
 13
81.2568457086
 23
182.7153272352
 33
0.0
 14
81.2568457086
 24
278.3843769936
 34
0.0
 50
90.0
100
AcDbRotatedDimension
  0
LINE
  5
111
330
1F
100
AcDbEntity
  8
0
  6
Continuous
 62
     7
370
    25
100
AcDbLine
 10
81.2568459321
 20
122.0798057522
 30
0.0
 11
101.2568454851
 21
122.0798057522
 31
0.0
  0
LINE
  5
112
330
1F
100
AcDbEntity
  8
0
  6
Continuous
 62
     7
370
    25
100
AcDbLine
 10
81.2568459321
 20
148.7596412673
 30
0.0
 11
81.2568459321
 21
122.0798057522
 31
0.0
  0
LINE
  5
113
330
1F
100
AcDbEntity
  8
0
  6
Continuous
 62
     7
370
    25
100
AcDbLine
 10
101.2568454851
 20
148.7596412673
 30
0.0
 11
81.2568459321
 21
148.7596412673
 31
0.0
  0
LINE
  5
114
330
1F
100
AcDbEntity
  8
0
  6
Continuous
 62
     7
370
    25
100
AcDbLine
 10
101.2568454851
 20
122.0798057522
 30
0.0
 11
101.2568454851
 21
148.7596412673
 31
0.0
  0
LWPOLYLINE
  5
115
330
1F
100
AcDbEntity
  8
0
  6
Continuous
 62
     7
370
    25
100
AcDbPolyline
 90
       22
 70
   128
 43
0.0
 10
94.2568457346
 20
141.5403627808
 10
94.7784937114
 20
141.5208161826
 10
95.28848898
 20
141.462615041
 10
95.7754389044
 20
141.3670576195
 10
96.2284658697
 20
141.2362803723
 10
96.6374501247
 20
141.0732029955
 10
96.9932558607
 20
140.8814697544
 10
97.2879347052
 20
140.6653619389
 10
97.5149036046
 20
140.4297093879
 10
97.6690933701
 20
140.1797740738
 10
97.7470590394
 20
139.9211402069
 10
97.7470590394
 20
139.6595847811
 10
97.6690933701
 20
139.4009509142
 10
97.5149036046
 20
139.1510156001
 10
97.2879347052
 20
138.9153621177
 10
96.9932558607
 20
138.6992552336
 10
96.6374501247
 20
138.5075219925
 10
96.2284658697
 20
138.3444446157
 10
95.7754389044
 20
138.2136664371
 10
95.28848898
 20
138.118109947
 10
94.7784937114
 20
138.0599088053
 10
94.2568457346
 20
138.0403622071
  0
LINE
  5
116
330
1F
100
AcDbEntity
  8
0
  6
Continuous
 62
     7
370
    25
100
AcDbLine
 10
88.2568456825
 20
141.5403627808
 30
0.0
 11
94.2568457346
 21
141.5403627808
 31
0.0
  0
LWPOLYLINE
  5
117
330
1F
100
AcDbEntity
  8
0
  6
Continuous
 62
     7
370
    25
100
AcDbPolyline
 90
       22
 70
   128
 43
0.0
 10
88.2568456825
 20
138.0403622071
 10
87.7351977058
 20
138.0599088053
 10
87.2252024371
 20
138.118109947
 10
86.7382525127
 20
138.2136664371
 10
86.2852255475
 20
138.3444446157
 10
85.8762412924
 20
138.5075219925
 10
85.5204355564
 20
138.6992552336
 10
85.2257567119
 20
138.9153621177
 10
84.9987878125
 20
139.1510156001
 10
84.8445980471
 20
139.4009509142
 10
84.7666323777
 20
139.6595847811
 10
84.7666323777
 20
139.9211402069
 10
84.8445980471
 20
140.1797740738
 10
84.9987878125
 20
140.4297093879
 10
85.2257567119
 20
140.6653619389
 10
85.5204355564
 20
140.8814697544
 10
85.8762412924
 20
141.0732029955
 10
86.2852255475
 20
141.2362803723
 10
86.7382525127
 20
141.3670576195
 10
87.2252024371
 20
141.462615041
 10
87.7351977058
 20
141.5208161826
 10
88.2568456825
 20
141.5403627808
  0
LINE
  5
118
330
1F
100
AcDbEntity
  8
0
  6
Continuous
 62
     7
370
    25
100
AcDbLine
 10
94.2568457346
 20
138.0403622071
 30
0.0
 11
88.2568456825
 21
138.0403622071
 31
0.0
  0
LWPOLYLINE
  5
119
330
1F
100
AcDbEntity
  8
0
  6
Continuous
 62
     7
370
    25
100
AcDbPolyline
 90
       22
 70
   128
 43
0.0
 10
94.2568457346
 20
128.0403614993
 10
94.7784937114
 20
128.0208167638
 10
95.28848898
 20
127.9626146908
 10
95.7754389044
 20
127.8670572694
 10
96.2284658697
 20
127.7362809534
 10
96.6374501247
 20
127.5732026453
 10
96.9932558607
 20
127.3814694042
 10
97.2879347052
 20
127.1653615887
 10
97.5149036046
 20
126.9297090377
 10
97.6690933701
 20
126.6797737236
 10
97.7470590394
 20
126.4211398567
 10
97.7470590394
 20
126.1595853622
 10
97.6690933701
 20
125.9009514953
 10
97.5149036046
 20
125.6510161813
 10
97.2879347052
 20
125.4153617676
 10
96.9932558607
 20
125.1992558147
 10
96.6374501247
 20
125.007520711
 10
96.2284658697
 20
124.8444442655
 10
95.7754389044
 20
124.7136660869
 10
95.28848898
 20
124.6181105281
 10
94.7784937114
 20
124.5599084552
 10
94.2568457346
 20
124.540361857
  0
LINE
  5
11A
330
1F
100
AcDbEntity
  8
0
  6
Continuous
 62
     7
370
    25
100
AcDbLine
 10
88.2568456825
 20
128.0403614993
 30
0.0
 11
94.2568457346
 21
128.0403614993
 31
0.0
  0
LWPOLYLINE
  5
11B
330
1F
100
AcDbEntity
  8
0
  6
Continuous
 62
     7
370
    25
100
AcDbPolyline
 90
       22
 70
   128
 43
0.0
 10
88.2568456825
 20
124.540361857
 10
87.7351977058
 20
124.5599084552
 10
87.2252024371
 20
124.6181105281
 10
86.7382525127
 20
124.7136660869
 10
86.2852255475
 20
124.8444442655
 10
85.8762412924
 20
125.007520711
 10
85.5204355564
 20
125.1992558147
 10
85.2257567119
 20
125.4153617676
 10
84.9987878125
 20
125.6510161813
 10
84.8445980471
 20
125.9009514953
 10
84.7666323777
 20
126.1595853622
 10
84.7666323777
 20
126.4211398567
 10
84.8445980471
 20
126.6797737236
 10
84.9987878125
 20
126.9297090377
 10
85.2257567119
 20
127.1653615887
 10
85.5204355564
 20
127.3814694042
 10
85.8762412924
 20
127.5732026453
 10
86.2852255475
 20
127.7362809534
 10
86.7382525127
 20
127.8670572694
 10
87.2252024371
 20
127.9626146908
 10
87.7351977058
 20
128.0208167638
 10
88.2568456825
 20
128.0403614993
  0
LINE
  5
11C
330
1F
100
AcDbEntity
  8
0
  6
Continuous
 62
     7
370
    25
100
AcDbLine
 10
94.2568457346
 20
124.540361857
 30
0.0
 11
88.2568456825
 21
124.540361857
 31
0.0
  0
LINE
  5
11D
330
1F
100
AcDbEntity
  8
0
  6
Continuous
 62
     7
370
    25
100
AcDbLine
 10
101.2568454851
 20
119.4817295182
 30
0.0
 11
101.2568454851
 21
122.0798057522
 31
0.0
  0
LINE
  5
11E
330
1F
100
AcDbEntity
  8
0
  6
Continuous
 62
     7
370
    25
100
AcDbLine
 10
81.2568459321
 20
119.4817295182
 30
0.0
 11
101.2568454851
 21
119.4817295182
 31
0.0
  0
LINE
  5
11F
330
1F
100
AcDbEntity
  8
0
  6
Continuous
 62
     7
370
    25
100
AcDbLine
 10
81.2568459321
 20
119.4817295182
 30
0.0
 11
81.2568459321
 21
122.0798057522
 31
0.0
  0
LINE
  5
120
330
1F
100
AcDbEntity
  8
0
  6
Continuous
 62
     7
370
    25
100
AcDbLine
 10
94.2568457346
 20
128.0403614993
 30
0.0
 11
94.2568457346
 21
125.4422852654
 31
0.0
  0
ARC
  5
121
330
1F
100
AcDbEntity
  8
0
  6
Continuous
 62
     7
370
    25
100
AcDbCircle
 10
94.3630929989
 20
119.6712543271
 30
0.0
 40
5.772008885328517
100
AcDbArc
 50
67.1761212003
 51
91.0547218086
  0
LINE
  5
122
330
1F
100
AcDbEntity
  8
0
  6
Continuous
 62
     7
370
    25
100
AcDbLine
 10
88.2568456825
 20
128.0403614993
 30
0.0
 11
88.2568456825
 21
125.4422852654
 31
0.0
  0
ARC
  5
123
330
1F
100
AcDbEntity
  8
0
  6
Continuous
 62
     7
370
    25
100
AcDbCircle
 10
88.1664426251
 20
119.5888570954
 30
0.0
 40
5.854126241748641
100
AcDbArc
 50
89.1151677773
 51
112.6539892138
  0
LINE
  5
124
330
1F
100
AcDbEntity
  8
0
  6
Continuous
 62
     7
370
    25
100
AcDbLine
 10
88.2568456825
 20
125.4422852654
 30
0.0
 11
94.2568457346
 21
125.4422852654
 31
0.0
  0
LINE
  5
125
330
1F
100
AcDbEntity
  8
0
  6
Continuous
 62
     7
370
    25
100
AcDbLine
 10
94.2568457346
 20
141.5403627808
 30
0.0
 11
94.2568457346
 21
138.9422865469
 31
0.0
  0
ARC
  5
126
330
1F
100
AcDbEntity
  8
0
  6
Continuous
 62
     7
370
    25
100
AcDbCircle
 10
94.3630768396
 20
133.1711825598
 30
0.0
 40
5.772081624328171
100
AcDbArc
 50
67.17625104
 51
91.0545480853
  0
LINE
  5
127
330
1F
100
AcDbEntity
  8
0
  6
Continuous
 62
     7
370
    25
100
AcDbLine
 10
88.2568456825
 20
141.5403627808
 30
0.0
 11
88.2568456825
 21
138.9422865469
 31
0.0
  0
ARC
  5
128
330
1F
100
AcDbEntity
  8
0
  6
Continuous
 62
     7
370
    25
100
AcDbCircle
 10
88.1664594568
 20
133.0887820015
 30
0.0
 40
5.854202348089528
100
AcDbArc
 50
89.1153440348
 51
112.65385684
  0
LINE
  5
129
330
1F
100
AcDbEntity
  8
0
  6
Continuous
 62
     7
370
    25
100
AcDbLine
 10
88.2568456825
 20
138.9422865469
 30
0.0
 11
94.2568457346
 21
138.9422865469
 31
0.0
  0
LINE
  5
12A
330
1F
100
AcDbEntity
  8
0
  6
Continuous
 62
     7
370
    25
100
AcDbLine
 10
81.2568459321
 20
148.7596412673
 30
0.0
 11
81.2568459321
 21
149.3589364237
 31
0.0
  0
LINE
  5
12B
330
1F
100
AcDbEntity
  8
0
  6
Continuous
 62
     7
370
    25
100
AcDbLine
 10
101.2568454851
 20
149.3589364237
 30
0.0
 11
81.2568459321
 21
149.3589364237
 31
0.0
  0
LINE
  5
12C
330
1F
100
AcDbEntity
  8
0
  6
Continuous
 62
     7
370
    25
100
AcDbLine
 10
101.2568454851
 20
149.3589364237
 30
0.0
 11
101.2568454851
 21
148.7596412673
 31
0.0
  0
ARC
  5
12D
330
1F
100
AcDbEntity
  8
0
  6
Continuous
 62
     7
370
    25
100
AcDbCircle
 10
97.3409366055
 20
138.880202782
 30
0.0
 40
2.500000000000017
100
AcDbArc
 50
179.1401021781
 51
198.7301830229
  0
ARC
  5
12E
330
1F
100
AcDbEntity
  8
0
  6
Continuous
 62
     7
370
    25
100
AcDbCircle
 10
85.1727548116
 20
138.8857363658
 30
0.0
 40
2.499999999999998
100
AcDbArc
 50
341.1404629202
 51
0.7332142621
  0
DIMENSION
  5
12F
330
1F
100
AcDbEntity
  8
CAMADA_1
100
AcDbDimension
  2
_D_1
 10
65.2568457086
 20
149.3589363658
 30
0.0
 11
65.2568457086
 21
136.714932719
 31
0.0
 70
   160
  1
<>
 71
     2
 42
-1.0
  3
SLDDIMSTYLE0
100
AcDbAlignedDimension
 13
81.2568457086
 23
119.4817288703
 33
0.0
 14
81.2568457086
 24
149.3589363658
 34
0.0
 50
90.0
100
AcDbRotatedDimension
  0
INSERT
  5
144
330
1F
100
AcDbEntity
  8
CAMADA_1
100
AcDbBlockReference
  2
SW_CENTERMARKSYMBOL_0
 10
97.3409366055
 20
138.880202782
 30
0.0
  0
INSERT
  5
150
330
1F
100
AcDbEntity
  8
CAMADA_1
100
AcDbBlockReference
  2
SW_CENTERMARKSYMBOL_1
 10
85.1727548116
 20
138.8857363658
 30
0.0
  0
LINE
  5
151
330
1F
100
AcDbEntity
  8
0
  6
Continuous
 62
     7
370
    25
100
AcDbLine
 10
180.9942494756
 20
276.8843758191
 30
0.0
 11
178.3961732417
 21
278.3843758321
 31
0.0
  0
LINE
  5
152
330
1F
100
AcDbEntity
  8
0
  6
Continuous
 62
     7
370
    25
100
AcDbLine
 10
154.3144139605
 20
230.6735451694
 30
0.0
 11
180.9942494756
 21
276.8843758191
 31
0.0
  0
LINE
  5
153
330
1F
100
AcDbEntity
  8
0
  6
Continuous
 62
     7
370
    25
100
AcDbLine
 10
154.3144139605
 20
230.6735451694
 30
0.0
 11
151.7163377266
 21
232.1735451824
 31
0.0
  0
LINE
  5
154
330
1F
100
AcDbEntity
  8
0
  6
Continuous
 62
     7
370
    25
100
AcDbLine
 10
151.7163377266
 20
232.1735451824
 30
0.0
 11
178.3961732417
 21
278.3843758321
 31
0.0
  0
ARC
  5
155
330
1F
100
AcDbEntity
  8
0
  6
Continuous
 62
     7
370
    25
100
AcDbCircle
 10
155.590242628
 20
229.9369452954
 30
0.0
 40
1.473199999999991
100
AcDbArc
 50
150.0
 51
180.0
  0
LINE
  5
156
330
1F
100
AcDbEntity
  8
0
  6
Continuous
 62
     7
370
    25
100
AcDbLine
 10
154.1170425701
 20
229.9369454229
 30
0.0
 11
151.1170425702
 21
229.9369451389
 31
0.0
  0
ARC
  5
157
330
1F
100
AcDbEntity
  8
0
  6
Continuous
 62
     7
370
    25
100
AcDbCircle
 10
155.590242628
 20
229.9369452954
 30
0.0
 40
4.473199999999991
100
AcDbArc
 50
150.0
 51
180.0
  0
LINE
  5
158
330
1F
100
AcDbEntity
  8
0
  6
Continuous
 62
     7
370
    25
100
AcDbLine
 10
151.1170428663
 20
187.1885285286
 30
0.0
 11
154.1170432575
 21
187.1885275112
 31
0.0
  0
LINE
  5
159
330
1F
100
AcDbEntity
  8
0
  6
Continuous
 62
     7
370
    25
100
AcDbLine
 10
151.1170428663
 20
187.1885285286
 30
0.0
 11
151.1170425702
 21
229.9369451389
 31
0.0
  0
LINE
  5
15A
330
1F
100
AcDbEntity
  8
0
  6
Continuous
 62
     7
370
    25
100
AcDbLine
 10
154.1170432575
 20
187.1885275112
 30
0.0
 11
154.1170425701
 21
229.9369454229
 31
0.0
  0
LINE
  5
15B
330
1F
100
AcDbEntity
  8
0
  6
Continuous
 62
     7
370
    25
100
AcDbLine
 10
173.2550963283
 20
185.7153281013
 30
0.0
 11
173.255095311
 21
182.7153277101
 31
0.0
  0
LINE
  5
15C
330
1F
100
AcDbEntity
  8
0
  6
Continuous
 62
     7
370
    25
100
AcDbLine
 10
173.255095311
 20
182.7153277101
 30
0.0
 11
155.5902433746
 21
182.7153268169
 31
0.0
  0
LINE
  5
15D
330
1F
100
AcDbEntity
  8
0
  6
Continuous
 62
     7
370
    25
100
AcDbLine
 10
155.5902433746
 20
182.7153268169
 30
0.0
 11
155.5902427788
 21
185.7153281394
 31
0.0
  0
LINE
  5
15E
330
1F
100
AcDbEntity
  8
0
  6
Continuous
 62
     7
370
    25
100
AcDbLine
 10
173.2550963283
 20
185.7153281013
 30
0.0
 11
155.5902427788
 21
185.7153281394
 31
0.0
  0
ARC
  5
15F
330
1F
100
AcDbEntity
  8
0
  6
Continuous
 62
     7
370
    25
100
AcDbCircle
 10
155.590242628
 20
187.1885272352
 30
0.0
 40
1.473199999999991
100
AcDbArc
 50
180.0
 51
270.0
  0
ARC
  5
160
330
1F
100
AcDbEntity
  8
0
  6
Continuous
 62
     7
370
    25
100
AcDbCircle
 10
155.590242628
 20
187.1885272352
 30
0.0
 40
4.473199999999991
100
AcDbArc
 50
180.0
 51
270.0
  0
DIMENSION
  5
161
330
1F
100
AcDbEntity
  8
CAMADA_1
100
AcDbDimension
  2
_D_2
 10
155.590242628
 20
164.5472161618
 30
0.0
 11
164.4226697183
 21
164.5472161618
 31
0.0
 70
   160
  1
<>
 71
     2
 42
-1.0
  3
SLDDIMSTYLE1
100
AcDbAlignedDimension
 13
173.2550968086
 23
182.7153272352
 33
0.0
 14
155.590242628
 24
182.7153272352
 34
0.0
100
AcDbRotatedDimension
  0
DIMENSION
  5
16E
330
1F
100
AcDbEntity
  8
CAMADA_1
100
AcDbDimension
  2
_D_3
 10
120.969129786
 20
229.9369452954
 30
0.0
 11
120.969129786
 21
208.5627362653
 31
0.0
 70
   160
  1
<>
 71
     2
 42
-1.0
  3
SLDDIMSTYLE0
100
AcDbAlignedDimension
 13
151.117042628
 23
187.1885272352
 33
0.0
 14
151.117042628
 24
229.9369452954
 34
0.0
 50
90.0
100
AcDbRotatedDimension
  0
DIMENSION
  5
178
330
1F
100
AcDbEntity
  8
CAMADA_1
100
AcDbDimension
  2
_D_4
 10
211.0941755309
 20
259.506176957
 30
0.0
 11
196.0841178043
 21
233.5079943499
 31
0.0
 70
   160
  1
<>
 71
     2
 42
-1.0
  3
SLDDIMSTYLE0
100
AcDbAlignedDimension
 13
154.3144140032
 23
230.6735452954
 33
0.0
 14
180.9942501236
 24
276.8843769936
 34
0.0
 50
60.0
100
AcDbRotatedDimension
  0
DIMENSION
  5
182
330
1F
100
AcDbEntity
  8
CAMADA_1
100
AcDbDimension
  2
_D_5
 10
151.7163377918
 20
232.1735452954
 30
0.0
 11
163.9709659634
 21
274.6869386206
 31
0.0
 70
   162
  1
<>
 71
     1
 42
-1.0
  3
SLDDIMSTYLE2
100
AcDb2LineAngularDimension
 13
151.117042628
 23
229.9369452954
 33
0.0
 14
151.117042628
 24
187.1885272352
 34
0.0
 15
178.3961739122
 25
278.3843769936
 35
0.0
 16
162.8696733372
 26
274.9969505522
 36
0.0
  0
LINE
  5
18C
330
1F
100
AcDbEntity
  8
0
  6
CENTERX2
 62
     7
100
AcDbLine
 10
296.1801155782
 20
163.5682617473
 30
0.0
 11
296.1801155782
 21
143.5682617473
 31
0.0
  0
LINE
  5
18D
330
1F
100
AcDbEntity
  8
0
  6
CENTERX2
 62
     7
100
AcDbLine
 10
342.0420613976
 20
163.5682617473
 30
0.0
 11
342.0420613976
 21
143.5682617473
 31
0.0
  0
CIRCLE
  5
18E
330
1F
100
AcDbEntity
  8
0
  6
Continuous
 62
     7
370
    25
100
AcDbCircle
 10
287.8449697588
 20
147.4841708503
 30
0.0
 40
2.5
  0
ARC
  5
18F
330
1F
100
AcDbEntity
  8
0
  6
Continuous
 62
     7
370
    25
100
AcDbCircle
 10
360.7590010682
 20
156.5682617473
 30
0.0
 40
3.500000000000057
100
AcDbArc
 50
0.0
 51
180.0
  0
LINE
  5
190
330
1F
100
AcDbEntity
  8
0
  6
Continuous
 62
     7
370
    25
100
AcDbLine
 10
357.2590001798
 20
150.5682617212
 30
0.0
 11
357.2590001798
 21
156.5682617734
 31
0.0
  0
ARC
  5
191
330
1F
100
AcDbEntity
  8
0
  6
Continuous
 62
     7
370
    25
100
AcDbCircle
 10
360.7590010682
 20
150.5682617473
 30
0.0
 40
3.500000000000057
100
AcDbArc
 50
180.0
 51
0.0
  0
LINE
  5
192
330
1F
100
AcDbEntity
  8
0
  6
Continuous
 62
     7
370
    25
100
AcDbLine
 10
364.2590013272
 20
156.5682617734
 30
0.0
 11
364.2590013272
 21
150.5682617212
 31
0.0
  0
ARC
  5
193
330
1F
100
AcDbEntity
  8
0
  6
Continuous
 62
     7
370
    25
100
AcDbCircle
 10
387.7590010682
 20
156.5682617473
 30
0.0
 40
3.5
100
AcDbArc
 50
0.0
 51
180.0
  0
LINE
  5
194
330
1F
100
AcDbEntity
  8
0
  6
Continuous
 62
     7
370
    25
100
AcDbLine
 10
384.2590027428
 20
150.5682617212
 30
0.0
 11
384.2590027428
 21
156.5682617734
 31
0.0
  0
ARC
  5
195
330
1F
100
AcDbEntity
  8
0
  6
Continuous
 62
     7
370
    25
100
AcDbCircle
 10
387.7590010682
 20
150.5682617473
 30
0.0
 40
3.5
100
AcDbArc
 50
180.0
 51
0.0
  0
LINE
  5
196
330
1F
100
AcDbEntity
  8
0
  6
Continuous
 62
     7
370
    25
100
AcDbLine
 10
391.2590020275
 20
156.5682617734
 30
0.0
 11
391.2590020275
 21
150.5682617212
 31
0.0
  0
LINE
  5
197
330
1F
100
AcDbEntity
  8
0
  6
Continuous
 62
     7
370
    25
100
AcDbLine
 10
276.1801169193
 20
163.5682615238
 30
0.0
 11
276.1801169193
 21
143.5682619708
 31
0.0
  0
LINE
  5
198
330
1F
100
AcDbEntity
  8
0
  6
Continuous
 62
     7
370
    25
100
AcDbLine
 10
396.1801142371
 20
163.5682615238
 30
0.0
 11
276.1801169193
 21
163.5682615238
 31
0.0
  0
LINE
  5
199
330
1F
100
AcDbEntity
  8
0
  6
Continuous
 62
     7
370
    25
100
AcDbLine
 10
396.1801142371
 20
143.5682619708
 30
0.0
 11
396.1801142371
 21
163.5682615238
 31
0.0
  0
LINE
  5
19A
330
1F
100
AcDbEntity
  8
0
  6
Continuous
 62
     7
370
    25
100
AcDbLine
 10
276.1801169193
 20
143.5682619708
 30
0.0
 11
396.1801142371
 21
143.5682619708
 31
0.0
  0
CIRCLE
  5
19B
330
1F
100
AcDbEntity
  8
0
  6
Continuous
 62
     7
370
    25
100
AcDbCircle
 10
287.839436175
 20
159.6523526442
 30
0.0
 40
2.5
  0
DIMENSION
  5
19C
330
1F
100
AcDbEntity
  8
CAMADA_1
100
AcDbDimension
  2
_D_6
 10
276.1801155782
 20
173.5682617473
 30
0.0
 11
336.1801155782
 21
173.5682617473
 31
0.0
 70
   160
  1
<>
 71
     2
 42
-1.0
  3
SLDDIMSTYLE0
100
AcDbAlignedDimension
 13
396.1801155782
 23
163.5682617473
 33
0.0
 14
276.1801155782
 24
163.5682617473
 34
0.0
100
AcDbRotatedDimension
  0
DIMENSION
  5
1A6
330
1F
100
AcDbEntity
  8
CAMADA_1
100
AcDbDimension
  2
_D_7
 10
266.1801155782
 20
143.5682617473
 30
0.0
 11
266.1801155782
 21
153.5682617473
 31
0.0
 70
   160
  1
<>
 71
     2
 42
-1.0
  3
SLDDIMSTYLE1
100
AcDbAlignedDimension
 13
276.1801155782
 23
163.5682617473
 33
0.0
 14
276.1801155782
 24
143.5682617473
 34
0.0
 50
90.0
100
AcDbRotatedDimension
  0
DIMENSION
  5
1B2
330
1F
100
AcDbEntity
  8
CAMADA_1
100
AcDbDimension
  2
_D_8
 10
289.6072031279
 20
157.8845856913
 30
0.0
 11
267.9235370719
 21
179.5682717473
 31
0.0
 70
   163
  1
M3
 71
     1
 42
-1.0
  3
SLDDIMSTYLE3
100
AcDbDiametricDimension
 15
286.071669222
 25
161.4201195972
 35
0.0
 40
0.0
  0
DIMENSION
  5
1BE
330
1F
100
AcDbEntity
  8
CAMADA_1
100
AcDbDimension
  2
_D_9
 10
289.6127367117
 20
149.2519378033
 30
0.0
 11
267.9290706557
 21
127.5682717473
 31
0.0
 70
   163
  1
M3
 71
     1
 42
-1.0
  3
SLDDIMSTYLE3
100
AcDbDiametricDimension
 15
286.0772028058
 25
145.7164038974
 35
0.0
 40
0.0
  0
MTEXT
  5
1C7
330
1F
100
AcDbEntity
  8
0
  6
Continuous
 62
     7
370
     0
100
AcDbMText
 10
337.4357731853
 20
152.3943021791
 30
0.0
 40
3.5
 41
0.0
 71
     2
 72
     1
  1
PARA BAIXO  30°  R 0.74
  7
SLDTEXTSTYLE2
 11
-3.491481338843133E-15
 21
1.0
 31
0.0
 73
     1
 44
1.0
  0
MTEXT
  5
1C8
330
1F
100
AcDbEntity
  8
0
  6
Continuous
 62
     7
370
     0
100
AcDbMText
 10
291.5738273659
 20
152.3943021791
 30
0.0
 40
3.5
 41
0.0
 71
     2
 72
     1
  1
PARA BAIXO  90°  R 0.74
  7
SLDTEXTSTYLE2
 11
-3.491481338843133E-15
 21
1.0
 31
0.0
 73
     1
 44
1.0
  0
INSERT
  5
1D4
330
1F
100
AcDbEntity
  8
CAMADA_1
100
AcDbBlockReference
  2
SW_CENTERMARKSYMBOL_2
 10
287.839436175
 20
159.6523526442
 30
0.0
  0
INSERT
  5
1E0
330
1F
100
AcDbEntity
  8
CAMADA_1
100
AcDbBlockReference
  2
SW_CENTERMARKSYMBOL_3
 10
287.8449697588
 20
147.4841708503
 30
0.0
  0
LINE
  5
1E1
330
1F
100
AcDbEntity
  8
0
  6
Continuous
 62
     7
370
    25
100
AcDbLine
 10
42.3679867495
 20
74.2972118018
 30
0.0
 11
23.5024941358
 21
101.1394239101
 31
0.0
  0
LINE
  5
1E2
330
1F
100
AcDbEntity
  8
0
  6
Continuous
 62
     7
370
    25
100
AcDbLine
 10
23.5024941358
 20
101.1394239101
 30
0.0
 11
37.6446294434
 21
92.9753429744
 31
0.0
  0
LINE
  5
1E3
330
1F
100
AcDbEntity
  8
0
  6
Continuous
 62
     7
370
    25
100
AcDbLine
 10
37.6446294434
 20
92.9753429744
 30
0.0
 11
56.5101220571
 21
66.133130866
 31
0.0
  0
LINE
  5
1E4
330
1F
100
AcDbEntity
  8
0
  6
Continuous
 62
     7
370
    25
100
AcDbLine
 10
56.5101220571
 20
66.133130866
 30
0.0
 11
42.3679867495
 21
74.2972118018
 31
0.0
  0
LINE
  5
1E5
330
1F
100
AcDbEntity
  8
0
  6
Continuous
 62
     7
370
    25
100
AcDbLine
 10
42.2129332683
 20
78.7029993703
 30
0.0
 11
46.4555739923
 21
76.2537750135
 31
0.0
  0
LWPOLYLINE
  5
1E6
330
1F
100
AcDbEntity
  8
0
  6
Continuous
 62
     7
370
    25
100
AcDbPolyline
 90
       22
 70
   128
 43
0.0
 10
46.4555739923
 20
76.2537750135
 10
46.8106132818
 20
76.0605017548
 10
47.1300799727
 20
75.9108749782
 10
47.4068362657
 20
75.8082390391
 10
47.6347012265
 20
75.7548847673
 10
47.8085836477
 20
75.7520056203
 10
47.9246004215
 20
75.7996644277
 10
47.9801585289
 20
75.8967984011
 10
47.9740182599
 20
76.0412355358
 10
47.9063159332
 20
76.2297510977
 10
47.7785642256
 20
76.4581331381
 10
47.5936166103
 20
76.7212804208
 10
47.3556047957
 20
77.013314266
 10
47.0698452115
 20
77.3277116032
 10
46.7427217882
 20
77.6574489255
 10
46.3815417358
 20
77.9951601609
 10
45.9943732121
 20
78.3333016574
 10
45.5898645529
 20
78.6643205739
 10
45.1770519769
 20
78.9808221284
 10
44.7651577411
 20
79.2757351206
 10
44.3633822063
 20
79.5424726184
 10
43.9806998524
 20
79.7750769993
  0
LINE
  5
1E7
330
1F
100
AcDbEntity
  8
0
  6
Continuous
 62
     7
370
    25
100
AcDbLine
 10
43.9806998524
 20
79.7750769993
 30
0.0
 11
39.7380591284
 21
82.224301356
 31
0.0
  0
LWPOLYLINE
  5
1E8
330
1F
100
AcDbEntity
  8
0
  6
Continuous
 62
     7
370
    25
100
AcDbPolyline
 90
       22
 70
   128
 43
0.0
 10
39.7380591284
 20
82.224301356
 10
39.3830198388
 20
82.4175746148
 10
39.0635531479
 20
82.5672013914
 10
38.7867961965
 20
82.6698382675
 10
38.5589318942
 20
82.7231916023
 10
38.385049473
 20
82.7260707493
 10
38.2690326992
 20
82.6784119419
 10
38.2134739333
 20
82.5812789055
 10
38.2196148608
 20
82.4368408338
 10
38.2873171875
 20
82.2483252719
 10
38.4150688951
 20
82.0199432315
 10
38.6000165104
 20
81.7567959488
 10
38.838028325
 20
81.4647621036
 10
39.1237879092
 20
81.1503647664
 10
39.4509106739
 20
80.8206283811
 10
39.8120913849
 20
80.4829162087
 10
40.1992599086
 20
80.1447747122
 10
40.6037685677
 20
79.8137557957
 10
41.0165804853
 20
79.4972551782
 10
41.4284753796
 20
79.202341249
 10
41.8302509144
 20
78.9356037512
 10
42.2129332683
 20
78.7029993703
  0
LINE
  5
1E9
330
1F
100
AcDbEntity
  8
0
  6
Continuous
 62
     7
370
    25
100
AcDbLine
 10
32.6669908161
 20
92.2851632354
 30
0.0
 11
36.9096315401
 21
89.8359388787
 31
0.0
  0
LWPOLYLINE
  5
1EA
330
1F
100
AcDbEntity
  8
0
  6
Continuous
 62
     7
370
    25
100
AcDbPolyline
 90
       22
 70
   128
 43
0.0
 10
36.9096315401
 20
89.8359388787
 10
37.2646721468
 20
89.6426637459
 10
37.5841381791
 20
89.4930379063
 10
37.860894472
 20
89.3904019673
 10
38.0887600914
 20
89.3370467585
 10
38.262641854
 20
89.3341685485
 10
38.3786586278
 20
89.3818273559
 10
38.4342167352
 20
89.4789613292
 10
38.4280764663
 20
89.6233984639
 10
38.3603741396
 20
89.8119140259
 10
38.2326224319
 20
90.0402960662
 10
38.0476754752
 20
90.3034424119
 10
37.8096636606
 20
90.5954762572
 10
37.5239040764
 20
90.9098735944
 10
37.1967799946
 20
91.2396118536
 10
36.8356006007
 20
91.577322152
 10
36.4484307599
 20
91.9154655226
 10
36.0439227593
 20
92.246483502
 10
35.6311101832
 20
92.5629850565
 10
35.219216606
 20
92.8578971117
 10
34.8174404127
 20
93.1246355465
 10
34.4347580588
 20
93.3572399274
  0
LINE
  5
1EB
330
1F
100
AcDbEntity
  8
0
  6
Continuous
 62
     7
370
    25
100
AcDbLine
 10
34.4347580588
 20
93.3572399274
 30
0.0
 11
30.1921173348
 21
95.8064642842
 31
0.0
  0
LWPOLYLINE
  5
1EC
330
1F
100
AcDbEntity
  8
0
  6
Continuous
 62
     7
370
    25
100
AcDbPolyline
 90
       22
 70
   128
 43
0.0
 10
30.1921173348
 20
95.8064642842
 10
29.8370780452
 20
95.999737543
 10
29.5176120129
 20
96.1493633825
 10
29.2408544028
 20
96.2520011956
 10
29.0129901005
 20
96.3053545304
 10
28.8391070208
 20
96.3082346144
 10
28.7230915641
 20
96.260573933
 10
28.6675321396
 20
96.1634418336
 10
28.6736737257
 20
96.0190028249
 10
28.7413760524
 20
95.830487263
 10
28.86912776
 20
95.6021052227
 10
29.0540747168
 20
95.338958877
 10
29.2920865314
 20
95.0469250317
 10
29.5778461155
 20
94.7325276945
 10
29.9049688803
 20
94.4027913093
 10
30.2661495913
 20
94.0650791368
 10
30.653318115
 20
93.7269376403
 10
31.0578274327
 20
93.3959177869
 10
31.4706386917
 20
93.0794181064
 10
31.882533586
 20
92.7845041771
 10
32.2843097793
 20
92.5177657424
 10
32.6669908161
 20
92.2851632354
  0
LINE
  5
1ED
330
1F
100
AcDbEntity
  8
0
  6
Continuous
 62
     7
370
    25
100
AcDbLine
 10
37.6446294434
 20
92.9753429744
 30
0.0
 11
39.4817467665
 21
95.2606994591
 31
0.0
  0
LINE
  5
1EE
330
1F
100
AcDbEntity
  8
0
  6
Continuous
 62
     7
370
    25
100
AcDbLine
 10
23.5024941358
 20
101.1394239101
 30
0.0
 11
25.3396114589
 21
103.4247803949
 31
0.0
  0
LINE
  5
1EF
330
1F
100
AcDbEntity
  8
0
  6
Continuous
 62
     7
370
    25
100
AcDbLine
 10
25.3396114589
 20
103.4247803949
 30
0.0
 11
39.4817467665
 21
95.2606994591
 31
0.0
  0
LINE
  5
1F0
330
1F
100
AcDbEntity
  8
0
  6
Continuous
 62
     7
370
    25
100
AcDbLine
 10
39.4817467665
 20
95.2606994591
 30
0.0
 11
58.3472393802
 21
68.4184873508
 31
0.0
  0
LINE
  5
1F1
330
1F
100
AcDbEntity
  8
0
  6
Continuous
 62
     7
370
    25
100
AcDbLine
 10
58.3472393802
 20
68.4184873508
 30
0.0
 11
56.5101220571
 21
66.133130866
 31
0.0
  0
LINE
  5
1F2
330
1F
100
AcDbEntity
  8
0
  6
Continuous
 62
     7
370
    25
100
AcDbLine
 10
37.6576521621
 20
90.7664694212
 30
0.0
 11
36.9096315401
 21
89.8359388787
 31
0.0
  0
LINE
  5
1F3
330
1F
100
AcDbEntity
  8
0
  6
Continuous
 62
     7
370
    25
100
AcDbLine
 10
33.8159571095
 20
93.7144663814
 30
0.0
 11
32.6669908161
 21
92.2851632354
 31
0.0
  0
LINE
  5
1F4
330
1F
100
AcDbEntity
  8
0
  6
Continuous
 62
     7
370
    25
100
AcDbLine
 10
47.2035946143
 20
77.1843055561
 30
0.0
 11
46.4555739923
 21
76.2537750135
 31
0.0
  0
LINE
  5
1F5
330
1F
100
AcDbEntity
  8
0
  6
Continuous
 62
     7
370
    25
100
AcDbLine
 10
43.3618995617
 20
80.1323025163
 30
0.0
 11
42.2129332683
 21
78.7029993703
 31
0.0
  0
LINE
  5
1F6
330
1F
100
AcDbEntity
  8
0
  6
Continuous
 62
     7
370
    25
100
AcDbLine
 10
42.507548912
 20
38.8704876999
 30
0.0
 11
56.6496842196
 21
30.7064067641
 31
0.0
  0
LINE
  5
1F7
330
1F
100
AcDbEntity
  8
0
  6
Continuous
 62
     7
370
    25
100
AcDbLine
 10
42.507548912
 20
38.8704876999
 30
0.0
 11
42.5075493981
 21
73.7763158489
 31
0.0
  0
LINE
  5
1F8
330
1F
100
AcDbEntity
  8
0
  6
Continuous
 62
     7
370
    25
100
AcDbLine
 10
56.6496847057
 20
65.6122349131
 30
0.0
 11
42.5075493981
 21
73.7763158489
 31
0.0
  0
LINE
  5
1F9
330
1F
100
AcDbEntity
  8
0
  6
Continuous
 62
     7
370
    25
100
AcDbLine
 10
56.6496847057
 20
65.6122349131
 30
0.0
 11
56.6496842196
 21
30.7064067641
 31
0.0
  0
LINE
  5
1FA
330
1F
100
AcDbEntity
  8
0
  6
Continuous
 62
     7
370
    25
100
AcDbLine
 10
56.6496842196
 20
30.7064067641
 30
0.0
 11
58.7710048398
 21
31.9310199222
 31
0.0
  0
LINE
  5
1FB
330
1F
100
AcDbEntity
  8
0
  6
Continuous
 62
     7
370
    25
100
AcDbLine
 10
58.7710050492
 20
66.836846849
 30
0.0
 11
56.6496847057
 21
65.6122349131
 31
0.0
  0
LINE
  5
1FC
330
1F
100
AcDbEntity
  8
0
  6
Continuous
 62
     7
370
    25
100
AcDbLine
 10
58.7710050492
 20
66.836846849
 30
0.0
 11
58.7710048398
 21
31.9310199222
 31
0.0
  0
ARC
  5
1FD
330
1F
100
AcDbEntity
  8
0
  6
Continuous
 62
     7
370
    25
100
AcDbCircle
 10
55.7462825106
 20
65.6493324565
 30
0.0
 40
0.9041635658843541
100
AcDbArc
 50
357.6485123211
 51
32.3492296141
  0
ARC
  5
1FE
330
1F
100
AcDbEntity
  8
0
  6
Continuous
 62
     7
370
    25
100
AcDbCircle
 10
56.0279250936
 20
66.9494886894
 30
0.0
 40
2.745391743792424
100
AcDbArc
 50
357.6485271336
 51
32.3491998003
  0
ARC
  5
1FF
330
1F
100
AcDbEntity
  8
0
  6
Continuous
 62
     7
370
    25
100
AcDbCircle
 10
41.604147203
 20
73.8134133923
 30
0.0
 40
0.9041635658842944
100
AcDbArc
 50
357.6485123211
 51
32.3492296141
  0
LINE
  5
200
330
1F
100
AcDbEntity
  8
0
  6
Continuous
 62
     7
370
    25
100
AcDbLine
 10
55.6079744268
 20
26.4524895745
 30
0.0
 11
43.1170378339
 21
19.2416260963
 31
0.0
  0
LINE
  5
201
330
1F
100
AcDbEntity
  8
0
  6
Continuous
 62
     7
370
    25
100
AcDbLine
 10
43.1170371145
 20
21.6912484361
 30
0.0
 11
43.1170378339
 21
19.2416260963
 31
0.0
  0
LINE
  5
202
330
1F
100
AcDbEntity
  8
0
  6
Continuous
 62
     7
370
    25
100
AcDbLine
 10
55.607974848
 20
28.9021133332
 30
0.0
 11
43.1170371145
 21
21.6912484361
 31
0.0
  0
LINE
  5
203
330
1F
100
AcDbEntity
  8
0
  6
Continuous
 62
     7
370
    25
100
AcDbLine
 10
55.607974848
 20
28.9021133332
 30
0.0
 11
55.6079744268
 21
26.4524895745
 31
0.0
  0
LINE
  5
204
330
1F
100
AcDbEntity
  8
0
  6
Continuous
 62
     7
370
    25
100
AcDbLine
 10
28.9749018069
 20
29.8553293718
 30
0.0
 11
28.9749025262
 21
27.405707032
 31
0.0
  0
LINE
  5
205
330
1F
100
AcDbEntity
  8
0
  6
Continuous
 62
     7
370
    25
100
AcDbLine
 10
43.1170371145
 20
21.6912484361
 30
0.0
 11
28.9749018069
 21
29.8553293718
 31
0.0
  0
LINE
  5
206
330
1F
100
AcDbEntity
  8
0
  6
Continuous
 62
     7
370
    25
100
AcDbLine
 10
43.1170378339
 20
19.2416260963
 30
0.0
 11
28.9749025262
 21
27.405707032
 31
0.0
  0
LINE
  5
207
330
1F
100
AcDbEntity
  8
0
  6
Continuous
 62
     7
370
    25
100
AcDbLine
 10
28.9749018069
 20
29.8553293718
 30
0.0
 11
41.4658395404
 21
37.0661942689
 31
0.0
  0
LINE
  5
208
330
1F
100
AcDbEntity
  8
0
  6
Continuous
 62
     7
370
    25
100
AcDbLine
 10
41.4658395404
 20
37.0661942689
 30
0.0
 11
55.607974848
 21
28.9021133332
 31
0.0
  0
LWPOLYLINE
  5
209
330
1F
100
AcDbEntity
  8
0
  6
Continuous
 62
     7
370
    25
100
AcDbPolyline
 90
       37
 70
   128
 43
0.0
 10
46.8246898512
 20
27.028609856
 10
47.1585143291
 20
26.8669031879
 10
47.5359095547
 20
26.7411185855
 10
47.9454083655
 20
26.6550762291
 10
48.3745667094
 20
26.6113919573
 10
48.8103446786
 20
26.6113909406
 10
49.2395042633
 20
26.6550778808
 10
49.6490004261
 20
26.7411182188
 10
50.0263975741
 20
26.8669043548
 10
50.3602211181
 20
27.0286083687
 10
50.6403353947
 20
27.2213216807
 10
50.8582246783
 20
27.4391882262
 10
51.0072707451
 20
27.6755868023
 10
51.0829424301
 20
27.9233338085
 10
51.0829422241
 20
28.174904255
 10
51.0072702264
 20
28.4226523361
 10
50.8582251712
 20
28.659051047
 10
50.6403363328
 20
28.8769160631
 10
50.3602232971
 20
29.069630055
 10
50.0263973492
 20
29.2313354943
 10
49.6490014651
 20
29.3571210337
 10
49.2395033129
 20
29.4431624531
 10
48.810344969
 20
29.4868467249
 10
48.3745661884
 20
29.4868461325
 10
47.9454085558
 20
29.4431622203
 10
47.5359096177
 20
29.3571198863
 10
47.1585142689
 20
29.2313342323
 10
46.8246874558
 20
29.0696285076
 10
46.5445764483
 20
28.8769169064
 10
46.3266853656
 20
28.659049879
 10
46.1776420739
 20
28.4226532988
 10
46.1019684369
 20
28.1749032646
 10
46.1019694543
 20
27.9233344272
 10
46.177641452
 20
27.6755863461
 10
46.3266858486
 20
27.4391885722
 10
46.5445753456
 20
27.221322619
 10
46.8246898512
 20
27.028609856
  0
LWPOLYLINE
  5
20A
330
1F
100
AcDbEntity
  8
0
  6
Continuous
 62
     7
370
    25
100
AcDbPolyline
 90
       37
 70
   128
 43
0.0
 10
38.2243974473
 20
31.9979691983
 10
38.5582222545
 20
31.8362623401
 10
38.9356181386
 20
31.7104768007
 10
39.3451162908
 20
31.6244353813
 10
39.7742746348
 20
31.5807511095
 10
40.2100545559
 20
31.5807531208
 10
40.6392121886
 20
31.624437033
 10
41.0487111267
 20
31.710479367
 10
41.4261053348
 20
31.836263602
 10
41.7599321479
 20
31.9979693268
 10
42.0400454367
 20
32.1906837658
 10
42.2579342382
 20
32.4085479554
 10
42.4069798111
 20
32.6449473734
 10
42.4826511668
 20
32.8926945698
 10
42.4826512901
 20
33.1442648262
 10
42.4069799509
 20
33.3920119703
 10
42.2579337551
 20
33.6284092622
 10
42.0400453988
 20
33.8462766343
 10
41.7599308931
 20
34.0389893973
 10
41.4261064152
 20
34.2006960655
 10
41.048710049
 20
34.3264792489
 10
40.6392130374
 20
34.4125220872
 10
40.2100540349
 20
34.456207296
 10
39.7742749252
 20
34.4562068938
 10
39.3451176217
 20
34.4125227915
 10
38.9356191776
 20
34.3264796155
 10
38.5582243109
 20
34.2006963175
 10
38.2243984856
 20
34.0389894657
 10
37.944284209
 20
33.8462761537
 10
37.7263960661
 20
33.6284110271
 10
37.5773499992
 20
33.392012451
 10
37.5016783143
 20
33.1442654448
 10
37.5016773797
 20
32.8926935794
 10
37.5773493774
 20
32.6449454983
 10
37.7263944325
 20
32.4085467874
 10
37.9442832709
 20
32.1906817713
 10
38.2243974473
 20
31.9979691983
  0
ARC
  5
20B
330
1F
100
AcDbEntity
  8
0
  6
Continuous
 62
     7
370
    25
100
AcDbCircle
 10
48.5924576449
 20
22.9939587909
 30
0.0
 40
4.052173161268225
100
AcDbArc
 50
70.9542003899
 51
109.0458532564
  0
ARC
  5
20C
330
1F
100
AcDbEntity
  8
0
  6
Continuous
 62
     7
370
    25
100
AcDbCircle
 10
54.3880038521
 20
30.8093262956
 30
0.0
 40
2.264020873317202
100
AcDbArc
 50
302.6054882185
 51
357.3945082768
  0
ARC
  5
20D
330
1F
100
AcDbEntity
  8
0
  6
Continuous
 62
     7
370
    25
100
AcDbCircle
 10
51.9036730669
 20
32.2435218275
 30
0.0
 40
6.874438385765698
100
AcDbArc
 50
302.6054888999
 51
357.3945198536
  0
ARC
  5
20E
330
1F
100
AcDbEntity
  8
0
  6
Continuous
 62
     7
370
    25
100
AcDbCircle
 10
40.2458685445
 20
38.9734072313
 30
0.0
 40
2.264020873317204
100
AcDbArc
 50
302.6054882185
 51
357.3945082768
  0
ARC
  5
20F
330
1F
100
AcDbEntity
  8
0
  6
Continuous
 62
     7
370
    25
100
AcDbCircle
 10
39.9921624026
 20
27.9632681889
 30
0.0
 40
4.052222340445992
100
AcDbArc
 50
70.9543710744
 51
109.0455440091
  0
ENDSEC
  0
SECTION
  2
OBJECTS
  0
DICTIONARY
  5
C
330
0
100
AcDbDictionary
281
     1
  3
ACAD_GROUP
350
D
  3
ACAD_LAYOUT
350
1A
  3
ACAD_MLINESTYLE
350
17
  3
ACAD_PLOTSETTINGS
350
19
  3
ACAD_PLOTSTYLENAME
350
E
  3
ACAD_SCALELIST
350
47
  0
DICTIONARY
  5
D
102
{ACAD_REACTORS
330
C
102
}
330
C
100
AcDbDictionary
281
     1
  0
DICTIONARY
  5
1A
102
{ACAD_REACTORS
330
C
102
}
330
C
100
AcDbDictionary
281
     1
  3
Layout1
350
1E
  3
Layout2
350
26
  3
Model
350
22
  0
DICTIONARY
  5
17
102
{ACAD_REACTORS
330
C
102
}
330
C
100
AcDbDictionary
281
     1
  3
Standard
350
18
  0
DICTIONARY
  5
19
102
{ACAD_REACTORS
330
C
102
}
330
C
100
AcDbDictionary
281
     1
  0
ACDBDICTIONARYWDFLT
  5
E
102
{ACAD_REACTORS
330
C
102
}
330
C
100
AcDbDictionary
281
     1
  3
Normal
350
F
100
AcDbDictionaryWithDefault
340
F
  0
DICTIONARY
  5
47
102
{ACAD_REACTORS
330
C
102
}
330
C
100
AcDbDictionary
281
     1
  3
A0
350
48
  3
A1
350
49
  3
A2
350
4A
  3
A3
350
4B
  3
A4
350
4C
  3
A5
350
4D
  3
A6
350
4E
  3
A7
350
4F
  3
A8
350
50
  3
A9
350
51
  3
B0
350
52
  3
B1
350
53
  3
B2
350
54
  3
B3
350
55
  3
B4
350
56
  3
B5
350
57
  3
B6
350
58
  3
B7
350
59
  3
B8
350
5A
  3
B9
350
5B
  3
C0
350
5C
  3
C1
350
5D
  3
C2
350
5E
  3
C3
350
5F
  3
C4
350
60
  3
C5
350
61
  3
C6
350
62
  3
C7
350
63
  3
C8
350
64
  3
C9
350
65
  3
D0
350
66
  3
D1
350
67
  3
D2
350
68
  0
LAYOUT
  5
1E
102
{ACAD_REACTORS
330
1A
102
}
330
1A
100
AcDbPlotSettings
  1

  2
none_device
  4

  6

 40
0.0
 41
0.0
 42
0.0
 43
0.0
 44
0.0
 45
0.0
 46
0.0
 47
0.0
 48
0.0
 49
0.0
140
0.0
141
0.0
142
1.0
143
1.0
 70
   688
 72
     1
 73
     0
 74
     5
  7

 75
    16
147
1.0
148
0.0
149
0.0
100
AcDbLayout
  1
Layout1
 70
     1
 71
     1
 10
0.0
 20
0.0
 11
420.0
 21
297.0
 12
0.0
 22
0.0
 32
0.0
 14
1.0000000000E+20
 24
1.0000000000E+20
 34
1.0000000000E+20
 15
-1.0000000000E+20
 25
-1.0000000000E+20
 35
-1.0000000000E+20
146
0.0
 13
0.0
 23
0.0
 33
0.0
 16
1.0
 26
0.0
 36
0.0
 17
0.0
 27
1.0
 37
0.0
 76
     0
330
1B
  0
LAYOUT
  5
26
102
{ACAD_REACTORS
330
1A
102
}
330
1A
100
AcDbPlotSettings
  1

  2
none_device
  4

  6

 40
0.0
 41
0.0
 42
0.0
 43
0.0
 44
0.0
 45
0.0
 46
0.0
 47
0.0
 48
0.0
 49
0.0
140
0.0
141
0.0
142
1.0
143
1.0
 70
   688
 72
     1
 73
     0
 74
     5
  7

 75
    16
147
1.0
148
0.0
149
0.0
100
AcDbLayout
  1
Layout2
 70
     1
 71
     2
 10
0.0
 20
0.0
 11
0.0
 21
0.0
 12
0.0
 22
0.0
 32
0.0
 14
0.0
 24
0.0
 34
0.0
 15
0.0
 25
0.0
 35
0.0
146
0.0
 13
0.0
 23
0.0
 33
0.0
 16
1.0
 26
0.0
 36
0.0
 17
0.0
 27
1.0
 37
0.0
 76
     0
330
23
  0
LAYOUT
  5
22
102
{ACAD_REACTORS
330
1A
102
}
330
1A
100
AcDbPlotSettings
  1

  2
none_device
  4
Letter_(8.50_x_11.00_Inches)
  6

 40
6.35
 41
6.35
 42
6.35000508
 43
6.35000508
 44
215.9
 45
279.4
 46
0.0
 47
0.0
 48
0.0
 49
0.0
140
0.0
141
0.0
142
1.0
143
1.0
 70
  1712
 72
     1
 73
     0
 74
     0
  7

 75
     0
147
1.0
148
0.0
149
0.0
100
AcDbLayout
  1
Model
 70
     1
 71
     0
 10
0.0
 20
0.0
 11
420.0
 21
297.0
 12
0.0
 22
0.0
 32
0.0
 14
0.0
 24
0.0
 34
0.0
 15
420.0
 25
297.0
 35
0.0
146
0.0
 13
0.0
 23
0.0
 33
0.0
 16
1.0
 26
0.0
 36
0.0
 17
0.0
 27
1.0
 37
0.0
 76
     0
330
1F
331
29
  0
MLINESTYLE
  5
18
102
{ACAD_REACTORS
330
17
102
}
330
17
100
AcDbMlineStyle
  2
Standard
 70
     0
  3

 62
   256
 51
90.0
 52
90.0
 71
     2
 49
0.5
 62
   256
  6
BYLAYER
 49
-0.5
 62
   256
  6
BYLAYER
  0
ACDBPLACEHOLDER
  5
F
102
{ACAD_REACTORS
330
E
102
}
330
E
  0
SCALE
  5
48
102
{ACAD_REACTORS
330
47
102
}
330
47
100
AcDbScale
 70
     0
300
1:1
140
1.0
141
1.0
290
     1
  0
SCALE
  5
49
102
{ACAD_REACTORS
330
47
102
}
330
47
100
AcDbScale
 70
     0
300
1:2
140
1.0
141
2.0
290
     0
  0
SCALE
  5
4A
102
{ACAD_REACTORS
330
47
102
}
330
47
100
AcDbScale
 70
     0
300
1:4
140
1.0
141
4.0
290
     0
  0
SCALE
  5
4B
102
{ACAD_REACTORS
330
47
102
}
330
47
100
AcDbScale
 70
     0
300
1:5
140
1.0
141
5.0
290
     0
  0
SCALE
  5
4C
102
{ACAD_REACTORS
330
47
102
}
330
47
100
AcDbScale
 70
     0
300
1:8
140
1.0
141
8.0
290
     0
  0
SCALE
  5
4D
102
{ACAD_REACTORS
330
47
102
}
330
47
100
AcDbScale
 70
     0
300
1:10
140
1.0
141
10.0
290
     0
  0
SCALE
  5
4E
102
{ACAD_REACTORS
330
47
102
}
330
47
100
AcDbScale
 70
     0
300
1:16
140
1.0
141
16.0
290
     0
  0
SCALE
  5
4F
102
{ACAD_REACTORS
330
47
102
}
330
47
100
AcDbScale
 70
     0
300
1:20
140
1.0
141
20.0
290
     0
  0
SCALE
  5
50
102
{ACAD_REACTORS
330
47
102
}
330
47
100
AcDbScale
 70
     0
300
1:30
140
1.0
141
30.0
290
     0
  0
SCALE
  5
51
102
{ACAD_REACTORS
330
47
102
}
330
47
100
AcDbScale
 70
     0
300
1:40
140
1.0
141
40.0
290
     0
  0
SCALE
  5
52
102
{ACAD_REACTORS
330
47
102
}
330
47
100
AcDbScale
 70
     0
300
1:50
140
1.0
141
50.0
290
     0
  0
SCALE
  5
53
102
{ACAD_REACTORS
330
47
102
}
330
47
100
AcDbScale
 70
     0
300
1:100
140
1.0
141
100.0
290
     0
  0
SCALE
  5
54
102
{ACAD_REACTORS
330
47
102
}
330
47
100
AcDbScale
 70
     0
300
2:1
140
2.0
141
1.0
290
     0
  0
SCALE
  5
55
102
{ACAD_REACTORS
330
47
102
}
330
47
100
AcDbScale
 70
     0
300
4:1
140
4.0
141
1.0
290
     0
  0
SCALE
  5
56
102
{ACAD_REACTORS
330
47
102
}
330
47
100
AcDbScale
 70
     0
300
8:1
140
8.0
141
1.0
290
     0
  0
SCALE
  5
57
102
{ACAD_REACTORS
330
47
102
}
330
47
100
AcDbScale
 70
     0
300
10:1
140
10.0
141
1.0
290
     0
  0
SCALE
  5
58
102
{ACAD_REACTORS
330
47
102
}
330
47
100
AcDbScale
 70
     0
300
100:1
140
100.0
141
1.0
290
     0
  0
SCALE
  5
59
102
{ACAD_REACTORS
330
47
102
}
330
47
100
AcDbScale
 70
     0
300
1/128" = 1'-0"
140
0.0078125
141
12.0
290
     0
  0
SCALE
  5
5A
102
{ACAD_REACTORS
330
47
102
}
330
47
100
AcDbScale
 70
     0
300
1/64" = 1'-0"
140
0.015625
141
12.0
290
     0
  0
SCALE
  5
5B
102
{ACAD_REACTORS
330
47
102
}
330
47
100
AcDbScale
 70
     0
300
1/32" = 1'-0"
140
0.03125
141
12.0
290
     0
  0
SCALE
  5
5C
102
{ACAD_REACTORS
330
47
102
}
330
47
100
AcDbScale
 70
     0
300
1/16" = 1'-0"
140
0.0625
141
12.0
290
     0
  0
SCALE
  5
5D
102
{ACAD_REACTORS
330
47
102
}
330
47
100
AcDbScale
 70
     0
300
3/32" = 1'-0"
140
0.09375
141
12.0
290
     0
  0
SCALE
  5
5E
102
{ACAD_REACTORS
330
47
102
}
330
47
100
AcDbScale
 70
     0
300
1/8" = 1'-0"
140
0.125
141
12.0
290
     0
  0
SCALE
  5
5F
102
{ACAD_REACTORS
330
47
102
}
330
47
100
AcDbScale
 70
     0
300
3/16" = 1'-0"
140
0.1875
141
12.0
290
     0
  0
SCALE
  5
60
102
{ACAD_REACTORS
330
47
102
}
330
47
100
AcDbScale
 70
     0
300
1/4" = 1'-0"
140
0.25
141
12.0
290
     0
  0
SCALE
  5
61
102
{ACAD_REACTORS
330
47
102
}
330
47
100
AcDbScale
 70
     0
300
3/8" = 1'-0"
140
0.375
141
12.0
290
     0
  0
SCALE
  5
62
102
{ACAD_REACTORS
330
47
102
}
330
47
100
AcDbScale
 70
     0
300
1/2" = 1'-0"
140
0.5
141
12.0
290
     0
  0
SCALE
  5
63
102
{ACAD_REACTORS
330
47
102
}
330
47
100
AcDbScale
 70
     0
300
3/4" = 1'-0"
140
0.75
141
12.0
290
     0
  0
SCALE
  5
64
102
{ACAD_REACTORS
330
47
102
}
330
47
100
AcDbScale
 70
     0
300
1" = 1'-0"
140
1.0
141
12.0
290
     0
  0
SCALE
  5
65
102
{ACAD_REACTORS
330
47
102
}
330
47
100
AcDbScale
 70
     0
300
1-1/2" = 1'-0"
140
1.5
141
12.0
290
     0
  0
SCALE
  5
66
102
{ACAD_REACTORS
330
47
102
}
330
47
100
AcDbScale
 70
     0
300
3" = 1'-0"
140
3.0
141
12.0
290
     0
  0
SCALE
  5
67
102
{ACAD_REACTORS
330
47
102
}
330
47
100
AcDbScale
 70
     0
300
6" = 1'-0"
140
6.0
141
12.0
290
     0
  0
SCALE
  5
68
102
{ACAD_REACTORS
330
47
102
}
330
47
100
AcDbScale
 70
     0
300
1'-0" = 1'-0"
140
12.0
141
12.0
290
     0
  0
ENDSEC
  0
EOF
